<svg id="logout_illustrator" xmlns="http://www.w3.org/2000/svg" xmlns:xlink="http://www.w3.org/1999/xlink" width="186" height="186" viewBox="0 0 186 186">
  <defs>
    <clipPath id="clip-path">
      <rect id="Rectangle_1503" data-name="Rectangle 1503" width="186" height="186" fill="#fff"/>
    </clipPath>
    <linearGradient id="linear-gradient" x1="0.488" y1="-0.011" x2="0.512" y2="1.041" gradientUnits="objectBoundingBox">
      <stop offset="0" stop-color="#fafaff"/>
      <stop offset="0.55" stop-color="#fafaff"/>
      <stop offset="1" stop-color="#e5f7f9"/>
    </linearGradient>
    <radialGradient id="radial-gradient" cx="0.51" cy="0.003" r="1.958" gradientUnits="objectBoundingBox">
      <stop offset="0" stop-color="#76938e"/>
      <stop offset="0.57" stop-color="#acd3d3" stop-opacity="0.22"/>
      <stop offset="0.73" stop-color="#d1e5e8" stop-opacity="0.11"/>
      <stop offset="0.95" stop-color="#fafaff" stop-opacity="0"/>
    </radialGradient>
    <linearGradient id="linear-gradient-2" x1="0.5" y1="-0.024" x2="0.5" y2="1.99" gradientUnits="objectBoundingBox">
      <stop offset="0" stop-color="#e3f0f0"/>
      <stop offset="1" stop-color="#e3f0f0"/>
    </linearGradient>
    <linearGradient id="linear-gradient-3" x1="0.5" y1="0.963" x2="0.5" y2="0.214" gradientUnits="objectBoundingBox">
      <stop offset="0" stop-color="#f4f5f9"/>
      <stop offset="1" stop-color="#d2d4e0"/>
    </linearGradient>
    <linearGradient id="linear-gradient-4" x1="0.445" y1="1.007" x2="0.507" y2="0.044" xlink:href="#linear-gradient-3"/>
    <linearGradient id="linear-gradient-5" x1="0.5" y1="0.968" x2="0.5" y2="0.233" xlink:href="#linear-gradient-3"/>
    <linearGradient id="linear-gradient-6" x1="0.289" y1="1.024" x2="0.65" y2="0.119" xlink:href="#linear-gradient-3"/>
    <linearGradient id="linear-gradient-7" x1="0" y1="0.5" x2="1" y2="0.5" xlink:href="#linear-gradient-3"/>
    <linearGradient id="linear-gradient-9" x1="0.49" y1="-0.225" x2="0.508" y2="1.087" xlink:href="#linear-gradient-3"/>
    <linearGradient id="linear-gradient-10" x1="0" y1="0.5" x2="1" y2="0.5" xlink:href="#linear-gradient-3"/>
    <linearGradient id="linear-gradient-11" x1="0" y1="0.5" x2="1" y2="0.5" xlink:href="#linear-gradient-3"/>
    <linearGradient id="linear-gradient-12" x1="0.334" y1="-0.023" x2="0.761" y2="1.324" xlink:href="#linear-gradient-3"/>
    <linearGradient id="linear-gradient-14" x1="0" y1="0.5" x2="1" y2="0.5" xlink:href="#linear-gradient-3"/>
    <linearGradient id="linear-gradient-15" y1="0.499" x2="1" y2="0.499" gradientUnits="objectBoundingBox">
      <stop offset="0" stop-color="#edac80"/>
      <stop offset="0.27" stop-color="#e6a579"/>
      <stop offset="0.65" stop-color="#d39367"/>
      <stop offset="1" stop-color="#bd7e52"/>
    </linearGradient>
    <linearGradient id="linear-gradient-16" x1="0" y1="0.5" x2="1" y2="0.5" xlink:href="#linear-gradient-15"/>
    <linearGradient id="linear-gradient-17" x1="0" y1="0.5" x2="1" y2="0.5" xlink:href="#linear-gradient-15"/>
    <linearGradient id="linear-gradient-18" x1="0" y1="0.5" x2="1" y2="0.5" xlink:href="#linear-gradient-15"/>
    <linearGradient id="linear-gradient-19" x1="0" y1="0.5" x2="1" y2="0.5" xlink:href="#linear-gradient-15"/>
    <linearGradient id="linear-gradient-20" x1="0" y1="0.5" x2="1" y2="0.5" xlink:href="#linear-gradient-15"/>
    <linearGradient id="linear-gradient-21" x1="0" y1="0.499" x2="1" y2="0.499" xlink:href="#linear-gradient-15"/>
    <linearGradient id="linear-gradient-22" x1="-0.098" y1="0.306" x2="8.688" y2="3.153" xlink:href="#linear-gradient-3"/>
    <linearGradient id="linear-gradient-23" x1="-0.141" y1="-0.593" x2="2.571" y2="3.522" xlink:href="#linear-gradient-3"/>
    <linearGradient id="linear-gradient-24" x1="-0.314" y1="-1.17" x2="1.607" y2="3.002" xlink:href="#linear-gradient-3"/>
    <linearGradient id="linear-gradient-25" x1="-0.473" y1="-0.976" x2="1.374" y2="1.825" xlink:href="#linear-gradient-3"/>
    <linearGradient id="linear-gradient-26" x1="-1.689" y1="-2.487" x2="1.452" y2="1.66" xlink:href="#linear-gradient-3"/>
    <linearGradient id="linear-gradient-27" x1="-6.158" y1="-1.923" x2="2.521" y2="1.245" xlink:href="#linear-gradient-3"/>
    <linearGradient id="linear-gradient-28" x1="-3.37" y1="-2.149" x2="1.214" y2="1.048" xlink:href="#linear-gradient-3"/>
  </defs>
  <g id="logout_illustrator-2" data-name="logout_illustrator" clip-path="url(#clip-path)">
    <g id="Logout" transform="translate(0.09)">
      <path id="Path_14967" data-name="Path 14967" d="M185.747,92.873h0a92.726,92.726,0,0,1-5.271,30.918q-.439,1.243-.911,2.47-1.078,2.8-2.331,5.508-1.408,3.051-3.029,5.98a92.837,92.837,0,0,1-5.393,8.605l-.077.11-.105.148-.005.007-.072.1q-.2.281-.4.56a93.405,93.405,0,0,1-9.845,11.5q-.283.281-.569.56l-.027.026a92.567,92.567,0,0,1-64.834,26.376h0A92.506,92.506,0,0,1,32.51,163.457q-2.3-1.97-4.471-4.085l-.027-.026q-.286-.279-.569-.56a93.4,93.4,0,0,1-9.845-11.5q-.164-.225-.326-.452l-.077-.108A92.445,92.445,0,0,1,0,92.874H0A92.874,92.874,0,0,1,92.873,0h0A92.874,92.874,0,0,1,185.747,92.873Z" transform="translate(0)" fill="url(#linear-gradient)"/>
      <path id="Path_14968" data-name="Path 14968" d="M174.973,201.124l-.105.149-.005.007a92.759,92.759,0,0,1-75.75,39.127h0a92.755,92.755,0,0,1-75.6-38.918l151.462-.365Z" transform="translate(-6.368 -54.48)" fill="url(#radial-gradient)"/>
      <g id="illustrator" transform="translate(13.531 17.682)">
        <g id="illustrator-2" data-name="illustrator">
          <path id="Path_14969" data-name="Path 14969" d="M26.891,200.113l146.444-.013s3.046,1.1-1.178,3-40.617-4.177-49.553.73,12.835,15.955-9.423,12.056-42.9-10.709-48.607-5.672-18.856,3.25-25.913-1.81c-6.38-4.575-11.681-5.557-12.136-7.617a.129.129,0,0,1,.008-.015s.219-.4.357-.655Z" transform="translate(-20.716 -71.884)" fill="url(#linear-gradient-2)"/>
          <g id="tree" transform="translate(0 4.543)">
            <path id="Path_14970" data-name="Path 14970" d="M214.141,75.084A14.569,14.569,0,0,0,200.523,49.47a19.651,19.651,0,0,0-38.744-3.943,13.463,13.463,0,0,0-6.6,26.1,27.464,27.464,0,0,0,44.564,25.69,13.445,13.445,0,0,0,14.4-22.232Z" transform="translate(-52.881 -30.48)" fill="#e3f0f0"/>
            <path id="Path_14971" data-name="Path 14971" d="M190.1,167h9.652V103.977l12.4-8.221H219.1v-.713l-5.609-.712,4.719-8.369-.579-.446-7.168,8.147-14.156,7.39-9.393-4.718-.757.935,7.078,7.479Z" transform="translate(-63.956 -45.389)" fill="url(#linear-gradient-3)"/>
            <path id="Path_14972" data-name="Path 14972" d="M213.476,51.937c.89,2.137-.668,6.188-2.226,7.034,0,0,2.983,1.6,4.184-2.137s-1.958-4.9-1.958-4.9Z" transform="translate(-70.754 -36.293)" fill="#e3f0f0"/>
            <path id="Path_14973" data-name="Path 14973" d="M238.733,66.131c.639,1.532-.479,4.437-1.6,5.043,0,0,2.139,1.149,3-1.532a2.629,2.629,0,0,0-1.4-3.511Z" transform="translate(-77.766 -40.139)" fill="#e3f0f0"/>
            <path id="Path_14974" data-name="Path 14974" d="M240.6,76.569c-.519,1.716-3.444,3.373-4.793,3.112,0,0,1,2.426,3.555.781a2.84,2.84,0,0,0,1.238-3.894Z" transform="translate(-77.406 -42.965)" fill="#e3f0f0"/>
            <path id="Path_14975" data-name="Path 14975" d="M228.813,74.275c-1.569,1.437-5.559,1.354-6.776.271,0,0-.455,3.079,3.154,2.951S228.813,74.275,228.813,74.275Z" transform="translate(-73.671 -42.344)" fill="#e3f0f0"/>
            <path id="Path_14976" data-name="Path 14976" d="M189.254,197.466a3.1,3.1,0,0,1,2.2-1.087,4.482,4.482,0,0,1,4.738-4.141c4.423.1,4.429,2.745,4.429,2.745s2.178-6.887,7.12-6.531a5.709,5.709,0,0,1,5.465,4.864s6.215-.12,6.81,4.121l-30.761.03Z" transform="translate(-64.796 -73.268)" fill="#e3f0f0"/>
            <path id="Path_14977" data-name="Path 14977" d="M152.657,195.827a4.354,4.354,0,0,1,3.64-2.133s.529-6.175,6.971-5.955,6.408,4.071,6.408,4.071,3.285-10,10.479-9.4a8.318,8.318,0,0,1,7.881,7.176s9.31-.032,10.035,6.239Z" transform="translate(-54.882 -71.629)" fill="#e3f0f0"/>
            <path id="Path_14978" data-name="Path 14978" d="M217.5,160.016a5.563,5.563,0,0,0-5.2-9.78A7.5,7.5,0,0,0,197.5,148.73a5.141,5.141,0,0,0-2.52,9.966A10.487,10.487,0,0,0,212,168.5a5.134,5.134,0,0,0,5.5-8.489Z" transform="translate(-65.322 -60.955)" fill="#acd3d3"/>
            <path id="Path_14979" data-name="Path 14979" d="M208.318,191.214H212v-20.58l4.734-3.139h2.652v-.272l-2.142-.272,1.8-3.2-.221-.17-2.737,3.111-5.406,2.822-3.587-1.8-.289.357,2.7,2.856Z" transform="translate(-69.551 -66.535)" fill="url(#linear-gradient-4)"/>
            <path id="Path_14980" data-name="Path 14980" d="M217.243,151.178a2.733,2.733,0,0,1-.85,2.686s1.139.612,1.6-.816A1.4,1.4,0,0,0,217.243,151.178Z" transform="translate(-72.146 -63.176)" fill="#e3f0f0"/>
            <path id="Path_14981" data-name="Path 14981" d="M226.887,156.6a1.959,1.959,0,0,1-.609,1.926s.817.439,1.146-.585a1,1,0,0,0-.536-1.341Z" transform="translate(-74.824 -64.643)" fill="#e3f0f0"/>
            <path id="Path_14982" data-name="Path 14982" d="M227.6,160.583a2.116,2.116,0,0,1-1.83,1.188.842.842,0,0,0,1.357.3,1.084,1.084,0,0,0,.473-1.487Z" transform="translate(-74.687 -65.723)" fill="#e3f0f0"/>
            <path id="Path_14983" data-name="Path 14983" d="M223.1,159.707a2.511,2.511,0,0,1-2.587.1s-.174,1.176,1.2,1.127A1.286,1.286,0,0,0,223.1,159.707Z" transform="translate(-73.261 -65.486)" fill="#e3f0f0"/>
            <path id="Path_14984" data-name="Path 14984" d="M21.963,138.734a7.569,7.569,0,0,1,7.075-13.308,10.209,10.209,0,0,1,20.129-2.049,6.995,6.995,0,0,1,3.428,13.56,14.269,14.269,0,0,1-23.153,13.347,6.985,6.985,0,0,1-7.48-11.55Z" transform="translate(-18.559 -53.527)" fill="#acd3d3"/>
            <path id="Path_14985" data-name="Path 14985" d="M42.652,181.746H37.638v-28L31.2,149.474H27.588v-.37l2.914-.37-2.452-4.348.3-.231,3.723,4.232,7.355,3.84,4.88-2.451.393.485-3.677,3.886Z" transform="translate(-21.004 -61.273)" fill="url(#linear-gradient-5)"/>
            <path id="Path_14986" data-name="Path 14986" d="M36.007,126.708a3.719,3.719,0,0,0,1.156,3.654s-1.55.833-2.174-1.11A1.9,1.9,0,0,1,36.007,126.708Z" transform="translate(-22.971 -56.547)" fill="#e3f0f0"/>
            <path id="Path_14987" data-name="Path 14987" d="M23.129,134.083a2.666,2.666,0,0,0,.829,2.62s-1.111.6-1.559-.8A1.366,1.366,0,0,1,23.129,134.083Z" transform="translate(-19.571 -58.545)" fill="#e3f0f0"/>
            <path id="Path_14988" data-name="Path 14988" d="M21.784,139.505a2.88,2.88,0,0,0,2.49,1.617,1.145,1.145,0,0,1-1.847.406,1.475,1.475,0,0,1-.643-2.023Z" transform="translate(-19.384 -60.014)" fill="#e3f0f0"/>
            <path id="Path_14989" data-name="Path 14989" d="M27.588,138.314a3.418,3.418,0,0,0,3.52.141s.236,1.6-1.639,1.533a1.751,1.751,0,0,1-1.882-1.674Z" transform="translate(-21.004 -59.691)" fill="#e3f0f0"/>
            <path id="Path_14990" data-name="Path 14990" d="M52.676,197.962H26.525a2.457,2.457,0,0,1,2.248-1.614,3.76,3.76,0,0,1,3.976-3.475c3.711.084,3.717,2.3,3.717,2.3s1.827-5.778,5.973-5.481a4.79,4.79,0,0,1,4.585,4.081s6.024-.087,5.842,4.225a.747.747,0,0,0-.191-.038Z" transform="translate(-20.716 -73.605)" fill="#e3f0f0"/>
          </g>
          <g id="stand" transform="translate(132.47 76.339)">
            <path id="Path_14991" data-name="Path 14991" d="M201.337,181.482h-1.1V138.006a8.585,8.585,0,0,1,8.576-8.576H224.6v1.095H208.817a7.489,7.489,0,0,0-7.481,7.481v43.476Z" transform="translate(-200.242 -129.08)" fill="#fff"/>
            <rect id="Rectangle_1548" data-name="Rectangle 1548" width="0.304" height="2.819" transform="translate(7.964)" fill="#fff"/>
            <rect id="Rectangle_1549" data-name="Rectangle 1549" width="0.304" height="2.819" transform="translate(23.596)" fill="#fff"/>
            <rect id="Rectangle_1550" data-name="Rectangle 1550" width="17.239" height="15.938" transform="translate(7.118 2.32)" fill="#fff"/>
          </g>
          <g id="house" transform="translate(20.84 23.5)">
            <rect id="Rectangle_1551" data-name="Rectangle 1551" width="66.365" height="61.549" transform="translate(4.832 42.222)" fill="#f4f5f9"/>
            <path id="Path_14992" data-name="Path 14992" d="M175.713,161.507l-55.8-.008.015-100.423,55.8,17.189Z" transform="translate(-66.852 -57.726)" fill="#f4f5f9"/>
            <path id="Path_14993" data-name="Path 14993" d="M192.217,83.343v84.2H195.3l.012-83.243Z" transform="translate(-86.439 -63.757)" fill="url(#linear-gradient-6)"/>
            <path id="Path_14994" data-name="Path 14994" d="M175.729,78.263v8.612L119.923,69.688V61.076Z" transform="translate(-66.856 -57.726)" fill="url(#linear-gradient-7)"/>
            <path id="Path_14995" data-name="Path 14995" d="M165.46,198.813,51.014,198.8c-2.139,0-3.873-.2-3.874,1.936l122.193.018C169.334,198.611,167.6,198.813,165.46,198.813Z" transform="translate(-47.141 -95.03)" fill="#fff"/>
            <rect id="Rectangle_1552" data-name="Rectangle 1552" width="15.789" height="26.878" transform="translate(83.335 85.553) rotate(-89.99)" fill="#fff"/>
            <path id="Path_14996" data-name="Path 14996" d="M187.831,153.583l0,13.72-25.349,0,0-13.719Z" transform="translate(-78.383 -82.783)" fill="url(#linear-gradient-7)"/>
            <path id="Path_14997" data-name="Path 14997" d="M177.486,153.515l10.227,14-3.145-.083-5.191-6.325,1.995,6.24-8.027-.213-10.609-14.006,6.925.183,4.674,6.986-2.516-6.929Z" transform="translate(-78.452 -82.66)" fill="url(#linear-gradient-9)"/>
            <path id="Path_14998" data-name="Path 14998" d="M180.085,152.533l0,15.249h-.7l0-15.249Z" transform="translate(-82.962 -82.5)" fill="#fff"/>
            <path id="Path_14999" data-name="Path 14999" d="M97.359,176.782l-31.195,0,.006-42.021,31.195,0Z" transform="translate(-52.293 -77.684)" fill="#fff"/>
            <rect id="Rectangle_1553" data-name="Rectangle 1553" width="28.681" height="39.711" transform="translate(15.131 58.219)" fill="url(#linear-gradient-10)"/>
            <path id="Path_15000" data-name="Path 15000" d="M87.813,175.724H87L87,135.16h.818Z" transform="translate(-57.937 -77.793)" fill="#fff"/>
            <path id="Path_15001" data-name="Path 15001" d="M86.133,129.542h3.774v1.509H86.133Z" transform="translate(-57.702 -76.271)" fill="#fff"/>
            <rect id="Rectangle_1554" data-name="Rectangle 1554" width="3.773" height="1.509" transform="translate(28.41 51.752) rotate(-179.99)" fill="#fff"/>
            <path id="Path_15002" data-name="Path 15002" d="M86.133,125.4h3.774v1.51H86.133Z" transform="translate(-57.702 -75.15)" fill="#f6f6f6"/>
            <rect id="Rectangle_1555" data-name="Rectangle 1555" width="3.773" height="1.509" transform="translate(96.005 96.111)" fill="#fff"/>
            <rect id="Rectangle_1556" data-name="Rectangle 1556" width="3.773" height="1.509" transform="translate(94.235 94.59)" fill="#fff"/>
            <path id="Path_15003" data-name="Path 15003" d="M181.584,186.227h3.773v1.509h-3.773Z" transform="translate(-83.558 -91.627)" fill="#fff"/>
            <rect id="Rectangle_1557" data-name="Rectangle 1557" width="3.773" height="1.509" transform="translate(87.298 57.67)" fill="#fff"/>
            <rect id="Rectangle_1558" data-name="Rectangle 1558" width="3.773" height="1.509" transform="translate(89.066 59.191)" fill="#fff"/>
            <rect id="Rectangle_1559" data-name="Rectangle 1559" width="3.773" height="1.51" transform="translate(85.276 59.18)" fill="#fff"/>
            <rect id="Rectangle_1560" data-name="Rectangle 1560" width="57.166" height="1.688" transform="translate(52.097 48.721)" fill="url(#linear-gradient-11)"/>
            <path id="Path_15004" data-name="Path 15004" d="M64.856,111.2H63.734v-8.6h1.121Z" transform="translate(-51.635 -68.973)" fill="#e3f0f0"/>
            <rect id="Rectangle_1561" data-name="Rectangle 1561" width="1.121" height="8.599" transform="translate(19.875 33.625)" fill="#e3f0f0"/>
            <rect id="Rectangle_1562" data-name="Rectangle 1562" width="1.121" height="8.599" transform="translate(27.651 33.627)" fill="#e3f0f0"/>
            <rect id="Rectangle_1563" data-name="Rectangle 1563" width="1.121" height="8.599" transform="translate(35.427 33.627)" fill="#e3f0f0"/>
            <rect id="Rectangle_1564" data-name="Rectangle 1564" width="1.121" height="8.599" transform="translate(43.202 33.629)" fill="#e3f0f0"/>
            <rect id="Rectangle_1565" data-name="Rectangle 1565" width="1.121" height="8.599" transform="translate(50.978 33.629)" fill="#e1d7db"/>
            <path id="Path_15005" data-name="Path 15005" d="M118.178,107.2l-1.121-3.285V102.6h1.121Z" transform="translate(-66.079 -68.975)" fill="#e3f0f0"/>
            <path id="Path_15006" data-name="Path 15006" d="M104.6,102.914l-42.3-.006v-.99l42.3.006Z" transform="translate(-51.249 -68.789)" fill="#e3f0f0"/>
            <path id="Path_15007" data-name="Path 15007" d="M179.268,82.841l-69.592-21.46,1.51-4.9,69.593,21.46Z" transform="translate(-64.08 -56.481)" fill="#fff"/>
            <path id="Path_15008" data-name="Path 15008" d="M162.327,97.543a7.28,7.28,0,1,1-7.28-7.282A7.28,7.28,0,0,1,162.327,97.543Z" transform="translate(-74.397 -65.631)" fill="#fff"/>
            <path id="Path_15009" data-name="Path 15009" d="M161.693,97.918a6.271,6.271,0,1,1-6.27-6.271,6.27,6.27,0,0,1,6.27,6.271Z" transform="translate(-74.772 -66.006)" fill="url(#linear-gradient-12)"/>
            <rect id="Rectangle_1566" data-name="Rectangle 1566" width="0.837" height="14.561" transform="translate(80.231 24.631)" fill="#fff"/>
            <path id="Path_15010" data-name="Path 15010" d="M162.327,99.673v.837l-14.561,0v-.837Z" transform="translate(-74.397 -68.18)" fill="#fff"/>
            <rect id="Rectangle_1567" data-name="Rectangle 1567" width="21.583" height="37.726" transform="translate(58.698 66.148)" fill="#fff"/>
            <rect id="Rectangle_1568" data-name="Rectangle 1568" width="19.261" height="36.668" transform="translate(59.859 67.207)" fill="url(#linear-gradient-10)"/>
            <path id="Path_15011" data-name="Path 15011" d="M134.19,173.6h-3.285v-.529h3.284Z" transform="translate(-69.83 -88.063)" fill="#fff"/>
          </g>
          <g id="stars" transform="translate(85.649 40.021)">
            <path id="Path_15012" data-name="Path 15012" d="M142.337,92.442c0-.083-.365-.151-.843-.165-.013-.478-.082-.843-.165-.843s-.152.365-.165.843c-.478.013-.843.082-.843.165s.365.152.843.165c.013.478.082.843.165.843s.151-.365.165-.843C141.972,92.594,142.337,92.525,142.337,92.442Z" transform="translate(-137.19 -82.47)" fill="#e3f0f0"/>
            <path id="Path_15013" data-name="Path 15013" d="M138.82,80.537c0-.115-.506-.21-1.168-.228-.018-.662-.113-1.168-.228-1.168s-.21.506-.228,1.168c-.662.018-1.168.113-1.168.228s.506.21,1.168.228c.018.662.113,1.168.228,1.168s.21-.506.228-1.168C138.314,80.747,138.82,80.652,138.82,80.537Z" transform="translate(-136.026 -79.14)" fill="#e3f0f0"/>
            <path id="Path_15014" data-name="Path 15014" d="M147.978,85.012c0-.1-.446-.185-1.029-.2-.016-.583-.1-1.029-.2-1.029s-.185.446-.2,1.029c-.583.016-1.03.1-1.03.2s.446.185,1.03.2c.016.583.1,1.029.2,1.029s.185-.446.2-1.029C147.532,85.2,147.978,85.113,147.978,85.012Z" transform="translate(-138.597 -80.397)" fill="url(#linear-gradient-14)"/>
          </g>
          <path id="Path_15015" data-name="Path 15015" d="M53.09,44.043H87.605s1.207-10.384-6.491-10.384-6.856,7.263-6.856,7.263-.648-4.468-6.309-4.195c-4.63.223-4.965,3.539-4.965,3.539S54.241,39.534,53.09,44.043Z" transform="translate(-27.912 -26.799)" fill="#68d8cf"/>
          <path id="Path_15016" data-name="Path 15016" d="M154.769,30.942h-22.24s-.777-6.691,4.183-6.691a4.1,4.1,0,0,1,4.418,4.68s.417-2.879,4.065-2.7c2.983.144,3.2,2.28,3.2,2.28s5.634-.472,6.375,2.434Z" transform="translate(-49.418 -24.25)" fill="#68d8cf"/>
          <g id="man" transform="translate(62.043 49.452)">
            <g id="Foot" transform="translate(17.88 76.836)">
              <path id="Path_15017" data-name="Path 15017" d="M128.173,198.132c.04.174.609,3.187,1.008,3.462s2.2-.109,2.291-.525a34.633,34.633,0,0,0-.341-3.615l-2.958.678Z" transform="translate(-128.173 -197.454)" fill="#ffd2b3"/>
              <path id="Path_15018" data-name="Path 15018" d="M128.657,201.727c-.335-.248-.277,3.716,0,3.821s7.358.291,8.013,0a1,1,0,0,0-.4-1.832c-1.091-.223-3.378-.621-4.072-1.493a7.971,7.971,0,0,0-.649-1.6c-.178-.109-.247,1.1-.247,1.1s-1.844.595-2.648,0Z" transform="translate(-128.242 -198.311)" fill="#d1553d"/>
              <path id="Path_15019" data-name="Path 15019" d="M128.426,206.491c-.008.139-.01.755.24.8s8.248.11,8.3,0a5.829,5.829,0,0,0,.1-.6c.026-.078-8.637-.208-8.637-.208Z" transform="translate(-128.241 -199.901)" fill="#ae3b2a"/>
              <path id="Path_15020" data-name="Path 15020" d="M134.341,204.189c-.191-.216.233-.719.357-.684S134.53,204.4,134.341,204.189Z" transform="translate(-129.83 -199.092)" fill="#fff"/>
              <path id="Path_15021" data-name="Path 15021" d="M135.287,204.5c-.191-.216.233-.719.357-.684S135.475,204.708,135.287,204.5Z" transform="translate(-130.086 -199.175)" fill="#fff"/>
              <path id="Path_15022" data-name="Path 15022" d="M136.436,204.74c-.191-.216.233-.719.357-.684S136.625,204.953,136.436,204.74Z" transform="translate(-130.398 -199.241)" fill="#fff"/>
              <path id="Path_15023" data-name="Path 15023" d="M131.689,204.536a.684.684,0,1,1-.684-.684A.684.684,0,0,1,131.689,204.536Z" transform="translate(-128.754 -199.187)" fill="#ae3b2a"/>
            </g>
            <g id="Leg" transform="translate(6.385 32.467)">
              <path id="Path_15024" data-name="Path 15024" d="M124.689,136.6c.747,9.121,3.359,40.926,3.814,44.86-.741.329-4.169,1.278-4.993.454-.8-.8-9.973-42.5-10.592-45.315h11.772Z" transform="translate(-112.545 -136.602)" fill="#2a454d"/>
              <path id="Path_15025" data-name="Path 15025" d="M118.757,137.057l-.342,10.2.43,8.308s4.96,27.93,4.527,26.35c-2.307-8.388-10.5-43.35-10.964-45.315l6.35.454Z" transform="translate(-112.407 -136.602)" fill="#1b2e36"/>
            </g>
            <g id="Foot-2" data-name="Foot" transform="translate(2.289 76.52)">
              <path id="Path_15026" data-name="Path 15026" d="M108.737,201.775c-.982,0-1.863-.045-1.919.435s-.056,3.815.245,3.948,6.759,0,7.395,0,.39-2.287-1.573-2.331l-2.42-1.952-1.729-.1Z" transform="translate(-106.79 -198.308)" fill="#d1553d"/>
              <path id="Path_15027" data-name="Path 15027" d="M106.93,206.858c0-.005,2.849.131,4.443.123a3.031,3.031,0,0,1,1.917-.48,2.061,2.061,0,0,1,1.517.357c.072.072.212.76-.1.815s-7.486.123-7.607,0c-.24-.243-.17-.815-.17-.815Z" transform="translate(-106.825 -199.588)" fill="#ae3b2a"/>
              <path id="Path_15028" data-name="Path 15028" d="M107.051,197.02c0,.2.178,3.228.234,4.049.368.4,2.659.532,2.86.1,0-.68.319-4.146.319-4.146h-3.413Z" transform="translate(-106.861 -197.02)" fill="#ffd2b3"/>
              <path id="Path_15029" data-name="Path 15029" d="M108.5,202.346c-.151-.241-.279-1.629.334-2.041s1.571-.368,1.8,0a8.686,8.686,0,0,1,.524,1.987c.033.277-2.242.712-2.655.054Z" transform="translate(-107.218 -197.83)" fill="#d1553d"/>
              <path id="Path_15030" data-name="Path 15030" d="M110.91,205.481A4.038,4.038,0,0,1,114,204.466a2.093,2.093,0,0,0-2.163-.126C110.748,204.734,110.91,205.481,110.91,205.481Z" transform="translate(-107.904 -198.947)" fill="#ae3b2a"/>
              <ellipse id="Ellipse_246" data-name="Ellipse 246" cx="0.494" cy="0.656" rx="0.494" ry="0.656" transform="translate(0.369 4.861)" fill="#ae3b2a"/>
              <path id="Path_15031" data-name="Path 15031" d="M111.385,203.944c.279-.157,1.684-.246,1.372-.436s-1.361.034-1.439.279S111.385,203.944,111.385,203.944Z" transform="translate(-108.01 -198.758)" fill="#fff"/>
              <path id="Path_15032" data-name="Path 15032" d="M110.789,203.288c.279-.157,1.684-.246,1.372-.436s-1.361.033-1.439.279S110.789,203.288,110.789,203.288Z" transform="translate(-107.849 -198.58)" fill="#fff"/>
              <path id="Path_15033" data-name="Path 15033" d="M110.192,202.631c.279-.157,1.684-.247,1.372-.436s-1.361.034-1.439.279S110.192,202.631,110.192,202.631Z" transform="translate(-107.687 -198.402)" fill="#fff"/>
            </g>
            <g id="Leg-2" data-name="Leg" transform="translate(1.113 32.922)">
              <path id="Path_15034" data-name="Path 15034" d="M116.625,137.932c-.448,1.393-1.531,6.5-1.531,6.5s-3.8,37.08-4.1,37.439c-.412.494-2.909.751-4.641-.052-.625-1.407-1.119-40.589-1.176-44.6l11.449.706Z" transform="translate(-105.177 -137.226)" fill="#2a454d"/>
            </g>
            <g id="Line" transform="translate(2.86 35.604)">
              <path id="Path_15035" data-name="Path 15035" d="M107.573,143.2c-.005-.253,1.082-.441,2.238-1.075,1.173-.609,2.005-1.347,2.189-1.2.092.072-.01.377-.315.76a4.671,4.671,0,0,1-1.477,1.194,4.283,4.283,0,0,1-1.838.519c-.493.017-.794-.09-.8-.2Z" transform="translate(-107.573 -140.904)" fill="#1b2e36"/>
            </g>
            <path id="Path_15036" data-name="Path 15036" d="M142.027,112.853a5.447,5.447,0,0,1,1.6-1.114c.4-.007,2.1-.559,2.239-.461s.129.483-.433.735-1.171.181-.964.46,1.1.468,1.1.468a7.02,7.02,0,0,1,1.795-.472.24.24,0,0,1,.106.243c.319-.151.645-.23.736-.006.038.094-.5.492-.951.9a2.518,2.518,0,0,1-1.227.65,3.958,3.958,0,0,1-.734-.04l-.386.394s-.587,0-1.19-.025c-.023.035-.988.8-.988.8l-1.369-2,.665-.535Z" transform="translate(-113.865 -97.27)" fill="#ffd2b3"/>
            <path id="Path_15037" data-name="Path 15037" d="M144.01,113.872s.038-.02.113-.035a.85.85,0,0,1,.329.013,2.7,2.7,0,0,1,.489.157c.092.038.188.081.287.13.049.024.1.05.151.077l.077.042.095.054.26-.163.259-.156c.178-.1.364-.212.559-.312.088-.045.176-.087.264-.121a.986.986,0,0,1,.131-.043.233.233,0,0,1,.061-.007.043.043,0,0,1,.019,0s0,0,0,0c.006.021-.021.07-.039.107a.987.987,0,0,1-.067.114,2.57,2.57,0,0,1-.155.21,8.618,8.618,0,0,1-.619.668c-.185.183-.338.327-.443.427a1.514,1.514,0,0,0-.16.16,1.241,1.241,0,0,0,.179-.139c.111-.094.27-.233.46-.412a7.671,7.671,0,0,0,.634-.662,2.471,2.471,0,0,0,.161-.214.975.975,0,0,0,.072-.121.265.265,0,0,0,.045-.153.08.08,0,0,0-.037-.05.118.118,0,0,0-.049-.013.292.292,0,0,0-.08.008,1,1,0,0,0-.142.045c-.092.036-.181.079-.27.124-.2.1-.385.209-.562.316l-.259.159-.227.145-.063-.034-.079-.041c-.052-.027-.1-.052-.154-.075-.1-.047-.2-.089-.292-.126a2.507,2.507,0,0,0-.5-.145.79.79,0,0,0-.34,0,.306.306,0,0,0-.084.035c-.017.011-.025.018-.025.019Z" transform="translate(-114.583 -97.857)" fill="url(#linear-gradient-15)"/>
            <path id="Path_15038" data-name="Path 15038" d="M144.2,115.139s-.027-.021-.081-.045a1.588,1.588,0,0,1-.22-.108l-.07-.041a.4.4,0,0,1-.073-.048c-.046-.039-.1-.075-.148-.123a1.278,1.278,0,0,1-.257-.353,1.509,1.509,0,0,1-.087-.211,1.982,1.982,0,0,1-.048-.208,2.074,2.074,0,0,1-.03-.362c0-.208.027-.336.017-.338a.875.875,0,0,0-.067.336,1.786,1.786,0,0,0,.061.592l.04.111a.644.644,0,0,0,.049.111,1.256,1.256,0,0,0,.276.369,1.861,1.861,0,0,0,.159.123.4.4,0,0,0,.078.047l.075.038a1.091,1.091,0,0,0,.235.09c.057.017.089.024.09.019Z" transform="translate(-114.345 -97.82)" fill="url(#linear-gradient-16)"/>
            <path id="Path_15039" data-name="Path 15039" d="M147.63,113.975s.046.02.127,0a.788.788,0,0,0,.3-.19,2.163,2.163,0,0,0,.168-.18.892.892,0,0,1,.211-.175.812.812,0,0,1,.286-.1.627.627,0,0,1,.161,0,.33.33,0,0,1,.077.017.079.079,0,0,1,.037.023s0,.007-.008.014l-.017.025c-.012.017-.026.034-.04.051-.028.034-.058.068-.089.1-.061.068-.125.136-.19.2-.211.221-.416.427-.6.614l-.267.263a.618.618,0,0,1-.062.056.268.268,0,0,1-.066.034.836.836,0,0,1-.148.032,3.179,3.179,0,0,1-.47.017,1.042,1.042,0,0,0-.174,0,.672.672,0,0,0,.173.028,2.55,2.55,0,0,0,.478.005.906.906,0,0,0,.16-.03.311.311,0,0,0,.083-.041.684.684,0,0,0,.068-.058c.087-.08.178-.168.273-.26.19-.185.4-.39.609-.612.065-.069.129-.137.191-.206.031-.034.061-.069.09-.1.015-.018.029-.036.042-.054l.02-.03a.121.121,0,0,0,.019-.046.081.081,0,0,0-.035-.067.2.2,0,0,0-.048-.025.366.366,0,0,0-.094-.02.683.683,0,0,0-.178.007.852.852,0,0,0-.306.117.936.936,0,0,0-.22.191,2.34,2.34,0,0,1-.159.183.841.841,0,0,1-.274.2.419.419,0,0,1-.119.027Z" transform="translate(-115.354 -97.807)" fill="url(#linear-gradient-17)"/>
            <path id="Path_15040" data-name="Path 15040" d="M120.414,106.57l1.786.446,5.553,8.043,8.259-3.441,1.733,2.418s-7.131,7.1-10.049,7.739c-1.439.317-5.272-2.433-5.272-2.433l-2.01-12.773Z" transform="translate(-108.191 -95.998)" fill="#3e9999"/>
            <path id="Path_15041" data-name="Path 15041" d="M130.247,118.382c-.212-.59-1.006,2.651-.95,3S130.387,118.771,130.247,118.382Z" transform="translate(-110.597 -99.18)" fill="#087c7c"/>
            <path id="Path_15042" data-name="Path 15042" d="M115.874,106.594l-6.145.038s-4.658,14.716-6.077,22.232c2.555,2.074,11.82,3.515,18.865.489C122.386,126.172,115.874,106.594,115.874,106.594Z" transform="translate(-103.65 -96.006)" fill="#238a8a"/>
            <path id="Path_15043" data-name="Path 15043" d="M114.221,108.028l2.812,15.905-3.721-9.922.571-.792-1.8-2.543Z" transform="translate(-105.935 -96.395)" fill="#087c7c"/>
            <path id="Path_15044" data-name="Path 15044" d="M118.779,107.809l.179,16.1,1.55-10.221-.87-1,1.348-2.343Z" transform="translate(-107.748 -96.336)" fill="#087c7c"/>
            <path id="Path_15045" data-name="Path 15045" d="M114.881,106.653a16.24,16.24,0,0,1,3,0s.334,16.106-.044,17.166c0,0-3.558-14.6-2.959-17.166Z" transform="translate(-106.674 -96)" fill="#e3f0f0"/>
            <g id="head">
              <path id="Path_15046" data-name="Path 15046" d="M112.443,94.148a2.154,2.154,0,0,1,1.476-2,3.061,3.061,0,0,1,2.7.964.729.729,0,0,1,.908-.783c.98.1.811,1.2.811,1.2a.767.767,0,0,1,1.063.271,2.1,2.1,0,0,1-.631,2.5,1.17,1.17,0,0,1-.918,1.93,1.177,1.177,0,0,1-1.266,1.017,1.162,1.162,0,0,1-.22-.044,2.584,2.584,0,0,1-.382,1.1c-.559.649-3.542-.106-3.224-.958a1.3,1.3,0,0,0,.075-.3,1.222,1.222,0,0,1-1.051-1.316,1.2,1.2,0,0,1,.019-.13c-2.707-3.052.645-3.453.645-3.453Z" transform="translate(-105.57 -92.074)" fill="#1b2e36"/>
              <path id="Path_15047" data-name="Path 15047" d="M114.152,97.932c-.725.424-.331,3.118.927,3.231a9.588,9.588,0,0,0,1.075-2.367s-1.531-1.139-2-.864Z" transform="translate(-106.396 -93.648)" fill="#1b2e36"/>
              <path id="Path_15048" data-name="Path 15048" d="M114.864,100.311l2.317,1.483a9.666,9.666,0,0,0,.288,2.612.726.726,0,0,1-.348,1.183c-1.051.433-1.931-.16-2.647-1.09.564-.014.39-4.188.39-4.188Z" transform="translate(-106.582 -94.305)" fill="#ffd2b3"/>
              <path id="Path_15049" data-name="Path 15049" d="M118,105.1c-1.565-.494-1.748-2.515-1.748-2.515l1.44.862a4.376,4.376,0,0,0,.255,1.577.369.369,0,0,1,.053.076Z" transform="translate(-107.064 -94.92)" fill="url(#linear-gradient-18)"/>
              <path id="Path_15050" data-name="Path 15050" d="M120.893,96.246a3.92,3.92,0,0,1,.035,1.626c-.169.908-1.136-1.3-1.136-1.3l1.1-.331Z" transform="translate(-108.022 -93.201)" fill="#1b2e36"/>
              <path id="Path_15051" data-name="Path 15051" d="M117.6,102.391c-1.375.213-2.367-.847-2.72-2.462a.723.723,0,0,1-.745-.748c-.019-.619.228-.619.357-.623l.007.007,1.193,0a.928.928,0,0,0,.684-.433c.255-.418.566-.634,1.763-.616a1.177,1.177,0,0,0,.764-.281,14.971,14.971,0,0,0,.566,1.713,2.515,2.515,0,0,1-1.869,3.446Z" transform="translate(-106.491 -93.469)" fill="#ffd2b3"/>
              <path id="Path_15052" data-name="Path 15052" d="M118.114,99.135a.054.054,0,0,0-.026-.1.581.581,0,0,0-.611.365.054.054,0,0,0,.026.072.059.059,0,0,0,.072-.026.921.921,0,0,1,.507-.3.053.053,0,0,0,.033-.009Z" transform="translate(-107.394 -93.957)" fill="#1b2e36"/>
              <path id="Path_15053" data-name="Path 15053" d="M119.828,101.361a.054.054,0,0,0,.1.035.581.581,0,0,0,.052-.71.054.054,0,0,0-.073-.02.059.059,0,0,0-.02.073.921.921,0,0,1-.043.59.055.055,0,0,0-.012.032Z" transform="translate(-108.032 -94.398)" fill="#1b2e36"/>
              <path id="Path_15054" data-name="Path 15054" d="M114.645,99.6l.006,0a.035.035,0,0,1,.032.011.037.037,0,0,1,.007.032.035.035,0,0,1-.012.02.626.626,0,0,0-.109.388.04.04,0,0,1-.023.046.037.037,0,0,1-.046-.023.4.4,0,0,1,.019-.334.345.345,0,0,0-.068.091.027.027,0,0,1-.03.018.025.025,0,0,1-.018-.03.267.267,0,0,1,.243-.219Z" transform="translate(-106.563 -94.111)" fill="#1b2e36"/>
              <path id="Path_15055" data-name="Path 15055" d="M118.049,99.974c.036.123.138.2.227.175a.208.208,0,0,0,.1-.27c-.036-.123-.138-.2-.227-.175a.208.208,0,0,0-.1.27Z" transform="translate(-107.547 -94.137)" fill="#1b2e36"/>
              <path id="Path_15056" data-name="Path 15056" d="M120.867,98.827a.039.039,0,0,0,.028-.027.064.064,0,0,0-.022-.072.377.377,0,0,0-.546.074.064.064,0,0,0,0,.075.04.04,0,0,0,.059.007.565.565,0,0,1,.453-.062.035.035,0,0,0,.027.006Z" transform="translate(-108.164 -93.852)" fill="#1b2e36"/>
              <path id="Path_15057" data-name="Path 15057" d="M120.416,99.585c-.013.127.051.238.144.248s.178-.086.191-.213-.051-.238-.144-.248-.178.086-.191.213Z" transform="translate(-108.19 -94.049)" fill="#1b2e36"/>
              <path id="Path_15058" data-name="Path 15058" d="M118.589,102.359a3.312,3.312,0,0,0,1.615-.006S119.5,103.8,118.589,102.359Z" transform="translate(-107.696 -94.855)" fill="#fff"/>
            </g>
            <path id="Path_15059" data-name="Path 15059" d="M113.954,106.266s.5-.879.521-.879a4.9,4.9,0,0,0,2.807.022,6,6,0,0,1,.437.666c.048.136.969,1.4-.345,1.819-.531.168-.941-.62-.941-.62a1.058,1.058,0,0,1-.9.7,1.6,1.6,0,0,1-1.577-1.71Z" transform="translate(-106.441 -95.68)" fill="#087c7c"/>
            <path id="Path_15060" data-name="Path 15060" d="M118.891,130.168s.414,6.986.366,6.87A18.019,18.019,0,0,1,118.891,130.168Z" transform="translate(-107.735 -102.393)" fill="#087c7c"/>
            <g id="Hand" transform="translate(15.17 7.818)">
              <path id="Path_15061" data-name="Path 15061" d="M124.869,105.364a4.138,4.138,0,0,1,1.263-1.521,16.99,16.99,0,0,1,2.5-1.047,1.173,1.173,0,0,1,.139.378c-.005.2-.266.448-.617.629.264-.079.761-.177.761-.177a1.309,1.309,0,0,1,.044.449,1.124,1.124,0,0,1-.528.462c.193-.036.515-.116.515-.116a1.435,1.435,0,0,1,0,.495,1.726,1.726,0,0,1-.77.524,3.91,3.91,0,0,1,.673-.089,2.1,2.1,0,0,1-.071.453c-.189.382-1.4.879-1.4.879a2.7,2.7,0,0,1-.779,2.252,19.764,19.764,0,0,1-2.141-1.824,8.019,8.019,0,0,1,.413-1.745Z" transform="translate(-124.457 -102.797)" fill="#ffd2b3"/>
              <path id="Path_15062" data-name="Path 15062" d="M127.7,104.765a.761.761,0,0,0,.2-.088c.118-.058.282-.134.467-.212a5.939,5.939,0,0,0,.669-.289,2.477,2.477,0,0,0-.7.218,3.3,3.3,0,0,0-.463.235c-.113.071-.175.128-.169.135Z" transform="translate(-125.335 -103.17)" fill="url(#linear-gradient-19)"/>
              <path id="Path_15063" data-name="Path 15063" d="M128.15,105.717a.641.641,0,0,0,.193-.068l.453-.185a4.016,4.016,0,0,0,.635-.28,2.613,2.613,0,0,0-.664.209,4.288,4.288,0,0,0-.447.207c-.111.061-.174.109-.169.118Z" transform="translate(-125.458 -103.441)" fill="url(#linear-gradient-20)"/>
              <path id="Path_15064" data-name="Path 15064" d="M128.687,106.666a2.177,2.177,0,0,0,.762-.293,2.177,2.177,0,0,0-.762.293Z" transform="translate(-125.603 -103.764)" fill="url(#linear-gradient-21)"/>
            </g>
            <path id="Path_15065" data-name="Path 15065" d="M107.236,107.279s-2.714,3.873-3.032,5.385c-.564,2.681.913,9.29,4.655,9.919,2.581.434,13.255-13,13.255-13l-3.3-2.051-9.543,8.074.58-8.96-2.611.633Z" transform="translate(-103.769 -96.021)" fill="#3e9999"/>
            <path id="Path_15066" data-name="Path 15066" d="M110.916,118.935c-.226.293-1.087,2.2-.613,2.6S110.916,118.935,110.916,118.935Z" transform="translate(-105.415 -99.35)" fill="#087c7c"/>
          </g>
          <g id="bag" transform="translate(50.554 116.966)">
            <path id="Path_15067" data-name="Path 15067" d="M102.774,184.692l-2.036-.022a2.743,2.743,0,0,0-2.772,2.714l-.04,3.781a.9.9,0,0,0,.894.913h.048l.053-5.029c.007-.647.315-1.171.688-1.167l4.268.045c.373,0,.67.534.663,1.181l-.054,5.029h.048a.9.9,0,0,0,.913-.894l.04-3.781a2.743,2.743,0,0,0-2.714-2.772Z" transform="translate(-90.611 -184.67)" fill="#1b2e36"/>
            <path id="Path_15068" data-name="Path 15068" d="M110.017,190.066l-.047,4.38-22.018-.234.047-4.38a2.015,2.015,0,0,1,1.93-2.088l18.2.194a2.016,2.016,0,0,1,1.885,2.129Z" transform="translate(-87.91 -185.503)" fill="#395b64"/>
            <path id="Path_15069" data-name="Path 15069" d="M109.931,196.707l-.068,6.388a1.976,1.976,0,0,1-1.925,2.02l-18.163-.193a1.975,1.975,0,0,1-1.881-2.06l.068-6.388,21.969.234Z" transform="translate(-87.894 -187.867)" fill="#395b64"/>
            <path id="Path_15070" data-name="Path 15070" d="M109.955,197.8l-21.966-.486,0-.981,21.966.336Z" transform="translate(-87.92 -187.829)" fill="#2a454d"/>
            <path id="Path_15071" data-name="Path 15071" d="M102.283,198.008l.673.007a.907.907,0,0,0,.917-.9l.013-1.25a.3.3,0,0,0-.3-.3h-.016l-.018,1.663c0,.214-.1.387-.228.386l-1.411-.015c-.123,0-.221-.177-.219-.391l.018-1.663H101.7a.3.3,0,0,0-.3.3l-.013,1.25a.907.907,0,0,0,.9.917Z" transform="translate(-91.548 -187.616)" fill="#1b2e36"/>
          </g>
        </g>
        <g id="board" transform="translate(143.175 82.092)">
          <path id="Path_15072" data-name="Path 15072" d="M215.4,140.35a.375.375,0,0,1-.375-.375v-2.76a.375.375,0,0,1,.75,0v2.76A.376.376,0,0,1,215.4,140.35Z" transform="translate(-214.951 -136.84)" fill="url(#linear-gradient-22)"/>
          <path id="Path_15073" data-name="Path 15073" d="M220.721,138.75v1.66a.358.358,0,0,1-.356.356.379.379,0,0,1-.265-.114,1.251,1.251,0,0,1-.593.152,1.214,1.214,0,1,1,0-2.428,1.241,1.241,0,0,1,.583.152.338.338,0,0,1,.275-.133.358.358,0,0,1,.356.356Zm-.754.839a.46.46,0,1,0-.46.46A.457.457,0,0,0,219.967,139.59Z" transform="translate(-215.837 -137.256)" fill="url(#linear-gradient-23)"/>
          <path id="Path_15074" data-name="Path 15074" d="M225.572,139.412v.972a.379.379,0,1,1-.759,0v-.972a.289.289,0,0,0-.578,0v.972a.379.379,0,1,1-.759,0v-.972a.289.289,0,0,0-.578,0v.972a.38.38,0,0,1-.379.379.376.376,0,0,1-.375-.379v-1.631a.356.356,0,0,1,.356-.36.346.346,0,0,1,.228.085,1,1,0,0,1,.46-.109,1.045,1.045,0,0,0,1.337,0,1.05,1.05,0,0,1,1.048,1.043Z" transform="translate(-216.88 -137.254)" fill="url(#linear-gradient-24)"/>
          <path id="Path_15075" data-name="Path 15075" d="M218.263,147.586a.328.328,0,0,1,0,.46.333.333,0,0,1-.479,0l-.138-.142a1.69,1.69,0,0,1-.939.275,1.783,1.783,0,1,1,1.783-1.788,1.759,1.759,0,0,1-.356,1.067l.128.128Zm-1.176-.242-.095-.095a.328.328,0,0,1,0-.46.336.336,0,0,1,.474,0l.123.119a.951.951,0,0,0,.142-.517,1.027,1.027,0,1,0-1.024,1.029A.938.938,0,0,0,217.087,147.344Z" transform="translate(-214.924 -138.945)" fill="url(#linear-gradient-25)"/>
          <path id="Path_15076" data-name="Path 15076" d="M221.319,148.615a1.048,1.048,0,0,1-1.048-1.048v-.986a.377.377,0,0,1,.379-.375.372.372,0,0,1,.375.375v.986a.294.294,0,1,0,.588,0v-.986a.377.377,0,0,1,.754,0v.986a1.048,1.048,0,0,1-1.048,1.048Z" transform="translate(-216.373 -139.377)" fill="url(#linear-gradient-26)"/>
          <path id="Path_15077" data-name="Path 15077" d="M223.98,148.287a.38.38,0,0,1-.379-.379v-1.641a.379.379,0,1,1,.759,0v1.641A.38.38,0,0,1,223.98,148.287Zm.322-2.831a.327.327,0,0,1-.322.327.331.331,0,0,1-.327-.327.325.325,0,0,1,.65,0Z" transform="translate(-217.275 -139.086)" fill="url(#linear-gradient-27)"/>
          <path id="Path_15078" data-name="Path 15078" d="M226.537,147.918a.38.38,0,0,1-.379.379h-.071a.954.954,0,0,1-.958-.991v-1.755a.379.379,0,1,1,.759,0v.375h.346a.33.33,0,0,1,.332.332.326.326,0,0,1-.332.327h-.346v.721a.206.206,0,0,0,.2.232h.071A.38.38,0,0,1,226.537,147.918Z" transform="translate(-217.689 -139.097)" fill="url(#linear-gradient-28)"/>
        </g>
      </g>
    </g>
  </g>
</svg>
