<svg id="no_chat_found" xmlns="http://www.w3.org/2000/svg" xmlns:xlink="http://www.w3.org/1999/xlink" width="255" height="255" viewBox="0 0 255 255">
  <defs>
    <clipPath id="clip-path">
      <rect id="Rectangle_1503" data-name="Rectangle 1503" width="255" height="255" transform="translate(85.918 194.918)" fill="#f5f5f5"/>
    </clipPath>
    <linearGradient id="linear-gradient" x1="0.488" y1="-0.011" x2="0.512" y2="1.041" gradientUnits="objectBoundingBox">
      <stop offset="0" stop-color="#fff"/>
      <stop offset="0.55" stop-color="#fafaff"/>
      <stop offset="1" stop-color="#e5f7f9"/>
    </linearGradient>
    <linearGradient id="linear-gradient-2" x1="0.425" y1="0.155" x2="0.626" y2="1.324" gradientUnits="objectBoundingBox">
      <stop offset="0" stop-color="#f4f5f9"/>
      <stop offset="1" stop-color="#d2d4e0"/>
    </linearGradient>
    <linearGradient id="linear-gradient-3" x1="0.467" y1="-0.124" x2="0.54" y2="1.121" xlink:href="#linear-gradient-2"/>
    <linearGradient id="linear-gradient-4" x1="1.208" y1="0.521" x2="-0.368" y2="0.476" xlink:href="#linear-gradient-2"/>
    <radialGradient id="radial-gradient" cx="0.51" cy="0.003" r="1.958" gradientUnits="objectBoundingBox">
      <stop offset="0" stop-color="#76938e"/>
      <stop offset="0.57" stop-color="#acd3d3" stop-opacity="0.22"/>
      <stop offset="0.73" stop-color="#d1e5e8" stop-opacity="0.11"/>
      <stop offset="0.95" stop-color="#fafaff" stop-opacity="0"/>
    </radialGradient>
  </defs>
  <g id="no_chat_found-2" data-name="no_chat_found" transform="translate(-85.918 -194.918)" clip-path="url(#clip-path)">
    <g id="Layer_1" data-name="Layer 1" transform="translate(86 195.603)">
      <g id="no_chat_found-3" data-name="no chat found">
        <path id="Path_14583" data-name="Path 14583" d="M254.548,126.694h0a126.492,126.492,0,0,1-7.19,42.177q-.6,1.7-1.243,3.37a126.372,126.372,0,0,1-14.668,27.41l-.106.15-.144.2-.007.01a126.537,126.537,0,0,1-103.335,53.375h0A126.67,126.67,0,0,1,1.161,126.694h0A126.694,126.694,0,0,1,127.854,0h0A126.694,126.694,0,0,1,254.548,126.694Z" transform="translate(0.289)" fill="url(#linear-gradient)"/>
        <g id="Group_4144" data-name="Group 4144" transform="translate(0 45.103)">
          <path id="Path_14584" data-name="Path 14584" d="M24.732,189.987s-22.64-34.517-3.971-65.242A53.088,53.088,0,0,1,64.037,99.277a45.469,45.469,0,0,1,33.124,11.97s.706-64,75.12-71.718a61.99,61.99,0,0,1,54.185,21.734c11.5,13.879,19.77,35.769,12.808,69.737,0,0-9.6,42.524-28.258,58.986H24.732Z" transform="translate(3.335 -35.336)" fill="url(#linear-gradient-2)"/>
          <path id="Path_14585" data-name="Path 14585" d="M61.252,151.727a33.117,33.117,0,0,1-17.217-4.812,30.29,30.29,0,0,1-11.866-15.321q-.205-.554-.392-1.113a17.8,17.8,0,0,1-4.016-1.35,14.779,14.779,0,0,1-2.4-1.429,15.18,15.18,0,0,1-6.08-10.977c-1.058-9.207,3.935-20.519,9.414-26.934,6.458-7.561,14.776-12.69,25.431-15.681,10.4-2.92,21.541-3.33,30.08-3.36,22.418-.081,42.64-.625,63.1-6.5a143.241,143.241,0,0,0,52.863-28.116.125.125,0,1,1,.162.191A143.5,143.5,0,0,1,147.38,64.492c-20.495,5.883-40.736,6.429-63.172,6.51-19.411.07-41.163,2.376-55.321,18.953C23.442,96.329,18.48,107.561,19.53,116.7a14.94,14.94,0,0,0,5.98,10.8,14.539,14.539,0,0,0,2.357,1.4,17.558,17.558,0,0,0,3.818,1.3,34.546,34.546,0,0,1-1.058-18.041c1.648-7.346,6.5-13.6,12.655-16.33,7.252-3.211,18.058-1.234,21.971,6.733,2.861,5.823-.738,11.753-3.137,14.769-6.009,7.552-18.958,15.338-30.037,13.2,2.308,6.752,6.554,12.7,12.087,16.161a32.851,32.851,0,0,0,18.147,4.756h0a.125.125,0,0,1,0,.25q-.535.017-1.071.018ZM31.988,130.269c11.008,2.217,23.94-5.556,29.932-13.087,2.363-2.97,5.908-8.8,3.109-14.5-3.851-7.841-14.5-9.779-21.645-6.615C37.3,98.759,32.5,104.95,30.872,112.22a34.142,34.142,0,0,0,1.116,18.049Z" transform="translate(4.77 -36.105)" fill="#011721"/>
          <path id="Path_14586" data-name="Path 14586" d="M185.7,97.541H138.417a2.852,2.852,0,0,0-2.1.924l-5.717,6.226a2.853,2.853,0,0,1-4.955-1.962l.026-2.3a2.854,2.854,0,0,0-2.853-2.886h-.51a5.236,5.236,0,0,1-5.236-5.236V47.067a5.236,5.236,0,0,1,5.236-5.236H185.7a5.236,5.236,0,0,1,5.236,5.236V92.306a5.236,5.236,0,0,1-5.236,5.236Z" transform="translate(29.174 -34.678)" fill="url(#linear-gradient-3)"/>
          <g id="Group_4134" data-name="Group 4134" transform="translate(54.972 39.047)">
            <path id="Path_14587" data-name="Path 14587" d="M99.521,92.439A27.826,27.826,0,1,0,67.8,122.729a3.149,3.149,0,0,1,2.173,1.353l2.31,3.45a3.114,3.114,0,0,0,5.465-.543l1.585-3.837A3.153,3.153,0,0,1,81.2,121.4,27.836,27.836,0,0,0,99.521,92.439Z" transform="translate(-44.006 -67.362)" fill="#f4f5f9"/>
            <path id="Path_14588" data-name="Path 14588" d="M54.863,117.237,85.172,70.776a27.675,27.675,0,0,0-15.13-3.354,27.82,27.82,0,0,0-15.179,49.815Z" transform="translate(-44.006 -67.362)" fill="url(#linear-gradient-4)"/>
            <g id="Group_4133" data-name="Group 4133" transform="translate(14.728 22.934)">
              <circle id="Ellipse_232" data-name="Ellipse 232" cx="3.244" cy="3.244" r="3.244" transform="matrix(0.389, -0.921, 0.921, 0.389, 0, 7.4)" fill="#fff"/>
              <circle id="Ellipse_233" data-name="Ellipse 233" cx="3.244" cy="3.244" r="3.244" transform="translate(9.21 1.901) rotate(-0.31)" fill="#fff"/>
              <circle id="Ellipse_234" data-name="Ellipse 234" cx="3.244" cy="3.244" r="3.244" transform="translate(16.099 4.587) rotate(-45)" fill="#fff"/>
            </g>
          </g>
          <path id="Path_14589" data-name="Path 14589" d="M249.81,160.164H.754a.658.658,0,1,1,0-1.3H249.81a.658.658,0,1,1,0,1.3Z" transform="translate(0 -5.514)" fill="#fff"/>
          <g id="Group_4135" data-name="Group 4135" transform="translate(95.902 75.755)">
            <path id="Path_14590" data-name="Path 14590" d="M76.941,96.748l2.483.157-.1,12.159-2.558.392Z" transform="translate(-76.77 -96.748)" fill="#011721"/>
            <path id="Path_14591" data-name="Path 14591" d="M78.992,97.272,77.24,97.12,77.1,108.777l1.8-.185Z" transform="translate(-76.688 -96.655)" fill="#fff"/>
          </g>
          <g id="Group_4136" data-name="Group 4136" transform="translate(184.924 77.366)">
            <path id="Path_14592" data-name="Path 14592" d="M151.751,98.152l-2.485-.114-1.232,12.1,2.5.668Z" transform="translate(-148.034 -98.038)" fill="#011721"/>
            <path id="Path_14593" data-name="Path 14593" d="M149.485,98.434l1.758.04-1.135,11.6-1.765-.38Z" transform="translate(-147.957 -97.939)" fill="#fff"/>
          </g>
          <g id="Group_4138" data-name="Group 4138" transform="translate(18.225 54.648)">
            <path id="Path_14594" data-name="Path 14594" d="M118.966,111.541l43.951-31.456a1.169,1.169,0,0,1,1.536,1.748L128.99,119.87l-8.762-.826-1.263-7.5Z" transform="translate(11.421 -79.851)" fill="#68d8cf"/>
            <path id="Path_14595" data-name="Path 14595" d="M158.531,82.551h0l-39.565,28.317.436,2.586,4.1-2.443Z" transform="translate(11.422 -79.179)" fill="#75b6b6"/>
            <path id="Path_14596" data-name="Path 14596" d="M123.791,98l-.342-6.954a88.073,88.073,0,0,0-9.575,4.654,5.193,5.193,0,0,0-2.614,5.618c.409,1.84,1.673,4.035,4.816,6.146l2.017,2.23,1.4-3.534,3.593-3.776Z" transform="translate(9.472 -77.061)" fill="#011721"/>
            <path id="Path_14597" data-name="Path 14597" d="M119.972,106.253l-.213-1.519,3.769-.53,2.661-4.519-4.7-3.963s.338,5.081-3.445,5.643l-2.1-2.217s-2.221,2.29.52,3.695a3.481,3.481,0,0,1-.043,4.082l2.143.8,1.412-1.475Z" transform="translate(10.456 -75.896)" fill="#ffd2b3"/>
            <path id="Path_14598" data-name="Path 14598" d="M139.183,153.5l15.076-12.886,38.524,25.629a1.8,1.8,0,0,0,2.37-2.676c-9.617-11.181-25.787-29.235-37.6-38.562L139.182,135.73V153.5Z" transform="translate(16.46 -68.599)" fill="#011721"/>
            <path id="Path_14599" data-name="Path 14599" d="M155.7,125l-9.063,5.291,3.629,1.119,5-2.608,30.762,31.614,5.08.609c-9.748-11.219-24.449-27.374-35.4-36.025Z" transform="translate(18.317 -68.599)" fill="#05293c"/>
            <path id="Path_14600" data-name="Path 14600" d="M183.489,159.479a1.8,1.8,0,0,0,2.37-2.676c-1.246-1.449-2.6-3.015-4.047-4.661l-3.227,1.515-2.108,1.157,7.012,4.665Z" transform="translate(25.753 -61.836)" fill="#ffd2b3"/>
            <g id="Group_4137" data-name="Group 4137" transform="translate(0 17.491)">
              <path id="Path_14601" data-name="Path 14601" d="M95.871,146.861,16.333,157.7a2.016,2.016,0,0,0,.244,4.013l97.944,1.369,9.385-3.849L95.871,146.861Z" transform="translate(-14.589 -80.644)" fill="#011721"/>
              <path id="Path_14602" data-name="Path 14602" d="M23.75,154.731l-7.417,1.011a2.016,2.016,0,0,0,.244,4.013l9.667.135-2.493-5.159Z" transform="translate(-14.589 -78.682)" fill="#ffd2b3"/>
              <path id="Path_14603" data-name="Path 14603" d="M94.043,146.861l-72.121,9.831,1.029,2.129,77.759-5.576,4.452-1.476Z" transform="translate(-12.762 -80.644)" fill="#05293c"/>
              <path id="Path_14604" data-name="Path 14604" d="M113.523,104.594a7.257,7.257,0,0,1-7.257,7.257c-1.5,0-1.234-2.509-2.392-3.291-1.93-1.3-4.864-1.46-4.864-3.965a7.256,7.256,0,1,1,14.513,0Z" transform="translate(6.449 -92.985)" fill="#011721"/>
              <circle id="Ellipse_235" data-name="Ellipse 235" cx="3.078" cy="3.078" r="3.078" transform="translate(112.539 4.354) rotate(-45)" fill="#011721"/>
              <path id="Path_14605" data-name="Path 14605" d="M103.849,110.661v-1.278h-3.172l-2.721-3.421,3.421-3.817s.311,4.233,3.5,4.258l1.477-2.074s2.1,1.633,0,3.11a2.9,2.9,0,0,0,.51,3.364l-1.676.911Z" transform="translate(6.186 -91.787)" fill="#ffd2b3"/>
              <path id="Path_14606" data-name="Path 14606" d="M111.7,169.815c9.486-1.63,11.452-13.785,11.833-17.5-2.981,4.093-18.669-10.018-18.669-10.018-15.25-14.023-24.19-20.3-24.19-20.3-12.485,14.171-26.379,35.815-33.024,46.558a1.64,1.64,0,0,0,2.367,2.183c14.325-10.495,31.245-26.765,31.245-26.765L93.645,161.05C101.708,170.866,111.7,169.815,111.7,169.815Z" transform="translate(-6.415 -86.84)" fill="#05293c"/>
              <path id="Path_14607" data-name="Path 14607" d="M116.627,116.764c-.564-5.967-6.581-7.912-11.406-4.356L87.8,123.4l-10.84-21.638a1.06,1.06,0,0,0-1.968.759l9.025,32.7,14.15-6.258-.175,18.526s15.688,14.11,18.669,10.018c.07-.679.087-1.078.087-1.078V125.629c0-.977-.044-8.021-.124-8.866Z" transform="translate(0.453 -92.03)" fill="#087c7c"/>
              <path id="Path_14608" data-name="Path 14608" d="M93.574,124.21l10.692-3.985-8.238,24.762-2.63-2.25Z" transform="translate(5.05 -87.281)" fill="#3e9999"/>
              <path id="Path_14609" data-name="Path 14609" d="M52.351,153.286c-1.8,2.818-3.394,5.358-4.7,7.472a1.64,1.64,0,0,0,2.367,2.183c1.853-1.357,3.75-2.813,5.647-4.316l-3.313-5.338Z" transform="translate(-6.415 -79.042)" fill="#ffd2b3"/>
              <path id="Path_14610" data-name="Path 14610" d="M79.977,107.775l-3.014-6.017a1.06,1.06,0,0,0-1.968.759l1.28,4.638Z" transform="translate(0.453 -92.03)" fill="#ffd2b3"/>
              <path id="Path_14611" data-name="Path 14611" d="M110.049,167.188c4.6-.791,7.43-4.059,9.17-7.638,0,0-11.782,4.276-25.279-12.2L79.655,132.538,54.013,163.795c12.772-10.117,25.6-22.449,25.6-22.449l12.384,17.078c8.063,9.816,18.054,8.764,18.054,8.764Z" transform="translate(-4.765 -84.213)" fill="#011721"/>
            </g>
            <path id="Path_14612" data-name="Path 14612" d="M191.05,166.869c-8.006-12.233-22.059-30.541-36.363-43.212a137.57,137.57,0,0,0-21.823,15.4s-10.751,12.447-24.452,12.835v.509s2.454,17.879,17.353,17a18.272,18.272,0,0,0,5.2-1.259A29.4,29.4,0,0,0,143.9,158.6l11.944-15.3,32.246,26.236a2.014,2.014,0,0,0,2.959-2.663Z" transform="translate(8.792 -68.935)" fill="#05293c"/>
            <path id="Path_14613" data-name="Path 14613" d="M132.865,144.194l-1.626-20.97,11.439,9.347a4.5,4.5,0,0,0,6.89-1.513l12.928-26.53a.987.987,0,0,0-1.586-1.149l-15.977,19.086-13.041-13.389a16.921,16.921,0,0,0-4.2-3.35c-7.445-4.093-15.9-1.387-18.5,6.771a19.061,19.061,0,0,0-.777,3.8v40.734c13.7-.387,24.452-12.835,24.452-12.835Z" transform="translate(8.792 -74.069)" fill="#68d8cf"/>
            <path id="Path_14614" data-name="Path 14614" d="M167.579,157.211l5.768,4.692a2.014,2.014,0,0,0,2.959-2.663c-1.025-1.566-2.151-3.233-3.362-4.974l-5.365,2.945Z" transform="translate(23.536 -61.307)" fill="#ffd2b3"/>
            <path id="Path_14615" data-name="Path 14615" d="M132.865,141.165l-1.626-20.97-6.508-4.987s-1.7,28.2-16.319,38.791c13.7-.387,24.452-12.835,24.452-12.835Z" transform="translate(8.792 -71.04)" fill="#75b6b6"/>
            <path id="Path_14616" data-name="Path 14616" d="M125.766,167.368a18.272,18.272,0,0,0,5.2-1.259,29.4,29.4,0,0,0,12.935-9.548l11.944-15.3L182.323,162.8l-27.092-30.964-22.366,20.333c-16.932,11.043-24.452-2.313-24.452-2.313v.509s2.454,17.879,17.353,17Z" transform="translate(8.792 -66.897)" fill="#011721"/>
            <path id="Path_14617" data-name="Path 14617" d="M154.9,80.084l-3.745,2.68,1.231,3.412,4.05-4.344a1.169,1.169,0,0,0-1.536-1.748Z" transform="translate(19.442 -79.851)" fill="#ffd2b3"/>
            <path id="Path_14618" data-name="Path 14618" d="M151.106,103.379l-3.35,4,2.37,2.413,2.566-5.265A.987.987,0,0,0,151.106,103.379Z" transform="translate(18.596 -74.069)" fill="#ffd2b3"/>
          </g>
          <path id="Path_14619" data-name="Path 14619" d="M98.664,63.688a11.749,11.749,0,1,1,11.75-11.749A11.762,11.762,0,0,1,98.664,63.688Zm0-22.874a11.124,11.124,0,1,0,11.124,11.124A11.137,11.137,0,0,0,98.664,40.814Z" transform="translate(21.659 -35.087)" fill="#c41a08"/>
          <g id="Group_4139" data-name="Group 4139" transform="translate(83.453 10.127)">
            <path id="Path_14620" data-name="Path 14620" d="M81.558,45.463H67.431a.625.625,0,0,1,0-1.251H81.558a.625.625,0,1,1,0,1.251Z" transform="translate(-66.805 -44.212)" fill="#acd3d3"/>
            <path id="Path_14621" data-name="Path 14621" d="M81.558,50.344H67.431a.625.625,0,0,1,0-1.251H81.558a.625.625,0,1,1,0,1.251Z" transform="translate(-66.805 -42.995)" fill="#acd3d3"/>
            <path id="Path_14622" data-name="Path 14622" d="M81.558,55.226H67.431a.625.625,0,0,1,0-1.251H81.558a.625.625,0,1,1,0,1.251Z" transform="translate(-66.805 -41.779)" fill="#acd3d3"/>
          </g>
          <path id="Path_14623" data-name="Path 14623" d="M108.771,67.456a3.1,3.1,0,0,0-2.937,1.082,3.1,3.1,0,0,0-2.937-1.082,3.132,3.132,0,0,0-2.123,3.452c.211,1.6,1.268,3.758,5.06,5.159,3.792-1.4,4.849-3.563,5.06-5.159A3.131,3.131,0,0,0,108.771,67.456Z" transform="translate(25.106 -28.316)" fill="#087c7c"/>
          <path id="Path_14624" data-name="Path 14624" d="M171.924,46.908a2.163,2.163,0,0,0-2.05.755,2.162,2.162,0,0,0-2.05-.755,2.186,2.186,0,0,0-1.482,2.41c.147,1.114.885,2.624,3.532,3.6,2.647-.978,3.385-2.488,3.532-3.6A2.186,2.186,0,0,0,171.924,46.908Z" transform="translate(41.447 -33.429)" fill="#5aa7a7"/>
          <path id="Path_14625" data-name="Path 14625" d="M190.764,89.544H158.739a.125.125,0,1,1,0-.251h32.025a.125.125,0,0,1,0,.251Z" transform="translate(39.527 -22.851)" fill="#011721"/>
          <path id="Path_14626" data-name="Path 14626" d="M188.869,155.324a.123.123,0,0,1-.089-.037l-22.523-22.636a.125.125,0,0,1,.177-.176l22.523,22.636a.125.125,0,0,1-.089.213Z" transform="translate(41.422 -12.099)" fill="#011721"/>
          <path id="Path_14627" data-name="Path 14627" d="M53.132,162.266a.125.125,0,0,1-.082-.22l22.395-19.27a.125.125,0,1,1,.163.19l-22.395,19.27a.121.121,0,0,1-.082.031Z" transform="translate(13.209 -9.53)" fill="#fff"/>
          <g id="Group_4143" data-name="Group 4143" transform="translate(115.052 11.578)">
            <g id="Group_4140" data-name="Group 4140" transform="translate(59.246 14.349)">
              <circle id="Ellipse_236" data-name="Ellipse 236" cx="9.428" cy="9.428" r="9.428" fill="#c8e1e1"/>
              <path id="Path_14628" data-name="Path 14628" d="M150.42,70.222l-7.056-7.056a1.751,1.751,0,0,1,0-2.47h0a1.751,1.751,0,0,1,2.47,0l7.056,7.056a1.751,1.751,0,0,1,0,2.47h0A1.751,1.751,0,0,1,150.42,70.222Z" transform="translate(-138.699 -56.031)" fill="#ff1200"/>
              <path id="Path_14629" data-name="Path 14629" d="M152.89,63.166l-7.056,7.056a1.751,1.751,0,0,1-2.47,0h0a1.751,1.751,0,0,1,0-2.47L150.42,60.7a1.751,1.751,0,0,1,2.47,0h0A1.751,1.751,0,0,1,152.89,63.166Z" transform="translate(-138.699 -56.031)" fill="#ff1200"/>
            </g>
            <g id="Group_4142" data-name="Group 4142" transform="translate(46.695 1.944)">
              <path id="Path_14630" data-name="Path 14630" d="M141.219,49.533A22.143,22.143,0,0,0,136.9,85.613l2.762-2.68a18.307,18.307,0,1,1,26.174-25.4l2.763-2.681a22.148,22.148,0,0,0-27.382-5.323Z" transform="translate(-129.481 -46.93)" fill="#238a8a"/>
              <path id="Path_14631" data-name="Path 14631" d="M167.745,59.525a18.976,18.976,0,1,0-7.83,25.668A18.976,18.976,0,0,0,167.745,59.525ZM159.6,84.6a18.307,18.307,0,1,1,7.554-24.763A18.307,18.307,0,0,1,159.6,84.6Z" transform="translate(-128.849 -46.298)" fill="#087c7c"/>
              <g id="Group_4141" data-name="Group 4141" transform="translate(3.84 3.84)" opacity="0.35">
                <circle id="Ellipse_237" data-name="Ellipse 237" cx="18.307" cy="18.307" r="18.307" fill="#fff"/>
              </g>
              <path id="Path_14632" data-name="Path 14632" d="M142.076,51.7a18.977,18.977,0,0,0-3.526,31.075l.482-.468a18.307,18.307,0,1,1,26.174-25.4l.483-.468A18.98,18.98,0,0,0,142.076,51.7Z" transform="translate(-128.849 -46.298)" fill="#75b6b6"/>
            </g>
            <path id="Path_14633" data-name="Path 14633" d="M99.666,55.408,92.61,48.353a1.751,1.751,0,0,1,0-2.47h0a1.751,1.751,0,0,1,2.47,0l7.056,7.056a1.751,1.751,0,0,1,0,2.47h0A1.751,1.751,0,0,1,99.666,55.408Z" transform="translate(-92.101 -45.374)" fill="#ff988a"/>
            <path id="Path_14634" data-name="Path 14634" d="M102.135,48.353,95.08,55.408a1.751,1.751,0,0,1-2.47,0h0a1.751,1.751,0,0,1,0-2.47l7.056-7.056a1.751,1.751,0,0,1,2.47,0h0A1.751,1.751,0,0,1,102.135,48.353Z" transform="translate(-92.101 -45.374)" fill="#ff988a"/>
          </g>
        </g>
        <path id="Path_14635" data-name="Path 14635" d="M226.5,160.138l-.144.2-.007.01a126.537,126.537,0,0,1-103.335,53.375h0a126.532,126.532,0,0,1-103.132-53.09Z" transform="translate(4.954 39.906)" fill="url(#radial-gradient)"/>
      </g>
    </g>
  </g>
</svg>
