<svg id="no_internet_illustrator" xmlns="http://www.w3.org/2000/svg" xmlns:xlink="http://www.w3.org/1999/xlink" width="255" height="255" viewBox="0 0 255 255">
  <defs>
    <clipPath id="clip-path">
      <rect id="Rectangle_1503" data-name="Rectangle 1503" width="255" height="255" transform="translate(60 183)" fill="#fff"/>
    </clipPath>
    <linearGradient id="linear-gradient" x1="0.488" y1="-0.011" x2="0.512" y2="1.041" gradientUnits="objectBoundingBox">
      <stop offset="0" stop-color="#fafaff"/>
      <stop offset="0.55" stop-color="#fafaff"/>
      <stop offset="1" stop-color="#e5f7f9"/>
    </linearGradient>
    <radialGradient id="radial-gradient" cx="0.51" cy="0.003" r="1.958" gradientUnits="objectBoundingBox">
      <stop offset="0" stop-color="#76938e"/>
      <stop offset="0.57" stop-color="#acd3d3" stop-opacity="0.22"/>
      <stop offset="0.73" stop-color="#d1e5e8" stop-opacity="0.11"/>
      <stop offset="0.95" stop-color="#fafaff" stop-opacity="0"/>
    </radialGradient>
    <linearGradient id="linear-gradient-2" x1="0.64" y1="1.053" x2="0.375" y2="0.106" gradientUnits="objectBoundingBox">
      <stop offset="0.2" stop-color="#fff"/>
      <stop offset="0.55" stop-color="#fff"/>
      <stop offset="0.98" stop-color="#e6f7f9"/>
      <stop offset="1" stop-color="#e5f7f9"/>
    </linearGradient>
    <linearGradient id="linear-gradient-3" y1="0.5" x2="1" y2="0.5" gradientUnits="objectBoundingBox">
      <stop offset="0" stop-color="#c8e1e1"/>
      <stop offset="1" stop-color="#3e9999"/>
    </linearGradient>
  </defs>
  <g id="no_internet_illustrator-2" data-name="no_internet_illustrator" transform="translate(-60 -183)" clip-path="url(#clip-path)">
    <g id="Layer_1" data-name="Layer 1" transform="translate(60.123 183)">
      <g id="No_internet" data-name="No internet">
        <path id="Path_15314" data-name="Path 15314" d="M254.754,127.377h0a127.174,127.174,0,0,1-7.229,42.4q-.6,1.7-1.25,3.388-1.479,3.838-3.2,7.554-1.931,4.184-4.154,8.2a127.329,127.329,0,0,1-7.4,11.8l-.106.151-.144.2-.007.01-.1.138q-.274.385-.552.768a128.1,128.1,0,0,1-13.5,15.777q-.389.386-.781.768l-.037.036a126.957,126.957,0,0,1-88.92,36.175h0a126.873,126.873,0,0,1-82.79-30.572q-3.156-2.7-6.131-5.6l-.037-.036q-.392-.383-.781-.768A128.092,128.092,0,0,1,24.136,202q-.225-.309-.447-.62l-.106-.148A126.79,126.79,0,0,1,0,127.377H0A127.377,127.377,0,0,1,127.377,0h0A127.377,127.377,0,0,1,254.754,127.377Z" fill="url(#linear-gradient)"/>
        <path id="Path_15315" data-name="Path 15315" d="M231.242,201.124l-.144.2-.007.01A127.22,127.22,0,0,1,127.2,255h0A127.214,127.214,0,0,1,23.51,201.624l207.732-.5Z" fill="url(#radial-gradient)"/>
        <g id="Group_4291" data-name="Group 4291">
          <g id="Group_4290" data-name="Group 4290">
            <g id="Group_4270" data-name="Group 4270">
              <path id="Path_15316" data-name="Path 15316" d="M85.753,213.669h95.111a88.851,88.851,0,1,0-95.111,0Z" fill="#fff"/>
              <path id="Path_15317" data-name="Path 15317" d="M83.242,175.443A88.483,88.483,0,0,0,91.87,213.67h88.995a88.887,88.887,0,0,0,30.19-118.1A88.88,88.88,0,0,0,83.242,175.443Z" fill="url(#linear-gradient-2)"/>
            </g>
            <path id="Path_15318" data-name="Path 15318" d="M234.083,213.739H24.7c-.145,0-.262-.076-.262-.169s.118-.169.262-.169H234.083c.145,0,.262.076.262.169S234.227,213.739,234.083,213.739Z" fill="#011721"/>
            <g id="Group_4277" data-name="Group 4277">
              <path id="Path_15319" data-name="Path 15319" d="M158.255,136.11l-13.845,1.378a1.6,1.6,0,0,0-.157,3.153,82.025,82.025,0,0,0,15.909,1.264l6.663-1.636-8.57-4.159Z" fill="#5aa7a7"/>
              <path id="Path_15320" data-name="Path 15320" d="M151,141.555c-2.24-1.44-1.043-4.619-1.043-4.619h0l-5.549.553a1.6,1.6,0,0,0-.157,3.153,59.752,59.752,0,0,0,6.75.914Z" fill="#ffd2b3"/>
              <path id="Path_15321" data-name="Path 15321" d="M143.078,139.657a1.524,1.524,0,0,0,1.176.984,82.024,82.024,0,0,0,15.909,1.264l6.527-1.6-.2-.2-1.676-.814-5.673.339c-3.728.548-13.725.131-16.064.024Z" fill="#087c7c"/>
              <path id="Path_15322" data-name="Path 15322" d="M144.253,140.641a59.756,59.756,0,0,0,6.75.914,2.827,2.827,0,0,1-1.224-1.678c-2.95-.056-5.629-.171-6.7-.22a1.524,1.524,0,0,0,1.176.984Z" fill="#d39266"/>
              <g id="Group_4271" data-name="Group 4271">
                <path id="Path_15323" data-name="Path 15323" d="M175.324,113.22l-1.919-3.085,7.016-3.8a2.623,2.623,0,0,1,3.291,1.366c.667,1.335,1.591,3.8,1.976,8.722l-7.149-.879-3.214-2.323Z" fill="#011721"/>
                <path id="Path_15324" data-name="Path 15324" d="M175.326,117.155l3.356,1.826,1.775-1.507a.639.639,0,0,1,.861.147.74.74,0,0,1,0,.965s2.928-2.237,4.5-2.137a11.576,11.576,0,0,1-1.981-.895c-2.246-1-1.013-3.6-2.4-4.044-.433-.14-.648,1.607-1.872,1.462-.981-.116-4.249-1.118-4.249-1.118l0,5.3Z" fill="#ffd2b3"/>
                <path id="Path_15325" data-name="Path 15325" d="M181.323,118.585a11.611,11.611,0,0,1,1.361-1.158h0l-.764-.44a.848.848,0,0,0-.993.078l-.47.409a.639.639,0,0,1,.861.147.74.74,0,0,1,0,.965Z" fill="#d39266"/>
              </g>
              <path id="Path_15326" data-name="Path 15326" d="M173.338,112.942c-3.949,3.577-10.05,11.1-15.642,24.485a3.274,3.274,0,0,0,3.143,4.529c5.943-.225,15.3-2.2,20.4-5.915l8.553,19.607s12.87,4.925,21.608-.794c0,0-7.507-22.647-15.86-34.63a9.536,9.536,0,0,0-11.231-3.543,10.967,10.967,0,0,0-4.051,2.742l-12.234,13.664s4.722-11.665,7.522-18.6a1.383,1.383,0,0,0-2.21-1.544Z" fill="#087c7c"/>
              <path id="Path_15327" data-name="Path 15327" d="M168.026,133.085s4.722-11.665,7.522-18.6a1.345,1.345,0,0,0-.438-1.61s-7.156,17.1-7.084,20.209Z" fill="#5aa7a7"/>
              <path id="Path_15328" data-name="Path 15328" d="M173.731,118.98c.646-1.6,1.268-3.137,1.816-4.495a1.383,1.383,0,0,0-2.21-1.544,37.743,37.743,0,0,0-3.118,3.216c0,.015-.022,3.134,3.512,2.823Z" fill="#ffd2b3"/>
              <path id="Path_15329" data-name="Path 15329" d="M172.649,118.957a4.677,4.677,0,0,0,1.082.023l1.816-4.495a1.345,1.345,0,0,0-.438-1.61s-1.116,2.666-2.461,6.082Z" fill="#d39266"/>
              <path id="Path_15330" data-name="Path 15330" d="M181.57,130.379c-3.2,8.223-20.252,11.324-21.408,11.526a3.256,3.256,0,0,0,.676.05c5.943-.225,15.3-2.2,20.4-5.915l8.553,19.607s.18.068.5.177l11.636-4.63c-15.471-4.962-20.36-20.815-20.36-20.815Z" fill="#5aa7a7"/>
              <path id="Path_15331" data-name="Path 15331" d="M184.965,169.411h18.31v2.459a1.882,1.882,0,0,1-1.881,1.881H186.846a1.882,1.882,0,0,1-1.881-1.881v-2.459Z" fill="#087c7c"/>
              <path id="Path_15332" data-name="Path 15332" d="M203.275,169.411h-9.41l.255.909v3.431h7.022a2.133,2.133,0,0,0,2.133-2.133Z" fill="#087c7c"/>
              <rect id="Rectangle_1593" data-name="Rectangle 1593" width="2.404" height="41.297" rx="0.995" transform="translate(214.768 207.037) rotate(90)" fill="#087c7c"/>
              <g id="Group_4272" data-name="Group 4272">
                <circle id="Ellipse_249" data-name="Ellipse 249" cx="3.122" cy="3.122" r="3.122" transform="translate(174.799 207.495)" fill="#087c7c"/>
                <circle id="Ellipse_250" data-name="Ellipse 250" cx="3.122" cy="3.122" r="3.122" transform="translate(207.195 207.495)" fill="#087c7c"/>
              </g>
              <path id="Path_15333" data-name="Path 15333" d="M160.8,164.475s-16.339,22.286-33.083,46.341a1.726,1.726,0,0,0,2.368,2.427c7.719-5.132,21.211-15.2,37.513-32.013l5.3-9.335-12.1-7.42Z" fill="#05293c"/>
              <path id="Path_15334" data-name="Path 15334" d="M167.595,181.229l5.3-9.335-2.728-1.673-9.37-5.747-23.335,43.552h0a253.543,253.543,0,0,0,30.132-26.8Z" fill="#011721"/>
              <path id="Path_15335" data-name="Path 15335" d="M207.464,156.515c-3.444-6.884-15.859-8.978-15.859-8.978-6.41,3.689-15.4,8.115-22.031,11.708-5.075,2.752-8.777,5.228-8.777,5.228,5.458,19.971,21.886,40.419,29.184,48.8a1.337,1.337,0,0,0,2.3-1.214c-4.234-16.316-12.937-42.424-12.937-42.424,12.426-3.166,19.823-6.534,24.221-9.368a14.034,14.034,0,0,0,3.9-3.752h0Z" fill="#05293c"/>
              <path id="Path_15336" data-name="Path 15336" d="M179.346,169.636c12.426-3.166,19.823-6.534,24.221-9.368,1.554-1,3.924-.309,4.953-1.779l-1.057-1.973a13.457,13.457,0,0,0-5.533-5.321s-20.52,8.459-32.884,16.155c2.871,16.8,10.288,33.092,17.408,41.754l.926-.154,3.356-2.595c-4.5-16.05-11.391-36.718-11.391-36.718Z" fill="#011721"/>
              <path id="Path_15337" data-name="Path 15337" d="M132.232,204.353q-2.242,3.195-4.517,6.463a1.726,1.726,0,0,0,2.368,2.427c2.065-1.373,4.546-3.1,7.38-5.216a5.413,5.413,0,0,1-5.231-3.674Z" fill="#ffd2b3"/>
              <path id="Path_15338" data-name="Path 15338" d="M192.283,212.06c-.713-2.746-1.2-4.551-2.105-7.68a13.218,13.218,0,0,1-1.613,2.022,7.406,7.406,0,0,1-3.1,1.488c1.708,2.111,3.25,3.932,4.515,5.384a1.337,1.337,0,0,0,2.3-1.214Z" fill="#ffd2b3"/>
              <path id="Path_15339" data-name="Path 15339" d="M134.183,207l-6.265,6.031a1.674,1.674,0,0,0,2.165.213c2.065-1.373,4.546-3.1,7.38-5.216A7.431,7.431,0,0,1,134.183,207Z" fill="#d39266"/>
              <path id="Path_15340" data-name="Path 15340" d="M188.378,206.58a7.961,7.961,0,0,1-2.911,1.311c1.708,2.111,3.25,3.932,4.515,5.384a1.3,1.3,0,0,0,1.552.338l-3.154-7.033Z" fill="#d39266"/>
              <circle id="Ellipse_251" data-name="Ellipse 251" cx="4.759" cy="4.759" r="4.759" transform="matrix(0.329, -0.944, 0.944, 0.329, 218.72, 115.971)" fill="#91c4c4"/>
              <path id="Path_15341" data-name="Path 15341" d="M225.874,108.441l-2.463,9.148a4.74,4.74,0,1,0,2.463-9.148Z" fill="#087c7c"/>
              <path id="Path_15342" data-name="Path 15342" d="M198.855,170.32h-21.4a4.466,4.466,0,0,1-4.466-4.466h0a4.466,4.466,0,0,1,4.466-4.467h21.4a10.312,10.312,0,0,0,9.933-7.6l9.742-35.065a4.466,4.466,0,0,1,5.5-3.108h0a4.466,4.466,0,0,1,3.108,5.5L217.4,156.156a19.254,19.254,0,0,1-18.546,14.164Z" fill="#087c7c"/>
              <path id="Path_15343" data-name="Path 15343" d="M213.653,152.278l9.735-35.039a4.443,4.443,0,0,0,.129-1.709,4.451,4.451,0,0,0-4.987,3.2l-9.742,35.065a10.312,10.312,0,0,1-9.933,7.6h-21.4a4.466,4.466,0,0,0-4.467,4.466h0a4.377,4.377,0,0,0,.052.521,4.416,4.416,0,0,0,.666.067h21.4a19.254,19.254,0,0,0,18.546-14.164Z" fill="#91c4c4"/>
              <path id="Path_15344" data-name="Path 15344" d="M181.509,168.771a1.874,1.874,0,0,1-1.781-2.457l4.515-13.771a11.666,11.666,0,0,1,11.109-8.048h26.606a1.873,1.873,0,0,1,0,3.746H195.352a7.928,7.928,0,0,0-7.549,5.468l-4.515,13.771a1.874,1.874,0,0,1-1.779,1.29Z" fill="#087c7c"/>
              <rect id="Rectangle_1594" data-name="Rectangle 1594" width="6.752" height="9.091" transform="translate(190.744 173.751)" fill="#087c7c"/>
              <rect id="Rectangle_1595" data-name="Rectangle 1595" width="3.438" height="25.185" transform="translate(192.4 182.842)" fill="#087c7c"/>
              <rect id="Rectangle_1596" data-name="Rectangle 1596" width="1.719" height="25.185" transform="translate(194.119 182.842)" fill="#91c4c4"/>
              <rect id="Rectangle_1597" data-name="Rectangle 1597" width="3.376" height="9.091" transform="translate(194.119 173.751)" fill="#91c4c4"/>
              <path id="Path_15345" data-name="Path 15345" d="M213.64,207.038h-19.52v1.2h20.649v-.074A1.129,1.129,0,0,0,213.64,207.038Z" fill="#91c4c4"/>
              <path id="Path_15346" data-name="Path 15346" d="M221.958,144.5H195.352a11.666,11.666,0,0,0-11.109,8.048l-.264.806a11.5,11.5,0,0,1,3.931-4.688,13.314,13.314,0,0,1,7.654-2.288h28.268v0a1.873,1.873,0,0,0-1.873-1.873Z" fill="#91c4c4"/>
              <g id="Group_4273" data-name="Group 4273" opacity="0.38">
                <path id="Path_15347" data-name="Path 15347" d="M219.6,148.242l-.387,1.393-9.453.653.569-2.046Z" fill="#011721"/>
              </g>
              <g id="Group_4274" data-name="Group 4274">
                <rect id="Rectangle_1598" data-name="Rectangle 1598" width="1.94" height="70.852" transform="translate(82.651 142.887)" fill="#238a8a"/>
                <rect id="Rectangle_1599" data-name="Rectangle 1599" width="1.94" height="70.852" transform="translate(172.19 142.887)" fill="#238a8a"/>
                <path id="Path_15348" data-name="Path 15348" d="M69.68,141.978H185.1a.739.739,0,0,1,.738.738v.342a.739.739,0,0,1-.738.738H69.68a.739.739,0,0,1-.738-.738v-.342A.739.739,0,0,1,69.68,141.978Z" fill="#238a8a"/>
              </g>
              <g id="Group_4276" data-name="Group 4276">
                <g id="Group_4275" data-name="Group 4275">
                  <path id="Path_15349" data-name="Path 15349" d="M106.8,141.978h37.448a.774.774,0,0,0,.774-.774h0a.774.774,0,0,0-.774-.774H106.8a.774.774,0,0,0-.774.774h0A.774.774,0,0,0,106.8,141.978Z" fill="#011721"/>
                  <path id="Path_15350" data-name="Path 15350" d="M106.827,140.678h28.147l-7.809-20.6H99.018Z" fill="url(#linear-gradient-3)"/>
                </g>
                <ellipse id="Ellipse_252" data-name="Ellipse 252" cx="1.494" cy="1.986" rx="1.494" ry="1.986" transform="matrix(0.969, -0.248, 0.248, 0.969, 115.734, 130.226)" fill="#05293c"/>
              </g>
            </g>
            <g id="Group_4278" data-name="Group 4278">
              <path id="Path_15351" data-name="Path 15351" d="M136.98,60.757a3.891,3.891,0,0,1-3.34-1.887,7.273,7.273,0,0,0-12.5,0,3.893,3.893,0,0,1-6.673-4.013,15.06,15.06,0,0,1,25.843,0,3.894,3.894,0,0,1-3.333,5.9Z" fill="#c8e1e1"/>
              <path id="Path_15352" data-name="Path 15352" d="M146.641,54.96a3.891,3.891,0,0,1-3.34-1.887,18.553,18.553,0,0,0-31.82,0,3.893,3.893,0,1,1-6.673-4.012,26.34,26.34,0,0,1,45.167,0,3.894,3.894,0,0,1-3.333,5.9Z" fill="#c8e1e1"/>
              <path id="Path_15353" data-name="Path 15353" d="M97.916,48.826a3.894,3.894,0,0,1-3.333-5.9,38.264,38.264,0,0,1,65.615,0,3.893,3.893,0,0,1-6.673,4.012,30.477,30.477,0,0,0-52.269,0,3.892,3.892,0,0,1-3.34,1.887Z" fill="#c8e1e1"/>
              <circle id="Ellipse_253" data-name="Ellipse 253" cx="5.398" cy="5.398" r="5.398" transform="translate(121.993 58.46)" fill="#c8e1e1"/>
              <path id="Path_15354" data-name="Path 15354" d="M127.391,63.858l1.6-5.158a5.4,5.4,0,0,0-3.29,10.281l1.694-5.123Z" fill="#acd3d3"/>
              <path id="Path_15355" data-name="Path 15355" d="M129.892,55.771l2.308-7.462a15.148,15.148,0,0,0-4.81-.777,14.969,14.969,0,0,0-12.922,7.325,3.893,3.893,0,1,0,6.673,4.013,7.244,7.244,0,0,1,8.751-3.1Z" fill="#acd3d3"/>
              <path id="Path_15356" data-name="Path 15356" d="M133.226,44.992l2.291-7.408a26.121,26.121,0,0,0-8.127-1.308,26.5,26.5,0,0,0-22.583,12.783,3.893,3.893,0,1,0,6.673,4.012,18.423,18.423,0,0,1,15.91-9.009,18.682,18.682,0,0,1,5.836.929Z" fill="#acd3d3"/>
              <path id="Path_15357" data-name="Path 15357" d="M136.75,33.6l2.287-7.393a37.944,37.944,0,0,0-11.647-1.852A38.489,38.489,0,0,0,94.583,42.925a3.894,3.894,0,1,0,6.673,4.013,30.264,30.264,0,0,1,26.134-14.8,30.711,30.711,0,0,1,9.36,1.458Z" fill="#acd3d3"/>
            </g>
            <g id="Group_4281" data-name="Group 4281">
              <g id="Group_4279" data-name="Group 4279">
                <path id="Path_15358" data-name="Path 15358" d="M123.488,110.131l-15.029-4.4a1.648,1.648,0,0,1-.674-2.773L119.113,92.14l11.329-10.814a1.648,1.648,0,0,1,2.738.8l3.7,15.218,3.7,15.218a1.647,1.647,0,0,1-2.064,1.97l-15.029-4.4Z" fill="#ed9a40"/>
                <path id="Path_15359" data-name="Path 15359" d="M123.909,108.695l-14.194-4.16a.568.568,0,0,1-.233-.956l10.7-10.212,10.7-10.212a.568.568,0,0,1,.944.277L135.318,97.8l3.494,14.372a.568.568,0,0,1-.712.679l-14.194-4.16Z" fill="#ffb871"/>
              </g>
              <g id="Group_4280" data-name="Group 4280">
                <path id="Path_15360" data-name="Path 15360" d="M127.277,101.28l-2.2-.645,2.114-9.606,3.493,1.024Z" fill="#600c0c"/>
                <circle id="Ellipse_254" data-name="Ellipse 254" cx="1.82" cy="1.82" r="1.82" transform="translate(122.891 103.388) rotate(-45)" fill="#600c0c"/>
              </g>
            </g>
            <g id="Group_4284" data-name="Group 4284">
              <g id="Group_4283" data-name="Group 4283">
                <g id="Group_4282" data-name="Group 4282">
                  <path id="Path_15361" data-name="Path 15361" d="M67.667,198.623h50.626v1.81a13.492,13.492,0,0,1-13.486,13.486H81.153a13.492,13.492,0,0,1-13.486-13.486v-1.81h0Z" fill="#087c7c"/>
                  <path id="Path_15362" data-name="Path 15362" d="M82.963,209.939H103a15.3,15.3,0,0,0,14.77-11.317H68.193a15.3,15.3,0,0,0,14.77,11.317Z" fill="url(#linear-gradient-3)"/>
                  <path id="Path_15363" data-name="Path 15363" d="M88.364,194.644s-11.588-24.832,11.4-41.294c0,0,16.279,12.875-3.311,41.294Z" fill="url(#linear-gradient-3)"/>
                  <path id="Path_15364" data-name="Path 15364" d="M99.769,153.349s4.287,30.966-8.036,41.294h4.725c19.589-28.419,3.311-41.294,3.311-41.294Z" fill="#238a8a"/>
                  <path id="Path_15365" data-name="Path 15365" d="M105.8,173.3s-13.269-.09-17.409,12.8l3.346,3.445Z" fill="#238a8a"/>
                  <path id="Path_15366" data-name="Path 15366" d="M86.675,198.623s-.644-33.845,34.3-23.544c0,0-3.127,15.267-24.28,23.544H86.675Z" fill="url(#linear-gradient-3)"/>
                  <path id="Path_15367" data-name="Path 15367" d="M120.98,175.078s-18.487,1.468-29.616,23.544H96.7C117.853,190.345,120.98,175.078,120.98,175.078Z" fill="#238a8a"/>
                  <path id="Path_15368" data-name="Path 15368" d="M85.8,185.193l-.052-.387s12.149,2.033,12.106,13.35l-.767.248L92.6,197.019l-7.161-9.713.359-2.114Z" fill="#238a8a"/>
                  <path id="Path_15369" data-name="Path 15369" d="M97.067,198.623s2.391-15.451-24.372-14.807a18.473,18.473,0,0,0,8.829,14.807H97.067Z" fill="url(#linear-gradient-3)"/>
                </g>
                <path id="Path_15370" data-name="Path 15370" d="M72.695,183.815a18.473,18.473,0,0,0,8.829,14.807h6.254C78.949,193.79,72.7,183.815,72.7,183.815Z" fill="#238a8a"/>
              </g>
              <path id="Path_15371" data-name="Path 15371" d="M95.458,191.854a.062.062,0,0,1-.035-.011.061.061,0,0,1-.014-.084c.075-.1,7.6-10.366,16.2-13.88a.06.06,0,0,1,.045.111c-8.565,3.5-16.073,13.736-16.148,13.84a.061.061,0,0,1-.049.025Z" fill="#087c7c"/>
              <path id="Path_15372" data-name="Path 15372" d="M99.993,174.81h-.007a.06.06,0,0,1-.053-.066,88.43,88.43,0,0,0,.469-11.685.06.06,0,0,1,.12-.005,88.424,88.424,0,0,1-.47,11.7.06.06,0,0,1-.06.054Z" fill="#087c7c"/>
              <path id="Path_15373" data-name="Path 15373" d="M87.778,198.682a.063.063,0,0,1-.029-.007,31.5,31.5,0,0,1-6.543-4.764.06.06,0,1,1,.087-.083,31.36,31.36,0,0,0,6.513,4.74.06.06,0,0,1-.029.113Z" fill="#087c7c"/>
            </g>
            <g id="Group_4287" data-name="Group 4287">
              <g id="Group_4285" data-name="Group 4285">
                <path id="Path_15374" data-name="Path 15374" d="M83.653,83.066l-2.613-.511,1-7.785,2.663-.42Z" fill="#05293c"/>
                <path id="Path_15375" data-name="Path 15375" d="M84.7,74.349l.334.106-1.094,8.61h-.289Z" fill="#011721"/>
                <path id="Path_15376" data-name="Path 15376" d="M82.2,74.958l2.208-.289-.937,8.078-2.149-.322Z" fill="#087c7c"/>
              </g>
              <g id="Group_4286" data-name="Group 4286">
                <path id="Path_15377" data-name="Path 15377" d="M57.5,127.046l8.4,36.359L53.385,206.839a2.12,2.12,0,0,1-4.144-.588l-.94-45.914Z" fill="#011721"/>
                <path id="Path_15378" data-name="Path 15378" d="M61.83,164.028l-7.938,34.753-2.533,9.545a2.042,2.042,0,0,0,2.025-1.487L65.9,163.405l-8.4-36.359Z" fill="#05293c"/>
                <path id="Path_15379" data-name="Path 15379" d="M49.063,197.63l.176,8.622a2.12,2.12,0,0,0,4.144.588l2.378-8.252s-1.844.869-6.7-.957Z" fill="#d39266"/>
                <path id="Path_15380" data-name="Path 15380" d="M56.852,87.769s12.206-5.4,15.19-12.272a40.751,40.751,0,0,0-21.6-6.478,1.145,1.145,0,0,0-.563,2.121c2.741,1.7,7.073,3.479,13.107,5.691L50.025,81.093l6.826,6.676Z" fill="#5aa7a7"/>
                <path id="Path_15381" data-name="Path 15381" d="M49.351,70.078a1.116,1.116,0,0,0,.529,1.061c2.741,1.7,7.073,3.479,13.107,5.691l1.635-.3-.352-.252c-3.665-2.782-12.755-5.563-14.918-6.2Z" fill="#087c7c"/>
                <path id="Path_15382" data-name="Path 15382" d="M56.852,87.769s12.206-5.4,15.19-12.272A28.7,28.7,0,0,1,55.749,83.7L54,84.976l2.855,2.792Z" fill="#087c7c"/>
                <path id="Path_15383" data-name="Path 15383" d="M49.879,71.14a38.293,38.293,0,0,0,4.584,2.327,2.623,2.623,0,0,0,.385-4.181,36.97,36.97,0,0,0-4.406-.267,1.145,1.145,0,0,0-.563,2.121Z" fill="#ffd2b3"/>
                <path id="Path_15384" data-name="Path 15384" d="M49.351,70.078a1.116,1.116,0,0,0,.529,1.061,38.292,38.292,0,0,0,4.584,2.327,3.482,3.482,0,0,0,1.08-1.352c-2.73-.994-5.2-1.743-6.192-2.037Z" fill="#d39266"/>
                <path id="Path_15385" data-name="Path 15385" d="M52.716,73.251l.5-3.107s-5.675.455-8.407,1.016c0,0-3.678,3.293,2.59,10.305l3.82-5.015,1.5-3.2Z" fill="#011721"/>
                <path id="Path_15386" data-name="Path 15386" d="M51.044,81.074,50.9,79.357h2.291l1.985-2.873-3.059-4.017s-1,3.106-3.842,3.492L47.3,74.242s-1.261,1.331.21,3.538a4.152,4.152,0,0,1-.107,3.684l3.644-.391Z" fill="#ffd2b3"/>
                <path id="Path_15387" data-name="Path 15387" d="M85.767,79.805a1.193,1.193,0,0,0-1.835-1.471C78.207,83.482,69.313,91.3,67.065,92.247L53.338,81.882a5.6,5.6,0,0,0-8.65,2.59c-2.474,6.99-5.762,19.752-6.957,40.175a19.508,19.508,0,0,0,19.765,2.4c.363-9.861.461-20.066.174-30.419l9.572,3.116s7.369.07,18.525-19.938Z" fill="#087c7c"/>
                <path id="Path_15388" data-name="Path 15388" d="M37.731,124.646c1.045-17.869,3.694-29.873,6-37.278-5,16.066-11.627,53.775.048,126.135a2,2,0,0,0,3.941.063,598.088,598.088,0,0,0,9.78-86.521,19.508,19.508,0,0,1-19.765-2.4Z" fill="#011721"/>
                <path id="Path_15389" data-name="Path 15389" d="M85.767,79.805a1.155,1.155,0,0,0-.243-1.462c-.025.044-7.376,12.882-17.534,19.407a107.427,107.427,0,0,1-12.812-3.319S57.229,116.058,44.1,127.9a19.459,19.459,0,0,0,13.392-.853c.363-9.861.461-20.066.174-30.419l9.572,3.116s7.369.07,18.525-19.938Z" fill="#5aa7a7"/>
                <path id="Path_15390" data-name="Path 15390" d="M83.932,78.334c-.98.881-2.057,1.843-3.174,2.834h0s.406,2.539,2.729,2.535c.742-1.209,1.5-2.5,2.28-3.9a1.193,1.193,0,0,0-1.835-1.471Z" fill="#ffd2b3"/>
                <path id="Path_15391" data-name="Path 15391" d="M82.217,83.384a2.533,2.533,0,0,0,1.271.319c.742-1.209,1.5-2.5,2.28-3.9a1.155,1.155,0,0,0-.243-1.462C85.514,78.361,84.313,80.458,82.217,83.384Z" fill="#d39266"/>
                <path id="Path_15392" data-name="Path 15392" d="M47.717,213.567a598.088,598.088,0,0,0,9.78-86.521,20.511,20.511,0,0,1-6.506,1.6l0,.058c1.915,27.322-4.51,81.7-5.084,86.475a1.926,1.926,0,0,0,1.815-1.612Z" fill="#05293c"/>
                <path id="Path_15393" data-name="Path 15393" d="M49.214,204.984a8.262,8.262,0,0,1-6.751,0q.615,4.18,1.312,8.519a2,2,0,0,0,3.941.063c.467-2.46.988-5.315,1.542-8.518l-.044-.066Z" fill="#d39266"/>
                <path id="Path_15394" data-name="Path 15394" d="M47.717,213.567c.467-2.46.988-5.315,1.542-8.518l-.044-.066a7.268,7.268,0,0,1-2.235.664c-.541,5.034-.95,8.483-1.077,9.533a1.926,1.926,0,0,0,1.815-1.612Z" fill="#ffd2b3"/>
                <path id="Path_15395" data-name="Path 15395" d="M53.384,206.839l2.378-8.252a4.359,4.359,0,0,1-1.871.194h0l-2.533,9.545A2.042,2.042,0,0,0,53.384,206.839Z" fill="#ffd2b3"/>
              </g>
            </g>
            <g id="Group_4289" data-name="Group 4289">
              <circle id="Ellipse_255" data-name="Ellipse 255" cx="6.559" cy="6.559" r="6.559" transform="translate(84.75 72.467) rotate(-45)" fill="#600c0c"/>
              <g id="Group_4288" data-name="Group 4288">
                <path id="Path_15396" data-name="Path 15396" d="M90.731,75.763h0a1.039,1.039,0,0,1,0-1.465l5.125-5.125a1.039,1.039,0,0,1,1.465,0h0a1.039,1.039,0,0,1,0,1.465L92.2,75.763A1.039,1.039,0,0,1,90.731,75.763Z" fill="#e85c4b"/>
                <path id="Path_15397" data-name="Path 15397" d="M97.321,75.763h0a1.039,1.039,0,0,1-1.465,0l-5.125-5.125a1.039,1.039,0,0,1,0-1.465h0a1.039,1.039,0,0,1,1.465,0L97.321,74.3A1.039,1.039,0,0,1,97.321,75.763Z" fill="#e85c4b"/>
              </g>
            </g>
          </g>
          <path id="Path_15398" data-name="Path 15398" d="M141.264,106.249a.08.08,0,0,1-.078-.062l-5.253-21.934a.08.08,0,0,1,.059-.1.082.082,0,0,1,.1.06l5.253,21.934a.08.08,0,0,1-.059.1l-.019,0Z" fill="#087c7c"/>
          <path id="Path_15399" data-name="Path 15399" d="M114.505,109.971a.068.068,0,0,1-.026,0l-9.478-3.2a.081.081,0,0,1-.051-.1.082.082,0,0,1,.1-.051l9.478,3.2a.081.081,0,0,1-.026.157Z" fill="#087c7c"/>
          <path id="Path_15400" data-name="Path 15400" d="M163.95,33.918a.08.08,0,0,1-.067-.036,39.727,39.727,0,0,0-9.6-9.161,44.742,44.742,0,0,0-29.2-7.7.076.076,0,0,1-.087-.075.081.081,0,0,1,.075-.087,44.862,44.862,0,0,1,29.314,7.736,39.917,39.917,0,0,1,9.634,9.2.08.08,0,0,1-.022.112.075.075,0,0,1-.045.014Z" fill="#011721"/>
        </g>
      </g>
    </g>
  </g>
</svg>
