<svg id="property_submited" data-name="property submited" xmlns="http://www.w3.org/2000/svg" xmlns:xlink="http://www.w3.org/1999/xlink" width="255" height="255" viewBox="0 0 255 255">
  <defs>
    <linearGradient id="linear-gradient" x1="0.488" y1="-0.011" x2="0.512" y2="1.041" gradientUnits="objectBoundingBox">
      <stop offset="0" stop-color="#fafaff"/>
      <stop offset="0.55" stop-color="#fafaff"/>
      <stop offset="1" stop-color="#e5f7f9"/>
    </linearGradient>
    <radialGradient id="radial-gradient" cx="0.51" cy="0.003" r="1.958" gradientUnits="objectBoundingBox">
      <stop offset="0" stop-color="#76938e"/>
      <stop offset="0.57" stop-color="#acd3d3" stop-opacity="0.22"/>
      <stop offset="0.73" stop-color="#d1e5e8" stop-opacity="0.11"/>
      <stop offset="0.95" stop-color="#fafaff" stop-opacity="0"/>
    </radialGradient>
    <linearGradient id="linear-gradient-2" x1="0.513" y1="0.068" x2="0.491" y2="1.257" gradientUnits="objectBoundingBox">
      <stop offset="0" stop-color="#fff"/>
      <stop offset="0.55" stop-color="#fafaff"/>
      <stop offset="1" stop-color="#e5f7f9"/>
    </linearGradient>
    <linearGradient id="linear-gradient-3" x1="0.5" y1="-0.044" x2="0.5" y2="0.962" xlink:href="#linear-gradient"/>
    <linearGradient id="linear-gradient-4" x1="0.5" y1="-0.219" x2="0.5" y2="1.084" gradientUnits="objectBoundingBox">
      <stop offset="0.01" stop-color="#68d8cf"/>
      <stop offset="0.46" stop-color="#a1e3de"/>
      <stop offset="1" stop-color="#e3f0f0"/>
    </linearGradient>
    <linearGradient id="linear-gradient-5" x1="0.755" y1="1.119" x2="0.475" y2="0.245" gradientUnits="objectBoundingBox">
      <stop offset="0.01" stop-color="#061a23"/>
      <stop offset="0.69" stop-color="#a0afb2"/>
      <stop offset="1" stop-color="#e3f0f0"/>
    </linearGradient>
    <linearGradient id="linear-gradient-6" x1="0.358" y1="-0.247" x2="0.591" y2="0.668" gradientUnits="objectBoundingBox">
      <stop offset="0" stop-color="#c8e1e1"/>
      <stop offset="1" stop-color="#3e9999"/>
    </linearGradient>
  </defs>
  <rect id="back" width="255" height="255" fill="none"/>
  <g id="Propery_submited" data-name="Propery submited" transform="translate(0.123)">
    <path id="Path_14785" data-name="Path 14785" d="M254.754,127.377h0a127.174,127.174,0,0,1-7.229,42.4q-.6,1.7-1.25,3.388-1.479,3.838-3.2,7.554-1.931,4.184-4.154,8.2a127.329,127.329,0,0,1-7.4,11.8l-.106.151-.144.2-.007.01-.1.138q-.274.385-.552.768a128.1,128.1,0,0,1-13.5,15.777q-.389.386-.781.768l-.037.036a126.957,126.957,0,0,1-88.92,36.175h0a126.873,126.873,0,0,1-82.79-30.572q-3.156-2.7-6.131-5.6l-.037-.036q-.392-.383-.781-.768A128.092,128.092,0,0,1,24.136,202q-.225-.309-.447-.62l-.106-.148A126.79,126.79,0,0,1,0,127.377H0A127.377,127.377,0,0,1,127.377,0h0A127.377,127.377,0,0,1,254.754,127.377Z" fill="url(#linear-gradient)"/>
    <path id="Path_14786" data-name="Path 14786" d="M231.242,201.124l-.144.2-.007.01A127.22,127.22,0,0,1,127.2,255h0A127.214,127.214,0,0,1,23.51,201.624l207.732-.5Z" fill="url(#radial-gradient)"/>
    <path id="Path_14787" data-name="Path 14787" d="M243.078,180.724q-1.931,4.184-4.154,8.2a127.331,127.331,0,0,1-7.4,11.8l-.106.151-.144.2-.007.01-.1.138q-.274.385-.552.768a128.1,128.1,0,0,1-13.5,15.777q-.389.386-.781.768l-.037.036H38.456l-.037-.036q-.392-.383-.781-.768A128.091,128.091,0,0,1,24.136,202q-.225-.309-.447-.62l-.106-.148a127.374,127.374,0,0,1-7.343-11.57q-.341-1.344-.624-2.758a49.761,49.761,0,0,1-.678-15.345,27.265,27.265,0,0,1,4.142-12.036c2.879-4.228,8.617-9.674,13.979-14.364,14.873-13.01,16.214-19.688,14.268-32.133C45.7,102.618,41.391,92.8,40.315,82.308,37.67,56.516,55.474,38.061,74.8,26.173,94.684,13.938,118.421,8.724,141.19,12.2l.682.107c25.549,3.987,51.408,31.684,43.16,60.9-1.709,6.051-2.591,13.519,3.12,17.592,2.351,1.678,5.144,2.464,7.862,3.3,36.258,11.18,56.367,49.439,47.063,86.623Z" fill="url(#linear-gradient-2)"/>
    <g id="home">
      <g id="Group_4186" data-name="Group 4186">
        <path id="Path_14788" data-name="Path 14788" d="M218.389,108.816H78.578L96.137,81.937H200.83Z" fill="#238a8a"/>
        <path id="Path_14789" data-name="Path 14789" d="M181.381,110.509l-32.9-36.026-32.9,36.026H78.578V112.2H218.389v-1.694Z" fill="#238a8a"/>
        <rect id="Rectangle_1523" data-name="Rectangle 1523" width="9.091" height="12.874" transform="translate(178.27 74.483)" fill="#acd3d3"/>
        <path id="Path_14790" data-name="Path 14790" d="M182.826,108.826,148.484,74.483l-34.332,34.332H78.578v1.694h37.008l1.446-1.694,31.452-31.452,31.361,31.464h0l1.536,1.682h37.008v-1.694Z" fill="#011721"/>
        <rect id="Rectangle_1524" data-name="Rectangle 1524" width="129.647" height="52.627" transform="translate(83.66 112.203)" fill="#c8e1e1"/>
        <rect id="Rectangle_1525" data-name="Rectangle 1525" width="139.812" height="3.674" transform="translate(78.578 164.83)" fill="#acd3d3"/>
        <rect id="Rectangle_1526" data-name="Rectangle 1526" width="145.774" height="3.674" transform="translate(75.597 168.289)" fill="#238a8a"/>
        <rect id="Rectangle_1527" data-name="Rectangle 1527" width="129.647" height="1.98" transform="translate(83.66 112.203)" fill="#75b6b6"/>
        <circle id="Ellipse_240" data-name="Ellipse 240" cx="5.761" cy="5.761" r="5.761" transform="translate(140.337 100.303) rotate(-45)" fill="#c8e1e1"/>
        <rect id="Rectangle_1528" data-name="Rectangle 1528" width="4.957" height="52.627" transform="translate(125.046 112.203)" fill="#acd3d3"/>
        <path id="Path_14791" data-name="Path 14791" d="M130.729,161h-6.41a2.759,2.759,0,0,0-2.759,2.759v1.074h11.927v-1.074A2.759,2.759,0,0,0,130.729,161Z" fill="#acd3d3"/>
        <path id="Path_14792" data-name="Path 14792" d="M124.32,116.037h6.41a2.759,2.759,0,0,0,2.759-2.759V112.2H121.561v1.074a2.759,2.759,0,0,0,2.759,2.759Z" fill="#acd3d3"/>
        <rect id="Rectangle_1529" data-name="Rectangle 1529" width="4.957" height="52.627" transform="translate(166.964 112.203)" fill="#acd3d3"/>
        <path id="Path_14793" data-name="Path 14793" d="M172.647,161h-6.41a2.759,2.759,0,0,0-2.759,2.759v1.074h11.927v-1.074A2.759,2.759,0,0,0,172.647,161Z" fill="#acd3d3"/>
        <path id="Path_14794" data-name="Path 14794" d="M166.238,116.037h6.41a2.759,2.759,0,0,0,2.759-2.759V112.2H163.48v1.074a2.759,2.759,0,0,0,2.759,2.759Z" fill="#acd3d3"/>
        <rect id="Rectangle_1530" data-name="Rectangle 1530" width="24.281" height="38.795" transform="translate(136.344 126.035)" fill="#011721"/>
        <path id="Path_14795" data-name="Path 14795" d="M159.059,127.749h-21.15V164.83h21.15V127.749Z" fill="#c8e1e1"/>
        <path id="Path_14796" data-name="Path 14796" d="M137.909,154.489l21.15-9.863V143.7l-21.15,10.022Z" fill="#75b6b6"/>
        <path id="Path_14797" data-name="Path 14797" d="M137.909,152.791l21.15-9.863v-4.6a10.558,10.558,0,0,0-.43-2.969l-20.72,9.818v7.618Z" fill="#75b6b6"/>
        <path id="Path_14798" data-name="Path 14798" d="M137.909,143.181,158.03,133.8a10.578,10.578,0,0,0-1.142-1.874l-18.979,8.993v2.264Z" fill="#75b6b6"/>
        <rect id="Rectangle_1531" data-name="Rectangle 1531" width="11.277" height="19.451" transform="translate(93.855 128.756)" fill="#011721"/>
        <rect id="Rectangle_1532" data-name="Rectangle 1532" width="8.938" height="16.768" transform="translate(95.024 130.097)" fill="#75b6b6"/>
        <path id="Path_14799" data-name="Path 14799" d="M95.024,146.865v-6.7l8.938-7.323v14.028Z" fill="#acd3d3"/>
        <rect id="Rectangle_1533" data-name="Rectangle 1533" width="11.277" height="19.451" transform="translate(106.757 128.756)" fill="#011721"/>
        <rect id="Rectangle_1534" data-name="Rectangle 1534" width="8.938" height="16.768" transform="translate(107.926 130.097)" fill="#75b6b6"/>
        <path id="Path_14800" data-name="Path 14800" d="M107.926,146.865v-6.7l8.938-7.323v14.028Z" fill="#acd3d3"/>
        <rect id="Rectangle_1535" data-name="Rectangle 1535" width="11.277" height="19.451" transform="translate(178.934 128.756)" fill="#011721"/>
        <rect id="Rectangle_1536" data-name="Rectangle 1536" width="8.938" height="16.768" transform="translate(180.104 130.097)" fill="#75b6b6"/>
        <path id="Path_14801" data-name="Path 14801" d="M180.1,146.865v-6.7l8.938-7.323v14.028Z" fill="#acd3d3"/>
        <rect id="Rectangle_1537" data-name="Rectangle 1537" width="11.277" height="19.451" transform="translate(191.836 128.756)" fill="#011721"/>
        <rect id="Rectangle_1538" data-name="Rectangle 1538" width="8.938" height="16.768" transform="translate(193.005 130.097)" fill="#75b6b6"/>
        <path id="Path_14802" data-name="Path 14802" d="M193.005,146.865v-6.7l8.938-7.323v14.028Z" fill="#acd3d3"/>
      </g>
      <g id="Group_4187" data-name="Group 4187">
        <path id="Path_14803" data-name="Path 14803" d="M191.077,170.064l-42.206,1.821a7.526,7.526,0,0,0-1.123-5.4,11.231,11.231,0,0,0-6.5-4.931L69.122,140.472a34.5,34.5,0,0,0-33.46,8.12L12.9,170.245l42.2,42.379,15.365-16.558a14.467,14.467,0,0,1,13.547-4.325l38.411,7.976a32.773,32.773,0,0,0,15.616-.562l71.97-20.435s-.361-9.738-18.936-8.656Z" fill="#ffd2b3"/>
        <path id="Path_14804" data-name="Path 14804" d="M148.871,171.885a5.388,5.388,0,0,1-.416.956,6.856,6.856,0,0,1-7.1,3.469L96.04,169.252l44.107,9.23a6.7,6.7,0,0,0,2.358.082c2.046-.3,5.383-1.592,6.366-6.68Z" fill="#c18d68"/>
        <path id="Path_14805" data-name="Path 14805" d="M207.609,174.084,153.387,186.9s-17.913,4.929-29.936.962L96.04,180.043s-14.066-4.839-26.93,4.569L43.8,201.269h0L55.1,212.624l15.365-16.558a14.467,14.467,0,0,1,13.547-4.325l38.411,7.976a32.773,32.773,0,0,0,15.616-.562l71.97-20.435a7.522,7.522,0,0,0-2.4-4.636Z" fill="#eabea0"/>
        <path id="Path_14806" data-name="Path 14806" d="M147.2,175.855l44.053-3.747a40.417,40.417,0,0,1,16.352,1.976h0c-2.38-2.335-7.114-4.569-16.532-4.02l-42.206,1.821-1.666,3.97Z" fill="#fcc6a0"/>
        <path id="Path_14807" data-name="Path 14807" d="M148.871,171.885a7.509,7.509,0,0,0-1.1-5.366,11.228,11.228,0,0,0-6.523-4.964L69.122,140.472a34.5,34.5,0,0,0-33.46,8.12L12.9,170.245l6.312,6.4,20.5-18.78c10.162-8.874,22.054-14.3,35.126-10.962l67.726,17.3a9.256,9.256,0,0,1,6.3,7.682Z" fill="#eabea0"/>
        <path id="Path_14808" data-name="Path 14808" d="M54.349,218.579H38.456l-.037-.036q-.392-.383-.781-.768A128.091,128.091,0,0,1,24.136,202q-.225-.309-.447-.62l-.106-.148a127.075,127.075,0,0,1-16.336-31.4,8.138,8.138,0,0,1,7.691,1.724q.18.16.353.333l37.756,37.755c.044.044.088.088.131.134A7.539,7.539,0,0,1,54.349,218.579Z" fill="#05293c"/>
        <path id="Path_14809" data-name="Path 14809" d="M20.168,175.9a.125.125,0,0,1-.094-.042.128.128,0,0,1,.008-.181l19.546-17.908c.13-.118,13.068-11.814,22.13-14.318a.128.128,0,0,1,.068.246c-9,2.487-21.9,14.143-22.025,14.261L20.255,175.869a.128.128,0,0,1-.086.034Z" fill="#011721"/>
        <path id="Path_14810" data-name="Path 14810" d="M131.666,174.93a.078.078,0,0,1-.02,0l-24.006-3.74a.128.128,0,1,1,.039-.253l24.006,3.74a.128.128,0,0,1-.019.254Z" fill="#011721"/>
        <path id="Path_14811" data-name="Path 14811" d="M141.328,174.361h-.018l-1.653-.228a3.012,3.012,0,0,1-2.524-2.154,6.257,6.257,0,0,1,.286-3.848,3.07,3.07,0,0,1,3.417-1.962l5.341.727a.128.128,0,0,1,.11.144.126.126,0,0,1-.144.109l-5.346-.727a2.815,2.815,0,0,0-3.137,1.8,6.009,6.009,0,0,0-.28,3.692,2.757,2.757,0,0,0,2.312,1.969l1.653.228a.128.128,0,0,1-.017.254Z" fill="#011721"/>
        <path id="Path_14812" data-name="Path 14812" d="M198.608,181.943a.127.127,0,0,1-.12-.086,2.81,2.81,0,0,1-.168-.917,2.71,2.71,0,0,1,2.064-2.726l6.608-1.693a.128.128,0,0,1,.064.248l-6.608,1.693a2.453,2.453,0,0,0-1.872,2.466,2.574,2.574,0,0,0,.153.846.128.128,0,0,1-.078.163.12.12,0,0,1-.042.007Z" fill="#011721"/>
        <path id="Path_14813" data-name="Path 14813" d="M9.735,177.067a.128.128,0,0,1-.032-.251l4.448-1.165a.128.128,0,0,1,.064.247l-4.448,1.165a.127.127,0,0,1-.033,0Z" fill="#011721"/>
        <path id="Path_14814" data-name="Path 14814" d="M10.516,177.939a.128.128,0,0,1-.032-.251l4.448-1.165a.126.126,0,0,1,.156.091.128.128,0,0,1-.091.156l-4.448,1.165a.127.127,0,0,1-.033,0Z" fill="#011721"/>
        <path id="Path_14815" data-name="Path 14815" d="M11.3,178.811a.128.128,0,0,1-.032-.251l4.448-1.165a.128.128,0,0,1,.064.247l-4.448,1.165a.126.126,0,0,1-.033,0Z" fill="#011721"/>
      </g>
    </g>
    <g id="check">
      <path id="Path_14816" data-name="Path 14816" d="M106.863,50.977a.167.167,0,0,1-.006-.333l5.5-.19a1.925,1.925,0,0,0,1.862-1.908.166.166,0,0,1,.167-.165h0a.166.166,0,0,1,.164.168,2.257,2.257,0,0,1-2.184,2.238l-5.5.19h-.006Z" fill="#011721"/>
      <g id="Group_4190" data-name="Group 4190">
        <circle id="Ellipse_241" data-name="Ellipse 241" cx="28.245" cy="28.245" r="28.245" transform="translate(65.775 30.67)" fill="url(#linear-gradient-3)"/>
        <path id="Path_14817" data-name="Path 14817" d="M93.855,85.728A26.648,26.648,0,1,1,120.5,59.08,26.678,26.678,0,0,1,93.855,85.728Zm0-52.015A25.367,25.367,0,1,0,119.222,59.08,25.4,25.4,0,0,0,93.855,33.714Z" fill="#061a23"/>
        <g id="Group_4189" data-name="Group 4189">
          <path id="Path_14818" data-name="Path 14818" d="M104.866,48.883,91.68,62.07l-5.837-5.837a4.743,4.743,0,0,0-6.707,0h0a4.743,4.743,0,0,0,0,6.707l5.837,5.837,3.4,3.4a4.67,4.67,0,0,0,6.6,0l3.4-3.4L111.573,55.59a4.743,4.743,0,0,0,0-6.707h0a4.743,4.743,0,0,0-6.707,0Z" fill="url(#linear-gradient-4)"/>
          <path id="Path_14819" data-name="Path 14819" d="M104.866,46,91.68,59.187,85.843,53.35a4.743,4.743,0,0,0-6.707,0h0a4.743,4.743,0,0,0,0,6.707l5.837,5.837,3.4,3.4a4.67,4.67,0,0,0,6.6,0l3.4-3.4,13.186-13.186a4.743,4.743,0,0,0,0-6.707h0a4.743,4.743,0,0,0-6.707,0Z" fill="url(#linear-gradient-5)"/>
          <path id="Path_14820" data-name="Path 14820" d="M79.708,59.485l9.242,9.242a3.861,3.861,0,0,0,5.46,0L111,52.135a3.934,3.934,0,0,0-5.564-5.563L91.681,60.331l-6.409-6.409a3.934,3.934,0,0,0-5.564,5.564Z" fill="url(#linear-gradient-6)"/>
        </g>
        <path id="Path_14821" data-name="Path 14821" d="M132.333,65.5l3.731-3.432a4.063,4.063,0,0,0,0-5.98l-3.731-3.432a4.064,4.064,0,0,1-1.024-4.493l1.873-4.7a4.063,4.063,0,0,0-2.6-5.393l-4.843-1.463A4.062,4.062,0,0,1,122.862,33l-.353-5.053a4.063,4.063,0,0,0-4.675-3.732l-5.009.776a4.064,4.064,0,0,1-4.151-2l-2.51-4.4a4.063,4.063,0,0,0-5.836-1.329l-4.164,2.874a4.063,4.063,0,0,1-4.616,0l-4.164-2.874a4.063,4.063,0,0,0-5.836,1.329l-2.51,4.4a4.064,4.064,0,0,1-4.151,2l-5.009-.776A4.062,4.062,0,0,0,65.2,27.947L64.849,33a4.064,4.064,0,0,1-2.878,3.606L57.128,38.07a4.063,4.063,0,0,0-2.6,5.393l1.873,4.7a4.062,4.062,0,0,1-1.024,4.493L51.647,56.09a4.063,4.063,0,0,0,0,5.98L55.378,65.5A4.063,4.063,0,0,1,56.4,70l-1.873,4.7a4.063,4.063,0,0,0,2.6,5.393l4.843,1.463a4.062,4.062,0,0,1,2.878,3.606l.353,5.053a4.063,4.063,0,0,0,4.675,3.732l5.009-.776a4.064,4.064,0,0,1,4.151,2l2.51,4.4a4.063,4.063,0,0,0,5.836,1.329l4.164-2.874a4.063,4.063,0,0,1,4.616,0l4.164,2.874a4.063,4.063,0,0,0,5.836-1.329l2.51-4.4a4.064,4.064,0,0,1,4.151-2l5.009.776a4.062,4.062,0,0,0,4.675-3.732l.353-5.053a4.064,4.064,0,0,1,2.878-3.606l4.843-1.463a4.062,4.062,0,0,0,2.6-5.393L131.308,70a4.062,4.062,0,0,1,1.024-4.493ZM93.855,85.16a26.08,26.08,0,1,1,26.08-26.08,26.08,26.08,0,0,1-26.08,26.08Z" fill="#c8e1e1"/>
      </g>
    </g>
  </g>
</svg>
