<svg id="something_went_wrong" xmlns="http://www.w3.org/2000/svg" xmlns:xlink="http://www.w3.org/1999/xlink" width="255" height="255" viewBox="0 0 255 255">
  <defs>
    <clipPath id="clip-path">
      <rect id="back" width="255" height="255" transform="translate(60 183)" fill="#fff"/>
    </clipPath>
    <linearGradient id="linear-gradient" x1="0.488" y1="-0.011" x2="0.512" y2="1.041" gradientUnits="objectBoundingBox">
      <stop offset="0" stop-color="#fafaff"/>
      <stop offset="0.55" stop-color="#fafaff"/>
      <stop offset="1" stop-color="#e5f7f9"/>
    </linearGradient>
    <radialGradient id="radial-gradient" cx="0.51" cy="0.003" r="1.958" gradientTransform="translate(0.377 0.007) scale(0.259 0.52)" gradientUnits="objectBoundingBox">
      <stop offset="0" stop-color="#76938e"/>
      <stop offset="0.57" stop-color="#acd3d3" stop-opacity="0.22"/>
      <stop offset="0.73" stop-color="#d1e5e8" stop-opacity="0.11"/>
      <stop offset="0.95" stop-color="#fafaff" stop-opacity="0"/>
    </radialGradient>
    <linearGradient id="linear-gradient-2" x1="0.5" y1="0.053" x2="0.5" y2="0.986" gradientUnits="objectBoundingBox">
      <stop offset="0" stop-color="#fff"/>
      <stop offset="0.55" stop-color="#fafaff"/>
      <stop offset="1" stop-color="#e5f7f9"/>
    </linearGradient>
    <linearGradient id="linear-gradient-3" x1="0.5" y1="0.129" x2="0.5" y2="0.937" xlink:href="#linear-gradient"/>
    <linearGradient id="linear-gradient-4" y1="0.5" x2="1" y2="0.5" gradientUnits="objectBoundingBox">
      <stop offset="0" stop-color="#c8e1e1"/>
      <stop offset="1" stop-color="#3e9999"/>
    </linearGradient>
    <linearGradient id="linear-gradient-8" x1="0" y1="0.5" x2="1" y2="0.5" xlink:href="#linear-gradient"/>
    <linearGradient id="linear-gradient-9" x1="0" y1="0.5" x2="1" y2="0.5" xlink:href="#linear-gradient"/>
  </defs>
  <g id="something_went_wrong-2" data-name="something_went_wrong" transform="translate(-60 -183)" clip-path="url(#clip-path)">
    <g id="Something_went_wrong-3" data-name="Something went wrong" transform="translate(60.123 183)">
      <path id="back-2" data-name="back" d="M254.754,127.377h0a127.174,127.174,0,0,1-7.229,42.4q-.6,1.7-1.25,3.388-1.479,3.838-3.2,7.554-1.931,4.184-4.154,8.2a127.329,127.329,0,0,1-7.4,11.8l-.106.151-.144.2-.007.01-.1.138q-.274.385-.552.768a128.1,128.1,0,0,1-13.5,15.777q-.389.386-.781.768l-.037.036a126.957,126.957,0,0,1-88.92,36.175h0a126.873,126.873,0,0,1-82.79-30.572q-3.156-2.7-6.131-5.6l-.037-.036q-.392-.383-.781-.768A128.092,128.092,0,0,1,24.136,202q-.225-.309-.447-.62l-.106-.148A126.79,126.79,0,0,1,0,127.377H0A127.377,127.377,0,0,1,127.377,0h0A127.377,127.377,0,0,1,254.754,127.377Z" fill="url(#linear-gradient)"/>
      <path id="shadow" d="M231.242,201.124l-.144.2-.007.01A127.22,127.22,0,0,1,127.2,255h0A127.214,127.214,0,0,1,23.51,201.624l207.732-.5Z" fill="url(#radial-gradient)"/>
      <g id="illustrator">
        <path id="Path_14824" data-name="Path 14824" d="M54.873,156.271A116.732,116.732,0,0,0,66.255,206.7H183.664A117.269,117.269,0,0,0,223.493,50.9,117.257,117.257,0,0,0,54.874,156.271Z" fill="url(#linear-gradient-2)"/>
        <path id="Path_14825" data-name="Path 14825" d="M236.622,206.794H10.321a.23.23,0,1,1,0-.446h226.3a.23.23,0,1,1,0,.446Z" fill="#011721"/>
        <g id="head">
          <path id="Path_14830" data-name="Path 14830" d="M176.355,74.181l-2.532-4.07,9.256-5.013a3.46,3.46,0,0,1,4.341,1.8c.88,1.761,2.1,5.018,2.607,11.507l-9.432-1.16-4.24-3.065Z" fill="#011721"/>
          <path id="Path_14831" data-name="Path 14831" d="M176.358,79.372l4.427,2.409,2.341-1.989a.843.843,0,0,1,1.136.194.976.976,0,0,1,.006,1.273s3.863-2.951,5.935-2.819a15.254,15.254,0,0,1-2.613-1.18c-2.964-1.321-1.337-4.744-3.163-5.335-.571-.185-.855,2.12-2.47,1.928-1.3-.153-5.605-1.475-5.605-1.475l0,6.994Z" fill="#ffd2b3"/>
          <path id="Path_14832" data-name="Path 14832" d="M184.269,81.259a15.326,15.326,0,0,1,1.8-1.528v0l-1.008-.581a1.119,1.119,0,0,0-1.309.1l-.62.54a.843.843,0,0,1,1.136.194.976.976,0,0,1,.006,1.273Z" fill="#d39266"/>
        </g>
        <g id="body">
          <path id="Path_14826" data-name="Path 14826" d="M153.837,104.379,135.572,106.2a2.105,2.105,0,0,0-.208,4.159,108.242,108.242,0,0,0,20.988,1.668l8.791-2.158-11.306-5.487Z" fill="#087c7c"/>
          <path id="Path_14827" data-name="Path 14827" d="M144.269,111.563c-2.956-1.9-1.377-6.094-1.377-6.094h0l-7.321.729a2.105,2.105,0,0,0-.208,4.159,79.042,79.042,0,0,0,8.905,1.206Z" fill="#ffd2b3"/>
          <path id="Path_14828" data-name="Path 14828" d="M133.813,109.059a2.012,2.012,0,0,0,1.551,1.3,108.242,108.242,0,0,0,20.988,1.668l8.611-2.114-.261-.258-2.211-1.073-7.485.448c-4.918.723-18.107.173-21.193.031Z" fill="#75b6b6"/>
          <path id="Path_14829" data-name="Path 14829" d="M135.364,110.357a79.042,79.042,0,0,0,8.905,1.206,3.732,3.732,0,0,1-1.615-2.214c-3.891-.075-7.426-.225-8.841-.29A2.012,2.012,0,0,0,135.364,110.357Z" fill="#d39266"/>
          <path id="Path_14833" data-name="Path 14833" d="M173.734,73.814c-5.209,4.718-13.258,14.639-20.636,32.3a4.32,4.32,0,0,0,4.147,5.974c7.841-.3,20.189-2.9,26.916-7.8l11.284,25.867s16.979,6.5,28.508-1.048c0,0-9.9-29.877-20.923-45.688a12.581,12.581,0,0,0-14.817-4.675,14.467,14.467,0,0,0-5.344,3.618l-16.141,18.027S172.956,85,176.65,75.85a1.825,1.825,0,0,0-2.915-2.038Z" fill="#087c7c"/>
          <path id="Path_14834" data-name="Path 14834" d="M166.727,100.389S172.955,85,176.65,75.851a1.775,1.775,0,0,0-.578-2.124S166.631,96.281,166.727,100.389Z" fill="#75b6b6"/>
          <path id="Path_14835" data-name="Path 14835" d="M174.253,81.781c.852-2.107,1.673-4.139,2.4-5.93a1.825,1.825,0,0,0-2.915-2.038,49.912,49.912,0,0,0-4.114,4.243c0,.021-.029,4.135,4.633,3.724Z" fill="#ffd2b3"/>
          <path id="Path_14836" data-name="Path 14836" d="M172.825,81.75a6.194,6.194,0,0,0,1.428.031c.852-2.107,1.673-4.139,2.4-5.93a1.775,1.775,0,0,0-.578-2.124s-1.472,3.518-3.246,8.023Z" fill="#d39266"/>
          <path id="Path_14837" data-name="Path 14837" d="M184.6,96.819c-4.216,10.848-26.719,14.94-28.244,15.205a4.365,4.365,0,0,0,.892.066c7.841-.3,20.189-2.9,26.916-7.8l11.284,25.867s.238.09.662.234l15.351-6.108c-20.41-6.547-26.861-27.461-26.861-27.461Z" fill="#75b6b6"/>
        </g>
        <g id="weel">
          <rect id="Rectangle_1539" data-name="Rectangle 1539" width="3.172" height="54.482" rx="1.117" transform="translate(228.393 197.953) rotate(90)" fill="#087c7c"/>
          <circle id="Ellipse_242" data-name="Ellipse 242" cx="4.119" cy="4.119" r="4.119" transform="translate(173.958 202.676) rotate(-45)" fill="#087c7c"/>
          <circle id="Ellipse_243" data-name="Ellipse 243" cx="4.119" cy="4.119" r="4.119" transform="translate(216.697 202.676) rotate(-45)" fill="#087c7c"/>
          <path id="Path_14852" data-name="Path 14852" d="M226.9,197.953H201.152v1.586h27.241v-.1a1.489,1.489,0,0,0-1.489-1.489Z" fill="#91c4c4"/>
        </g>
        <g id="leg">
          <path id="Path_14840" data-name="Path 14840" d="M157.19,141.8s-21.556,29.4-43.645,61.137a2.277,2.277,0,0,0,3.124,3.2c10.184-6.77,27.983-20.053,49.49-42.235l6.992-12.315-15.96-9.789Z" fill="#05293c"/>
          <path id="Path_14841" data-name="Path 14841" d="M166.158,163.9l6.992-12.315-3.6-2.207L157.19,141.8,126.4,199.258h0A334.529,334.529,0,0,0,166.158,163.9Z" fill="#011721"/>
          <path id="Path_14842" data-name="Path 14842" d="M218.757,131.3c-4.543-9.082-20.922-11.844-20.922-11.844-8.457,4.867-20.323,10.706-29.066,15.446-6.7,3.631-11.579,6.9-11.579,6.9,7.2,26.348,28.874,53.325,38.5,64.381a1.764,1.764,0,0,0,3.037-1.6c-5.586-21.525-17.067-55.969-17.067-55.969,16.394-4.177,26.152-8.619,31.955-12.359a18.506,18.506,0,0,0,5.14-4.95h0Z" fill="#05293c"/>
          <path id="Path_14843" data-name="Path 14843" d="M181.662,148.61c16.394-4.177,26.152-8.619,31.955-12.359,2.05-1.321,5.176-.408,6.534-2.348l-1.394-2.6a17.755,17.755,0,0,0-7.3-7.02s-27.072,11.16-43.383,21.313c3.788,22.17,13.573,43.658,22.966,55.085l1.221-.2,4.428-3.423c-5.939-21.174-15.028-48.442-15.028-48.442Z" fill="#011721"/>
          <path id="Path_14844" data-name="Path 14844" d="M119.5,194.412q-2.958,4.215-5.96,8.526a2.277,2.277,0,0,0,3.124,3.2c2.724-1.811,6-4.093,9.736-6.881,0,0-2.908-.215-4.376-1.393A9.7,9.7,0,0,1,119.5,194.412Z" fill="#ffd2b3"/>
          <path id="Path_14845" data-name="Path 14845" d="M198.729,204.579c-.94-3.623-1.586-6-2.777-10.132a17.45,17.45,0,0,1-2.128,2.668,9.768,9.768,0,0,1-4.088,1.964c2.253,2.785,4.288,5.188,5.956,7.1a1.764,1.764,0,0,0,3.037-1.6Z" fill="#ffd2b3"/>
          <path id="Path_14846" data-name="Path 14846" d="M122.078,197.9l-8.266,7.957a2.208,2.208,0,0,0,2.855.282c2.724-1.811,6-4.093,9.736-6.881a9.8,9.8,0,0,1-4.326-1.357Z" fill="#d39266"/>
          <path id="Path_14847" data-name="Path 14847" d="M193.577,197.349a10.5,10.5,0,0,1-3.841,1.73c2.253,2.785,4.288,5.188,5.956,7.1a1.712,1.712,0,0,0,2.047.446l-4.162-9.279Z" fill="#d39266"/>
        </g>
        <g id="char">
          <g id="back-3" data-name="back">
            <circle id="Ellipse_244" data-name="Ellipse 244" cx="6.278" cy="6.278" r="6.278" transform="translate(232.741 73.965) rotate(-45)" fill="#91c4c4"/>
            <path id="Path_14848" data-name="Path 14848" d="M243.046,67.876,239.8,79.944a6.213,6.213,0,0,0,2.023.295,6.264,6.264,0,0,0,1.226-12.363Z" fill="#087c7c"/>
            <path id="Path_14849" data-name="Path 14849" d="M207.4,149.512H179.164a5.892,5.892,0,0,1-5.892-5.892h0a5.892,5.892,0,0,1,5.892-5.893H207.4a13.6,13.6,0,0,0,13.1-10.022l12.853-46.26a5.892,5.892,0,0,1,7.255-4.1h0a5.892,5.892,0,0,1,4.1,7.255l-12.842,46.227A25.4,25.4,0,0,1,207.4,149.513Z" fill="#087c7c"/>
            <path id="Path_14850" data-name="Path 14850" d="M226.922,125.71l12.842-46.227a5.855,5.855,0,0,0,.17-2.254,5.872,5.872,0,0,0-6.58,4.216L220.5,127.705a13.6,13.6,0,0,1-13.1,10.022H179.164a5.892,5.892,0,0,0-5.892,5.892h0a5.81,5.81,0,0,0,.069.687,5.864,5.864,0,0,0,.878.088h28.234a25.4,25.4,0,0,0,24.468-18.686Z" fill="#91c4c4"/>
          </g>
          <g id="stand">
            <path id="Path_14838" data-name="Path 14838" d="M189.074,148.313H213.23v1.7a4.032,4.032,0,0,1-4.03,4.03H193.1a4.032,4.032,0,0,1-4.03-4.03v-1.7h0Z" fill="#087c7c"/>
            <path id="Path_14839" data-name="Path 14839" d="M213.23,148.313H200.816l.337,1.2v4.526h9.264a2.814,2.814,0,0,0,2.814-2.814Z" fill="#087c7c"/>
            <rect id="Rectangle_1540" data-name="Rectangle 1540" width="8.908" height="11.993" transform="translate(196.698 154.039)" fill="#087c7c"/>
            <rect id="Rectangle_1541" data-name="Rectangle 1541" width="4.536" height="33.226" transform="translate(198.884 166.031)" fill="#087c7c"/>
            <rect id="Rectangle_1542" data-name="Rectangle 1542" width="2.268" height="33.226" transform="translate(201.151 166.031)" fill="#91c4c4"/>
            <rect id="Rectangle_1543" data-name="Rectangle 1543" width="4.454" height="11.993" transform="translate(201.151 154.039)" fill="#91c4c4"/>
          </g>
          <g id="stand-2" data-name="stand">
            <path id="Path_14851" data-name="Path 14851" d="M184.515,147.468a2.474,2.474,0,0,1-2.349-3.242l5.956-18.167a15.392,15.392,0,0,1,14.655-10.617h35.1a2.471,2.471,0,0,1,0,4.943h-35.1a10.459,10.459,0,0,0-9.959,7.214l-5.956,18.167a2.473,2.473,0,0,1-2.348,1.7Z" fill="#087c7c"/>
            <path id="Path_14853" data-name="Path 14853" d="M237.879,115.442h-35.1a15.391,15.391,0,0,0-14.655,10.617l-.349,1.063a15.174,15.174,0,0,1,5.185-6.184,17.568,17.568,0,0,1,10.1-3.019H240.35a.062.062,0,0,0,0-.006,2.472,2.472,0,0,0-2.471-2.471Z" fill="#91c4c4"/>
          </g>
          <g id="shadow-2" data-name="shadow" opacity="0.38">
            <path id="Path_14854" data-name="Path 14854" d="M234.768,120.384l-.511,1.838-12.47.861.75-2.7Z" fill="#011721"/>
          </g>
        </g>
        <g id="table">
          <rect id="wood" width="2.559" height="93.474" transform="translate(54.094 113.32)" fill="#238a8a"/>
          <rect id="wood-2" data-name="wood" width="2.559" height="93.474" transform="translate(172.221 113.32)" fill="#238a8a"/>
          <rect id="wood-3" data-name="wood" width="154.222" height="2.4" rx="0.844" transform="translate(36.007 112.121)" fill="#238a8a"/>
        </g>
        <g id="error">
          <path id="Path_14855" data-name="Path 14855" d="M140.406,66.521l-13.1-.2a1.378,1.378,0,0,1-1.163-2.085l6.721-11.25,6.721-11.25a1.379,1.379,0,0,1,2.388.035l6.382,11.446,6.382,11.446a1.379,1.379,0,0,1-1.224,2.05l-13.1-.2Z" fill="#75b6b6"/>
          <path id="Path_14856" data-name="Path 14856" d="M140.425,65.269l-12.375-.185a.476.476,0,0,1-.4-.719L134,53.741l6.348-10.624a.475.475,0,0,1,.823.013L147.2,53.938l6.028,10.809a.475.475,0,0,1-.422.707l-12.375-.185Z" fill="url(#linear-gradient-3)"/>
          <path id="Path_14857" data-name="Path 14857" d="M141.486,58.538l-1.92-.029-.44-8.218,3.045.046Z" fill="#e85c4b"/>
          <circle id="Ellipse_245" data-name="Ellipse 245" cx="1.523" cy="1.523" r="1.523" transform="translate(138.342 60.758) rotate(-48.16)" fill="#e85c4b"/>
        </g>
        <g id="tree">
          <g id="tree-2" data-name="tree">
            <path id="Path_14858" data-name="Path 14858" d="M34.325,186.851h66.789v5.976a14.21,14.21,0,0,1-14.2,14.2H48.528a14.21,14.21,0,0,1-14.2-14.2v-5.976h0Z" fill="#087c7c"/>
            <path id="Path_14859" data-name="Path 14859" d="M54.505,201.781h26.43a20.185,20.185,0,0,0,19.485-14.93h-65.4A20.185,20.185,0,0,0,54.5,201.781Z" fill="url(#linear-gradient-4)"/>
            <path id="Path_14860" data-name="Path 14860" d="M61.631,181.6s-15.288-32.76,15.045-54.479c0,0,21.476,16.987-4.368,54.479H61.631Z" fill="url(#linear-gradient-4)"/>
            <path id="Path_14861" data-name="Path 14861" d="M76.677,127.123s5.657,40.853-10.6,54.479h6.234c25.844-37.492,4.368-54.479,4.368-54.479Z" fill="#238a8a"/>
            <path id="Path_14862" data-name="Path 14862" d="M84.628,153.443s-17.506-.119-22.968,16.882l4.414,4.545,18.553-21.427Z" fill="#238a8a"/>
            <path id="Path_14863" data-name="Path 14863" d="M59.4,186.851s-.85-44.651,45.258-31.061c0,0-4.125,20.142-32.032,31.061Z" fill="url(#linear-gradient-4)"/>
            <path id="Path_14864" data-name="Path 14864" d="M104.66,155.79s-24.39,1.936-39.071,31.061h7.039C100.535,175.931,104.66,155.79,104.66,155.79Z" fill="#238a8a"/>
            <path id="Path_14865" data-name="Path 14865" d="M58.252,169.133l-.068-.511s16.027,2.681,15.972,17.612l-1.012.327-5.919-1.826-9.447-12.813.474-2.789Z" fill="#238a8a"/>
            <path id="Path_14866" data-name="Path 14866" d="M73.112,186.851s3.154-20.384-32.153-19.535a24.369,24.369,0,0,0,11.648,19.535H73.112Z" fill="url(#linear-gradient-4)"/>
            <path id="Path_14867" data-name="Path 14867" d="M40.958,167.316a24.369,24.369,0,0,0,11.648,19.535h8.251c-11.648-6.375-19.9-19.535-19.9-19.535Z" fill="#238a8a"/>
          </g>
          <path id="Path_14868" data-name="Path 14868" d="M70.989,177.921a.083.083,0,0,1-.047-.015.081.081,0,0,1-.018-.111c.1-.136,10.031-13.675,21.373-18.311a.079.079,0,1,1,.059.146c-11.3,4.621-21.205,18.122-21.3,18.258a.081.081,0,0,1-.064.033Z" fill="#011721"/>
          <path id="Path_14869" data-name="Path 14869" d="M76.973,155.436h-.009a.079.079,0,0,1-.07-.087,116.54,116.54,0,0,0,.618-15.416.08.08,0,0,1,.076-.083.08.08,0,0,1,.083.076,116.569,116.569,0,0,1-.62,15.44.079.079,0,0,1-.079.071Z" fill="#011721"/>
          <path id="Path_14870" data-name="Path 14870" d="M60.857,186.93a.08.08,0,0,1-.038-.009,41.551,41.551,0,0,1-8.632-6.285.079.079,0,1,1,.115-.11,41.376,41.376,0,0,0,8.593,6.254.081.081,0,0,1,.033.108.079.079,0,0,1-.07.042Z" fill="#011721"/>
        </g>
        <g id="computer">
          <rect id="laptop" width="71.905" height="2.853" rx="1.004" transform="translate(150.625 111.998) rotate(180)" fill="#011721"/>
          <path id="Path_14871" data-name="Path 14871" d="M80.2,109.077h51.9L117.857,71.886,65.805,71.1Z" fill="#011721"/>
          <path id="Path_14872" data-name="Path 14872" d="M81.544,109.077h49.41L117.085,72.97l-49.561-.789Z" fill="#c8e1e1"/>
          <g id="_10101010" data-name="10101010" opacity="0.49">
            <path id="Path_14873" data-name="Path 14873" d="M45.259,82.569h.3a.077.077,0,0,1,.076.055l1.428,3.749c.014.037,0,.055-.034.055h-.282a.077.077,0,0,1-.076-.055L45.4,83.033a.036.036,0,0,0-.015-.017.018.018,0,0,0-.019,0l-.454.171-.015.005a.082.082,0,0,1-.068-.05l-.106-.2,0-.011a.05.05,0,0,1,.017-.055l.459-.286a.113.113,0,0,1,.065-.017Z" fill="#011721"/>
            <path id="Path_14874" data-name="Path 14874" d="M46.776,82.569h.3a.076.076,0,0,1,.076.055l1.428,3.749c.014.037,0,.055-.034.055h-.281a.078.078,0,0,1-.077-.055l-1.272-3.341a.035.035,0,0,0-.014-.017.021.021,0,0,0-.02,0l-.454.171-.014.005a.083.083,0,0,1-.069-.05l-.1-.2,0-.011a.05.05,0,0,1,.017-.055l.458-.286a.118.118,0,0,1,.066-.017Z" fill="#011721"/>
            <path id="Path_14875" data-name="Path 14875" d="M49.6,86.211a1.576,1.576,0,0,1-.528-.714l-.76-2a.83.83,0,0,1-.015-.714.592.592,0,0,1,.571-.273,1.285,1.285,0,0,1,.788.273,1.564,1.564,0,0,1,.531.714l.76,2a.822.822,0,0,1,.013.714.606.606,0,0,1-.579.274,1.256,1.256,0,0,1-.78-.274Zm.986-.239a.57.57,0,0,0-.023-.454l-.776-2.039a1.035,1.035,0,0,0-.321-.452A.729.729,0,0,0,49,82.856a.32.32,0,0,0-.326.171.568.568,0,0,0,.023.452l.776,2.039a1.048,1.048,0,0,0,.321.454.723.723,0,0,0,.457.171.344.344,0,0,0,.337-.171Z" fill="#011721"/>
            <path id="Path_14876" data-name="Path 14876" d="M52.273,86.211a1.576,1.576,0,0,1-.528-.714l-.76-2a.83.83,0,0,1-.015-.714.592.592,0,0,1,.571-.273,1.285,1.285,0,0,1,.788.273,1.564,1.564,0,0,1,.531.714l.76,2a.822.822,0,0,1,.013.714.606.606,0,0,1-.579.274,1.256,1.256,0,0,1-.78-.274Zm.986-.239a.57.57,0,0,0-.023-.454l-.776-2.039a1.035,1.035,0,0,0-.321-.452.729.729,0,0,0-.468-.171.32.32,0,0,0-.326.171.568.568,0,0,0,.023.452l.776,2.039a1.048,1.048,0,0,0,.321.454.723.723,0,0,0,.457.171.344.344,0,0,0,.337-.171Z" fill="#011721"/>
            <path id="Path_14877" data-name="Path 14877" d="M54.94,86.211a1.575,1.575,0,0,1-.528-.714l-.76-2a.832.832,0,0,1-.016-.714.6.6,0,0,1,.572-.273,1.285,1.285,0,0,1,.788.273,1.571,1.571,0,0,1,.531.714l.76,2a.826.826,0,0,1,.013.714.608.608,0,0,1-.58.274A1.259,1.259,0,0,1,54.94,86.211Zm.987-.239a.574.574,0,0,0-.023-.454l-.777-2.039a1.036,1.036,0,0,0-.321-.452.727.727,0,0,0-.467-.171.321.321,0,0,0-.326.171.567.567,0,0,0,.023.452l.777,2.039a1.047,1.047,0,0,0,.321.454.721.721,0,0,0,.456.171A.345.345,0,0,0,55.927,85.972Z" fill="#011721"/>
            <path id="Path_14878" data-name="Path 14878" d="M56.413,82.569h.3a.076.076,0,0,1,.076.055l1.428,3.749c.014.037,0,.055-.034.055H57.9a.078.078,0,0,1-.077-.055L56.55,83.033a.035.035,0,0,0-.014-.017.021.021,0,0,0-.02,0l-.454.171-.014.005a.083.083,0,0,1-.069-.05l-.1-.2,0-.011a.05.05,0,0,1,.017-.055l.458-.286a.118.118,0,0,1,.066-.017Z" fill="#011721"/>
            <path id="Path_14879" data-name="Path 14879" d="M59.241,86.211a1.576,1.576,0,0,1-.528-.714l-.76-2a.83.83,0,0,1-.015-.714.592.592,0,0,1,.571-.273,1.285,1.285,0,0,1,.788.273,1.564,1.564,0,0,1,.531.714l.76,2a.822.822,0,0,1,.013.714.606.606,0,0,1-.579.274,1.256,1.256,0,0,1-.78-.274Zm.986-.239a.57.57,0,0,0-.023-.454l-.776-2.039a1.035,1.035,0,0,0-.321-.452.729.729,0,0,0-.468-.171.32.32,0,0,0-.326.171.568.568,0,0,0,.023.452l.776,2.039a1.048,1.048,0,0,0,.321.454.723.723,0,0,0,.457.171.344.344,0,0,0,.337-.171Z" fill="#011721"/>
            <path id="Path_14880" data-name="Path 14880" d="M60.713,82.569h.3a.076.076,0,0,1,.076.055l1.428,3.749c.014.037,0,.055-.034.055H62.2a.078.078,0,0,1-.077-.055l-1.272-3.341a.035.035,0,0,0-.014-.017.021.021,0,0,0-.02,0l-.454.171-.014.005a.083.083,0,0,1-.069-.05l-.1-.2,0-.011a.05.05,0,0,1,.017-.055l.458-.286a.118.118,0,0,1,.066-.017Z" fill="#011721"/>
            <path id="Path_14881" data-name="Path 14881" d="M63.542,86.211a1.576,1.576,0,0,1-.528-.714l-.76-2a.83.83,0,0,1-.015-.714.592.592,0,0,1,.571-.273,1.285,1.285,0,0,1,.788.273,1.564,1.564,0,0,1,.531.714l.76,2a.822.822,0,0,1,.013.714.606.606,0,0,1-.579.274A1.256,1.256,0,0,1,63.542,86.211Zm.986-.239a.57.57,0,0,0-.023-.454l-.776-2.039a1.035,1.035,0,0,0-.321-.452.729.729,0,0,0-.468-.171.32.32,0,0,0-.326.171.568.568,0,0,0,.023.452l.776,2.039a1.048,1.048,0,0,0,.321.454.723.723,0,0,0,.457.171.344.344,0,0,0,.337-.171Z" fill="#011721"/>
            <path id="Path_14882" data-name="Path 14882" d="M65.014,82.569h.3a.076.076,0,0,1,.076.055l1.428,3.749c.014.037,0,.055-.034.055H66.5a.078.078,0,0,1-.077-.055l-1.272-3.341a.035.035,0,0,0-.014-.017.021.021,0,0,0-.02,0l-.454.171-.014.005a.083.083,0,0,1-.069-.05l-.1-.2,0-.011a.05.05,0,0,1,.017-.055l.458-.286a.118.118,0,0,1,.066-.017Z" fill="#011721"/>
            <path id="Path_14883" data-name="Path 14883" d="M66.53,82.569h.3a.076.076,0,0,1,.076.055l1.428,3.749c.014.037,0,.055-.034.055h-.281a.078.078,0,0,1-.077-.055l-1.272-3.341a.035.035,0,0,0-.014-.017.021.021,0,0,0-.02,0l-.454.171-.014.005a.083.083,0,0,1-.069-.05l-.1-.2,0-.011A.05.05,0,0,1,66,82.872l.458-.286a.118.118,0,0,1,.066-.017Z" fill="#011721"/>
            <path id="Path_14884" data-name="Path 14884" d="M68.046,82.569h.3a.077.077,0,0,1,.076.055l1.428,3.749c.014.037,0,.055-.034.055h-.282a.077.077,0,0,1-.076-.055l-1.272-3.341a.036.036,0,0,0-.015-.017.018.018,0,0,0-.019,0l-.454.171-.015.005a.082.082,0,0,1-.068-.05l-.106-.2,0-.011a.05.05,0,0,1,.017-.055l.459-.286a.113.113,0,0,1,.065-.017Z" fill="#011721"/>
            <path id="Path_14885" data-name="Path 14885" d="M69.563,82.569h.3a.076.076,0,0,1,.076.055l1.428,3.749c.014.037,0,.055-.034.055h-.281a.078.078,0,0,1-.077-.055L69.7,83.033a.035.035,0,0,0-.014-.017.021.021,0,0,0-.02,0l-.454.171-.014.005a.083.083,0,0,1-.069-.05l-.1-.2,0-.011a.05.05,0,0,1,.017-.055l.458-.286a.118.118,0,0,1,.066-.017Z" fill="#011721"/>
            <path id="Path_14886" data-name="Path 14886" d="M72.391,86.211a1.576,1.576,0,0,1-.528-.714l-.76-2a.83.83,0,0,1-.015-.714.592.592,0,0,1,.571-.273,1.285,1.285,0,0,1,.788.273,1.564,1.564,0,0,1,.531.714l.76,2a.822.822,0,0,1,.013.714.606.606,0,0,1-.579.274A1.256,1.256,0,0,1,72.391,86.211Zm.986-.239a.57.57,0,0,0-.023-.454l-.776-2.039a1.035,1.035,0,0,0-.321-.452.729.729,0,0,0-.468-.171.32.32,0,0,0-.326.171.568.568,0,0,0,.023.452l.776,2.039a1.048,1.048,0,0,0,.321.454.723.723,0,0,0,.457.171.344.344,0,0,0,.337-.171Z" fill="#011721"/>
            <path id="Path_14887" data-name="Path 14887" d="M75.059,86.211a1.576,1.576,0,0,1-.528-.714l-.76-2a.83.83,0,0,1-.015-.714.592.592,0,0,1,.571-.273,1.285,1.285,0,0,1,.788.273,1.564,1.564,0,0,1,.531.714l.76,2a.822.822,0,0,1,.013.714.606.606,0,0,1-.579.274A1.256,1.256,0,0,1,75.059,86.211Zm.986-.239a.569.569,0,0,0-.023-.454l-.776-2.039a1.035,1.035,0,0,0-.321-.452.729.729,0,0,0-.468-.171.32.32,0,0,0-.326.171.568.568,0,0,0,.023.452l.776,2.039a1.048,1.048,0,0,0,.321.454.723.723,0,0,0,.457.171.344.344,0,0,0,.337-.171Z" fill="#011721"/>
            <path id="Path_14888" data-name="Path 14888" d="M77.727,86.211A1.575,1.575,0,0,1,77.2,85.5l-.76-2a.832.832,0,0,1-.016-.714A.6.6,0,0,1,77,82.515a1.285,1.285,0,0,1,.788.273,1.571,1.571,0,0,1,.531.714l.76,2a.826.826,0,0,1,.013.714.608.608,0,0,1-.58.274A1.259,1.259,0,0,1,77.727,86.211Zm.987-.239a.574.574,0,0,0-.023-.454l-.777-2.039a1.036,1.036,0,0,0-.321-.452.727.727,0,0,0-.467-.171.321.321,0,0,0-.326.171.567.567,0,0,0,.023.452l.777,2.039a1.047,1.047,0,0,0,.321.454.721.721,0,0,0,.456.171A.345.345,0,0,0,78.714,85.972Z" fill="#011721"/>
            <path id="Path_14889" data-name="Path 14889" d="M80.4,86.211a1.576,1.576,0,0,1-.528-.714l-.76-2a.83.83,0,0,1-.015-.714.592.592,0,0,1,.571-.273,1.285,1.285,0,0,1,.788.273,1.564,1.564,0,0,1,.531.714l.76,2a.822.822,0,0,1,.013.714.606.606,0,0,1-.579.274A1.256,1.256,0,0,1,80.4,86.211Zm.986-.239a.57.57,0,0,0-.023-.454l-.776-2.039a1.035,1.035,0,0,0-.321-.452.729.729,0,0,0-.468-.171.32.32,0,0,0-.326.171.568.568,0,0,0,.023.452l.776,2.039a1.048,1.048,0,0,0,.321.454.723.723,0,0,0,.457.171.344.344,0,0,0,.337-.171Z" fill="#011721"/>
            <path id="Path_14890" data-name="Path 14890" d="M83.065,86.211a1.576,1.576,0,0,1-.528-.714l-.76-2a.83.83,0,0,1-.015-.714.592.592,0,0,1,.571-.273,1.285,1.285,0,0,1,.788.273,1.564,1.564,0,0,1,.531.714l.76,2a.822.822,0,0,1,.013.714.606.606,0,0,1-.579.274A1.256,1.256,0,0,1,83.065,86.211Zm.986-.239a.569.569,0,0,0-.023-.454l-.776-2.039a1.035,1.035,0,0,0-.321-.452.729.729,0,0,0-.468-.171.32.32,0,0,0-.326.171.568.568,0,0,0,.023.452l.776,2.039a1.048,1.048,0,0,0,.321.454.723.723,0,0,0,.457.171A.344.344,0,0,0,84.051,85.972Z" fill="#011721"/>
            <path id="Path_14891" data-name="Path 14891" d="M84.537,82.569h.3a.076.076,0,0,1,.076.055l1.428,3.749c.014.037,0,.055-.034.055h-.281a.078.078,0,0,1-.077-.055l-1.272-3.341a.035.035,0,0,0-.014-.017.021.021,0,0,0-.02,0l-.454.171-.014.005a.083.083,0,0,1-.069-.05l-.1-.2,0-.011a.05.05,0,0,1,.017-.055l.458-.286a.118.118,0,0,1,.066-.017Z" fill="#011721"/>
            <path id="Path_14892" data-name="Path 14892" d="M47.779,89.186h.3a.078.078,0,0,1,.076.055l1.428,3.749c.014.037,0,.055-.034.055h-.282a.076.076,0,0,1-.076-.055l-1.272-3.34a.034.034,0,0,0-.015-.017.018.018,0,0,0-.019,0l-.454.171-.015.006a.082.082,0,0,1-.068-.05l-.106-.2,0-.01a.05.05,0,0,1,.018-.055l.459-.286a.117.117,0,0,1,.065-.017Z" fill="#011721"/>
            <path id="Path_14893" data-name="Path 14893" d="M49.3,89.186h.3a.078.078,0,0,1,.076.055L51.1,92.99c.015.037,0,.055-.034.055h-.281a.078.078,0,0,1-.078-.055l-1.272-3.34a.03.03,0,0,0-.014-.017.021.021,0,0,0-.02,0l-.454.171-.014.006a.083.083,0,0,1-.069-.05l-.106-.2,0-.01a.049.049,0,0,1,.017-.055l.458-.286a.119.119,0,0,1,.066-.017Z" fill="#011721"/>
            <path id="Path_14894" data-name="Path 14894" d="M50.811,89.186h.3a.078.078,0,0,1,.076.055l1.427,3.749c.015.037,0,.055-.034.055H52.3a.078.078,0,0,1-.078-.055l-1.272-3.34a.03.03,0,0,0-.014-.017.021.021,0,0,0-.02,0l-.454.171-.014.006a.083.083,0,0,1-.069-.05l-.106-.2,0-.01a.049.049,0,0,1,.017-.055l.458-.286a.119.119,0,0,1,.066-.017Z" fill="#011721"/>
            <path id="Path_14895" data-name="Path 14895" d="M53.64,92.827a1.575,1.575,0,0,1-.528-.714l-.76-2a.834.834,0,0,1-.016-.714.6.6,0,0,1,.572-.273,1.289,1.289,0,0,1,.788.273,1.568,1.568,0,0,1,.531.714l.76,2a.824.824,0,0,1,.013.714.607.607,0,0,1-.58.273A1.254,1.254,0,0,1,53.64,92.827Zm.986-.24a.568.568,0,0,0-.023-.453L53.827,90.1a1.043,1.043,0,0,0-.321-.452.727.727,0,0,0-.467-.171.32.32,0,0,0-.326.171.567.567,0,0,0,.023.452l.776,2.039a1.043,1.043,0,0,0,.321.453.722.722,0,0,0,.456.171A.345.345,0,0,0,54.627,92.588Z" fill="#011721"/>
            <path id="Path_14896" data-name="Path 14896" d="M55.111,89.186h.3a.078.078,0,0,1,.076.055l1.427,3.749c.015.037,0,.055-.034.055H56.6a.078.078,0,0,1-.078-.055l-1.272-3.34a.03.03,0,0,0-.014-.017.021.021,0,0,0-.02,0l-.454.171-.014.006a.083.083,0,0,1-.069-.05l-.106-.2,0-.01a.049.049,0,0,1,.017-.055l.458-.286a.119.119,0,0,1,.066-.017Z" fill="#011721"/>
            <path id="Path_14897" data-name="Path 14897" d="M57.941,92.827a1.575,1.575,0,0,1-.528-.714l-.76-2a.834.834,0,0,1-.016-.714.6.6,0,0,1,.572-.273A1.289,1.289,0,0,1,58,89.4a1.568,1.568,0,0,1,.531.714l.76,2a.824.824,0,0,1,.013.714.607.607,0,0,1-.58.273,1.254,1.254,0,0,1-.779-.273Zm.986-.24a.568.568,0,0,0-.023-.453L58.127,90.1a1.043,1.043,0,0,0-.321-.452.727.727,0,0,0-.467-.171.32.32,0,0,0-.326.171.567.567,0,0,0,.023.452l.776,2.039a1.043,1.043,0,0,0,.321.453.722.722,0,0,0,.456.171A.345.345,0,0,0,58.927,92.588Z" fill="#011721"/>
            <path id="Path_14898" data-name="Path 14898" d="M59.412,89.186h.3a.078.078,0,0,1,.076.055l1.427,3.749c.015.037,0,.055-.034.055H60.9a.078.078,0,0,1-.078-.055L59.55,89.65a.03.03,0,0,0-.014-.017.021.021,0,0,0-.02,0l-.454.171-.014.006a.083.083,0,0,1-.069-.05l-.106-.2,0-.01a.049.049,0,0,1,.017-.055l.458-.286a.119.119,0,0,1,.066-.017Z" fill="#011721"/>
            <path id="Path_14899" data-name="Path 14899" d="M62.241,92.827a1.575,1.575,0,0,1-.528-.714l-.76-2a.834.834,0,0,1-.016-.714.6.6,0,0,1,.572-.273,1.289,1.289,0,0,1,.788.273,1.568,1.568,0,0,1,.531.714l.76,2a.824.824,0,0,1,.013.714.607.607,0,0,1-.58.273A1.254,1.254,0,0,1,62.241,92.827Zm.986-.24a.568.568,0,0,0-.023-.453L62.428,90.1a1.043,1.043,0,0,0-.321-.452.727.727,0,0,0-.467-.171.32.32,0,0,0-.326.171.567.567,0,0,0,.023.452l.776,2.039a1.043,1.043,0,0,0,.321.453.722.722,0,0,0,.456.171.345.345,0,0,0,.337-.171Z" fill="#011721"/>
            <path id="Path_14900" data-name="Path 14900" d="M63.713,89.186h.3a.078.078,0,0,1,.076.055l1.428,3.749c.014.037,0,.055-.034.055H65.2a.076.076,0,0,1-.076-.055l-1.272-3.34a.034.034,0,0,0-.015-.017.018.018,0,0,0-.019,0l-.454.171-.015.006a.082.082,0,0,1-.068-.05l-.106-.2,0-.01a.05.05,0,0,1,.018-.055l.459-.286a.117.117,0,0,1,.065-.017Z" fill="#011721"/>
            <path id="Path_14901" data-name="Path 14901" d="M65.229,89.186h.3a.078.078,0,0,1,.076.055l1.427,3.749c.015.037,0,.055-.034.055h-.281a.078.078,0,0,1-.078-.055l-1.272-3.34a.03.03,0,0,0-.014-.017.021.021,0,0,0-.02,0l-.454.171-.014.006a.083.083,0,0,1-.069-.05l-.106-.2,0-.01a.049.049,0,0,1,.017-.055l.458-.286a.119.119,0,0,1,.066-.017Z" fill="#011721"/>
            <path id="Path_14902" data-name="Path 14902" d="M66.745,89.186h.3a.078.078,0,0,1,.076.055l1.428,3.749c.014.037,0,.055-.034.055h-.282a.076.076,0,0,1-.076-.055l-1.272-3.34a.034.034,0,0,0-.015-.017.018.018,0,0,0-.019,0L66.4,89.8l-.015.006a.082.082,0,0,1-.068-.05l-.106-.2,0-.01a.05.05,0,0,1,.018-.055l.459-.286a.117.117,0,0,1,.065-.017Z" fill="#011721"/>
            <path id="Path_14903" data-name="Path 14903" d="M69.574,92.827a1.579,1.579,0,0,1-.528-.714l-.759-2a.834.834,0,0,1-.016-.714.6.6,0,0,1,.572-.273,1.289,1.289,0,0,1,.788.273,1.572,1.572,0,0,1,.531.714l.759,2a.826.826,0,0,1,.014.714.608.608,0,0,1-.58.273A1.257,1.257,0,0,1,69.574,92.827Zm.987-.24a.573.573,0,0,0-.023-.453L69.761,90.1a1.038,1.038,0,0,0-.321-.452.728.728,0,0,0-.467-.171.32.32,0,0,0-.326.171.569.569,0,0,0,.023.452l.777,2.039a1.042,1.042,0,0,0,.321.453.722.722,0,0,0,.456.171.345.345,0,0,0,.337-.171Z" fill="#011721"/>
            <path id="Path_14904" data-name="Path 14904" d="M72.242,92.827a1.579,1.579,0,0,1-.528-.714l-.759-2a.834.834,0,0,1-.016-.714.6.6,0,0,1,.572-.273,1.289,1.289,0,0,1,.788.273,1.573,1.573,0,0,1,.531.714l.759,2a.826.826,0,0,1,.014.714.608.608,0,0,1-.58.273A1.257,1.257,0,0,1,72.242,92.827Zm.987-.24a.573.573,0,0,0-.023-.453L72.429,90.1a1.038,1.038,0,0,0-.321-.452.728.728,0,0,0-.467-.171.32.32,0,0,0-.326.171.569.569,0,0,0,.023.452l.777,2.039a1.042,1.042,0,0,0,.321.453.722.722,0,0,0,.456.171.345.345,0,0,0,.337-.171Z" fill="#011721"/>
            <path id="Path_14905" data-name="Path 14905" d="M74.911,92.827a1.575,1.575,0,0,1-.528-.714l-.76-2a.834.834,0,0,1-.016-.714.6.6,0,0,1,.572-.273,1.289,1.289,0,0,1,.788.273,1.569,1.569,0,0,1,.531.714l.76,2a.824.824,0,0,1,.013.714.607.607,0,0,1-.58.273A1.254,1.254,0,0,1,74.911,92.827Zm.986-.24a.568.568,0,0,0-.023-.453L75.1,90.1a1.043,1.043,0,0,0-.321-.452.727.727,0,0,0-.467-.171.32.32,0,0,0-.326.171.567.567,0,0,0,.023.452l.776,2.039a1.043,1.043,0,0,0,.321.453.722.722,0,0,0,.456.171.345.345,0,0,0,.337-.171Z" fill="#011721"/>
            <path id="Path_14906" data-name="Path 14906" d="M76.382,89.186h.3a.078.078,0,0,1,.076.055l1.428,3.749c.014.037,0,.055-.034.055h-.282a.076.076,0,0,1-.076-.055L76.52,89.65a.034.034,0,0,0-.015-.017.018.018,0,0,0-.019,0l-.454.171-.015.006a.082.082,0,0,1-.068-.05l-.106-.2,0-.01a.05.05,0,0,1,.018-.055l.459-.286a.117.117,0,0,1,.065-.017Z" fill="#011721"/>
            <path id="Path_14907" data-name="Path 14907" d="M77.9,89.186h.3a.078.078,0,0,1,.076.055L79.7,92.99c.015.037,0,.055-.034.055h-.281a.078.078,0,0,1-.078-.055l-1.272-3.34a.03.03,0,0,0-.014-.017.021.021,0,0,0-.02,0l-.454.171-.014.006a.083.083,0,0,1-.069-.05l-.106-.2,0-.01a.049.049,0,0,1,.017-.055l.458-.286a.119.119,0,0,1,.066-.017Z" fill="#011721"/>
            <path id="Path_14908" data-name="Path 14908" d="M80.728,92.827a1.575,1.575,0,0,1-.528-.714l-.76-2a.834.834,0,0,1-.016-.714A.6.6,0,0,1,80,89.13a1.289,1.289,0,0,1,.788.273,1.568,1.568,0,0,1,.531.714l.76,2a.824.824,0,0,1,.013.714.607.607,0,0,1-.58.273A1.254,1.254,0,0,1,80.728,92.827Zm.986-.24a.568.568,0,0,0-.023-.453L80.914,90.1a1.043,1.043,0,0,0-.321-.452.727.727,0,0,0-.467-.171.32.32,0,0,0-.326.171.567.567,0,0,0,.023.452l.776,2.039a1.043,1.043,0,0,0,.321.453.722.722,0,0,0,.456.171.345.345,0,0,0,.337-.171Z" fill="#011721"/>
            <path id="Path_14909" data-name="Path 14909" d="M83.4,92.827a1.579,1.579,0,0,1-.528-.714l-.759-2a.834.834,0,0,1-.016-.714.6.6,0,0,1,.572-.273,1.289,1.289,0,0,1,.788.273,1.572,1.572,0,0,1,.531.714l.759,2a.826.826,0,0,1,.014.714.608.608,0,0,1-.58.273A1.257,1.257,0,0,1,83.4,92.827Zm.987-.24a.573.573,0,0,0-.023-.453L83.583,90.1a1.038,1.038,0,0,0-.321-.452.728.728,0,0,0-.467-.171.32.32,0,0,0-.326.171.569.569,0,0,0,.023.452l.777,2.039a1.042,1.042,0,0,0,.321.453.722.722,0,0,0,.456.171.345.345,0,0,0,.337-.171Z" fill="#011721"/>
            <path id="Path_14910" data-name="Path 14910" d="M84.867,89.186h.3a.078.078,0,0,1,.076.055l1.427,3.749c.015.037,0,.055-.034.055h-.281a.078.078,0,0,1-.078-.055L85,89.65a.03.03,0,0,0-.014-.017.021.021,0,0,0-.02,0l-.454.171-.014.006a.083.083,0,0,1-.069-.05l-.106-.2,0-.01a.049.049,0,0,1,.017-.055L84.8,89.2a.119.119,0,0,1,.066-.017Z" fill="#011721"/>
            <path id="Path_14911" data-name="Path 14911" d="M51.5,99.444a1.572,1.572,0,0,1-.528-.714l-.761-2a.831.831,0,0,1-.015-.714.6.6,0,0,1,.572-.273,1.289,1.289,0,0,1,.788.273,1.565,1.565,0,0,1,.531.714l.761,2a.824.824,0,0,1,.013.714.607.607,0,0,1-.58.274A1.257,1.257,0,0,1,51.5,99.444Zm.987-.239a.571.571,0,0,0-.023-.453l-.776-2.04a1.049,1.049,0,0,0-.321-.452.728.728,0,0,0-.467-.171.321.321,0,0,0-.326.171.565.565,0,0,0,.023.452l.776,2.04a1.054,1.054,0,0,0,.321.453.722.722,0,0,0,.456.171A.347.347,0,0,0,52.483,99.2Z" fill="#011721"/>
            <path id="Path_14912" data-name="Path 14912" d="M54.164,99.444a1.573,1.573,0,0,1-.528-.714l-.759-2a.833.833,0,0,1-.016-.714.6.6,0,0,1,.572-.273,1.289,1.289,0,0,1,.788.273,1.566,1.566,0,0,1,.531.714l.759,2a.824.824,0,0,1,.013.714.607.607,0,0,1-.58.274A1.257,1.257,0,0,1,54.164,99.444Zm.986-.239a.57.57,0,0,0-.023-.453l-.777-2.04a1.038,1.038,0,0,0-.321-.452.729.729,0,0,0-.467-.171.32.32,0,0,0-.326.171.565.565,0,0,0,.023.452l.777,2.04a1.045,1.045,0,0,0,.321.453.722.722,0,0,0,.456.171.344.344,0,0,0,.337-.171Z" fill="#011721"/>
            <path id="Path_14913" data-name="Path 14913" d="M55.636,95.8h.3a.078.078,0,0,1,.076.055l1.427,3.749c.015.037,0,.055-.034.055h-.281a.078.078,0,0,1-.077-.055l-1.272-3.341a.029.029,0,0,0-.014-.017.023.023,0,0,0-.019,0l-.454.171-.015.005a.082.082,0,0,1-.068-.05l-.106-.2,0-.011a.052.052,0,0,1,.017-.055l.459-.286a.115.115,0,0,1,.066-.017Z" fill="#011721"/>
            <path id="Path_14914" data-name="Path 14914" d="M57.152,95.8h.3a.076.076,0,0,1,.076.055l1.429,3.749c.014.037,0,.055-.034.055h-.281a.077.077,0,0,1-.076-.055L57.29,96.265a.035.035,0,0,0-.015-.017.023.023,0,0,0-.019,0l-.454.171-.014.005a.083.083,0,0,1-.069-.05l-.1-.2,0-.011a.05.05,0,0,1,.018-.055l.458-.286a.116.116,0,0,1,.066-.017Z" fill="#011721"/>
            <path id="Path_14915" data-name="Path 14915" d="M58.669,95.8h.3a.078.078,0,0,1,.076.055l1.427,3.749c.015.037,0,.055-.034.055h-.281a.078.078,0,0,1-.077-.055l-1.272-3.341a.029.029,0,0,0-.014-.017.023.023,0,0,0-.019,0l-.454.171-.015.005a.082.082,0,0,1-.068-.05l-.106-.2,0-.011a.052.052,0,0,1,.017-.055l.459-.286a.115.115,0,0,1,.066-.017Z" fill="#011721"/>
            <path id="Path_14916" data-name="Path 14916" d="M60.185,95.8h.3a.078.078,0,0,1,.076.055l1.427,3.749c.015.037,0,.055-.034.055h-.281a.078.078,0,0,1-.077-.055l-1.272-3.341a.029.029,0,0,0-.014-.017.023.023,0,0,0-.019,0l-.454.171-.015.005a.082.082,0,0,1-.068-.05l-.106-.2,0-.011a.052.052,0,0,1,.017-.055l.459-.286a.115.115,0,0,1,.066-.017Z" fill="#011721"/>
            <path id="Path_14917" data-name="Path 14917" d="M63.013,99.444a1.572,1.572,0,0,1-.528-.714l-.76-2a.831.831,0,0,1-.015-.714.6.6,0,0,1,.572-.273,1.289,1.289,0,0,1,.788.273,1.565,1.565,0,0,1,.531.714l.76,2a.824.824,0,0,1,.013.714.607.607,0,0,1-.58.274A1.257,1.257,0,0,1,63.013,99.444ZM64,99.2a.571.571,0,0,0-.023-.453l-.776-2.04a1.049,1.049,0,0,0-.321-.452.728.728,0,0,0-.467-.171.321.321,0,0,0-.326.171.565.565,0,0,0,.023.452l.776,2.04a1.054,1.054,0,0,0,.321.453.722.722,0,0,0,.456.171A.347.347,0,0,0,64,99.2Z" fill="#011721"/>
            <path id="Path_14918" data-name="Path 14918" d="M65.681,99.444a1.573,1.573,0,0,1-.528-.714l-.759-2a.833.833,0,0,1-.016-.714.6.6,0,0,1,.572-.273,1.289,1.289,0,0,1,.788.273,1.566,1.566,0,0,1,.531.714l.759,2a.824.824,0,0,1,.013.714.607.607,0,0,1-.58.274A1.257,1.257,0,0,1,65.681,99.444Zm.986-.239a.57.57,0,0,0-.023-.453l-.777-2.04a1.038,1.038,0,0,0-.321-.452.729.729,0,0,0-.467-.171.32.32,0,0,0-.326.171.565.565,0,0,0,.023.452l.777,2.04a1.045,1.045,0,0,0,.321.453.722.722,0,0,0,.456.171.344.344,0,0,0,.337-.171Z" fill="#011721"/>
            <path id="Path_14919" data-name="Path 14919" d="M67.153,95.8h.3a.078.078,0,0,1,.076.055l1.427,3.749c.015.037,0,.055-.034.055H68.64a.078.078,0,0,1-.077-.055L67.29,96.265a.029.029,0,0,0-.014-.017.023.023,0,0,0-.019,0l-.454.171-.015.005a.082.082,0,0,1-.068-.05l-.106-.2,0-.011a.052.052,0,0,1,.017-.055l.459-.286a.115.115,0,0,1,.066-.017Z" fill="#011721"/>
            <path id="Path_14920" data-name="Path 14920" d="M68.669,95.8h.3a.076.076,0,0,1,.076.055l1.429,3.749c.014.037,0,.055-.034.055h-.281a.077.077,0,0,1-.076-.055l-1.272-3.341a.035.035,0,0,0-.015-.017.023.023,0,0,0-.019,0l-.454.171-.014.005a.083.083,0,0,1-.069-.05l-.1-.2,0-.011a.05.05,0,0,1,.018-.055l.458-.286a.116.116,0,0,1,.066-.017Z" fill="#011721"/>
            <path id="Path_14921" data-name="Path 14921" d="M71.5,99.444a1.573,1.573,0,0,1-.528-.714l-.759-2a.833.833,0,0,1-.016-.714.6.6,0,0,1,.572-.273,1.289,1.289,0,0,1,.788.273,1.566,1.566,0,0,1,.531.714l.759,2a.824.824,0,0,1,.013.714.607.607,0,0,1-.58.274A1.257,1.257,0,0,1,71.5,99.444Zm.986-.239a.57.57,0,0,0-.023-.453l-.777-2.04a1.038,1.038,0,0,0-.321-.452.729.729,0,0,0-.467-.171.32.32,0,0,0-.326.171.565.565,0,0,0,.023.452l.777,2.04a1.045,1.045,0,0,0,.321.453.722.722,0,0,0,.456.171.344.344,0,0,0,.337-.171Z" fill="#011721"/>
            <path id="Path_14922" data-name="Path 14922" d="M54.016,106.06a1.575,1.575,0,0,1-.528-.714l-.76-2a.834.834,0,0,1-.016-.714.6.6,0,0,1,.572-.273,1.289,1.289,0,0,1,.788.273,1.575,1.575,0,0,1,.531.714l.76,2a.826.826,0,0,1,.013.714.608.608,0,0,1-.58.274A1.256,1.256,0,0,1,54.016,106.06Zm.987-.239a.572.572,0,0,0-.023-.454l-.776-2.039a1.044,1.044,0,0,0-.322-.452.73.73,0,0,0-.467-.171.321.321,0,0,0-.326.171.567.567,0,0,0,.023.452l.776,2.039a1.052,1.052,0,0,0,.321.454.724.724,0,0,0,.456.171A.347.347,0,0,0,55,105.821Z" fill="#011721"/>
            <path id="Path_14923" data-name="Path 14923" d="M56.684,106.06a1.579,1.579,0,0,1-.528-.714l-.759-2a.834.834,0,0,1-.016-.714.593.593,0,0,1,.571-.273,1.289,1.289,0,0,1,.788.273,1.57,1.57,0,0,1,.532.714l.759,2a.824.824,0,0,1,.013.714.608.608,0,0,1-.58.274A1.256,1.256,0,0,1,56.684,106.06Zm.986-.239a.571.571,0,0,0-.023-.454l-.777-2.039a1.037,1.037,0,0,0-.321-.452.732.732,0,0,0-.468-.171.321.321,0,0,0-.326.171.569.569,0,0,0,.023.452l.777,2.039a1.044,1.044,0,0,0,.321.454.724.724,0,0,0,.456.171A.344.344,0,0,0,57.671,105.821Z" fill="#011721"/>
            <path id="Path_14924" data-name="Path 14924" d="M59.352,106.06a1.579,1.579,0,0,1-.528-.714l-.759-2a.834.834,0,0,1-.016-.714.593.593,0,0,1,.571-.273,1.289,1.289,0,0,1,.788.273,1.57,1.57,0,0,1,.532.714l.759,2a.824.824,0,0,1,.013.714.608.608,0,0,1-.58.274,1.256,1.256,0,0,1-.78-.274Zm.986-.239a.571.571,0,0,0-.023-.454l-.777-2.039a1.037,1.037,0,0,0-.321-.452.732.732,0,0,0-.468-.171.321.321,0,0,0-.326.171.569.569,0,0,0,.023.452l.777,2.039a1.044,1.044,0,0,0,.321.454.724.724,0,0,0,.456.171.344.344,0,0,0,.337-.171Z" fill="#011721"/>
            <path id="Path_14925" data-name="Path 14925" d="M60.825,102.418h.3a.076.076,0,0,1,.076.055l1.428,3.748c.014.037,0,.055-.034.055h-.281a.077.077,0,0,1-.077-.055l-1.272-3.34a.029.029,0,0,0-.014-.017.02.02,0,0,0-.019,0l-.454.171-.014.006a.082.082,0,0,1-.069-.05l-.106-.2,0-.01a.05.05,0,0,1,.017-.055l.459-.286a.119.119,0,0,1,.066-.017Z" fill="#011721"/>
            <path id="Path_14926" data-name="Path 14926" d="M62.34,102.418h.3a.076.076,0,0,1,.076.055l1.428,3.748c.014.037,0,.055-.034.055h-.281a.077.077,0,0,1-.077-.055l-1.272-3.34a.029.029,0,0,0-.014-.017.02.02,0,0,0-.019,0l-.454.171-.014.006a.082.082,0,0,1-.069-.05l-.106-.2,0-.01a.05.05,0,0,1,.017-.055l.459-.286a.119.119,0,0,1,.066-.017Z" fill="#011721"/>
            <path id="Path_14927" data-name="Path 14927" d="M63.856,102.418h.3a.077.077,0,0,1,.076.055l1.428,3.748c.014.037,0,.055-.034.055h-.281a.077.077,0,0,1-.077-.055l-1.272-3.34a.032.032,0,0,0-.014-.017.019.019,0,0,0-.019,0l-.454.171-.015.006a.082.082,0,0,1-.068-.05l-.106-.2,0-.01a.05.05,0,0,1,.017-.055l.459-.286a.117.117,0,0,1,.065-.017Z" fill="#011721"/>
            <path id="Path_14928" data-name="Path 14928" d="M65.373,102.418h.3a.076.076,0,0,1,.076.055l1.428,3.748c.014.037,0,.055-.034.055H66.86a.077.077,0,0,1-.077-.055l-1.272-3.34a.029.029,0,0,0-.014-.017.02.02,0,0,0-.019,0l-.454.171-.014.006a.082.082,0,0,1-.069-.05l-.106-.2,0-.01a.05.05,0,0,1,.017-.055l.459-.286a.119.119,0,0,1,.066-.017Z" fill="#011721"/>
            <path id="Path_14929" data-name="Path 14929" d="M66.889,102.418h.3a.076.076,0,0,1,.076.055l1.428,3.748c.014.037,0,.055-.034.055h-.281a.077.077,0,0,1-.077-.055l-1.272-3.34a.029.029,0,0,0-.014-.017.02.02,0,0,0-.019,0l-.454.171-.014.006a.082.082,0,0,1-.069-.05l-.106-.2,0-.01a.05.05,0,0,1,.017-.055l.459-.286a.119.119,0,0,1,.066-.017Z" fill="#011721"/>
            <path id="Path_14930" data-name="Path 14930" d="M69.718,106.06a1.575,1.575,0,0,1-.528-.714l-.76-2a.834.834,0,0,1-.016-.714.6.6,0,0,1,.572-.273,1.289,1.289,0,0,1,.788.273,1.575,1.575,0,0,1,.531.714l.76,2a.826.826,0,0,1,.013.714.608.608,0,0,1-.58.274A1.256,1.256,0,0,1,69.718,106.06Zm.987-.239a.572.572,0,0,0-.023-.454l-.776-2.039a1.044,1.044,0,0,0-.322-.452.73.73,0,0,0-.467-.171.321.321,0,0,0-.326.171.567.567,0,0,0,.023.452l.776,2.039a1.052,1.052,0,0,0,.321.454.724.724,0,0,0,.456.171A.347.347,0,0,0,70.7,105.821Z" fill="#011721"/>
            <path id="Path_14931" data-name="Path 14931" d="M72.386,106.06a1.575,1.575,0,0,1-.528-.714l-.76-2a.834.834,0,0,1-.016-.714.6.6,0,0,1,.572-.273,1.289,1.289,0,0,1,.788.273,1.575,1.575,0,0,1,.531.714l.76,2a.826.826,0,0,1,.013.714.608.608,0,0,1-.58.274A1.256,1.256,0,0,1,72.386,106.06Zm.987-.239a.572.572,0,0,0-.023-.454l-.776-2.039a1.044,1.044,0,0,0-.322-.452.73.73,0,0,0-.467-.171.321.321,0,0,0-.326.171.567.567,0,0,0,.023.452l.776,2.039a1.052,1.052,0,0,0,.321.454.724.724,0,0,0,.456.171A.347.347,0,0,0,73.373,105.821Z" fill="#011721"/>
            <path id="Path_14932" data-name="Path 14932" d="M73.858,102.418h.3a.077.077,0,0,1,.076.055l1.428,3.748c.014.037,0,.055-.034.055h-.281a.077.077,0,0,1-.077-.055L74,102.882a.032.032,0,0,0-.014-.017.019.019,0,0,0-.019,0l-.454.171-.015.006a.082.082,0,0,1-.068-.05l-.106-.2,0-.01a.05.05,0,0,1,.017-.055l.459-.286a.117.117,0,0,1,.065-.017Z" fill="#011721"/>
            <path id="Path_14933" data-name="Path 14933" d="M76.687,106.06a1.575,1.575,0,0,1-.528-.714l-.76-2a.834.834,0,0,1-.016-.714.6.6,0,0,1,.572-.273,1.289,1.289,0,0,1,.788.273,1.575,1.575,0,0,1,.531.714l.76,2a.826.826,0,0,1,.013.714.608.608,0,0,1-.58.274A1.256,1.256,0,0,1,76.687,106.06Zm.987-.239a.572.572,0,0,0-.023-.454l-.776-2.039a1.044,1.044,0,0,0-.322-.452.73.73,0,0,0-.467-.171.321.321,0,0,0-.326.171.567.567,0,0,0,.023.452l.776,2.039a1.052,1.052,0,0,0,.321.454.724.724,0,0,0,.456.171A.347.347,0,0,0,77.674,105.821Z" fill="#011721"/>
            <path id="Path_14934" data-name="Path 14934" d="M78.158,102.418h.3a.076.076,0,0,1,.076.055l1.428,3.748c.014.037,0,.055-.034.055h-.281a.077.077,0,0,1-.077-.055l-1.272-3.34a.029.029,0,0,0-.014-.017.02.02,0,0,0-.019,0l-.454.171-.014.006a.082.082,0,0,1-.069-.05l-.106-.2,0-.01a.05.05,0,0,1,.017-.055l.459-.286a.119.119,0,0,1,.066-.017Z" fill="#011721"/>
            <path id="Path_14935" data-name="Path 14935" d="M80.987,106.06a1.579,1.579,0,0,1-.528-.714l-.759-2a.834.834,0,0,1-.016-.714.593.593,0,0,1,.571-.273,1.289,1.289,0,0,1,.788.273,1.57,1.57,0,0,1,.532.714l.759,2a.824.824,0,0,1,.013.714.608.608,0,0,1-.58.274,1.256,1.256,0,0,1-.78-.274Zm.986-.239a.571.571,0,0,0-.023-.454l-.777-2.039a1.037,1.037,0,0,0-.321-.452.732.732,0,0,0-.468-.171.321.321,0,0,0-.326.171.569.569,0,0,0,.023.452l.777,2.039a1.044,1.044,0,0,0,.321.454.724.724,0,0,0,.456.171.344.344,0,0,0,.337-.171Z" fill="#011721"/>
            <path id="Path_14936" data-name="Path 14936" d="M82.459,102.418h.3a.076.076,0,0,1,.076.055l1.428,3.748c.014.037,0,.055-.034.055h-.281a.077.077,0,0,1-.077-.055l-1.272-3.34a.029.029,0,0,0-.014-.017.02.02,0,0,0-.019,0l-.454.171-.014.006a.082.082,0,0,1-.069-.05l-.106-.2,0-.01a.05.05,0,0,1,.017-.055l.459-.286a.119.119,0,0,1,.066-.017Z" fill="#011721"/>
            <path id="Path_14937" data-name="Path 14937" d="M85.287,106.06a1.579,1.579,0,0,1-.528-.714l-.759-2a.834.834,0,0,1-.016-.714.593.593,0,0,1,.571-.273,1.289,1.289,0,0,1,.788.273,1.57,1.57,0,0,1,.532.714l.759,2a.824.824,0,0,1,.013.714.608.608,0,0,1-.58.274,1.256,1.256,0,0,1-.78-.274Zm.986-.239a.571.571,0,0,0-.023-.454l-.777-2.039a1.037,1.037,0,0,0-.321-.452.732.732,0,0,0-.468-.171.321.321,0,0,0-.326.171.569.569,0,0,0,.023.452l.777,2.039a1.044,1.044,0,0,0,.321.454.724.724,0,0,0,.456.171.344.344,0,0,0,.337-.171Z" fill="#011721"/>
            <path id="Path_14938" data-name="Path 14938" d="M87.956,106.06a1.575,1.575,0,0,1-.528-.714l-.76-2a.834.834,0,0,1-.016-.714.6.6,0,0,1,.572-.273,1.289,1.289,0,0,1,.788.273,1.575,1.575,0,0,1,.531.714l.76,2a.826.826,0,0,1,.013.714.608.608,0,0,1-.58.274A1.256,1.256,0,0,1,87.956,106.06Zm.987-.239a.572.572,0,0,0-.023-.454l-.776-2.039a1.044,1.044,0,0,0-.322-.452.73.73,0,0,0-.467-.171.321.321,0,0,0-.326.171.567.567,0,0,0,.023.452l.776,2.039a1.052,1.052,0,0,0,.321.454.724.724,0,0,0,.456.171A.347.347,0,0,0,88.943,105.821Z" fill="#011721"/>
            <path id="Path_14939" data-name="Path 14939" d="M89.428,102.418h.3a.076.076,0,0,1,.076.055l1.428,3.748c.014.037,0,.055-.034.055h-.281a.077.077,0,0,1-.077-.055l-1.272-3.34a.029.029,0,0,0-.014-.017.02.02,0,0,0-.019,0l-.454.171-.014.006a.082.082,0,0,1-.069-.05l-.106-.2,0-.01a.05.05,0,0,1,.017-.055l.459-.286a.119.119,0,0,1,.066-.017Z" fill="#011721"/>
            <path id="Path_14940" data-name="Path 14940" d="M90.943,102.418h.3a.077.077,0,0,1,.076.055l1.428,3.748c.014.037,0,.055-.034.055h-.281a.077.077,0,0,1-.077-.055l-1.272-3.34a.032.032,0,0,0-.014-.017.019.019,0,0,0-.019,0l-.454.171-.015.006a.082.082,0,0,1-.068-.05l-.106-.2,0-.01a.05.05,0,0,1,.017-.055l.459-.286a.117.117,0,0,1,.065-.017Z" fill="#011721"/>
            <path id="Path_14941" data-name="Path 14941" d="M93.773,106.06a1.575,1.575,0,0,1-.528-.714l-.76-2a.834.834,0,0,1-.016-.714.6.6,0,0,1,.572-.273,1.289,1.289,0,0,1,.788.273,1.575,1.575,0,0,1,.531.714l.76,2a.826.826,0,0,1,.013.714.608.608,0,0,1-.58.274A1.256,1.256,0,0,1,93.773,106.06Zm.987-.239a.572.572,0,0,0-.023-.454l-.776-2.039a1.044,1.044,0,0,0-.322-.452.73.73,0,0,0-.467-.171.321.321,0,0,0-.326.171.567.567,0,0,0,.023.452l.776,2.039a1.052,1.052,0,0,0,.321.454.724.724,0,0,0,.456.171A.347.347,0,0,0,94.76,105.821Z" fill="#011721"/>
            <path id="Path_14942" data-name="Path 14942" d="M96.441,106.06a1.575,1.575,0,0,1-.528-.714l-.76-2a.834.834,0,0,1-.016-.714.6.6,0,0,1,.572-.273,1.289,1.289,0,0,1,.788.273,1.575,1.575,0,0,1,.531.714l.76,2a.826.826,0,0,1,.013.714.608.608,0,0,1-.58.274A1.256,1.256,0,0,1,96.441,106.06Zm.987-.239a.572.572,0,0,0-.023-.454l-.776-2.039a1.044,1.044,0,0,0-.322-.452.73.73,0,0,0-.467-.171.321.321,0,0,0-.326.171.567.567,0,0,0,.023.452l.776,2.039a1.052,1.052,0,0,0,.321.454.724.724,0,0,0,.456.171A.347.347,0,0,0,97.428,105.821Z" fill="#011721"/>
            <path id="Path_14943" data-name="Path 14943" d="M97.912,102.418h.3a.077.077,0,0,1,.076.055l1.428,3.748c.014.037,0,.055-.034.055H99.4a.077.077,0,0,1-.077-.055l-1.272-3.34a.032.032,0,0,0-.014-.017.019.019,0,0,0-.019,0l-.454.171-.015.006a.082.082,0,0,1-.068-.05l-.106-.2,0-.01a.05.05,0,0,1,.017-.055l.459-.286a.117.117,0,0,1,.065-.017Z" fill="#011721"/>
            <path id="Path_14944" data-name="Path 14944" d="M99.429,102.418h.3a.076.076,0,0,1,.076.055l1.428,3.748c.014.037,0,.055-.034.055h-.281a.077.077,0,0,1-.077-.055l-1.272-3.34a.029.029,0,0,0-.014-.017.02.02,0,0,0-.019,0l-.454.171-.014.006a.082.082,0,0,1-.069-.05l-.106-.2,0-.01a.05.05,0,0,1,.017-.055l.459-.286a.119.119,0,0,1,.066-.017Z" fill="#011721"/>
            <path id="Path_14945" data-name="Path 14945" d="M102.258,106.06a1.579,1.579,0,0,1-.528-.714l-.759-2a.834.834,0,0,1-.016-.714.593.593,0,0,1,.571-.273,1.289,1.289,0,0,1,.788.273,1.57,1.57,0,0,1,.532.714l.759,2a.824.824,0,0,1,.013.714.608.608,0,0,1-.58.274,1.256,1.256,0,0,1-.78-.274Zm.986-.239a.571.571,0,0,0-.023-.454l-.777-2.039a1.037,1.037,0,0,0-.321-.452.732.732,0,0,0-.468-.171.321.321,0,0,0-.326.171.569.569,0,0,0,.023.452l.777,2.039a1.044,1.044,0,0,0,.321.454.724.724,0,0,0,.456.171.344.344,0,0,0,.337-.171Z" fill="#011721"/>
            <path id="Path_14946" data-name="Path 14946" d="M104.926,106.06a1.579,1.579,0,0,1-.528-.714l-.759-2a.834.834,0,0,1-.016-.714.593.593,0,0,1,.571-.273,1.289,1.289,0,0,1,.788.273,1.57,1.57,0,0,1,.532.714l.759,2a.824.824,0,0,1,.013.714.608.608,0,0,1-.58.274,1.256,1.256,0,0,1-.78-.274Zm.986-.239a.571.571,0,0,0-.023-.454l-.777-2.039a1.037,1.037,0,0,0-.321-.452.732.732,0,0,0-.468-.171.321.321,0,0,0-.326.171.569.569,0,0,0,.023.452l.777,2.039a1.044,1.044,0,0,0,.321.454.724.724,0,0,0,.456.171.345.345,0,0,0,.337-.171Z" fill="#011721"/>
          </g>
          <g id="popup">
            <path id="Path_14947" data-name="Path 14947" d="M117.447,105.222H89.89L82.673,86.273H110.23Z" fill="#238a8a"/>
            <path id="Path_14948" data-name="Path 14948" d="M119.127,102.256H91.57L84.353,83.307H111.91Z" fill="#e3f0f0"/>
            <path id="Path_14949" data-name="Path 14949" d="M111.91,83.307l-10.17,9.475L84.353,83.307Z" fill="#75b6b6"/>
            <path id="Path_14950" data-name="Path 14950" d="M98.516,91.024l3.224,1.757,2.623-2.444,14.764,11.918H91.57Z" fill="#c8e1e1"/>
            <path id="Path_14951" data-name="Path 14951" d="M49.061,55.129H83.287a4.3,4.3,0,0,1,3.663,2.652L96.991,84.145c.556,1.459-.183,2.652-1.642,2.652H61.123a4.3,4.3,0,0,1-3.663-2.652L47.419,57.781c-.556-1.459.183-2.652,1.642-2.652Z" fill="#600c0c"/>
            <g id="dangerus">
              <path id="Path_14952" data-name="Path 14952" d="M74.462,63.092c-1.138-2.988-4.549-5.394-7.514-5.249-2.512.124-3.888,2.147-3.177,4.7a8.3,8.3,0,0,0,3.44,4.476,19.694,19.694,0,0,1,2.46,1.9,2.675,2.675,0,0,0,2.023.7c.69,0,1.284-.08,1.488-.707a5.36,5.36,0,0,1,.92-1.776,3.985,3.985,0,0,0,.362-4.042Z" fill="url(#linear-gradient-8)"/>
              <path id="Path_14953" data-name="Path 14953" d="M83.243,77.966c-.014.1-.181.325-.6.143l-.319-.139L65.885,70.791l-.319-.139a.716.716,0,0,1-.49-.618A3.058,3.058,0,0,0,63.11,67.2c-1.233-.539-2.352-.141-2.5.887a2.521,2.521,0,0,0,.737,1.94,1.277,1.277,0,0,0-1.172,1.106,3.058,3.058,0,0,0,1.967,2.836c1.233.539,2.352.141,2.5-.887.014-.1.181-.325.6-.143l.319.139L82,80.255l.319.139a.716.716,0,0,1,.49.618,3.058,3.058,0,0,0,1.967,2.836c1.233.539,2.352.141,2.5-.887a2.521,2.521,0,0,0-.737-1.94,1.277,1.277,0,0,0,1.172-1.106,3.058,3.058,0,0,0-1.967-2.836C84.509,76.541,83.39,76.938,83.243,77.966Z" fill="url(#linear-gradient-9)"/>
              <path id="Path_14954" data-name="Path 14954" d="M66.5,77.966a.605.605,0,0,0,.707.143l.213-.139,10.972-7.179.213-.139c.278-.182.108-.519.018-.618-.93-1.028-1.017-2.3-.194-2.836s2.244-.141,3.174.887a2.516,2.516,0,0,1,.741,1.94,3.38,3.38,0,0,1,2.015,1.106c.93,1.028,1.017,2.3.194,2.836s-2.244.141-3.174-.887a.605.605,0,0,0-.707-.143l-.213.139L69.489,80.255l-.213.139c-.278.182-.108.519-.018.618.93,1.028,1.017,2.3.194,2.836s-2.244.141-3.174-.887a2.516,2.516,0,0,1-.741-1.94,3.38,3.38,0,0,1-2.015-1.106c-.93-1.028-1.017-2.3-.194-2.836S65.573,76.938,66.5,77.966Z" fill="url(#linear-gradient-9)"/>
            </g>
          </g>
          <g id="lines">
            <path id="Path_14955" data-name="Path 14955" d="M108.448,77.594h-3.319a.287.287,0,0,1-.245-.177c-.038-.1.012-.177.11-.177h3.319a.287.287,0,0,1,.245.177C108.6,77.515,108.546,77.594,108.448,77.594Z" fill="#011721"/>
            <path id="Path_14956" data-name="Path 14956" d="M111.166,77.594h-1.561a.287.287,0,0,1-.245-.177c-.038-.1.012-.177.11-.177h1.561a.287.287,0,0,1,.245.177C111.314,77.515,111.264,77.594,111.166,77.594Z" fill="#011721"/>
            <path id="Path_14957" data-name="Path 14957" d="M115.493,77.594h-3.575a.287.287,0,0,1-.245-.177c-.038-.1.012-.177.11-.177h3.575a.287.287,0,0,1,.245.177C115.641,77.515,115.592,77.594,115.493,77.594Z" fill="#011721"/>
            <path id="Path_14958" data-name="Path 14958" d="M107.705,78.828H105.6a.287.287,0,0,1-.245-.177c-.037-.1.012-.177.11-.177h2.106a.287.287,0,0,1,.245.177C107.852,78.749,107.8,78.828,107.705,78.828Z" fill="#011721"/>
            <path id="Path_14959" data-name="Path 14959" d="M108.918,78.828h-.4a.287.287,0,0,1-.245-.177c-.038-.1.012-.177.11-.177h.4a.287.287,0,0,1,.245.177C109.065,78.749,109.016,78.828,108.918,78.828Z" fill="#011721"/>
            <path id="Path_14960" data-name="Path 14960" d="M112.138,78.828H109.4a.287.287,0,0,1-.245-.177c-.037-.1.012-.177.11-.177H112a.287.287,0,0,1,.245.177C112.285,78.749,112.236,78.828,112.138,78.828Z" fill="#011721"/>
            <path id="Path_14961" data-name="Path 14961" d="M114.73,78.828h-1.777a.287.287,0,0,1-.245-.177c-.037-.1.012-.177.11-.177h1.777a.287.287,0,0,1,.245.177C114.878,78.749,114.828,78.828,114.73,78.828Z" fill="#011721"/>
            <path id="Path_14962" data-name="Path 14962" d="M110.145,80.02h-4.092a.287.287,0,0,1-.245-.177c-.037-.1.012-.177.11-.177h4.092a.287.287,0,0,1,.245.177C110.293,79.94,110.244,80.02,110.145,80.02Z" fill="#011721"/>
            <path id="Path_14963" data-name="Path 14963" d="M111.462,80.02h-.711a.287.287,0,0,1-.245-.177c-.037-.1.012-.177.11-.177h.711a.287.287,0,0,1,.245.177C111.61,79.94,111.56,80.02,111.462,80.02Z" fill="#011721"/>
            <path id="Path_14964" data-name="Path 14964" d="M112.842,80.02h-.753a.287.287,0,0,1-.245-.177c-.037-.1.012-.177.11-.177h.753a.287.287,0,0,1,.245.177C112.99,79.94,112.94,80.02,112.842,80.02Z" fill="#011721"/>
            <path id="Path_14965" data-name="Path 14965" d="M115.937,80.02h-2.279a.287.287,0,0,1-.245-.177c-.038-.1.012-.177.11-.177H115.8a.287.287,0,0,1,.245.177C116.085,79.94,116.035,80.02,115.937,80.02Z" fill="#011721"/>
          </g>
          <path id="Path_14966" data-name="Path 14966" d="M123.558,96.564l-.726-1.9a3.04,3.04,0,0,0-2.594-1.878c-1.036,0-1.558.843-1.163,1.878l.726,1.9a.541.541,0,0,0-.478.811l1.41,3.7a1.32,1.32,0,0,0,1.124.814h3.7c.448,0,.674-.366.5-.814l-1.41-3.7a1.325,1.325,0,0,0-1.1-.811Zm-.522,3.56a1.021,1.021,0,0,1-.872-.632c-.133-.349.042-.632.391-.632a1.021,1.021,0,0,1,.872.632C123.561,99.842,123.385,100.124,123.036,100.124Zm-.427-3.563h-1.861l-.725-1.9c-.2-.513.063-.931.576-.931a1.506,1.506,0,0,1,1.285.931Z" fill="#e85c4b"/>
        </g>
      </g>
    </g>
  </g>
</svg>
