<svg id="no_data_found_illustrator" xmlns="http://www.w3.org/2000/svg" xmlns:xlink="http://www.w3.org/1999/xlink" width="255" height="255" viewBox="0 0 255 255">
  <defs>
    <clipPath id="clip-path">
      <rect id="Rectangle_1503" data-name="Rectangle 1503" width="255" height="255" transform="translate(60 183)" fill="#fff"/>
    </clipPath>
    <linearGradient id="linear-gradient" x1="0.488" y1="-0.011" x2="0.512" y2="1.041" gradientUnits="objectBoundingBox">
      <stop offset="0" stop-color="#fafaff"/>
      <stop offset="0.55" stop-color="#fafaff"/>
      <stop offset="1" stop-color="#e5f7f9"/>
    </linearGradient>
    <radialGradient id="radial-gradient" cx="0.51" cy="0.003" r="1.958" gradientUnits="objectBoundingBox">
      <stop offset="0" stop-color="#76938e"/>
      <stop offset="0.57" stop-color="#acd3d3" stop-opacity="0.22"/>
      <stop offset="0.73" stop-color="#d1e5e8" stop-opacity="0.11"/>
      <stop offset="0.95" stop-color="#fafaff" stop-opacity="0"/>
    </radialGradient>
    <linearGradient id="linear-gradient-2" x1="0.832" y1="0.18" x2="0.22" y2="0.666" gradientUnits="objectBoundingBox">
      <stop offset="0" stop-color="#c8e1e1"/>
      <stop offset="1" stop-color="#3e9999"/>
    </linearGradient>
    <linearGradient id="linear-gradient-3" x1="0.337" y1="-0.119" x2="0.903" y2="2.391" xlink:href="#linear-gradient-2"/>
    <linearGradient id="linear-gradient-4" x1="0.484" y1="-7.197" x2="0.515" y2="7.51" xlink:href="#linear-gradient-2"/>
    <linearGradient id="linear-gradient-5" x1="0.203" y1="-0.421" x2="1.245" y2="2.659" xlink:href="#linear-gradient-2"/>
  </defs>
  <g id="no_data_found_illustrator-2" data-name="no_data_found_illustrator" transform="translate(-60 -183)" clip-path="url(#clip-path)">
    <g id="Layer_1" data-name="Layer 1" transform="translate(60.123 183)">
      <g id="no_data_found" data-name="no data found">
        <path id="Path_15401" data-name="Path 15401" d="M254.754,127.377h0a127.174,127.174,0,0,1-7.229,42.4q-.6,1.7-1.25,3.388-1.479,3.838-3.2,7.554-1.931,4.184-4.154,8.2a127.329,127.329,0,0,1-7.4,11.8l-.106.151-.144.2-.007.01-.1.138q-.274.385-.552.768a128.1,128.1,0,0,1-13.5,15.777q-.389.386-.781.768l-.037.036a126.957,126.957,0,0,1-88.92,36.175h0a126.873,126.873,0,0,1-82.79-30.572q-3.156-2.7-6.131-5.6l-.037-.036q-.392-.383-.781-.768A128.092,128.092,0,0,1,24.136,202q-.225-.309-.447-.62l-.106-.148A126.79,126.79,0,0,1,0,127.377H0A127.377,127.377,0,0,1,127.377,0h0A127.377,127.377,0,0,1,254.754,127.377Z" fill="url(#linear-gradient)"/>
        <path id="Path_15402" data-name="Path 15402" d="M231.242,201.124l-.144.2-.007.01A127.22,127.22,0,0,1,127.2,255h0A127.214,127.214,0,0,1,23.51,201.624l207.732-.5Z" fill="url(#radial-gradient)"/>
        <g id="Group_4300" data-name="Group 4300">
          <g id="Group_4299" data-name="Group 4299">
            <path id="Path_15403" data-name="Path 15403" d="M197.306,209.1c2.175,0,18.366-8.695,23.331-12.531,14.452-11.168,23.487-27.445,23.471-45.92-.02-23.185-12.021-47.6-35.955-53.92-8.309-2.195-16.071,3.663-23.865,5.444-4.667,1.066-9.973,1.087-14.237-1.334-3.577-2.03-6.191-6.06-5.718-10.146.48-4.145,3.9-7.413,7.66-9.222s7.942-2.512,11.9-3.821c5.175-1.709,10.14-5.147,11.092-10.826a33.39,33.39,0,0,0-3.036-20.2c-11.614-23.3-40.694-21.323-62.323-17.11-9.815,1.912-18.7,8.207-25.853,14.96a62.387,62.387,0,0,0-18.692,55.939c.928,5.45,3.195,10.649,0,15.755-5.063,8.095-15.907,11.014-24.953,10.565a38.7,38.7,0,0,0-32.233,15c-8.432,11.1-7.914,24.274-2.575,36.6q.206.473.418.944a85.514,85.514,0,0,0,8.12,13.918c1.862,2.643,3.838,5.2,5.894,7.7,1.073,1.3,5.7,8.207,7.247,8.207h150.3Z" fill="#fff"/>
            <path id="Path_15404" data-name="Path 15404" d="M249.937,209.1H15.588a.141.141,0,1,1,0-.273H249.937a.141.141,0,1,1,0,.273Z" fill="#011721"/>
            <g id="Group_4293" data-name="Group 4293">
              <path id="Path_15405" data-name="Path 15405" d="M242.518,48.853a1.525,1.525,0,0,0-2.584-1.567c-14.121,17.347-27.32,28.719-37.339,31.528A1.273,1.273,0,0,1,201,77.434l.262-2.324a1.339,1.339,0,0,0-.571-1.67l-.885,1.232c-1.9.331-3.437-2.569-3.437-2.569l-2.05,3.474,1.813,2.245,1.384.155a.616.616,0,1,1-.164,1.22,26.147,26.147,0,0,1-8.173-2.963,75.6,75.6,0,0,1-7.394-4.77c-2.024-7.244-3.97-17.91-6.167-24.925a1.348,1.348,0,0,0-2.635.45C173.6,63.9,174.52,72.422,174.98,75.21a4.051,4.051,0,0,0,1.311,2.369c5.19,4.6,6.973,6.8,10.365,9.3a9.86,9.86,0,0,1,3.971,6.9l2.312,21.979s5.09,7.732,24.067-.516c-.206-1.236-.327-1.9-.327-1.9-1.674-7.869-2.446-18.755-2.736-23.9a5.174,5.174,0,0,1,1.689-4.149c13.476-12.082,22.747-26.967,26.886-36.441Z" fill="#087c7c"/>
              <path id="Path_15406" data-name="Path 15406" d="M174.605,53.329s-.719-.572-1.4-1.091c.6,13.208,1.366,20.466,1.775,22.958a4.068,4.068,0,0,0,1.317,2.386c5.191,4.6,6.976,6.8,10.366,9.3l-9.244-11.043a6.576,6.576,0,0,1-1.844-4.206l-.968-18.307Z" fill="#5aa7a7"/>
              <path id="Path_15407" data-name="Path 15407" d="M195.906,72.894l-.985-3.137s6.225-.718,9.05.288c0,0,1.389,4.549-2.777,9l-.289,1.118-1.151-1.306-3.126-3.66-.721-2.3Z" fill="#011721"/>
              <path id="Path_15408" data-name="Path 15408" d="M201.005,77.434l.262-2.324a1.339,1.339,0,0,0-.571-1.67l-.885,1.232c-1.9.331-3.437-2.569-3.437-2.569l-2.05,3.474,1.813,2.245,1.383.155a.616.616,0,1,1-.164,1.22c-.052,1.824,2.24,3.274,2.24,3.274a10.5,10.5,0,0,0,3.008-3.658,1.275,1.275,0,0,1-1.6-1.378Z" fill="#ffd2b3"/>
              <path id="Path_15409" data-name="Path 15409" d="M192.94,115.763a128.051,128.051,0,0,0-10.612,17.2,65.571,65.571,0,0,0-5.666,14.949c2.545,10.368,10.8,34.976,16.528,47.682a2.077,2.077,0,0,0,3.967-.986c-1.28-19.359-4.3-46.117-4.3-46.117,3.944-5.136,10.769-16.384,10.769-16.384-.356,7.457,8.588,53.592,12.133,75.248a2.077,2.077,0,0,0,4.1.023c6.01-35.117-1.184-82.171-2.846-92.131-18.977,8.247-24.067.516-24.067.516Z" fill="#05293c"/>
              <path id="Path_15410" data-name="Path 15410" d="M239.937,47.285q-1.733,2.128-3.445,4.131a3.111,3.111,0,0,0,3.543,2.567c.967-1.836,1.8-3.562,2.487-5.137a1.524,1.524,0,0,0-2.585-1.562Z" fill="#ffd2b3"/>
              <path id="Path_15411" data-name="Path 15411" d="M214.826,201.639c.333,2.052.646,3.97.931,5.716a2.077,2.077,0,0,0,4.1.023c.35-2.045.654-4.133.918-6.249a5.086,5.086,0,0,1-5.945.511Z" fill="#ffd2b3"/>
              <path id="Path_15412" data-name="Path 15412" d="M194,195.178l.21-4.395-17.546-42.872c2.51,10.227,10.53,34.366,16.289,47.152Z" fill="#011721"/>
              <path id="Path_15413" data-name="Path 15413" d="M197.158,194.608c-.129-1.952-.291-3.955-.478-5.98a4.722,4.722,0,0,1-5.62,2.206c.752,1.691,1.469,3.291,2.131,4.76a2.077,2.077,0,0,0,3.967-.986Z" fill="#d39266"/>
              <path id="Path_15414" data-name="Path 15414" d="M192.8,147.732l.059.759c3.944-5.136,10.769-16.384,10.769-16.384-.327,6.856,7.405,46.13,11.2,69.532h0l-10.584-76.645L192.8,147.731Z" fill="#011721"/>
              <path id="Path_15415" data-name="Path 15415" d="M240.035,53.982s-.431-1.651-1.563-.145C234.14,59.6,222.6,76.7,214.237,82.982a12.4,12.4,0,0,0-4.9,9.283,82.309,82.309,0,0,0,2.315,25.022h0c1.65-.533,3.432-1.2,5.359-2.041-.206-1.236-.327-1.9-.327-1.9C215,105.454,214.229,94.53,213.942,89.4a5.161,5.161,0,0,1,1.716-4.129A116.566,116.566,0,0,0,240.035,53.982Z" fill="#5aa7a7"/>
              <path id="Path_15416" data-name="Path 15416" d="M199.19,82.4s-2.281,24.565,19.262,30.175l3.971-1.945-2.679-3.412s-19.372-5.172-20.013-24.792l-.542-.027Z" fill="#011721"/>
              <g id="Group_4292" data-name="Group 4292">
                <path id="Path_15417" data-name="Path 15417" d="M199.594,78.888a1.512,1.512,0,0,0-1.153-.8l-.913-.112a.615.615,0,1,1-.171,1.218c-.052,1.824,2.24,3.274,2.24,3.274a6.651,6.651,0,0,0,1.288-1.132l-1.292-2.451Z" fill="#d39266"/>
                <path id="Path_15418" data-name="Path 15418" d="M197.413,77.965h0Z" fill="#d39266"/>
              </g>
              <path id="Path_15419" data-name="Path 15419" d="M242.551,47.674l-4.08,6.164a3.451,3.451,0,0,0,1.563.145c.967-1.836,1.8-3.562,2.487-5.137A1.466,1.466,0,0,0,242.551,47.674Z" fill="#d39266"/>
              <path id="Path_15420" data-name="Path 15420" d="M194.21,190.778v0l2.672,5.027a2.051,2.051,0,0,0,.277-1.2c-.129-1.952-.291-3.955-.478-5.98a4.608,4.608,0,0,1-2.47,2.15Z" fill="#ffd2b3"/>
              <path id="Path_15421" data-name="Path 15421" d="M217.378,202.365a6.262,6.262,0,0,1-2.551-.726c.333,2.052.645,3.97.931,5.716a2.008,2.008,0,0,0,1.88,1.728Z" fill="#d39266"/>
              <path id="Path_15422" data-name="Path 15422" d="M177.31,52.511c-.56-2.147-1.131-4.206-1.721-6.078a1.334,1.334,0,0,0-2.6.454c.081,2.229.167,4.287.257,6.2,0,0,3.125.9,4.069-.573Z" fill="#ffd2b3"/>
              <path id="Path_15423" data-name="Path 15423" d="M173.689,45.662c-.758.381-.714.964-.69,1.617.076,2.078.158,4.007.242,5.8a8.236,8.236,0,0,0,1.364.245l-.916-7.667Z" fill="#d39266"/>
            </g>
            <g id="Group_4298" data-name="Group 4298">
              <path id="Path_15424" data-name="Path 15424" d="M167.02,198.873l5.964-62.892H96.943V209.1h62.669c6.731,0,6.992-6.518,7.407-10.224Z" fill="url(#linear-gradient-2)"/>
              <g id="Group_4294" data-name="Group 4294">
                <path id="Path_15425" data-name="Path 15425" d="M166.64,153.594l-35.656-2.373,3.331-50.058,29.512,1.964,5.7,7.006Z" fill="#ffb871"/>
                <path id="Path_15426" data-name="Path 15426" d="M147.533,131.605l.087-1.308c.32-4.81,6.485-4.578,6.744-8.468.122-1.839-1.177-3.133-3.263-3.272-2.193-.146-3.694,1.069-3.817,2.908l-.04.6a.482.482,0,0,1-.6.493l-2.962-.339a.553.553,0,0,1-.531-.568l.031-.46c.273-4.1,3.642-6.685,8.275-6.377,4.562.3,7.357,3.154,7.09,7.15-.393,5.907-6.623,5.563-6.841,8.852l-.071,1.061a.522.522,0,0,1-.6.528l-2.971-.2a.522.522,0,0,1-.528-.6Zm-.8,5.594a2.62,2.62,0,0,1,2.858-2.367,2.557,2.557,0,1,1-.374,5.09A2.589,2.589,0,0,1,146.734,137.2Z" fill="#600c0c"/>
                <path id="Path_15427" data-name="Path 15427" d="M163.827,103.127l-.436,6.55,6.141.456Z" fill="#ed9a40"/>
              </g>
              <path id="Path_15428" data-name="Path 15428" d="M159.576,209.1H43.273a8.556,8.556,0,0,1-8.59-7.733l-6.556-64.8a2.425,2.425,0,0,1,2.457-2.733H96.816a2.43,2.43,0,0,0,2.151-1.217l2.272-4.018a2.43,2.43,0,0,1,2.151-1.217H142.2a3.1,3.1,0,0,1,3.009,2.733l6.956,68.761c.415,3.706.676,10.224,7.407,10.224Z" fill="url(#linear-gradient-3)"/>
              <path id="Path_15429" data-name="Path 15429" d="M146.606,143.892l-1.394-13.78a3.1,3.1,0,0,0-3.009-2.733H103.388a2.43,2.43,0,0,0-2.151,1.217l-2.272,4.018a2.43,2.43,0,0,1-2.151,1.217H30.583a2.426,2.426,0,0,0-2.457,2.733l4.788,47.324C75.453,143.267,146.606,143.892,146.606,143.892Z" fill="#e3f0f0"/>
              <path id="Path_15430" data-name="Path 15430" d="M43.273,209.1h116.3c-4.9,0-6.371-3.456-6.969-6.766H34.84a8.55,8.55,0,0,0,8.433,6.766Z" fill="url(#linear-gradient-4)"/>
              <path id="Path_15431" data-name="Path 15431" d="M107.589,208.6h0a5.6,5.6,0,0,0,2.3-7.554L80.9,146.607a1.479,1.479,0,0,0-2-.61l-.612.326-2.8-5.249a32.553,32.553,0,0,0,7.7-7.243H31.162c.048.062.094.127.143.189.067.086.132.175.2.26.257.325.521.642.79.955.041.047.08.1.121.143q.436.5.89.985l.058.063q.477.5.972.985l.017.017q.506.491,1.031.958h0a32.783,32.783,0,0,0,34.088,5.9l2.8,5.249-.612.326a1.468,1.468,0,0,0-.454.373,1.477,1.477,0,0,0-.157,1.627l28.99,54.441a5.537,5.537,0,0,0,1.846,2.026q.226.149.464.274a5.648,5.648,0,0,0,1.344.5h2.6a5.569,5.569,0,0,0,1.3-.5Z" fill="url(#linear-gradient-5)"/>
              <g id="Group_4295" data-name="Group 4295">
                <circle id="Ellipse_256" data-name="Ellipse 256" cx="13.949" cy="13.949" r="13.949" transform="translate(50.251 96.784)" fill="#087c7c"/>
                <path id="Path_15432" data-name="Path 15432" d="M67.593,117.78,57.153,107.34a2.591,2.591,0,0,1,0-3.654h0a2.591,2.591,0,0,1,3.654,0l10.439,10.439a2.591,2.591,0,0,1,0,3.654h0A2.591,2.591,0,0,1,67.593,117.78Z" fill="#e3f0f0"/>
                <path id="Path_15433" data-name="Path 15433" d="M71.247,107.34,60.808,117.78a2.591,2.591,0,0,1-3.654,0h0a2.591,2.591,0,0,1,0-3.654l10.439-10.439a2.591,2.591,0,0,1,3.654,0h0A2.591,2.591,0,0,1,71.247,107.34Z" fill="#e3f0f0"/>
              </g>
              <g id="Group_4297" data-name="Group 4297">
                <path id="Path_15434" data-name="Path 15434" d="M93.362,95.8A32.76,32.76,0,1,0,76.75,141.559l4.135,7.764,6.024-3.208-4.135-7.764A32.763,32.763,0,0,0,93.362,95.8ZM77.177,135.1A27.086,27.086,0,1,1,88.354,98.465,27.085,27.085,0,0,1,77.177,135.1Z" fill="#5aa7a7"/>
                <path id="Path_15435" data-name="Path 15435" d="M49.049,82.28a32.761,32.761,0,0,0-6.387,53.383l4.086-3.965A27.085,27.085,0,1,1,85.473,94.124l4.088-3.967a32.769,32.769,0,0,0-40.513-7.876Z" fill="#087c7c"/>
                <path id="Path_15436" data-name="Path 15436" d="M114.867,205.88h0a5.6,5.6,0,0,1-7.554-2.3l-28.99-54.441a1.479,1.479,0,0,1,.61-2l7.247-3.86a1.479,1.479,0,0,1,2,.61l28.99,54.441a5.6,5.6,0,0,1-2.3,7.554Z" fill="#011721"/>
                <path id="Path_15437" data-name="Path 15437" d="M78.933,147.135a1.479,1.479,0,0,0-.61,2l28.99,54.441a5.6,5.6,0,0,0,7.554,2.3l-32.31-60.675Z" fill="#05293c"/>
                <path id="Path_15438" data-name="Path 15438" d="M89.228,98a28.076,28.076,0,1,0-11.585,37.977A28.076,28.076,0,0,0,89.228,98Zm-12.05,37.1A27.086,27.086,0,1,1,88.354,98.465,27.085,27.085,0,0,1,77.178,135.1Z" fill="#bf3936"/>
                <g id="Group_4296" data-name="Group 4296" opacity="0.35">
                  <circle id="Ellipse_257" data-name="Ellipse 257" cx="27.086" cy="27.086" r="27.086" transform="translate(37.361 84.11)" fill="#fff"/>
                </g>
                <path id="Path_15439" data-name="Path 15439" d="M51.25,86.415a28.076,28.076,0,0,0-5.216,45.976l.714-.693A27.085,27.085,0,1,1,85.473,94.124l.714-.693A28.082,28.082,0,0,0,51.25,86.415Z" fill="#a02727"/>
              </g>
            </g>
            <rect id="Rectangle_1600" data-name="Rectangle 1600" width="0.629" height="4.578" transform="matrix(0.763, -0.646, 0.646, 0.763, 189.55, 64.993)" fill="#011721"/>
            <rect id="Rectangle_1601" data-name="Rectangle 1601" width="0.629" height="4.41" transform="matrix(0.994, -0.113, 0.113, 0.994, 196.261, 61.042)" fill="#011721"/>
            <rect id="Rectangle_1602" data-name="Rectangle 1602" width="3.214" height="0.628" transform="translate(207.075 67.787) rotate(-28.34)" fill="#011721"/>
          </g>
          <path id="Path_15440" data-name="Path 15440" d="M27.474,110.212h-.011a.079.079,0,0,1-.067-.088c1.284-9.271,4.483-17.043,9.506-23.1A39.321,39.321,0,0,1,52.329,75.828a51.851,51.851,0,0,1,20.7-3.8.079.079,0,0,1,0,.157h-.005a51.707,51.707,0,0,0-20.64,3.794c-9.728,4.039-21.934,13.246-24.831,34.168a.079.079,0,0,1-.078.068Z" fill="#011721"/>
          <path id="Path_15441" data-name="Path 15441" d="M115.853,201.207a.079.079,0,0,1-.068-.039l-18.909-32.89a.078.078,0,0,1,.029-.107.077.077,0,0,1,.107.029l18.909,32.89a.078.078,0,0,1-.029.107A.075.075,0,0,1,115.853,201.207Z" fill="#fff2e6"/>
          <path id="Path_15442" data-name="Path 15442" d="M168.047,159.961h0a.079.079,0,0,1-.074-.083l.887-16.269a.082.082,0,0,1,.083-.074.079.079,0,0,1,.074.083l-.887,16.269a.079.079,0,0,1-.079.074Z" fill="#011721"/>
          <path id="Path_15443" data-name="Path 15443" d="M212.421,203.357a.078.078,0,0,1-.078-.064l-9.2-50.9a.079.079,0,0,1,.063-.091.076.076,0,0,1,.091.063l9.2,50.9a.079.079,0,0,1-.063.091h-.014Z" fill="#011721"/>
        </g>
      </g>
    </g>
  </g>
</svg>
