<svg xmlns="http://www.w3.org/2000/svg" width="1080" height="1080" viewBox="0 0 1080 1080">
  <g id="Illustration" transform="translate(0 -0.006)">
    <g id="Smartphone_repair" data-name="Smartphone repair" transform="translate(0 0.006)">
      <path id="Path_228" data-name="Path 228" d="M54.166,203.56C137.477,61.913,296.043,27.288,355.852,14.228c203.531-44.445,504.692,8.96,649.994,250.376,127.527,211.887,56.518,438.194,46.232,469.22C1034.822,785.863,991.609,910.662,869.1,995.2c-190.715,131.609-481.414,102.085-580.9-33.771-46.722-63.808-8.917-93.237-63.33-206.049C152,604.283,61.544,607.906,19.4,486.936-28.173,350.373,46.475,216.655,54.171,203.56Z" transform="translate(-1.497 -0.006)" fill="#087c7c" opacity="0.15"/>
      <g id="Group_9023" data-name="Group 9023" transform="translate(361.38 46.431)">
        <g id="Group_9019" data-name="Group 9019" transform="translate(212.707 856.613)">
          <path id="Path_229" data-name="Path 229" d="M1042.958,1796.117a1.977,1.977,0,0,1-.26-3.937c7.733-1.027,15.519-2.225,23.152-3.571a1.978,1.978,0,1,1,.685,3.9c-7.686,1.352-15.525,2.562-23.317,3.595A1.983,1.983,0,0,1,1042.958,1796.117Z" transform="translate(-1001.545 -1638.091)" fill="#282f39"/>
          <path id="Path_230" data-name="Path 230" d="M1082.333,1694.385a1.957,1.957,0,0,1-.337-3.884c106.509-18.736,202.977-68.759,271.641-140.841a1.954,1.954,0,0,1,2.828,2.7c-34.8,36.534-76.173,67.33-122.979,91.545a526.157,526.157,0,0,1-150.818,50.459,2.219,2.219,0,0,1-.342.03Z" transform="translate(-1017.686 -1539.96)" fill="#282f39"/>
          <path id="Path_231" data-name="Path 231" d="M1099.985,1642.272a1.956,1.956,0,0,1-.466-3.855c75.849-18.8,144.4-54.851,198.219-104.254a1.955,1.955,0,0,1,2.645,2.881c-54.314,49.845-123.445,86.208-199.925,105.169A1.88,1.88,0,0,1,1099.985,1642.272Z" transform="translate(-1024.919 -1533.65)" fill="#282f39"/>
          <path id="Path_232" data-name="Path 232" d="M984.987,1804.75a10.8,10.8,0,1,1,5.159-1.322h0A10.706,10.706,0,0,1,984.987,1804.75Zm4.221-3.034h0Zm-4.244-14.646a.994.994,0,1,0,0-.006Z" transform="translate(-974.176 -1635.868)" fill="#282f39"/>
        </g>
        <g id="Group_9020" data-name="Group 9020">
          <path id="Path_233" data-name="Path 233" d="M633.732,91.718a1.96,1.96,0,0,1-1.771-1.122l-4.321-9.144a1.955,1.955,0,0,1,3.536-1.671l4.321,9.144a1.959,1.959,0,0,1-.933,2.6A1.921,1.921,0,0,1,633.732,91.718Z" transform="translate(-619.419 -78.661)" fill="#282f39"/>
          <path id="Path_234" data-name="Path 234" d="M650.782,127.807a1.96,1.96,0,0,1-1.771-1.122l-4.321-9.144a1.955,1.955,0,1,1,3.536-1.671l4.321,9.15a1.959,1.959,0,0,1-.933,2.6,1.921,1.921,0,0,1-.832.189Z" transform="translate(-626.404 -93.446)" fill="#282f39"/>
          <path id="Path_235" data-name="Path 235" d="M615.8,117.545a1.956,1.956,0,0,1-.838-3.725l9.144-4.321a1.955,1.955,0,0,1,1.671,3.536l-9.144,4.321a1.921,1.921,0,0,1-.832.189Z" transform="translate(-613.843 -91.219)" fill="#282f39"/>
          <path id="Path_236" data-name="Path 236" d="M651.891,100.494a1.956,1.956,0,0,1-.838-3.725l9.144-4.321a1.955,1.955,0,0,1,1.671,3.536l-9.144,4.321A1.921,1.921,0,0,1,651.891,100.494Z" transform="translate(-628.629 -84.232)" fill="#282f39"/>
        </g>
        <g id="Group_9021" data-name="Group 9021" transform="translate(568.535 384.754)">
          <path id="Path_237" data-name="Path 237" d="M1607.444,745.97a1.952,1.952,0,0,1-1.954-1.954V733.9a1.954,1.954,0,0,1,3.908,0v10.112A1.953,1.953,0,0,1,1607.444,745.97Z" transform="translate(-1588.649 -731.95)" fill="#282f39"/>
          <path id="Path_238" data-name="Path 238" d="M1607.444,785.886a1.952,1.952,0,0,1-1.954-1.954V773.814a1.954,1.954,0,0,1,3.908,0v10.118A1.953,1.953,0,0,1,1607.444,785.886Z" transform="translate(-1588.649 -748.301)" fill="#282f39"/>
          <path id="Path_239" data-name="Path 239" d="M1589.032,764.378h-10.118a1.954,1.954,0,0,1,0-3.908h10.118a1.954,1.954,0,0,1,0,3.908Z" transform="translate(-1576.96 -743.634)" fill="#282f39"/>
          <path id="Path_240" data-name="Path 240" d="M1628.952,764.378h-10.118a1.954,1.954,0,0,1,0-3.908h10.118a1.954,1.954,0,0,1,0,3.908Z" transform="translate(-1593.315 -743.634)" fill="#282f39"/>
        </g>
        <path id="Path_241" data-name="Path 241" d="M1606.433,919.133a15.6,15.6,0,0,1-5.637-1.063,15.787,15.787,0,0,1-8.819-8.548,16.2,16.2,0,0,1,8.081-21.157,15.453,15.453,0,0,1,12-.313,15.787,15.787,0,0,1,8.819,8.548,16.194,16.194,0,0,1-8.075,21.151,15.521,15.521,0,0,1-6.364,1.375Zm-.006-28.229a11.593,11.593,0,0,0-4.764,1.027,12.273,12.273,0,0,0-6.092,16.039,11.9,11.9,0,0,0,6.647,6.452,11.56,11.56,0,0,0,8.979-.23,12.28,12.28,0,0,0,6.092-16.039,11.9,11.9,0,0,0-6.647-6.452A11.63,11.63,0,0,0,1606.427,890.9Zm-5.567-.756h0Z" transform="translate(-1014.032 -410.919)" fill="#282f39"/>
        <g id="Group_9022" data-name="Group 9022" transform="translate(302.294 48.895)">
          <path id="Path_242" data-name="Path 242" d="M1382.906,392.352a1.955,1.955,0,0,1-1.871-1.381c-.106-.348-11.121-35.106-47.756-78.44-33.819-40.005-97.017-95.712-206.029-133.917a1.955,1.955,0,1,1,1.293-3.689c109.962,38.541,173.739,94.833,207.877,135.269,37.071,43.913,48.246,79.272,48.352,79.626a1.961,1.961,0,0,1-1.871,2.532Z" transform="translate(-1125.94 -166.95)" fill="#282f39"/>
          <path id="Path_243" data-name="Path 243" d="M1488.973,398.021a1.96,1.96,0,0,1-1.913-1.558c-.071-.342-7.538-35.029-39.651-80.642-29.651-42.112-86.97-102.424-191.679-150.6a1.953,1.953,0,1,1,1.635-3.548c105.624,48.594,163.462,109.537,193.385,152.1,32.5,46.239,40.07,81.545,40.141,81.893a1.961,1.961,0,0,1-1.517,2.314,1.854,1.854,0,0,1-.4.041Z" transform="translate(-1178.648 -161.492)" fill="#282f39"/>
        </g>
      </g>
      <g id="Group_9041" data-name="Group 9041" transform="translate(6.659 66.341)">
        <g id="Group_9024" data-name="Group 9024" transform="translate(23.748 119.289)">
          <path id="Path_244" data-name="Path 244" d="M136.408,557l138.173,3.748L267.468,409.2,304.2,394.882c-17.851-59.757-57.992-75.3-83.139-77.513-21.086-1.854-39.214-3.548-72.437-2.65-18.075.49-50.33,10.023-62.868,24.763-16.281,19.138-27.7,49.539-34.244,71.74l70.548,27.337,4.982-11.216S139.7,496.066,136.408,557Z" transform="translate(-51.51 -314.471)" fill="#087c7c"/>
          <path id="Path_245" data-name="Path 245" d="M165.12,496.832a1.977,1.977,0,0,1-.708-.13l-6.558-2.55a1.957,1.957,0,1,1,1.417-3.648l4.84,1.883,18.117-39.326a1.957,1.957,0,1,1,3.554,1.641l-18.884,41a1.956,1.956,0,0,1-1.777,1.139Z" transform="translate(-94.567 -370.784)" fill="#282f39"/>
        </g>
        <g id="Group_9031" data-name="Group 9031" transform="translate(82.005 118.328)">
          <g id="Group_9025" data-name="Group 9025" transform="translate(13.96)">
            <path id="Path_246" data-name="Path 246" d="M186.42,605.685l28.7-170.492a6.9,6.9,0,0,1,6.9-6.812h81.362a6.9,6.9,0,0,1,6.9,6.824l21.31,171.348-145.174-.868Z" transform="translate(-178.999 -360.177)" fill="#282f39"/>
            <path id="Path_247" data-name="Path 247" d="M224.185,386.948s-7.491.4-8.046-5.437c-3.312-34.692-14.5-48.618-23.152-54.208-5.071-3.276-13.087-6.576-18.022-8.471a1.739,1.739,0,0,1,.03-3.258c2.113-.773,4.581-1.629,6.381-2.113,1.606-.437,7.851-2.255,20.183,3.495,20.643,9.628,30.708,36.753,33.848,68.275.336,3.359-11.216,1.724-11.216,1.724Z" transform="translate(-173.849 -312.842)" fill="#282f39"/>
            <path id="Path_248" data-name="Path 248" d="M356.914,398.359c-.112-.018-.218-.035-.331-.059-3.205-.673-7.857-4.268-7.184-7.55,10.023-49.031,1.464-67.584-4.079-74.119a1.312,1.312,0,0,1,1.3-2.125c2.22.5,7.243,1.458,8.672,1.854,4.841,1.334,19.2,9.38,8.335,77.224A5.891,5.891,0,0,1,356.914,398.359Z" transform="translate(-243.97 -313.51)" fill="#282f39"/>
          </g>
          <g id="Group_9030" data-name="Group 9030" transform="translate(0 238.996)">
            <g id="Group_9026" data-name="Group 9026" transform="translate(20.408 368.985)">
              <path id="Path_249" data-name="Path 249" d="M188.09,1349.384l3.247,30.92,20.909,2.45V1346.09Z" transform="translate(-186.131 -1344.138)" fill="#fff"/>
              <path id="Path_250" data-name="Path 250" d="M210.886,1383.359a1.485,1.485,0,0,1-.23-.012l-20.909-2.45a1.953,1.953,0,0,1-1.718-1.741l-3.247-30.92a1.953,1.953,0,0,1,1.682-2.143l24.155-3.294a1.979,1.979,0,0,1,1.553.466,1.958,1.958,0,0,1,.667,1.476v36.664a1.957,1.957,0,0,1-1.954,1.96Zm-19.126-6.169,17.172,2.013v-32.225l-20.053,2.733,2.887,27.479Z" transform="translate(-184.771 -1342.783)" fill="#282f39"/>
            </g>
            <g id="Group_9027" data-name="Group 9027" transform="translate(0 388.97)">
              <path id="Path_251" data-name="Path 251" d="M201.372,1450.454a146.052,146.052,0,0,1-39.775-.018,9.349,9.349,0,0,1-7.816-11.481c3.7-15.012,10.059-43.488,20.98-56.681l2.715,7.16,3.748-6.741a3.334,3.334,0,0,1,2.485-1.682l8.205-1.039a3.317,3.317,0,0,1,3.666,2.609l1.3,6.21,2.863-8.152,9.545,59.349a9.327,9.327,0,0,1-7.922,10.466Z" transform="translate(-151.555 -1377.993)" fill="#087c7c"/>
              <path id="Path_252" data-name="Path 252" d="M180.246,1452.411a148.238,148.238,0,0,1-20.277-1.387,11.3,11.3,0,0,1-9.445-13.89l.791-3.229c3.784-15.555,10.118-41.581,20.584-54.232a1.96,1.96,0,0,1,3.341.549l1.222,3.223,1.7-3.058a5.284,5.284,0,0,1,3.949-2.668l8.205-1.039a5.31,5.31,0,0,1,5.667,3.565l.567-1.611a1.957,1.957,0,0,1,3.778.337l9.545,59.355a11.321,11.321,0,0,1-9.581,12.709,144.506,144.506,0,0,1-20.041,1.375Zm-7.414-67.472c-8.7,12.786-14.285,35.755-17.721,49.887l-.791,3.241a7.276,7.276,0,0,0,1.057,5.9,7.431,7.431,0,0,0,5.13,3.182,143.849,143.849,0,0,0,39.232.018,7.379,7.379,0,0,0,6.251-8.27l-8.317-51.687-.307.879a1.984,1.984,0,0,1-1.972,1.3,1.964,1.964,0,0,1-1.789-1.552l-1.3-6.21a1.362,1.362,0,0,0-1.505-1.068l-8.205,1.039a1.369,1.369,0,0,0-1.021.691l-3.748,6.741a1.957,1.957,0,0,1-3.542-.254l-1.452-3.831Z" transform="translate(-150.199 -1376.639)" fill="#282f39"/>
            </g>
            <path id="Path_253" data-name="Path 253" d="M180.155,1483.171a80.506,80.506,0,0,1-17.78-1.883,1.959,1.959,0,0,1,.874-3.819c20.312,4.628,41.558-1.322,41.77-1.381a1.958,1.958,0,0,1,1.074,3.766,103.544,103.544,0,0,1-25.932,3.318Z" transform="translate(-154.565 -1028.381)" fill="#282f39"/>
            <path id="Path_254" data-name="Path 254" d="M183.743,1446.033a1.955,1.955,0,0,1-.065-3.908l19.6-.649a1.955,1.955,0,0,1,.13,3.908l-19.6.649Z" transform="translate(-163.141 -1014.229)" fill="#282f39"/>
            <g id="Group_9028" data-name="Group 9028" transform="translate(118.341 355.813)">
              <path id="Path_255" data-name="Path 255" d="M353.99,1323.78l3.135,45.123h25.159l1.169-45.123Z" transform="translate(-352.032 -1321.826)" fill="#fff"/>
              <path id="Path_256" data-name="Path 256" d="M380.924,1369.5H355.766a1.959,1.959,0,0,1-1.954-1.818l-3.135-45.123a1.983,1.983,0,0,1,.519-1.47,1.956,1.956,0,0,1,1.429-.62h29.462a1.951,1.951,0,0,1,1.4.59,1.979,1.979,0,0,1,.555,1.417l-1.169,45.123a1.962,1.962,0,0,1-1.954,1.907Zm-23.335-3.914h21.428l1.068-41.209h-25.36Z" transform="translate(-350.673 -1320.47)" fill="#282f39"/>
            </g>
            <g id="Group_9029" data-name="Group 9029" transform="translate(114.903 380.719)">
              <path id="Path_257" data-name="Path 257" d="M348.159,1411.657a9.08,9.08,0,0,0,7.013,8.984c14.463,3.365,47.042,10.862,56.339,12.243,12.06,1.795,26.888-1.9,33.258-8.955s-14.274-23.9-24.067-30.029c-14.557-9.1-28.535-27.1-34.4-27.91s-16.806,16.2-16.806,16.2l-17.892-7.515a221.777,221.777,0,0,0-3.441,36.983Z" transform="translate(-346.204 -1364.014)" fill="#087c7c"/>
              <path id="Path_258" data-name="Path 258" d="M416.436,1433.94a44.78,44.78,0,0,1-6.57-.472c-9.044-1.346-39.279-8.264-56.492-12.273a11.1,11.1,0,0,1-8.524-10.921,226.219,226.219,0,0,1,3.477-37.343,1.952,1.952,0,0,1,2.674-1.411l16.393,6.883c3.512-5.242,11.836-16.5,17.815-15.7,3.394.472,7.721,4.439,15.065,11.411,6.1,5.785,13.01,12.343,20.106,16.782,6.334,3.961,24.734,17.491,26.1,27.331a6.768,6.768,0,0,1-1.623,5.667c-5.519,6.11-17.154,10.047-28.429,10.047Zm-64.7-57.868a233.885,233.885,0,0,0-2.975,34.261,7.156,7.156,0,0,0,5.5,7.048c13.813,3.211,46.941,10.838,56.185,12.213,11.664,1.73,25.8-2,31.522-8.329a2.817,2.817,0,0,0,.649-2.5c-.933-6.682-14.716-18.553-24.3-24.557-7.426-4.646-14.492-11.346-20.72-17.26-5.207-4.941-10.59-10.053-12.91-10.372-2.792-.36-9.935,7.615-14.9,15.318a1.951,1.951,0,0,1-2.4.744l-15.643-6.57Zm-4.929,34.232h0Z" transform="translate(-344.848 -1362.661)" fill="#282f39"/>
            </g>
            <path id="Path_259" data-name="Path 259" d="M420.788,1456.3c-26.393,0-61.593-14.22-63.582-15.035a1.955,1.955,0,0,1,1.482-3.619c.638.26,63.9,25.826,82.295,9.215a1.956,1.956,0,1,1,2.621,2.9C438.332,1454.53,430.109,1456.3,420.788,1456.3Z" transform="translate(-234.51 -1012.603)" fill="#282f39"/>
            <path id="Path_260" data-name="Path 260" d="M417.152,1412.358a1.954,1.954,0,0,1-1.31-3.406l12.8-11.541a1.956,1.956,0,1,1,2.621,2.9l-12.8,11.541A1.951,1.951,0,0,1,417.152,1412.358Z" transform="translate(-258.766 -995.973)" fill="#282f39"/>
            <path id="Path_261" data-name="Path 261" d="M174.4,720.437S159.44,922.369,155.361,971.064s9.539,126.975,9.539,126.975L203.737,1096s2.662-95.175,5.549-121.6c0,0,16.4-35.832,21.263-67.785s21.422-82.43,21.422-82.43S265.418,1076.1,266.716,1095.9c0,0,30.454,1.358,41.369-5.513,0,0,19.344-91.864,16.57-141.839s-6.523-230.834-6.523-230.834l-97.572,1.44L174.4,720.437Z" transform="translate(-152.001 -717.71)" fill="#282f39"/>
            <path id="Path_262" data-name="Path 262" d="M225.525,1153.128H213.654a1.954,1.954,0,1,1,0-3.908h11.871a1.954,1.954,0,1,1,0,3.908Z" transform="translate(-175.396 -894.497)" fill="#fff"/>
            <path id="Path_263" data-name="Path 263" d="M377,1231.3h-.035a1.949,1.949,0,0,1-1.918-1.989c.431-23.494,26.1-65.418,27.19-67.189a1.956,1.956,0,0,1,3.329,2.054c-.26.425-26.2,42.785-26.611,65.211a1.953,1.953,0,0,1-1.954,1.918Z" transform="translate(-242.319 -899.403)" fill="#fff"/>
          </g>
        </g>
        <g id="Group_9033" data-name="Group 9033" transform="translate(0 0)">
          <path id="Path_264" data-name="Path 264" d="M573.069,345.993c35.891-16.233,79.7-85.624,79.7-85.624l-8.713-11.121-90.712,41.026-83.77-31.611,31.576-83.782,99.419-29.9-8.713-11.121A122.255,122.255,0,0,0,400.912,245.263L35.1,410.708a40.512,40.512,0,0,0-20.218,53.6c7.951,16.127,16.222,22.319,16.222,22.319L434.3,319.075a122.261,122.261,0,0,0,138.758,26.918Z" transform="translate(-11.28 -112.391)" fill="#087c7c" opacity="0.5"/>
          <g id="Group_9032" data-name="Group 9032" transform="translate(5.422 10.11)">
            <path id="Path_265" data-name="Path 265" d="M585.5,366.609a122.154,122.154,0,0,0,70.99-96.745l-90.712,41.026-83.77-31.617,31.576-83.782,90.707-41.026a122.149,122.149,0,0,0-119.531-10.572c-48.565,21.965-75.8,71.734-66.191,126.408L52.765,435.757c-25.608,4.787-34.657,28.783-25.436,49.173a40.512,40.512,0,0,0,53.6,20.218L446.741,339.7A122.263,122.263,0,0,0,585.5,366.614Z" transform="translate(-21.836 -130.945)" fill="#fff"/>
            <path id="Path_266" data-name="Path 266" d="M62.888,509.293a42.586,42.586,0,0,1-38.712-24.988c-5.041-11.151-4.941-23.288.277-33.3,5.047-9.675,14.4-16.263,26.351-18.559L415.029,267.71c-4.351-26.546-.3-52.526,11.735-75.229,12.119-22.851,31.422-40.767,55.831-51.805A123.362,123.362,0,0,1,604.039,151.42a1.953,1.953,0,0,1-.3,3.394L513.77,195.5l-30.6,81.2,81.179,30.637,89.969-40.7a1.959,1.959,0,0,1,2.751,2.019A124.212,124.212,0,0,1,444.922,340.6L80.367,505.5A42.37,42.37,0,0,1,62.888,509.293ZM533.917,133.445a120.389,120.389,0,0,0-49.71,10.809c-48.157,21.776-74.3,71.728-65.07,124.289a1.954,1.954,0,0,1-1.122,2.119L52.2,436.113a1.983,1.983,0,0,1-.449.142c-10.856,2.031-19.321,7.91-23.831,16.564-4.663,8.937-4.728,19.828-.183,29.875a38.556,38.556,0,0,0,51.014,19.238L444.568,336.481a1.952,1.952,0,0,1,2.22.431A120.3,120.3,0,0,0,652.71,271.677l-87.489,39.574a1.956,1.956,0,0,1-1.494.047l-83.77-31.617a1.954,1.954,0,0,1-1.139-2.521l31.576-83.782a1.963,1.963,0,0,1,1.027-1.092l87.489-39.574a119.739,119.739,0,0,0-64.987-19.268Zm50.211,231.737h0Z" transform="translate(-20.465 -129.518)" fill="#282f39"/>
          </g>
        </g>
        <g id="Group_9034" data-name="Group 9034" transform="translate(19.796 217.706)">
          <path id="Path_267" data-name="Path 267" d="M168.454,607.414a12.2,12.2,0,0,1-17.874,5.413c-21.694-14.285-39.858-32.774-43.405-49.072-5.224-23.978,9.02-57.266,9.02-57.266L59.955,484.5c-14.244,41.31-15.6,72.862-4.321,96.722,11.287,23.878,49.722,43.683,76.681,56.144a58.931,58.931,0,0,0,46.587,1.606c11.806-4.74,32.384-22.922,39.007-38.884a4.434,4.434,0,0,0-5.95-5.691L179.51,609.072s10.643-19.61,1.812-20.572c-4.864-.531-10.5,13.37-12.863,18.913Z" transform="translate(-46.162 -482.547)" fill="#fff"/>
          <path id="Path_268" data-name="Path 268" d="M156.4,643.6a62.718,62.718,0,0,1-26.257-5.815C102.326,624.931,64.015,605.02,52.521,580.7c-11.523-24.38-10.136-56.5,4.238-98.192a1.956,1.956,0,0,1,2.562-1.186l56.239,21.989a1.967,1.967,0,0,1,1.092,2.591c-.142.325-13.931,33-8.908,56.079,3.158,14.486,19.067,32.372,42.567,47.85a10.237,10.237,0,0,0,15-4.545l.36-.844c4.268-10.077,8.914-19.84,14.516-19.25a5.392,5.392,0,0,1,4.451,2.887c2.025,3.866-.254,10.791-2.355,15.62l27.526-12.45a6.377,6.377,0,0,1,7.107,1.245,6.217,6.217,0,0,1,1.452,6.977c-6.576,15.862-27.308,34.822-40.082,39.952a58.681,58.681,0,0,1-21.877,4.168ZM59.794,485.713c-13.412,39.739-14.634,70.276-3.743,93.316,10.95,23.17,48.464,42.6,75.73,55.206a57.106,57.106,0,0,0,45.04,1.564c12.084-4.852,31.7-22.8,37.927-37.821a2.378,2.378,0,0,0-.561-2.668,2.457,2.457,0,0,0-2.774-.49L178.965,609.5a1.957,1.957,0,0,1-2.527-2.715c2.863-5.283,6.228-14.02,4.722-16.883a1.557,1.557,0,0,0-1.4-.809c-1.2-.124-4.138,1.895-10.49,16.889l-.36.85a14.149,14.149,0,0,1-20.749,6.281c-24.332-16.027-40.873-34.828-44.243-50.288-4.64-21.316,5.419-49.119,8.371-56.587L59.8,485.713Z" transform="translate(-44.815 -481.192)" fill="#282f39"/>
        </g>
        <g id="Group_9035" data-name="Group 9035" transform="translate(255.128 225.499)">
          <path id="Path_269" data-name="Path 269" d="M600.966,497.733c-2.893.738-154.176,69.739-154.176,69.739,52.289,30.613,106.533-38.535,110.21-39.586,7.562-2.166,11.989,2.586,25.974-2.816,18.075-6.983,21.647-28.27,17.987-27.331Z" transform="translate(-444.834 -495.751)" fill="#fff"/>
          <path id="Path_270" data-name="Path 270" d="M473.726,575.907a57.069,57.069,0,0,1-29.279-8.1,1.958,1.958,0,0,1,.171-3.471c25.289-11.535,151.591-69.107,154.5-69.851h0a2.82,2.82,0,0,1,3.441,2.125c1.493,4.675-3.3,22.384-20.242,28.925a36.294,36.294,0,0,1-18.577,2.562,19.511,19.511,0,0,0-7.391.26c-.62.443-2.479,2.314-4.286,4.12-12.025,12.054-43.34,43.435-78.351,43.435Zm-23.913-9.64c42.024,21.027,85.087-22.119,99.49-36.558,3.849-3.855,4.793-4.776,5.8-5.065a22.854,22.854,0,0,1,9-.449,32.347,32.347,0,0,0,16.812-2.314c10.319-3.985,14.87-12.7,16.346-16.269a19.891,19.891,0,0,0,1.688-6.877c-11.712,4.964-99.272,44.787-149.135,67.525ZM556.439,528.3Z" transform="translate(-443.476 -494.393)" fill="#282f39"/>
        </g>
        <g id="Group_9040" data-name="Group 9040" transform="translate(138.704)">
          <g id="Group_9038" data-name="Group 9038">
            <g id="Group_9036" data-name="Group 9036" transform="translate(0 48.58)">
              <path id="Path_271" data-name="Path 271" d="M264.59,197.99l-14.876,68.629A6.678,6.678,0,0,0,253,273.88l2.91,1.612a44.661,44.661,0,0,0,28.713,5.047,6.686,6.686,0,0,0,5.62-6.24l2.869-52.059L264.6,197.99Z" transform="translate(-247.606 -196.04)" fill="#fff"/>
              <path id="Path_272" data-name="Path 272" d="M276.267,281.7a46.847,46.847,0,0,1-22.662-5.844l-2.9-1.612a8.583,8.583,0,0,1-4.25-9.386l14.876-68.629a1.96,1.96,0,0,1,3.182-1.08l28.518,24.25a1.947,1.947,0,0,1,.685,1.6l-2.869,52.059a8.691,8.691,0,0,1-7.261,8.058,46.032,46.032,0,0,1-7.308.578Zm-11.812-81.456L250.27,265.679a4.712,4.712,0,0,0,2.326,5.142l2.91,1.612a42.91,42.91,0,0,0,27.455,4.823,4.747,4.747,0,0,0,3.973-4.415l2.816-51.091-25.289-21.5Z" transform="translate(-246.249 -194.686)" fill="#282f39"/>
            </g>
            <g id="Group_9037" data-name="Group 9037" transform="translate(14.451 6.262)">
              <path id="Path_273" data-name="Path 273" d="M325.9,135.686c22.072,15.029,13.973,29.828,13.973,29.828-1.381,4.28-4.6,14.262-4.073,16.275.649,2.467,3.477,7.031,3.335,8.4s-2.916,3.571-7.367,3.495c0,0-6.842,20.761-13.205,22.863s-25.938-9.805-25.938-9.805l-3.211-2.326c-10.348-7.491-14.982-18.884-15.366-31.658,0,0,1.287-71.5,51.864-37.065Z" transform="translate(-272.09 -124.357)" fill="#fff"/>
              <path id="Path_274" data-name="Path 274" d="M315.481,217.372c-7.839,0-22.178-8.459-25.236-10.319a1.008,1.008,0,0,1-.13-.089l-3.211-2.326c-10.147-7.343-15.743-18.819-16.174-33.181.024-1.576.868-36.446,19.445-46.062,9.321-4.823,21.257-2.361,35.477,7.314,21.824,14.858,15.62,30.182,14.693,32.166-3.518,10.9-4.114,14.232-4,15.106a27.807,27.807,0,0,0,1.588,3.713c1.228,2.574,1.919,4.091,1.789,5.336-.248,2.361-3.4,4.817-7.892,5.2-1.883,5.449-7.68,20.726-14.014,22.815a7.523,7.523,0,0,1-2.332.325Zm-23.134-13.624c7.81,4.74,20.454,10.844,24.238,9.581,3.743-1.234,9.25-13.382,11.966-21.617a2.035,2.035,0,0,1,1.895-1.346c3.2.077,4.947-1.234,5.348-1.771a27.005,27.005,0,0,0-1.393-3.211,28.506,28.506,0,0,1-1.854-4.457c-.49-1.871.62-6.582,4.109-17.373a1.709,1.709,0,0,1,.148-.336c.283-.537,6.859-13.506-13.353-27.272-12.934-8.807-23.524-11.192-31.475-7.078-16.529,8.554-17.326,42.225-17.331,42.561.4,13.01,5.431,23.429,14.557,30.035l3.152,2.279Z" transform="translate(-270.73 -122.999)" fill="#282f39"/>
            </g>
            <path id="Path_275" data-name="Path 275" d="M318,116.54c6,3.152,11.251,8.713,14.463,9.888,5.183,1.895,10.732-4.038,16.836.13,5.366,3.66,7.432,9.551,6.865,15.466a13.323,13.323,0,0,1-.667,3.058c-4.829,14.132-14.563,14.976-18.364,14.722,0,0-20.614-7.2-24.982-7.208-4.085-.012-11.529,4.545-15.442,12.674a2.656,2.656,0,0,1-5.024-1.37c.313-4.292.425-13-3.666-14.268-4.776-1.482-13.329,6.623-8.495,14.232a3.956,3.956,0,0,1-2.745,5.962c-2.279.325-4.888-.266-7.131-3.253,0,0-7.031-25.141,3.542-42.278S310.021,112.343,318,116.54Z" transform="translate(-254.898 -112.391)" fill="#282f39"/>
          </g>
          <g id="Group_9039" data-name="Group 9039" transform="translate(39.579 41.898)">
            <path id="Path_276" data-name="Path 276" d="M380.955,223.74a1.954,1.954,0,0,1-.992-3.642c1.375-.8,3.276-3.312,4.427-7.1,1.612-5.319.5-8.79-.313-9.038-.785-.242-3.571,1.954-5.2,7.1a1.957,1.957,0,1,1-3.731-1.181c2.125-6.724,6.358-10.791,10.065-9.663,3.784,1.145,5.012,7,2.916,13.914-1.322,4.362-3.636,7.857-6.2,9.35a1.919,1.919,0,0,1-.986.266Z" transform="translate(-338.599 -190.191)" fill="#282f39"/>
            <path id="Path_277" data-name="Path 277" d="M354.4,214.157a6.125,6.125,0,0,1-1.783-.266c-2.332-.708-4.038-2.71-4.817-5.649a17.44,17.44,0,0,1,4.911-16.192c2.273-2.013,4.811-2.733,7.143-2.025,4.528,1.375,6.487,7.692,4.457,14.38a16.325,16.325,0,0,1-4.551,7.461,8.189,8.189,0,0,1-5.354,2.29Zm3.689-20.478a4.472,4.472,0,0,0-2.792,1.3,13.581,13.581,0,0,0-3.713,12.267c.407,1.552,1.2,2.609,2.166,2.9s2.214-.148,3.418-1.21a12.5,12.5,0,0,0,3.394-5.667c1.464-4.829.2-8.884-1.848-9.5a2.125,2.125,0,0,0-.62-.089Zm-8.064,6.4h0Z" transform="translate(-327.253 -185.986)" fill="#282f39"/>
            <path id="Path_278" data-name="Path 278" d="M337.926,195.116a2.005,2.005,0,0,1-.638-.106l-22.674-7.833a1.957,1.957,0,0,1,1.275-3.7l22.674,7.833a1.957,1.957,0,0,1-.638,3.807Z" transform="translate(-313.297 -183.367)" fill="#282f39"/>
          </g>
        </g>
      </g>
      <g id="Group_9047" data-name="Group 9047" transform="translate(0 281.798)">
        <g id="Group_9043" data-name="Group 9043" transform="translate(0 304.545)">
          <path id="Path_279" data-name="Path 279" d="M1080,1094.474h-77.4v20.377l-294.869-43.889a59.16,59.16,0,0,0-28.993,2.94L47.866,1304.2v-17.39H0v44.852H.024a13.2,13.2,0,0,0,11.1,12.65L439.559,1420.5a81.179,81.179,0,0,0,47.707-5.98l585.127-265.254a12.665,12.665,0,0,0,7.413-13.866h.189v-40.926Z" transform="translate(0 -1027.124)" fill="#282f39"/>
          <g id="Group_9042" data-name="Group 9042" transform="translate(0.508)">
            <path id="Path_280" data-name="Path 280" d="M15.262,1274.434l426.623,76.191a80.522,80.522,0,0,0,47.506-5.98l582.647-265.254c11.7-5.324,9.277-22.632-3.438-24.533l-359.678-53.765a58.667,58.667,0,0,0-28.869,2.94L13,1248.567c-12.881,4.723-11.241,23.453,2.259,25.867Z" transform="translate(-2.22 -998.498)" fill="#fff"/>
            <path id="Path_281" data-name="Path 281" d="M454.75,1352.5a82.664,82.664,0,0,1-14.573-1.3L13.552,1275.006a15.407,15.407,0,0,1-2.589-29.628l667.052-244.535a60.917,60.917,0,0,1,29.831-3.04l359.679,53.765a14.875,14.875,0,0,1,3.957,28.246L488.833,1345.069a82.073,82.073,0,0,1-34.083,7.42Zm244.16-351.439a57.031,57.031,0,0,0-19.557,3.459L12.308,1249.05a11.5,11.5,0,0,0,1.929,22.107l426.625,76.191a78.188,78.188,0,0,0,46.356-5.838l582.649-265.254a10.965,10.965,0,0,0-2.919-20.82L707.267,1001.67a56.564,56.564,0,0,0-8.351-.62Z" transform="translate(-0.86 -997.146)" fill="#282f39"/>
          </g>
          <path id="Path_282" data-name="Path 282" d="M470.253,1347.214a65.608,65.608,0,0,1-11.471-1.015l-419.9-74.993,660.632-242.185a43.383,43.383,0,0,1,21.355-2.172l351.739,52.579L497.275,1341.358a64.8,64.8,0,0,1-27.028,5.862Z" transform="translate(-15.929 -1009.119)" fill="#087c7c" opacity="0.5"/>
        </g>
        <g id="Group_9046" data-name="Group 9046" transform="translate(327.533)">
          <path id="Path_283" data-name="Path 283" d="M849.91,733.616a10.691,10.691,0,0,1-3.884-.732,10.915,10.915,0,0,1-6.08-5.885,11.148,11.148,0,0,1,5.567-14.557,10.629,10.629,0,0,1,8.276-.212,10.915,10.915,0,0,1,6.08,5.885,11.148,11.148,0,0,1-5.567,14.557,10.7,10.7,0,0,1-4.392.95Zm0-18.211a6.813,6.813,0,0,0-2.792.6,7.227,7.227,0,0,0-3.577,9.439,7.022,7.022,0,0,0,3.9,3.79,6.751,6.751,0,0,0,5.26-.136,7.222,7.222,0,0,0,3.577-9.439,7,7,0,0,0-3.9-3.79A6.775,6.775,0,0,0,849.91,715.4Zm-3.6-1.181h0Z" transform="translate(-671.842 -575.571)" fill="#282f39"/>
          <path id="Path_284" data-name="Path 284" d="M586.893,1059.543a8.854,8.854,0,0,1,11.759,4.663,9.173,9.173,0,0,1-4.569,11.995,8.854,8.854,0,0,1-11.759-4.663A9.173,9.173,0,0,1,586.893,1059.543Z" transform="translate(-566.361 -717.848)" fill="#087c7c" opacity="0.5"/>
          <path id="Path_285" data-name="Path 285" d="M1400.593,725.283a8.854,8.854,0,0,1,11.759,4.663,9.173,9.173,0,0,1-4.569,11.995,8.854,8.854,0,0,1-11.759-4.663A9.173,9.173,0,0,1,1400.593,725.283Z" transform="translate(-899.728 -580.904)" fill="#087c7c" opacity="0.5"/>
          <g id="Group_9044" data-name="Group 9044" transform="translate(0 363.764)">
            <path id="Path_286" data-name="Path 286" d="M755.783,1200.744l-2.054-17.686-19.338-2.066a73.992,73.992,0,0,0-4.551-11.541l12.656-14.734-10.62-14.291-17.78,7.881a74.8,74.8,0,0,0-9.711-7.692l3.6-19.114-16.34-7.066-11.44,15.7a74.086,74.086,0,0,0-12.278-1.789l-6.434-18.353-17.686,2.054-2.066,19.339a73.978,73.978,0,0,0-11.541,4.551l-14.734-12.656-14.291,10.62,7.881,17.78a74.8,74.8,0,0,0-7.692,9.711l-19.114-3.6-7.066,16.34,15.7,11.44a74.072,74.072,0,0,0-1.789,12.278l-18.353,6.434,2.054,17.686,19.339,2.066a73.98,73.98,0,0,0,4.551,11.541l-12.656,14.734,10.62,14.291,17.78-7.881a74.808,74.808,0,0,0,9.711,7.692l-3.6,19.114,16.34,7.066,11.44-15.7a74.105,74.105,0,0,0,12.272,1.789l6.44,18.353,17.686-2.054,2.066-19.339a73.98,73.98,0,0,0,11.541-4.551l14.734,12.656,14.291-10.62-7.881-17.78a74.8,74.8,0,0,0,7.692-9.711l19.114,3.6,7.066-16.346-15.7-11.44a74.072,74.072,0,0,0,1.789-12.278l18.353-6.434Zm-87.236,47.3a45.836,45.836,0,1,1,40.247-50.814A45.838,45.838,0,0,1,668.548,1248.045Z" transform="translate(-561.925 -1102.597)" fill="#087c7c"/>
            <path id="Path_287" data-name="Path 287" d="M652.053,1286.419a1.955,1.955,0,0,1-1.842-1.311l-6.009-17.137a75.587,75.587,0,0,1-10.029-1.458l-10.685,14.657a1.959,1.959,0,0,1-2.355.643l-16.346-7.066a1.95,1.95,0,0,1-1.145-2.155l3.365-17.851a77.6,77.6,0,0,1-7.934-6.287l-16.611,7.361a1.955,1.955,0,0,1-2.361-.62l-10.62-14.291a1.963,1.963,0,0,1,.089-2.444l11.818-13.76a76.97,76.97,0,0,1-3.719-9.433l-18.057-1.93a1.952,1.952,0,0,1-1.736-1.718l-2.054-17.686a1.954,1.954,0,0,1,1.293-2.072l17.137-6.009a75.583,75.583,0,0,1,1.458-10.029l-14.657-10.685a1.959,1.959,0,0,1-.643-2.355l7.066-16.34a1.961,1.961,0,0,1,2.16-1.145l17.851,3.365a77.378,77.378,0,0,1,6.281-7.934L586.4,1124.12a1.953,1.953,0,0,1,.62-2.361l14.291-10.62a1.947,1.947,0,0,1,2.444.089l13.76,11.818a76.1,76.1,0,0,1,9.427-3.719l1.93-18.057a1.952,1.952,0,0,1,1.718-1.735l17.686-2.054a1.949,1.949,0,0,1,2.072,1.3l6.009,17.137a75.851,75.851,0,0,1,10.029,1.458l10.685-14.657a1.959,1.959,0,0,1,2.355-.643l16.34,7.066a1.95,1.95,0,0,1,1.145,2.155l-3.365,17.857a77.365,77.365,0,0,1,7.934,6.281l16.611-7.361a1.953,1.953,0,0,1,2.361.62l10.62,14.291a1.963,1.963,0,0,1-.089,2.444l-11.818,13.76a76.405,76.405,0,0,1,3.719,9.433l18.058,1.924a1.952,1.952,0,0,1,1.735,1.718l2.054,17.686a1.951,1.951,0,0,1-1.3,2.072l-17.137,6.009a75.578,75.578,0,0,1-1.458,10.029l14.657,10.684a1.959,1.959,0,0,1,.643,2.355l-7.066,16.34a1.95,1.95,0,0,1-2.161,1.145l-17.851-3.365a76.726,76.726,0,0,1-6.281,7.934l7.361,16.605a1.953,1.953,0,0,1-.62,2.361l-14.291,10.62a1.955,1.955,0,0,1-2.444-.089l-13.76-11.818a76.388,76.388,0,0,1-9.433,3.719l-1.924,18.057a1.952,1.952,0,0,1-1.718,1.735l-17.686,2.054a1.462,1.462,0,0,1-.224.012ZM633.34,1262.37a1.987,1.987,0,0,1,.449.053,72.207,72.207,0,0,0,11.948,1.741,1.949,1.949,0,0,1,1.724,1.3l5.921,16.871,14.581-1.688,1.9-17.78a1.952,1.952,0,0,1,1.381-1.665,72.033,72.033,0,0,0,11.234-4.427,1.951,1.951,0,0,1,2.143.271l13.548,11.641,11.783-8.754-7.249-16.351a1.955,1.955,0,0,1,.36-2.131,73.617,73.617,0,0,0,7.491-9.457,1.963,1.963,0,0,1,1.989-.838l17.579,3.312L735.947,1221l-14.433-10.519a1.942,1.942,0,0,1-.75-2.025,72.22,72.22,0,0,0,1.741-11.948,1.949,1.949,0,0,1,1.3-1.724l16.877-5.921L739,1174.285l-17.78-1.895a1.952,1.952,0,0,1-1.665-1.381,72.634,72.634,0,0,0-4.427-11.234,1.963,1.963,0,0,1,.266-2.143l11.641-13.547-8.754-11.782-16.352,7.249a1.955,1.955,0,0,1-2.131-.36,73.09,73.09,0,0,0-9.457-7.491,1.948,1.948,0,0,1-.838-1.989l3.312-17.579-13.471-5.826-10.519,14.433a1.948,1.948,0,0,1-2.025.75,72.481,72.481,0,0,0-11.948-1.741,1.949,1.949,0,0,1-1.724-1.3l-5.921-16.877-14.581,1.694-1.9,17.78a1.952,1.952,0,0,1-1.381,1.665,72.148,72.148,0,0,0-11.234,4.427,1.943,1.943,0,0,1-2.143-.272l-13.548-11.641-11.777,8.754,7.249,16.352a1.955,1.955,0,0,1-.36,2.131,73.206,73.206,0,0,0-7.491,9.457,1.958,1.958,0,0,1-1.989.838l-17.579-3.312-5.826,13.471,14.433,10.519a1.942,1.942,0,0,1,.75,2.025,72.186,72.186,0,0,0-1.741,11.954,1.949,1.949,0,0,1-1.3,1.724l-16.877,5.921,1.688,14.581,17.78,1.9a1.945,1.945,0,0,1,1.665,1.381,72.393,72.393,0,0,0,4.427,11.234,1.964,1.964,0,0,1-.266,2.143l-11.641,13.548,8.754,11.782,16.352-7.249a1.955,1.955,0,0,1,2.131.36,72.822,72.822,0,0,0,9.457,7.491,1.948,1.948,0,0,1,.838,1.989l-3.312,17.579,13.471,5.826,10.519-14.433a1.947,1.947,0,0,1,1.582-.8Zm16.847-22.626a47.9,47.9,0,1,1,5.6-.325A48.334,48.334,0,0,1,650.187,1239.744Zm.183-91.681a44.326,44.326,0,0,0-5.142.3,43.669,43.669,0,1,0,5.142-.3Z" transform="translate(-555.807 -1097.465)" fill="#282f39"/>
          </g>
          <g id="Group_9045" data-name="Group 9045" transform="translate(176.738 166.442)">
            <path id="Path_288" data-name="Path 288" d="M1195.049,937.564l-3.512-30.265-33.087-3.53a125.856,125.856,0,0,0-7.786-19.746l21.658-25.206-18.176-24.45-30.43,13.489a127.962,127.962,0,0,0-16.617-13.164l6.163-32.709L1085.3,789.893l-19.581,26.853a126.31,126.31,0,0,0-21-3.058l-11.015-31.4-30.265,3.512L999.9,818.889a126.438,126.438,0,0,0-19.746,7.786l-25.206-21.658L930.5,823.192l13.488,30.43a127.963,127.963,0,0,0-13.164,16.617l-32.709-6.163L886.023,892.04l26.853,19.58a126.318,126.318,0,0,0-3.058,21l-31.4,11.015,3.512,30.265,33.087,3.53a126.438,126.438,0,0,0,7.786,19.746l-21.658,25.206,18.176,24.457,30.43-13.489a127.959,127.959,0,0,0,16.617,13.164l-6.163,32.709,27.963,12.089,19.581-26.859a126.314,126.314,0,0,0,21,3.058l11.015,31.4,30.265-3.512,3.53-33.087a126.438,126.438,0,0,0,19.746-7.786l25.206,21.658,24.451-18.17-13.489-30.43a127.967,127.967,0,0,0,13.164-16.617l32.709,6.163,12.089-27.963-26.859-19.58a126.328,126.328,0,0,0,3.058-21l31.4-11.015Zm-149.277,80.943a78.431,78.431,0,1,1,68.871-86.946A78.431,78.431,0,0,1,1045.772,1018.507Z" transform="translate(-864.717 -771.018)" fill="#087c7c"/>
            <path id="Path_289" data-name="Path 289" d="M1018.505,1083.74a1.95,1.95,0,0,1-1.842-1.31l-10.59-30.182a129.007,129.007,0,0,1-18.766-2.727l-18.819,25.814a1.957,1.957,0,0,1-2.355.643l-27.963-12.089a1.95,1.95,0,0,1-1.145-2.155l5.921-31.44a129.779,129.779,0,0,1-14.84-11.759l-29.25,12.963a1.96,1.96,0,0,1-2.361-.62l-18.176-24.456a1.963,1.963,0,0,1,.089-2.444l20.82-24.232a127.778,127.778,0,0,1-6.954-17.644l-31.806-3.394a1.952,1.952,0,0,1-1.736-1.718l-3.512-30.265a1.953,1.953,0,0,1,1.293-2.072l30.182-10.59a129.144,129.144,0,0,1,2.727-18.766l-25.814-18.819a1.959,1.959,0,0,1-.643-2.355l12.089-27.963a1.961,1.961,0,0,1,2.161-1.145l31.44,5.921a130.592,130.592,0,0,1,11.759-14.84l-12.963-29.25a1.953,1.953,0,0,1,.62-2.361l24.45-18.176a1.947,1.947,0,0,1,2.444.089l24.232,20.82a128.34,128.34,0,0,1,17.644-6.954l3.394-31.806a1.952,1.952,0,0,1,1.718-1.735l30.265-3.512a1.945,1.945,0,0,1,2.072,1.3l10.584,30.182a128.678,128.678,0,0,1,18.766,2.727L1062.46,771.6a1.957,1.957,0,0,1,2.355-.643l27.963,12.089a1.95,1.95,0,0,1,1.145,2.155L1088,816.65a130.139,130.139,0,0,1,14.846,11.759l29.25-12.963a1.953,1.953,0,0,1,2.361.62l18.17,24.451a1.962,1.962,0,0,1-.089,2.444l-20.82,24.232a129.087,129.087,0,0,1,6.954,17.644l31.806,3.394a1.952,1.952,0,0,1,1.735,1.718l3.512,30.265a1.951,1.951,0,0,1-1.3,2.072l-30.182,10.59a128.876,128.876,0,0,1-2.727,18.766l25.814,18.819a1.959,1.959,0,0,1,.643,2.355l-12.089,27.969a1.968,1.968,0,0,1-2.155,1.145L1122.281,996a130.118,130.118,0,0,1-11.759,14.846l12.969,29.25a1.953,1.953,0,0,1-.62,2.361l-24.456,18.17a1.947,1.947,0,0,1-2.444-.089l-24.232-20.82a128.522,128.522,0,0,1-17.644,6.954l-3.394,31.806a1.952,1.952,0,0,1-1.718,1.736l-30.265,3.512a1.463,1.463,0,0,1-.224.012Zm-32.018-38.37a1.98,1.98,0,0,1,.449.053,124.606,124.606,0,0,0,20.678,3.01,1.949,1.949,0,0,1,1.724,1.3l10.5,29.923,27.16-3.152,3.365-31.534a1.952,1.952,0,0,1,1.381-1.665,124.46,124.46,0,0,0,19.445-7.668,1.954,1.954,0,0,1,2.143.271l24.02,20.643,21.942-16.3-12.857-29a1.955,1.955,0,0,1,.36-2.131,126.862,126.862,0,0,0,12.963-16.363,1.948,1.948,0,0,1,1.989-.838l31.174,5.874,10.85-25.094-25.59-18.66a1.942,1.942,0,0,1-.75-2.025,124.594,124.594,0,0,0,3.01-20.678,1.949,1.949,0,0,1,1.3-1.724l29.923-10.5-3.152-27.154L1136.98,888.6a1.952,1.952,0,0,1-1.665-1.381,124.7,124.7,0,0,0-7.668-19.445,1.964,1.964,0,0,1,.266-2.143l20.643-24.02-16.3-21.942-29,12.851a1.957,1.957,0,0,1-2.131-.36,126.376,126.376,0,0,0-16.363-12.963,1.948,1.948,0,0,1-.838-1.989l5.873-31.174-25.094-10.85-18.66,25.59a1.948,1.948,0,0,1-2.025.75,124.519,124.519,0,0,0-20.678-3.011,1.949,1.949,0,0,1-1.724-1.3l-10.5-29.923-27.16,3.152-3.365,31.534a1.952,1.952,0,0,1-1.381,1.665A124.275,124.275,0,0,0,959.77,811.3a1.943,1.943,0,0,1-2.143-.272l-24.02-20.643L911.666,806.7l12.851,29a1.957,1.957,0,0,1-.36,2.131,126.384,126.384,0,0,0-12.963,16.363,1.947,1.947,0,0,1-1.989.838l-31.174-5.874-10.85,25.094,25.59,18.66a1.942,1.942,0,0,1,.75,2.025,124.786,124.786,0,0,0-3.011,20.678,1.949,1.949,0,0,1-1.3,1.724l-29.923,10.5,3.152,27.154,31.534,3.365a1.952,1.952,0,0,1,1.665,1.381,124.485,124.485,0,0,0,7.668,19.445,1.954,1.954,0,0,1-.272,2.143l-20.643,24.02,16.3,21.942,29-12.851a1.957,1.957,0,0,1,2.131.36,126.167,126.167,0,0,0,16.363,12.963,1.948,1.948,0,0,1,.838,1.989l-5.874,31.174,25.094,10.85,18.66-25.59a1.947,1.947,0,0,1,1.582-.8Zm28.925-41.51a80.5,80.5,0,1,1,9.321-.549,81.593,81.593,0,0,1-9.321.537Zm9.1-2.485h0Zm-8.884-154.395a77.711,77.711,0,0,0-8.967.519,76.241,76.241,0,1,0,8.973-.519Z" transform="translate(-855.207 -763.195)" fill="#282f39"/>
          </g>
          <path id="Path_290" data-name="Path 290" d="M1268.251,542.589a2.009,2.009,0,0,0-1.824-1.718l-13.524-1.1a2,2,0,0,1-1.718-1.34,61.882,61.882,0,0,0-3.087-7.3,1.988,1.988,0,0,1,.23-2.16l8.577-10.507a2.006,2.006,0,0,0,.024-2.5l-7.32-9.362a2.006,2.006,0,0,0-2.438-.578l-12.273,5.815a2,2,0,0,1-2.155-.3,62.415,62.415,0,0,0-6.316-4.752,2,2,0,0,1-.885-1.983l2.184-13.412a2.014,2.014,0,0,0-1.228-2.184l-11.015-4.445a2,2,0,0,0-2.4.72l-7.709,11.157a2,2,0,0,1-2.013.821,62.9,62.9,0,0,0-7.857-.945,2,2,0,0,1-1.765-1.281l-4.811-12.7a2,2,0,0,0-2.155-1.275l-11.759,1.665a2,2,0,0,0-1.718,1.824l-1.1,13.542a2,2,0,0,1-1.34,1.718,62.788,62.788,0,0,0-7.29,3.087,1.989,1.989,0,0,1-2.161-.23l-10.5-8.577a2.006,2.006,0,0,0-2.509-.024l-9.356,7.326a2.014,2.014,0,0,0-.578,2.438l5.809,12.284a2,2,0,0,1-.3,2.149,62.465,62.465,0,0,0-4.752,6.322,2,2,0,0,1-1.983.885l-13.4-2.178a2.007,2.007,0,0,0-2.184,1.228l-4.439,11.027a2,2,0,0,0,.72,2.4l11.151,7.715a2,2,0,0,1,.821,2.013,63.053,63.053,0,0,0-.944,7.869,2,2,0,0,1-1.275,1.765L1115,562.317a2.009,2.009,0,0,0-1.275,2.155l1.665,11.771a2.009,2.009,0,0,0,1.824,1.718l13.524,1.1a2,2,0,0,1,1.718,1.34,61.861,61.861,0,0,0,3.087,7.3,1.989,1.989,0,0,1-.23,2.161l-8.577,10.507a2.006,2.006,0,0,0-.024,2.5l7.32,9.362a2.007,2.007,0,0,0,2.438.578L1148.743,607a1.99,1.99,0,0,1,2.155.3,63.334,63.334,0,0,0,6.316,4.758,2,2,0,0,1,.885,1.983l-2.184,13.412a2.014,2.014,0,0,0,1.228,2.184l11.015,4.439a2,2,0,0,0,2.4-.72l7.709-11.157a2,2,0,0,1,2.013-.82,62.891,62.891,0,0,0,7.857.944,2,2,0,0,1,1.765,1.281l4.811,12.7a2,2,0,0,0,2.155,1.275l11.759-1.665a2,2,0,0,0,1.718-1.824l1.1-13.536a2,2,0,0,1,1.34-1.718,62.779,62.779,0,0,0,7.29-3.087,1.989,1.989,0,0,1,2.161.23l10.5,8.577a2.006,2.006,0,0,0,2.509.024l9.356-7.326a2.014,2.014,0,0,0,.578-2.438l-5.809-12.284a1.99,1.99,0,0,1,.3-2.149,63.356,63.356,0,0,0,4.752-6.322,2,2,0,0,1,1.983-.885l13.4,2.178a2.007,2.007,0,0,0,2.184-1.228l4.439-11.027a2,2,0,0,0-.72-2.4l-11.151-7.715a2,2,0,0,1-.821-2.013,63.078,63.078,0,0,0,.944-7.869,2,2,0,0,1,1.275-1.765l12.692-4.817a2.009,2.009,0,0,0,1.275-2.155l-1.665-11.771Zm-76.439,56.569a39.739,39.739,0,1,1,39.739-39.739A39.739,39.739,0,0,1,1191.812,599.158Z" transform="translate(-784.375 -481.237)" fill="#087c7c"/>
          <path id="Path_291" data-name="Path 291" d="M745.947,876.947,742.9,865.82l-12.579.573a47.869,47.869,0,0,0-4.044-6.948l6.659-10.679-8.2-8.111-10.614,6.789a48.412,48.412,0,0,0-6.971-3.979l.437-12.6-11.151-2.928-5.785,11.174a47.475,47.475,0,0,0-8.034.059L676.7,828.052,665.583,831.1l.573,12.591a48.345,48.345,0,0,0-6.942,4.044l-10.667-6.665-8.1,8.205,6.789,10.62a48.452,48.452,0,0,0-3.973,6.972l-12.585-.437-2.922,11.163,11.169,5.791a47.541,47.541,0,0,0,.059,8.04l-11.115,5.921,3.046,11.127,12.579-.573a47.868,47.868,0,0,0,4.044,6.948l-6.659,10.679,8.2,8.111,10.614-6.789a48.411,48.411,0,0,0,6.971,3.979l-.437,12.6,11.151,2.928,5.785-11.174a47.475,47.475,0,0,0,8.034-.059l5.915,11.121,11.121-3.046-.573-12.591a48.357,48.357,0,0,0,6.942-4.044l10.667,6.665,8.1-8.205-6.789-10.62a48.188,48.188,0,0,0,3.973-6.977l12.585.437,2.922-11.163L734.891,890.9a47.534,47.534,0,0,0-.059-8.04l11.115-5.921ZM694.738,915.8A29.7,29.7,0,1,1,715.529,879.3,29.676,29.676,0,0,1,694.738,915.8Z" transform="translate(-585.282 -623.279)" fill="#087c7c" opacity="0.5"/>
        </g>
      </g>
    </g>
  </g>
</svg>
