<svg xmlns="http://www.w3.org/2000/svg" xmlns:xlink="http://www.w3.org/1999/xlink" width="134.731" height="37.572" viewBox="0 0 134.731 37.572">
    <defs>
        <linearGradient id="aq7vmuce6a" y1=".5" x2="1" y2=".5" gradientUnits="objectBoundingBox">
            <stop offset="0" stop-color="#6abdbd"/>
            <stop offset="1" stop-color="#117f7c"/>
        </linearGradient>
        <linearGradient id="b8y0agd6re" y1=".5" x2="1" y2=".5" gradientUnits="objectBoundingBox">
            <stop offset="0" stop-color="#579d9e"/>
            <stop offset="1" stop-color="#00615e"/>
        </linearGradient>
        <linearGradient id="elncyoclxf" x1="-.189" y1=".688" x2="1.18" y2=".095" xlink:href="#aq7vmuce6a"/>
        <linearGradient id="lwzra2ongb" x1=".562" y1="-.124" x2=".457" y2=".932" gradientUnits="objectBoundingBox">
            <stop offset="0" stop-color="#f07"/>
            <stop offset="1" stop-color="#c60264"/>
        </linearGradient>
        <linearGradient id="blu92c2s7g" x1="12.243" y1=".374" x2="14.05" y2=".374" xlink:href="#lwzra2ongb"/>
        <linearGradient id="m51qlkzabh" y1=".5" x2="1" y2=".5" gradientUnits="objectBoundingBox">
            <stop offset="0" stop-color="#f07"/>
            <stop offset="1" stop-color="#79003b"/>
        </linearGradient>
        <linearGradient id="pjwqc0zc1c" x1=".01" y1="-.214" x2=".422" y2=".373" gradientUnits="objectBoundingBox">
            <stop offset="0" stop-color="#a7c62a"/>
            <stop offset="1" stop-color="#6f8200"/>
        </linearGradient>
        <linearGradient id="wkadsraxui" x1=".506" y1=".25" x2=".48" y2="1.14" gradientUnits="objectBoundingBox">
            <stop offset=".004" stop-color="#718b32"/>
            <stop offset="1" stop-color="#3c4e1f"/>
        </linearGradient>
        <linearGradient id="c6e71qg0qj" x1=".426" y1="-.303" x2=".688" y2="1.055" xlink:href="#pjwqc0zc1c"/>
        <linearGradient id="4pelu4pznd" x1=".406" y1="-.242" x2=".54" y2=".816" gradientUnits="objectBoundingBox">
            <stop offset="0" stop-color="#fda037"/>
            <stop offset="1" stop-color="#c96400"/>
        </linearGradient>
        <linearGradient id="89y40zt8fk" x1="-.228" y1="-.007" x2="1.901" y2="1.476" xlink:href="#4pelu4pznd"/>
    </defs>
    <path data-name="Path 13282" d="M-21.065 0h.8v-5.91l2.48 3.61h.04l2.48-3.59V0h.8v-7.45h-.7l-2.6 3.78-2.6-3.78h-.7zm10.3.12a2.469 2.469 0 0 0 1.12-.25 1.915 1.915 0 0 0 .76-.64V0h.75v-3.68a1.717 1.717 0 0 0-.255-.935 1.752 1.752 0 0 0-.71-.635 2.285 2.285 0 0 0-1.045-.23 2.359 2.359 0 0 0-.87.165 2.572 2.572 0 0 0-.745.445 1.758 1.758 0 0 0-.475.62l.68.37A1.509 1.509 0 0 1-11-4.515a1.522 1.522 0 0 1 .86-.245 1.349 1.349 0 0 1 .91.3.979.979 0 0 1 .35.78v.28l-1.94.32a2.166 2.166 0 0 0-1.3.61 1.571 1.571 0 0 0-.41 1.08 1.359 1.359 0 0 0 .23.78 1.575 1.575 0 0 0 .63.535 2.05 2.05 0 0 0 .91.2zm-.97-1.54a.9.9 0 0 1 .255-.64 1.467 1.467 0 0 1 .835-.37l1.76-.29v.4a1.753 1.753 0 0 1-.23.89 1.7 1.7 0 0 1-.64.635 1.9 1.9 0 0 1-.96.235 1.074 1.074 0 0 1-.735-.25.782.782 0 0 1-.285-.61zm8.06 1.54a2.513 2.513 0 0 0 1.14-.26 2.026 2.026 0 0 0 .82-.73V0h.75v-7.57h-.75v3.02a2.362 2.362 0 0 0-.83-.68 2.492 2.492 0 0 0-1.13-.25 2.539 2.539 0 0 0-1.355.365 2.621 2.621 0 0 0-.94.995 2.949 2.949 0 0 0-.345 1.44 2.957 2.957 0 0 0 .345 1.435 2.6 2.6 0 0 0 .945 1 2.546 2.546 0 0 0 1.35.365zm.04-.75A1.761 1.761 0 0 1-4.6-.9a1.9 1.9 0 0 1-.67-.735 2.207 2.207 0 0 1-.245-1.045 2.2 2.2 0 0 1 .245-1.05 1.9 1.9 0 0 1 .675-.73 1.768 1.768 0 0 1 .96-.27 1.811 1.811 0 0 1 .975.27 1.953 1.953 0 0 1 .69.735 2.137 2.137 0 0 1 .255 1.045 2.137 2.137 0 0 1-.255 1.045 1.953 1.953 0 0 1-.69.735 1.811 1.811 0 0 1-.975.27zm7.15.75A2.645 2.645 0 0 0 4.52-.065a2.568 2.568 0 0 0 .78-.49 2.032 2.032 0 0 0 .5-.665l-.64-.34a2.249 2.249 0 0 1-.65.7 1.684 1.684 0 0 1-.99.28 1.845 1.845 0 0 1-.9-.23 1.867 1.867 0 0 1-.685-.645 1.938 1.938 0 0 1-.285-1h4.22q.02-.13.03-.255t.01-.225a2.651 2.651 0 0 0-.17-.935 2.63 2.63 0 0 0-.49-.82 2.356 2.356 0 0 0-.775-.58 2.394 2.394 0 0 0-1.04-.21 2.458 2.458 0 0 0-1.315.36 2.581 2.581 0 0 0-.925.985A2.955 2.955 0 0 0 .855-2.7a2.972 2.972 0 0 0 .35 1.45 2.614 2.614 0 0 0 .955 1 2.572 2.572 0 0 0 1.355.37zm-.08-4.9a1.66 1.66 0 0 1 .825.21 1.628 1.628 0 0 1 .6.57 1.645 1.645 0 0 1 .24.85H1.665a1.874 1.874 0 0 1 .315-.865 1.776 1.776 0 0 1 .635-.565 1.734 1.734 0 0 1 .82-.2zm6.6 4.78h3.14A2.447 2.447 0 0 0 14.9-.585a2.049 2.049 0 0 0 .635-1.585 2 2 0 0 0-.3-1.08 2.053 2.053 0 0 0-.845-.76 1.7 1.7 0 0 0 .85-1.57 1.754 1.754 0 0 0-.56-1.355 2.144 2.144 0 0 0-1.51-.515h-3.13zm.8-4.3v-2.4H13.1a1.489 1.489 0 0 1 .965.3 1.035 1.035 0 0 1 .365.855 1.192 1.192 0 0 1-.365.9 1.336 1.336 0 0 1-.965.35zm0 3.55v-2.83h2.34a1.626 1.626 0 0 1 1.135.38 1.328 1.328 0 0 1 .425 1.035 1.309 1.309 0 0 1-.425 1.035 1.653 1.653 0 0 1-1.135.375zm6.63 2.95a1.764 1.764 0 0 0 .9-.215 1.918 1.918 0 0 0 .615-.565 3.806 3.806 0 0 0 .4-.74l2.45-6.05H21L19.255-.94 17.5-5.37h-.81L18.835 0l-.19.46a2.032 2.032 0 0 1-.51.785 1.189 1.189 0 0 1-.75.2 1.975 1.975 0 0 1-.315-.025q-.155-.025-.255-.035v.7a1.611 1.611 0 0 0 .325.085 2.167 2.167 0 0 0 .325.03z" transform="translate(67.069 7.57)" style="fill:rgba(255,255,255,.5)"/>
    <g data-name="wrteam_logo">
        <path data-name="Path 52" d="m2304.02 817.281-.515 2.682h-11.739c0-.049-.012-.1-.019-.146a3.482 3.482 0 0 0-.6-1.489 3.3 3.3 0 0 0-1.286-1.047z" transform="translate(-2209.719 -801.242)" style="fill:#fff"/>
        <path data-name="Path 53" d="m2404.02 912.837-1.83 9.532h3.837l1.83-9.532z" transform="translate(-2317.74 -893.141)" style="fill:#fff"/>
        <path data-name="Path 54" d="m1462.09 825.461-1.454-8.175h-3.936l2.81 13.2z" transform="translate(-1408.444 -801.247)" style="fill:#fff"/>
        <path data-name="Path 55" d="m1541.05 824.426-1.542-7.14h-2.686l-6.773 13.187v.009h3.18l3.864-7.679 1.5 6.4z" transform="translate(-1478.987 -801.247)" style="fill:#fff"/>
        <path data-name="Path 56" d="m1769.23 817.286-6.778 13.2h3.11l7.022-13.2z" transform="translate(-1702.493 -801.247)" style="fill:#fff"/>
        <path data-name="Path 57" d="M1957.41 825.342a5.461 5.461 0 0 0 .636-.191 5.058 5.058 0 0 0 1.656-.98 4.942 4.942 0 0 0 1.555-2.736 4.3 4.3 0 0 0 .036-1.456 3.074 3.074 0 0 0-.533-1.323 3.006 3.006 0 0 0-1.278-.99 5.151 5.151 0 0 0-2.1-.381h-9.439l-.512 2.669h7.331v.01h.4a3.943 3.943 0 0 1 1.89.2q.472.348.291 1.29a2 2 0 0 1-.414.961 1.531 1.531 0 0 1-.833.457 7.023 7.023 0 0 1-1.5.124h-.828l.394-2.052h-3.846l-1.83 9.531h3.846l.95-4.948h.718l1.861 4.948h3.664z" transform="translate(-1880.27 -801.247)" style="fill:#fff"/>
        <path data-name="Path 58" d="M2878 1015.08a1.466 1.466 0 0 1-.677.185.694.694 0 0 1-.552-.244.8.8 0 0 1-.123-.7 1.509 1.509 0 0 1 .711-1.016 8.154 8.154 0 0 1 1.09-.553l.285-1.485-.216.069-1.054.33a16.77 16.77 0 0 0-1.992.732 4.073 4.073 0 0 0-1.288.908 2.763 2.763 0 0 0-.685 1.4 2.434 2.434 0 0 0 .032 1.089 1.492 1.492 0 0 0 .669.877 2.733 2.733 0 0 0 1.5.348 3.79 3.79 0 0 0 1.711-.412 2.421 2.421 0 0 0 .337-.218z" transform="translate(-2770.959 -987.8)" style="fill:#fff"/>
        <path data-name="Path 59" d="M2939.92 920.3a.328.328 0 0 1-.331-.409l.8-4.142a2.162 2.162 0 0 0-.565-2.128c-.532-.5-1.293-.754-3.111-.771h-2.87l-.4 2.083h2.788c.444.031.731.149.839.366a1.668 1.668 0 0 1 .061 1.048l-.281 1.464-.418 2.177-.208 1.085a1.01 1.01 0 0 0 .933 1.3h4.349l.4-2.073z" transform="translate(-2828.652 -893.146)" style="fill:#fff"/>
        <path data-name="Path 60" d="M3154.33 915.975a4.056 4.056 0 0 0-.56-1.694 3.189 3.189 0 0 0-1.316-1.192 4.5 4.5 0 0 0-2.023-.419 5.688 5.688 0 0 0-1.984.351 5.547 5.547 0 0 0-1.56.9 3.245 3.245 0 0 0-1.061-.835 4.5 4.5 0 0 0-2.023-.419 5.687 5.687 0 0 0-1.983.351 5.6 5.6 0 0 0-1.776 1.079 6.193 6.193 0 0 0-1.321 1.673 6.932 6.932 0 0 0-.74 2.058c-.013.074-.028.15-.035.206l-.8 4.172h3l.886-4.613a2.128 2.128 0 0 1 2.122-1.746 1.411 1.411 0 0 1 1.506 1.614l-.911 4.745h3.033l.821-4.275a9.72 9.72 0 0 0 .065-.376 2.116 2.116 0 0 1 2.114-1.708 1.411 1.411 0 0 1 1.506 1.614l-.911 4.745h3.033l.807-4.2a6.186 6.186 0 0 0 .111-2.031z" transform="translate(-3024.561 -892.98)" style="fill:#fff"/>
        <path data-name="Path 61" d="M2603.77 918.45h9.529l.126-.657a5.145 5.145 0 0 0-.108-2.862 2.976 2.976 0 0 0-1.37-1.6 4.265 4.265 0 0 0-2.02-.488 6.72 6.72 0 0 0-2.943.616 5.386 5.386 0 0 0-2.069 1.7 6.143 6.143 0 0 0-1.049 2.451 4.352 4.352 0 0 0-.1.719 1.1 1.1 0 0 1 .004.121zm4.187-3.047a2 2 0 0 1 1.388-.543 1.214 1.214 0 0 1 1.129.534 1.985 1.985 0 0 1 .154 1.429h-3.428a2.5 2.5 0 0 1 .76-1.423z" transform="translate(-2511.605 -893.146)" style="fill:#fff"/>
        <path data-name="Path 62" d="M2607.53 1077.82h-3.43c.015.136.029.272.056.406a3.23 3.23 0 0 0 .744 1.5 3.541 3.541 0 0 0 1.429.964 5.328 5.328 0 0 0 1.956.338h1.615l.461-2.4h-1.4a1.707 1.707 0 0 1-1.431-.808z" transform="translate(-2511.924 -1051.811)" style="fill:#fff"/>
        <g>
            <path data-name="Path 63" d="m880.352 781.052-5.7 19.763-.219.667c-.508 1.545-.828 2.413-1.615 2.487h-8.588l3.46-12 .335-1.163 2.813-9.755z" transform="translate(-838.653 -766.4)" style="fill:url(#aq7vmuce6a)"/>
            <path data-name="Path 64" d="M961.039 1046.57c-.508 1.545-.828 2.413-1.615 2.487h-1.215l-.669-.589-3.243-11.411-.013-.047.349-1.116.031.1.089.289.14.453q.092.3.186.594l.225.711.258.8.284.874.3.92q.149.459.319.943.161.471.327.942t.328.918q.159.436.323.87.152.4.313.8.143.354.3.7c.087.2.176.393.272.586a2.486 2.486 0 0 0 .412.659 1.2 1.2 0 0 0 .6.329 1.072 1.072 0 0 0 .377.007 1.587 1.587 0 0 0 .506-.176 3.326 3.326 0 0 0 .816-.643z" transform="translate(-925.258 -1011.489)" style="fill:url(#b8y0agd6re)"/>
            <path data-name="Path 65" d="m1043.96 797.71 4.8-16.655h-9.418a40.493 40.493 0 0 0 4.618 16.655z" transform="translate(-1007.068 -766.403)" style="fill:url(#elncyoclxf)"/>
            <path data-name="Path 66" d="M635.3 803.976h-9.512c-.915-.086-1.229-1.236-1.879-3.292-.017-.053-.9-3.086-1.893-6.524l-.6-2.065c-1.129-3.894-2.221-7.66-2.248-7.746-.65-2.056-.964-3.205-1.879-3.292h9.482c.688.065 1.036.73 1.442 1.93.134.4.275.851.436 1.361.056.178 4.714 16.156 4.771 16.334.652 2.058.966 3.207 1.88 3.294z" transform="translate(-601.166 -766.406)" style="fill:url(#lwzra2ongb)"/>
            <path data-name="Path 67" d="M737.071 1097.45c-.926-3.373-3.451-7.154-5.894-7.154 1.137 3.923 2.241 7.729 2.26 7.789.65 2.056.964 3.2 1.879 3.292h4.3c-1.039-.377-2.088-2.257-2.545-3.927z" transform="translate(-710.692 -1063.808)" style="fill:url(#blu92c2s7g)"/>
            <path data-name="Path 68" d="M727.589 782.988c-.011-.025-.024-.049-.037-.073a1.273 1.273 0 0 0-1.265-.6 1.047 1.047 0 0 0-.635.275 2.145 2.145 0 0 0-.388.573l-.025.048c-.271.526-.508 1.068-.731 1.616s-.431 1.11-.634 1.669a91.208 91.208 0 0 0-1.122 3.281q-.463 1.422-.9 2.853-.227.741-.447 1.484l-.015.05-.764.748c-.037 0 .081-1.674.165-2.813l.078-1.034 2.056-6.71 1.564-2.542.661-.751h1c.685.061 1.033.726 1.439 1.926z" transform="translate(-700.54 -766.406)" style="fill:url(#m51qlkzabh)"/>
            <path data-name="Path 69" d="M212.258 803.976h-8.588c-.776-.073-1.1-.918-1.594-2.422l-.24-.732-5.7-19.763h9.512l2.793 9.684.082.285z" transform="translate(-196.133 -766.406)" style="fill:url(#pjwqc0zc1c)"/>
            <path data-name="Path 70" d="m358 1037.01-.013.047-3.243 11.411-.669.589H352.9c-.776-.073-1.1-.918-1.594-2.422a3.2 3.2 0 0 0 .755.588 1.582 1.582 0 0 0 .506.175 1.063 1.063 0 0 0 .377-.007 1.206 1.206 0 0 0 .6-.33 2.483 2.483 0 0 0 .412-.659c.1-.193.186-.389.272-.586l.3-.7q.161-.4.313-.8.165-.434.324-.87.167-.458.328-.918c.11-.314 2.191-6.591 2.2-6.632l.062.214z" transform="translate(-345.363 -1011.486)" style="fill:url(#wkadsraxui)"/>
            <path data-name="Path 71" d="M201.489 799.61a39.66 39.66 0 0 1 5-15.634l-.843-2.922h-9.512z" transform="translate(-196.134 -766.403)" style="fill:url(#c6e71qg0qj)"/>
            <path data-name="Path 72" d="M409.858 784.347c-.056.178-4.7 16.212-4.74 16.335-.65 2.055-.964 3.205-1.879 3.292h-9.512c.915-.086 1.229-1.236 1.879-3.292.056-.178 4.714-16.157 4.771-16.335.65-2.055.964-3.205 1.879-3.292h9.481c-.915.086-1.229 1.236-1.879 3.292z" transform="translate(-386.159 -766.403)" style="fill:url(#4pelu4pznd)"/>
            <path data-name="Path 73" d="M398.247 803.973c1.167-2.212 2.111-4.526 3.186-6.789A38.683 38.683 0 0 1 405.9 790a43.2 43.2 0 0 1 3.427-3.826l.531-1.826c.65-2.055.964-3.205 1.879-3.292h-9.481c-.915.086-1.229 1.236-1.879 3.292-.056.178-4.714 16.157-4.771 16.335-.65 2.055-.964 3.205-1.879 3.292z" transform="translate(-386.159 -766.403)" style="fill:url(#89y40zt8fk)"/>
        </g>
        <path d="m1.319 46.737 1.04-1.944h.267l-1.183 2.18v1.373h-.255v-1.354L0 44.793h.284zm6.4-.173A1.984 1.984 0 0 1 7.3 47.9a1.456 1.456 0 0 1-1.166.492A1.453 1.453 0 0 1 4.97 47.9a1.992 1.992 0 0 1-.423-1.342 1.958 1.958 0 0 1 .426-1.335 1.468 1.468 0 0 1 1.165-.487 1.452 1.452 0 0 1 1.164.49 1.986 1.986 0 0 1 .421 1.339zm-2.906 0a1.82 1.82 0 0 0 .34 1.18 1.188 1.188 0 0 0 .977.417 1.2 1.2 0 0 0 .98-.413 1.822 1.822 0 0 0 .339-1.183 1.8 1.8 0 0 0-.339-1.177 1.194 1.194 0 0 0-.976-.409 1.2 1.2 0 0 0-.978.413 1.787 1.787 0 0 0-.339 1.173zm7.942-1.771v2.3a1.274 1.274 0 0 1-.355.957 1.359 1.359 0 0 1-.989.345 1.2 1.2 0 0 1-1.31-1.312v-2.29h.25v2.3a.99.99 0 0 0 1.089 1.084.972.972 0 0 0 1.067-1.059v-2.325zm2.822 2v1.548h-.248v-3.548h.846a1.593 1.593 0 0 1 .977.244.871.871 0 0 1 .316.735.961.961 0 0 1-.188.6 1.047 1.047 0 0 1-.572.352l.965 1.618h-.3l-.91-1.542zm0-.214h.678a1.082 1.082 0 0 0 .7-.2.716.716 0 0 0 .248-.592.694.694 0 0 0-.243-.59 1.326 1.326 0 0 0-.792-.185h-.588zm10.047 1.762h-.2l-.78-2.741q-.1-.338-.146-.554-.039.211-.111.486t-.787 2.814h-.2l-.977-3.552h.26l.622 2.289.068.256q.032.118.057.221t.046.2q.021.1.038.193.058-.33.248-1l.607-2.155h.275l.712 2.474q.124.428.177.69.032-.175.081-.372t.75-2.792h.25zm6.2-1.781a1.984 1.984 0 0 1-.424 1.34 1.625 1.625 0 0 1-2.33 0 1.992 1.992 0 0 1-.423-1.342 1.958 1.958 0 0 1 .426-1.335 1.468 1.468 0 0 1 1.165-.487 1.452 1.452 0 0 1 1.164.49 1.986 1.986 0 0 1 .428 1.341zm-2.906 0a1.82 1.82 0 0 0 .34 1.18 1.362 1.362 0 0 0 1.957 0 1.822 1.822 0 0 0 .339-1.183 1.8 1.8 0 0 0-.339-1.177 1.366 1.366 0 0 0-1.954 0 1.787 1.787 0 0 0-.336 1.185zm5.582.24v1.548h-.248v-3.555h.848a1.593 1.593 0 0 1 .977.244.871.871 0 0 1 .316.735.961.961 0 0 1-.188.6 1.047 1.047 0 0 1-.572.352l.965 1.618h-.3l-.914-1.542zm0-.214h.678a1.082 1.082 0 0 0 .7-.2.716.716 0 0 0 .248-.592.694.694 0 0 0-.243-.59 1.326 1.326 0 0 0-.792-.185H34.5zm6.705 1.762h-.3l-1.364-1.878-.474.418v1.458h-.248v-3.553h.248v1.847l.394-.394 1.392-1.453h.316l-1.455 1.5zm7.149-2.532a.944.944 0 0 1-.35.79 1.573 1.573 0 0 1-.991.275h-.549v1.468h-.248v-3.556h.87q1.27 0 1.27 1.021zm-1.89.85h.488a1.48 1.48 0 0 0 .867-.2.747.747 0 0 0 .267-.643.726.726 0 0 0-.253-.609 1.263 1.263 0 0 0-.782-.2h-.588zm5.981.428H51l-.5 1.254h-.275l1.429-3.567h.158l1.4 3.567h-.272zm-1.353-.224h1.271l-.484-1.281q-.061-.151-.146-.418a3.9 3.9 0 0 1-.143.423zm4.484-.07v1.548h-.246v-3.555h.846a1.593 1.593 0 0 1 .977.244.871.871 0 0 1 .316.735.96.96 0 0 1-.188.6 1.047 1.047 0 0 1-.572.352l.965 1.618h-.3L56.46 46.8zm0-.214h.678a1.082 1.082 0 0 0 .7-.2.716.716 0 0 0 .248-.592.694.694 0 0 0-.243-.59 1.326 1.326 0 0 0-.792-.185h-.588zm5.242 1.762h-.25v-3.322h-1.153v-.233h2.559v.233H60.82zm5.872 0h-.25l-2.1-3.154h-.019q.029.564.029.85v2.3h-.238v-3.551h.248l2.1 3.149h.015q-.022-.437-.022-.831v-2.318h.241zm4.555 0H69.3v-3.555h1.941v.228h-1.688v1.344h1.6v.228h-1.6v1.524h1.694zm2.661-1.548v1.548h-.248v-3.555h.842a1.593 1.593 0 0 1 .977.244.871.871 0 0 1 .316.735.96.96 0 0 1-.188.6 1.047 1.047 0 0 1-.572.352L76 48.346h-.3l-.912-1.546zm0-.214h.678a1.082 1.082 0 0 0 .7-.2.716.716 0 0 0 .248-.592.694.694 0 0 0-.243-.59 1.326 1.326 0 0 0-.792-.185h-.588z" transform="translate(50.983 -12.759)" style="fill:#fff"/>
        <path d="M3636.96 815.384a1.229 1.229 0 0 0-1.227-1.228 1.229 1.229 0 0 0-1.228 1.228 1.227 1.227 0 0 0 1.227 1.228 1.224 1.224 0 0 0 .868-.36 1.254 1.254 0 0 0 .1-.115 1.227 1.227 0 0 0 .258-.753zm-1.775.629v-1.3h.668a.963.963 0 0 1 .284.032.3.3 0 0 1 .157.118.353.353 0 0 1 .06.21.348.348 0 0 1-.173.313.483.483 0 0 1-.14.051.4.4 0 0 1 .1.048.424.424 0 0 1 .064.068.478.478 0 0 1 .056.081l.194.376H3636l-.214-.4a.3.3 0 0 0-.073-.1.169.169 0 0 0-.1-.03h-.035v.526h-.4zm.4-.771h.169a.62.62 0 0 0 .106-.018.106.106 0 0 0 .065-.041.116.116 0 0 0 .025-.075.119.119 0 0 0-.04-.1.241.241 0 0 0-.15-.034h-.176v.263zm1.707.142a1.555 1.555 0 0 1-.329.958 1.617 1.617 0 0 1-.129.146 1.558 1.558 0 0 1-1.1.457 1.561 1.561 0 0 1-1.561-1.561 1.56 1.56 0 0 1 1.561-1.561 1.56 1.56 0 0 1 1.562 1.561z" transform="translate(-3502.564 -797.916)" style="fill:#fff"/>
    </g>
</svg>
