<svg xmlns="http://www.w3.org/2000/svg" width="151.701" height="40" viewBox="0 0 151.701 40">
    <path d="M113.886 18.093 94.16.393a1.633 1.633 0 0 0-2.127 0l-5.927 5.318V3.92a1.073 1.073 0 0 0-1.071-1.071h-1.963A1.073 1.073 0 0 0 82 3.92v5.475l-9.693 8.7c-.584.525-.42.955.365.955h1.862a1.432 1.432 0 0 1 1.428 1.428v18.1A1.432 1.432 0 0 0 77.389 40H108.8a1.432 1.432 0 0 0 1.427-1.428v-18.1a1.432 1.432 0 0 1 1.428-1.428h1.862c.785 0 .949-.43.365-.955M101.23 30.961a9.627 9.627 0 0 1-3.557 3.208 7.864 7.864 0 0 1-.531.258 9.589 9.589 0 0 1-3.945.844 9.392 9.392 0 0 1-9.636-9.345q0-.155.006-.309a9.4 9.4 0 0 1 .21-1.717 9.636 9.636 0 0 1 18.023-2.326 1.567 1.567 0 0 1 .078 1.217 1.548 1.548 0 0 1-.823.9l-.386.176-.082.036-1.573.712-2.213 1-5.076 2.3-1.1.5a1.535 1.535 0 0 1-.638.14h-.006a1.556 1.556 0 0 1-1.409-.913 1.538 1.538 0 0 1-.038-1.186 1.507 1.507 0 0 1 .241-.422 1.463 1.463 0 0 1 .519-.418.359.359 0 0 1 .052-.027l1.027-.466 2.7-1.224 4.727-2.144.309-.14a6.55 6.55 0 0 0-6.607-2 6.57 6.57 0 0 0-4.52 4.285 6.466 6.466 0 0 0-.313 1.717c-.006.1-.008.206-.008.309s0 .206.008.309a6.141 6.141 0 0 0 3.185 5.083 6.833 6.833 0 0 0 3.342.852 6.52 6.52 0 0 0 5.3-2.715c.05-.069.1-.139.145-.21a1.555 1.555 0 0 1 2.152-.435 1.274 1.274 0 0 1 .116.086 1.528 1.528 0 0 1 .437.565 1.554 1.554 0 0 1-.12 1.5" transform="translate(-71.957 .001)" style="fill:#087c7c"/>
    <path d="M179.122-311.737a7.318 7.318 0 0 1-1.872-4.848c-.019-.241-.027-.553-.027-.936s.008-.693.027-.935a8.169 8.169 0 0 1 .923-3.479 5.758 5.758 0 0 1 2.221-2.3 6.532 6.532 0 0 1 3.311-.811 6.631 6.631 0 0 1 3.561.895 5.7 5.7 0 0 1 2.193 2.542 9.184 9.184 0 0 1 .755 3.856v.475a.612.612 0 0 1-.183.474.648.648 0 0 1-.461.167h-9.666v.252a5.823 5.823 0 0 0 .5 2.137 3.925 3.925 0 0 0 1.3 1.607 3.323 3.323 0 0 0 2 .614 4.02 4.02 0 0 0 1.676-.307 4.3 4.3 0 0 0 1.09-.685 3.277 3.277 0 0 0 .559-.6 1.451 1.451 0 0 1 .391-.4 1.054 1.054 0 0 1 .447-.07h1.369a.653.653 0 0 1 .433.154.473.473 0 0 1 .154.433 2.157 2.157 0 0 1-.447 1.02 5.476 5.476 0 0 1-1.187 1.188 6.5 6.5 0 0 1-1.9.964 8.073 8.073 0 0 1-2.557.377 6.093 6.093 0 0 1-4.61-1.784zm2.529-10.7a3.644 3.644 0 0 0-1.3 1.551 5.31 5.31 0 0 0-.447 2.235v.085h7.655v-.085a5.177 5.177 0 0 0-.462-2.235 3.724 3.724 0 0 0-1.327-1.551 3.666 3.666 0 0 0-2.067-.572 3.6 3.6 0 0 0-2.051.571zm-31.11 11.665a5.452 5.452 0 0 1-2.179-2.249 7.737 7.737 0 0 1-.838-3.283c-.019-.317-.029-.721-.029-1.215s.01-.889.029-1.188a7.574 7.574 0 0 1 .851-3.3 5.565 5.565 0 0 1 2.194-2.235 7.029 7.029 0 0 1 3.52-.811 7.037 7.037 0 0 1 3.521.811A5.566 5.566 0 0 1 159.8-322a7.574 7.574 0 0 1 .852 3.3q.027.448.028 1.188c0 .494-.01.9-.028 1.215a7.75 7.75 0 0 1-.838 3.283 5.449 5.449 0 0 1-2.18 2.249 7.09 7.09 0 0 1-3.548.81 7.1 7.1 0 0 1-3.545-.818zm.769-11.022a4.706 4.706 0 0 0-1.1 3.227q-.028.418-.028 1.061c0 .429.009.782.028 1.062a4.7 4.7 0 0 0 1.1 3.227 3.654 3.654 0 0 0 2.78 1.1 3.608 3.608 0 0 0 2.766-1.1 4.848 4.848 0 0 0 1.118-3.227c.018-.28.028-.633.028-1.062s-.01-.782-.028-1.061a4.854 4.854 0 0 0-1.118-3.227 3.611 3.611 0 0 0-2.766-1.1 3.656 3.656 0 0 0-2.78 1.094zm-46.616 10.058a7.314 7.314 0 0 1-1.872-4.848q-.027-.362-.027-.936c0-.381.009-.693.027-.935a8.169 8.169 0 0 1 .923-3.479 5.752 5.752 0 0 1 2.221-2.3 6.531 6.531 0 0 1 3.31-.811 6.638 6.638 0 0 1 3.563.895 5.708 5.708 0 0 1 2.192 2.542 9.184 9.184 0 0 1 .755 3.856v.475a.615.615 0 0 1-.182.474.652.652 0 0 1-.462.167h-9.667v.252a5.86 5.86 0 0 0 .5 2.137 3.925 3.925 0 0 0 1.3 1.607 3.322 3.322 0 0 0 2 .614 4.022 4.022 0 0 0 1.677-.307 4.3 4.3 0 0 0 1.09-.685 3.231 3.231 0 0 0 .558-.6 1.463 1.463 0 0 1 .392-.4 1.054 1.054 0 0 1 .447-.07h1.369a.653.653 0 0 1 .433.154.473.473 0 0 1 .154.433 2.166 2.166 0 0 1-.447 1.02 5.475 5.475 0 0 1-1.187 1.188 6.5 6.5 0 0 1-1.9.964 8.071 8.071 0 0 1-2.556.377 6.094 6.094 0 0 1-4.612-1.785zm2.529-10.7a3.652 3.652 0 0 0-1.3 1.551 5.323 5.323 0 0 0-.447 2.235v.085h7.655v-.085a5.176 5.176 0 0 0-.461-2.235 3.718 3.718 0 0 0-1.327-1.551 3.667 3.667 0 0 0-2.068-.572 3.594 3.594 0 0 0-2.053.57zm86.988 12.2a.625.625 0 0 1-.461-.181.625.625 0 0 1-.182-.462V-324.1a.672.672 0 0 1 .182-.475.6.6 0 0 1 .461-.2h1.289a.651.651 0 0 1 .475.2.65.65 0 0 1 .2.475v1.229a3.547 3.547 0 0 1 1.525-1.429 5.4 5.4 0 0 1 2.375-.476h1.09a.624.624 0 0 1 .461.183.623.623 0 0 1 .182.461v1.145a.577.577 0 0 1-.182.447.65.65 0 0 1-.461.167h-1.675a3.178 3.178 0 0 0-2.374.88 3.257 3.257 0 0 0-.867 2.389v8.213a.606.606 0 0 1-.2.462.675.675 0 0 1-.475.181zm-20.06 0a1.452 1.452 0 0 1-.615-.1 2.53 2.53 0 0 1-.5-.377l-6.23-5.952v5.783a.626.626 0 0 1-.183.462.625.625 0 0 1-.461.181h-1.313a.625.625 0 0 1-.461-.181.625.625 0 0 1-.182-.462v-18.552a.625.625 0 0 1 .182-.461.625.625 0 0 1 .461-.182h1.313a.625.625 0 0 1 .461.182.625.625 0 0 1 .183.461v9.724l5.5-4.583a3.53 3.53 0 0 1 .517-.377 1.354 1.354 0 0 1 .6-.1h1.477a.571.571 0 0 1 .419.168.568.568 0 0 1 .167.419.582.582 0 0 1-.07.251.823.823 0 0 1-.265.28l-6.455 5.364 7.153 6.956c.223.187.335.355.335.5a.568.568 0 0 1-.167.419.568.568 0 0 1-.419.167zm-35.706 0a.628.628 0 0 1-.462-.181.629.629 0 0 1-.182-.462V-324.1a.676.676 0 0 1 .182-.475.607.607 0 0 1 .462-.2h1.285a.65.65 0 0 1 .474.2.647.647 0 0 1 .2.475v1.229a3.537 3.537 0 0 1 1.536-1.425 5.4 5.4 0 0 1 2.375-.476h1.085a.626.626 0 0 1 .462.183.626.626 0 0 1 .181.461v1.145a.579.579 0 0 1-.181.447.652.652 0 0 1-.462.167h-1.676a3.179 3.179 0 0 0-2.375.88 3.257 3.257 0 0 0-.866 2.389v8.213a.606.606 0 0 1-.2.462.678.678 0 0 1-.475.181zm-18.3 0a.613.613 0 0 1-.475-.182.652.652 0 0 1-.167-.461v-18.244a.7.7 0 0 1 .167-.49.615.615 0 0 1 .475-.181h7.655a7.447 7.447 0 0 1 3.423.685 4.462 4.462 0 0 1 1.956 1.858 5.478 5.478 0 0 1 .628 2.626 4.69 4.69 0 0 1-.377 1.969 4.144 4.144 0 0 1-.936 1.342 5.187 5.187 0 0 1-1.089.8 5.237 5.237 0 0 1 1.941 1.732 4.893 4.893 0 0 1 .852 2.905 5.818 5.818 0 0 1-.7 2.822 5.145 5.145 0 0 1-2.082 2.053 6.9 6.9 0 0 1-3.395.769zm2.1-2.263h5.421a3.739 3.739 0 0 0 2.766-.978 3.267 3.267 0 0 0 .978-2.4 3.29 3.29 0 0 0-.978-2.444 3.774 3.774 0 0 0-2.766-.964h-5.421zm0-9.024h5.141a3.949 3.949 0 0 0 2.71-.824 2.864 2.864 0 0 0 .923-2.249 2.653 2.653 0 0 0-.923-2.179 4.2 4.2 0 0 0-2.71-.755h-5.141z" transform="translate(-50.109 340.021)" style="fill:#087c7c"/>
</svg>
