<svg xmlns="http://www.w3.org/2000/svg" width="260" height="190" viewBox="0 0 260 190">
 

    <g data-name="Group 3720" style="opacity:.4">
        <g data-name="Group 3719" style="clip-path:url(#d62ap01ora)" transform="translate(52 31)">
            <path data-name="Path 11379" d="M156.931 36.668 116.954.8a3.309 3.309 0 0 0-4.311 0l-12.012 10.775v-3.63a2.175 2.175 0 0 0-2.171-2.171h-3.978a2.175 2.175 0 0 0-2.171 2.171V19.04L72.667 36.668c-1.184 1.064-.852 1.935.739 1.935h3.773a2.9 2.9 0 0 1 2.895 2.897v36.669a2.9 2.9 0 0 0 2.891 2.894h63.668a2.9 2.9 0 0 0 2.891-2.894V41.5a2.9 2.9 0 0 1 2.894-2.894h3.773c1.591 0 1.924-.871.739-1.935M131.28 62.75a19.51 19.51 0 0 1-7.21 6.5c-.352.189-.712.364-1.076.522a19.433 19.433 0 0 1-8 1.711c-10.948 0-19.528-8.316-19.528-18.94q0-.314.011-.627a19.042 19.042 0 0 1 .426-3.479 19.528 19.528 0 0 1 36.524-4.714 3.175 3.175 0 0 1 .159 2.465 3.137 3.137 0 0 1-1.668 1.819l-.782.356-.166.074-3.189 1.444-4.481 2.035-10.286 4.659-2.233 1.014a3.111 3.111 0 0 1-1.292.283h-.011a3.154 3.154 0 0 1-2.856-1.85 3.118 3.118 0 0 1-.077-2.4 3.054 3.054 0 0 1 .487-.855 2.965 2.965 0 0 1 1.053-.848.728.728 0 0 1 .1-.054l2.082-.944 5.476-2.48 9.59-4.346.627-.283a13.274 13.274 0 0 0-13.39-4.06 13.316 13.316 0 0 0-9.168 8.688 13.1 13.1 0 0 0-.635 3.479c-.011.209-.015.418-.015.627s0 .418.015.627a12.446 12.446 0 0 0 6.455 10.3A13.848 13.848 0 0 0 115 65.2a13.213 13.213 0 0 0 10.747-5.5c.1-.139.2-.282.294-.426a3.152 3.152 0 0 1 4.362-.882 2.585 2.585 0 0 1 .236.174 3.1 3.1 0 0 1 .886 1.146 3.15 3.15 0 0 1-.244 3.042" transform="translate(-36.312)" style="fill:#087c7c"/>
            <path data-name="Path 11380" d="M10.32 234.67a9.659 9.659 0 0 1-7.309-2.812 11.589 11.589 0 0 1-2.967-7.685Q0 223.6 0 222.688t.044-1.483a12.951 12.951 0 0 1 1.461-5.514 9.129 9.129 0 0 1 3.522-3.654 10.358 10.358 0 0 1 5.248-1.285 10.516 10.516 0 0 1 5.648 1.418 9.041 9.041 0 0 1 3.477 4.03 14.57 14.57 0 0 1 1.2 6.112v.753a.974.974 0 0 1-.288.753 1.037 1.037 0 0 1-.731.266H4.252v.4a9.258 9.258 0 0 0 .8 3.388 6.219 6.219 0 0 0 2.06 2.547 5.264 5.264 0 0 0 3.166.974 6.368 6.368 0 0 0 2.658-.487 6.806 6.806 0 0 0 1.727-1.085 5.133 5.133 0 0 0 .886-.952 2.3 2.3 0 0 1 .62-.642 1.68 1.68 0 0 1 .709-.111h2.17a1.031 1.031 0 0 1 .687.244.746.746 0 0 1 .244.686 3.432 3.432 0 0 1-.709 1.617 8.689 8.689 0 0 1-1.882 1.882 10.279 10.279 0 0 1-3.012 1.528 12.776 12.776 0 0 1-4.053.6m-6.071-13.645h12.136v-.128a8.218 8.218 0 0 0-.731-3.544 5.893 5.893 0 0 0-2.1-2.458 5.808 5.808 0 0 0-3.278-.908 5.7 5.7 0 0 0-3.255.908 5.783 5.783 0 0 0-2.06 2.458 8.439 8.439 0 0 0-.709 3.544z" transform="translate(0 -106.351)" style="fill:#027d7d"/>
            <path data-name="Path 11381" d="M54.487 226.557a.969.969 0 0 1-.753-.288 1.035 1.035 0 0 1-.266-.731v-28.923a1.1 1.1 0 0 1 .266-.775.974.974 0 0 1 .753-.287h12.136a11.817 11.817 0 0 1 5.426 1.085 7.065 7.065 0 0 1 3.1 2.945 8.673 8.673 0 0 1 1 4.164 7.451 7.451 0 0 1-.6 3.123 6.582 6.582 0 0 1-1.484 2.126 8.247 8.247 0 0 1-1.727 1.262A8.274 8.274 0 0 1 75.415 213a7.761 7.761 0 0 1 1.351 4.606 9.22 9.22 0 0 1-1.107 4.474 8.148 8.148 0 0 1-3.3 3.256 10.936 10.936 0 0 1-5.381 1.218zm3.322-17.894h8.15a6.259 6.259 0 0 0 4.3-1.306 4.54 4.54 0 0 0 1.462-3.566 4.206 4.206 0 0 0-1.462-3.455 6.652 6.652 0 0 0-4.3-1.2h-8.15zm0 14.307H66.4a5.928 5.928 0 0 0 4.385-1.551 5.536 5.536 0 0 0 0-7.685 5.981 5.981 0 0 0-4.385-1.528h-8.591z" transform="translate(-26.981 -98.681)" style="fill:#027d7d"/>
            <path data-name="Path 11382" d="M113.053 234.678a.985.985 0 0 1-1.019-1.019v-20.95a1.067 1.067 0 0 1 .288-.753.956.956 0 0 1 .731-.311h2.037a1.06 1.06 0 0 1 1.063 1.064v1.949a5.622 5.622 0 0 1 2.436-2.259 8.559 8.559 0 0 1 3.765-.753h1.727a.985.985 0 0 1 1.018 1.019v1.816a.92.92 0 0 1-.287.709 1.038 1.038 0 0 1-.731.266h-2.658a5.042 5.042 0 0 0-3.765 1.395 5.164 5.164 0 0 0-1.373 3.788v13.022a.955.955 0 0 1-.31.731 1.068 1.068 0 0 1-.753.288z" transform="translate(-56.535 -106.802)" style="fill:#027d7d"/>
            <path data-name="Path 11383" d="M153.515 234.67a11.244 11.244 0 0 1-5.626-1.284 8.634 8.634 0 0 1-3.454-3.566 12.251 12.251 0 0 1-1.329-5.2q-.045-.753-.045-1.927t.045-1.882a12 12 0 0 1 1.35-5.226 8.821 8.821 0 0 1 3.478-3.544 12.766 12.766 0 0 1 11.162 0 8.827 8.827 0 0 1 3.477 3.544 12 12 0 0 1 1.351 5.226q.043.71.044 1.882t-.044 1.927a12.279 12.279 0 0 1-1.329 5.2 8.637 8.637 0 0 1-3.456 3.566 11.238 11.238 0 0 1-5.624 1.284m0-3.41a5.719 5.719 0 0 0 4.385-1.75 7.693 7.693 0 0 0 1.772-5.116q.042-.665.044-1.683t-.044-1.683a7.7 7.7 0 0 0-1.772-5.116 5.723 5.723 0 0 0-4.385-1.75 5.794 5.794 0 0 0-4.407 1.75 7.462 7.462 0 0 0-1.75 5.116q-.045.664-.044 1.683t.044 1.683a7.458 7.458 0 0 0 1.75 5.116 5.79 5.79 0 0 0 4.407 1.75" transform="translate(-72.193 -106.351)" style="fill:#027d7d"/>
            <path data-name="Path 11384" d="M197.549 226.105a.985.985 0 0 1-1.019-1.019v-29.41a.986.986 0 0 1 1.019-1.019h2.082a.986.986 0 0 1 1.019 1.019v15.414l8.725-7.264a5.571 5.571 0 0 1 .82-.6 2.136 2.136 0 0 1 .952-.156h2.348a.91.91 0 0 1 .931.931.919.919 0 0 1-.111.4 1.3 1.3 0 0 1-.421.443l-10.232 8.5L215 224.377q.531.444.532.8a.908.908 0 0 1-.931.93h-2.3a2.283 2.283 0 0 1-.974-.155 3.909 3.909 0 0 1-.8-.6l-9.877-9.434v9.168a.985.985 0 0 1-1.019 1.019z" transform="translate(-99.175 -98.229)" style="fill:#027d7d"/>
            <path data-name="Path 11385" d="M248.517 234.67a9.657 9.657 0 0 1-7.308-2.812 11.592 11.592 0 0 1-2.968-7.685q-.045-.575-.044-1.484t.044-1.483a12.944 12.944 0 0 1 1.462-5.514 9.128 9.128 0 0 1 3.521-3.654 10.358 10.358 0 0 1 5.249-1.285 10.517 10.517 0 0 1 5.647 1.418 9.037 9.037 0 0 1 3.477 4.03 14.555 14.555 0 0 1 1.2 6.112v.753a.973.973 0 0 1-.288.753 1.035 1.035 0 0 1-.731.266h-15.329v.4a9.247 9.247 0 0 0 .8 3.388 6.232 6.232 0 0 0 2.06 2.547 5.264 5.264 0 0 0 3.167.974 6.371 6.371 0 0 0 2.658-.487 6.812 6.812 0 0 0 1.727-1.085 5.157 5.157 0 0 0 .886-.952 2.294 2.294 0 0 1 .62-.642 1.68 1.68 0 0 1 .709-.111h2.171a1.031 1.031 0 0 1 .686.244.746.746 0 0 1 .244.686 3.427 3.427 0 0 1-.709 1.617 8.689 8.689 0 0 1-1.882 1.882 10.278 10.278 0 0 1-3.012 1.528 12.777 12.777 0 0 1-4.053.6m-6.067-13.642h12.136v-.132a8.225 8.225 0 0 0-.731-3.544 5.9 5.9 0 0 0-2.1-2.458 5.805 5.805 0 0 0-3.277-.908 5.7 5.7 0 0 0-3.256.908 5.781 5.781 0 0 0-2.059 2.458 8.432 8.432 0 0 0-.709 3.544z" transform="translate(-120.201 -106.351)" style="fill:#027d7d"/>
            <path data-name="Path 11386" d="M291.523 234.678a.985.985 0 0 1-1.019-1.019v-20.95a1.065 1.065 0 0 1 .288-.753.954.954 0 0 1 .731-.311h2.037a1.06 1.06 0 0 1 1.063 1.064v1.949a5.626 5.626 0 0 1 2.436-2.259 8.563 8.563 0 0 1 3.765-.753h1.727a.986.986 0 0 1 1.018 1.019v1.816a.917.917 0 0 1-.288.709 1.035 1.035 0 0 1-.731.266h-2.658a5.042 5.042 0 0 0-3.765 1.395 5.164 5.164 0 0 0-1.373 3.788v13.022a.956.956 0 0 1-.31.731 1.067 1.067 0 0 1-.753.288z" transform="translate(-146.596 -106.802)" style="fill:#027d7d"/>
        </g>
    </g>
</svg>
