<svg data-name="splash logo" xmlns="http://www.w3.org/2000/svg" width="219.172" height="211.597" viewBox="0 0 219.172 211.597">
    <path data-name="Path 11371" d="M215.126 61.781 147.771 1.344a5.575 5.575 0 0 0-7.264 0L120.269 19.5v-6.113a3.665 3.665 0 0 0-3.658-3.658h-6.7a3.665 3.665 0 0 0-3.658 3.658v18.694l-33.1 29.7c-2 1.793-1.435 3.26 1.245 3.26h6.357a4.89 4.89 0 0 1 4.877 4.877V131.7a4.889 4.889 0 0 0 4.871 4.877h107.272a4.89 4.89 0 0 0 4.871-4.877V69.918a4.89 4.89 0 0 1 4.877-4.877h6.357c2.68 0 3.241-1.467 1.245-3.26m-43.216 43.94a32.871 32.871 0 0 1-12.147 10.955c-.593.319-1.2.613-1.813.88a32.742 32.742 0 0 1-13.471 2.882c-18.446 0-32.9-14.012-32.9-31.91q0-.528.019-1.056a32.082 32.082 0 0 1 .718-5.862 32.9 32.9 0 0 1 61.538-7.942 5.349 5.349 0 0 1 .267 4.154 5.285 5.285 0 0 1-2.81 3.064l-1.317.6-.28.124-5.373 2.432-7.557 3.43-17.331 7.851-3.763 1.708a5.241 5.241 0 0 1-2.178.477h-.019a5.314 5.314 0 0 1-4.812-3.117 5.253 5.253 0 0 1-.13-4.049 5.146 5.146 0 0 1 .821-1.441 5 5 0 0 1 1.774-1.428 1.226 1.226 0 0 1 .176-.092l3.508-1.591 9.226-4.179 16.158-7.322 1.057-.477a22.364 22.364 0 0 0-22.561-6.84 22.435 22.435 0 0 0-15.447 14.639 22.08 22.08 0 0 0-1.069 5.862c-.019.352-.026.7-.026 1.056s.007.7.026 1.057a20.969 20.969 0 0 0 10.876 17.357 23.332 23.332 0 0 0 11.41 2.908 22.263 22.263 0 0 0 18.107-9.272c.169-.235.332-.476.495-.717a5.311 5.311 0 0 1 7.349-1.486 4.352 4.352 0 0 1 .4.293 5.218 5.218 0 0 1 1.493 1.931 5.307 5.307 0 0 1-.411 5.125" transform="translate(-34.553 .001)" style="fill:#fff"/>
    <path data-name="Path 11372" d="M14.409 244.147q-6.433 0-10.2-3.927T.062 229.49Q0 228.687 0 227.418t.062-2.071a18.083 18.083 0 0 1 2.04-7.7 12.747 12.747 0 0 1 4.917-5.1 14.462 14.462 0 0 1 7.328-1.793 14.683 14.683 0 0 1 7.886 1.98 12.624 12.624 0 0 1 4.855 5.627 20.344 20.344 0 0 1 1.67 8.534v1.051a1.36 1.36 0 0 1-.4 1.051 1.447 1.447 0 0 1-1.021.371H5.936v.557a12.927 12.927 0 0 0 1.114 4.731 8.684 8.684 0 0 0 2.876 3.556 7.35 7.35 0 0 0 4.421 1.36 8.891 8.891 0 0 0 3.711-.68 9.5 9.5 0 0 0 2.412-1.515 7.166 7.166 0 0 0 1.237-1.329 3.212 3.212 0 0 1 .866-.9 2.346 2.346 0 0 1 .99-.155h3.03a1.439 1.439 0 0 1 .959.34 1.042 1.042 0 0 1 .34.958 4.791 4.791 0 0 1-.99 2.258 12.13 12.13 0 0 1-2.628 2.628 14.352 14.352 0 0 1-4.205 2.134 17.838 17.838 0 0 1-5.658.835M5.936 225.1h16.945v-.185a11.475 11.475 0 0 0-1.02-4.948 8.229 8.229 0 0 0-2.937-3.431 8.11 8.11 0 0 0-4.577-1.268 7.954 7.954 0 0 0-4.547 1.267 8.074 8.074 0 0 0-2.876 3.431 11.783 11.783 0 0 0-.99 4.948z" transform="translate(0 -32.55)" style="fill:#fff"/>
    <path data-name="Path 11373" d="M54.891 238.842a1.354 1.354 0 0 1-1.051-.4 1.445 1.445 0 0 1-.371-1.021v-40.385a1.536 1.536 0 0 1 .371-1.082 1.36 1.36 0 0 1 1.051-.4h16.945a16.5 16.5 0 0 1 7.576 1.515 9.865 9.865 0 0 1 4.329 4.112 12.109 12.109 0 0 1 1.392 5.813 10.4 10.4 0 0 1-.835 4.36 9.19 9.19 0 0 1-2.072 2.969 11.516 11.516 0 0 1-2.412 1.762 11.552 11.552 0 0 1 4.3 3.835A10.836 10.836 0 0 1 86 226.349a12.873 12.873 0 0 1-1.546 6.246 11.377 11.377 0 0 1-4.608 4.546 15.269 15.269 0 0 1-7.513 1.7zm4.638-24.985h11.379q3.957 0 6-1.824a6.339 6.339 0 0 0 2.041-4.979 5.873 5.873 0 0 0-2.041-4.824q-2.041-1.67-6-1.67H59.529zm0 19.976h12a8.277 8.277 0 0 0 6.123-2.165 7.729 7.729 0 0 0 0-10.73 8.351 8.351 0 0 0-6.123-2.134h-12z" transform="translate(-16.487 -27.863)" style="fill:#fff"/>
    <path data-name="Path 11374" d="M113.457 243.8a1.376 1.376 0 0 1-1.423-1.423V213.13a1.49 1.49 0 0 1 .4-1.051 1.335 1.335 0 0 1 1.02-.434h2.846a1.48 1.48 0 0 1 1.484 1.485v2.721a7.85 7.85 0 0 1 3.4-3.154 11.95 11.95 0 0 1 5.257-1.052h2.412a1.375 1.375 0 0 1 1.422 1.423v2.532a1.285 1.285 0 0 1-.4.99 1.449 1.449 0 0 1-1.021.371h-3.711a7.04 7.04 0 0 0-5.257 1.948 7.211 7.211 0 0 0-1.917 5.288v18.182a1.334 1.334 0 0 1-.432 1.021 1.491 1.491 0 0 1-1.052.4z" transform="translate(-34.545 -32.825)" style="fill:#fff"/>
    <path data-name="Path 11375" d="M157.657 244.147a15.7 15.7 0 0 1-7.855-1.793 12.055 12.055 0 0 1-4.823-4.979 17.1 17.1 0 0 1-1.856-7.267q-.062-1.051-.062-2.691t.062-2.628a16.751 16.751 0 0 1 1.885-7.3 12.316 12.316 0 0 1 4.856-4.948 17.824 17.824 0 0 1 15.584 0 12.324 12.324 0 0 1 4.854 4.948 16.761 16.761 0 0 1 1.887 7.3q.06.991.062 2.628t-.062 2.691a17.145 17.145 0 0 1-1.855 7.267 12.06 12.06 0 0 1-4.825 4.979 15.691 15.691 0 0 1-7.853 1.793m0-4.761a7.985 7.985 0 0 0 6.122-2.443q2.287-2.441 2.475-7.143.059-.929.061-2.35t-.061-2.35q-.187-4.7-2.475-7.143a7.99 7.99 0 0 0-6.122-2.443 8.089 8.089 0 0 0-6.154 2.443q-2.319 2.444-2.443 7.143-.062.926-.062 2.35t.062 2.35q.123 4.7 2.443 7.143a8.084 8.084 0 0 0 6.154 2.443" transform="translate(-44.112 -32.55)" style="fill:#fff"/>
    <path data-name="Path 11376" d="M197.953 238.566a1.376 1.376 0 0 1-1.423-1.423V196.08a1.376 1.376 0 0 1 1.423-1.423h2.906a1.376 1.376 0 0 1 1.423 1.423v21.52l12.183-10.142a7.782 7.782 0 0 1 1.145-.835 2.982 2.982 0 0 1 1.329-.217h3.278a1.27 1.27 0 0 1 1.3 1.3 1.284 1.284 0 0 1-.155.556 1.815 1.815 0 0 1-.587.619l-14.286 11.874 15.832 15.4q.742.619.742 1.114a1.268 1.268 0 0 1-1.3 1.3h-3.216a3.188 3.188 0 0 1-1.36-.216 5.46 5.46 0 0 1-1.113-.835l-13.791-13.173v12.8a1.376 1.376 0 0 1-1.423 1.423z" transform="translate(-60.599 -27.587)" style="fill:#fff"/>
    <path data-name="Path 11377" d="M252.606 244.147q-6.432 0-10.2-3.927t-4.144-10.73q-.063-.8-.062-2.072t.062-2.071a18.073 18.073 0 0 1 2.041-7.7 12.745 12.745 0 0 1 4.916-5.1 14.463 14.463 0 0 1 7.329-1.793 14.684 14.684 0 0 1 7.885 1.98 12.618 12.618 0 0 1 4.854 5.627 20.322 20.322 0 0 1 1.67 8.534v1.051a1.358 1.358 0 0 1-.4 1.051 1.444 1.444 0 0 1-1.02.371h-21.4v.557a12.911 12.911 0 0 0 1.112 4.731 8.7 8.7 0 0 0 2.877 3.556 7.35 7.35 0 0 0 4.422 1.36 8.9 8.9 0 0 0 3.711-.68 9.51 9.51 0 0 0 2.411-1.515 7.2 7.2 0 0 0 1.237-1.329 3.2 3.2 0 0 1 .865-.9 2.346 2.346 0 0 1 .99-.155h3.031a1.44 1.44 0 0 1 .958.34 1.042 1.042 0 0 1 .34.958 4.783 4.783 0 0 1-.99 2.258 12.13 12.13 0 0 1-2.628 2.628 14.352 14.352 0 0 1-4.205 2.134 17.84 17.84 0 0 1-5.659.835m-8.475-19.046h16.945v-.185a11.485 11.485 0 0 0-1.02-4.948 8.235 8.235 0 0 0-2.938-3.431 8.106 8.106 0 0 0-4.576-1.268 7.956 7.956 0 0 0-4.545 1.267 8.072 8.072 0 0 0-2.875 3.431 11.772 11.772 0 0 0-.99 4.948z" transform="translate(-73.447 -32.55)" style="fill:#fff"/>
    <path data-name="Path 11378" d="M291.927 243.8a1.376 1.376 0 0 1-1.423-1.423V213.13a1.487 1.487 0 0 1 .4-1.051 1.333 1.333 0 0 1 1.02-.434h2.845a1.48 1.48 0 0 1 1.484 1.485v2.721a7.856 7.856 0 0 1 3.4-3.154 11.956 11.956 0 0 1 5.257-1.052h2.412a1.376 1.376 0 0 1 1.422 1.423v2.532a1.281 1.281 0 0 1-.4.99 1.445 1.445 0 0 1-1.02.371h-3.711a7.039 7.039 0 0 0-5.257 1.948 7.21 7.21 0 0 0-1.917 5.288v18.182a1.335 1.335 0 0 1-.433 1.021 1.489 1.489 0 0 1-1.051.4z" transform="translate(-89.576 -32.825)" style="fill:#fff"/>
</svg>
