<svg width="40" height="60" viewBox="0 0 40 60" fill="none" xmlns="http://www.w3.org/2000/svg">
<g id="Icon">
<path id="Vector" d="M0.481246 20.6625C0.537496 11.35 7.49375 3.22498 16.6687 1.59998C27.1375 -0.256265 37.425 6.82498 39.325 17.6062C39.8937 20.8312 39.4 23.9062 38.325 26.9437C36.5188 32.05 33.9937 36.8187 31.3062 41.5C28.1562 46.9875 24.7375 52.3 21.1375 57.5C21.0312 57.65 20.9313 57.8062 20.8125 57.95C20.3125 58.5312 19.7187 58.5375 19.2562 57.9312C18.8562 57.4125 18.4875 56.8625 18.1187 56.3187C13.275 49.1937 8.68125 41.925 4.8375 34.2C3.24375 30.9875 1.79375 27.7125 0.943749 24.2125C0.662499 23.05 0.443746 21.875 0.481246 20.675V20.6625ZM20.0687 7.59374C13.0187 7.48124 6.71875 13.2125 6.7375 21C6.75 28.25 12.7875 34.1687 20.1062 34.1375C27.4875 34.1125 33.3812 28.1125 33.35 20.6812C33.3125 13.4875 27.3 7.55624 20.075 7.59374H20.0687Z" fill="#087C7C"/>
<circle id="Ellipse 1" cx="20" cy="21" r="14" fill="white"/>
<path id="Vector_2" d="M19.975 27.2875C18.3687 27.2875 16.7625 27.2875 15.1562 27.2875C14.2125 27.2875 13.8813 26.9875 13.8688 26.0375C13.85 24.5125 13.8563 22.9875 13.8688 21.4687C13.8688 21.0312 13.8438 20.7437 13.2625 20.7062C12.5875 20.6625 12.2938 19.9312 12.6625 19.3625C12.7625 19.2062 12.9 19.0812 13.0312 18.95C15.0375 16.9375 17.05 14.9312 19.0625 12.925C19.8 12.1937 20.2188 12.1812 20.9375 12.9C22.9688 14.9187 24.9875 16.9437 27.0187 18.9625C27.2875 19.2312 27.525 19.5125 27.4875 19.925C27.4437 20.4312 27.15 20.7625 26.6625 20.75C26.1313 20.7312 26.1187 21 26.1187 21.3937C26.1312 22.9187 26.125 24.4437 26.1187 25.9625C26.1187 26.9812 25.8062 27.2875 24.7937 27.2875C23.1875 27.2875 21.5812 27.2875 19.975 27.2875Z" fill="#087C7C"/>
</g>
</svg>
