<svg data-name="about us" xmlns="http://www.w3.org/2000/svg" width="24" height="24" viewBox="0 0 24 24">
    <path data-name="Rectangle 89" style="fill:none" d="M0 0h24v24H0z"/>
    <path data-name="Path 230" d="M660.55 1613.135v-1.172a1.183 1.183 0 0 0 .033-.168 9.407 9.407 0 0 1 1.142-3.938 9.868 9.868 0 0 1 7.083-5.148c.381-.073.77-.106 1.156-.158h1.172a1.117 1.117 0 0 0 .151.032 9.256 9.256 0 0 1 3.941 1.138 9.8 9.8 0 0 1 5.305 8.412 9.268 9.268 0 0 1-1.39 5.515 9.8 9.8 0 0 1-8.172 4.886 9.312 9.312 0 0 1-5.109-1.159 9.856 9.856 0 0 1-5.153-7.084c-.074-.382-.109-.77-.159-1.156zm12.241 4.247c-.3.064-.569.144-.844.176-.778.089-1.119-.255-.978-1.019.11-.593.274-1.176.42-1.762a13.244 13.244 0 0 0 .557-2.446 1.552 1.552 0 0 0-.956-1.606 2.63 2.63 0 0 0-1.361-.147 7.825 7.825 0 0 0-1.82.561c-.039.015-.093.044-.1.077-.056.207-.1.418-.158.654l.37-.119a1.869 1.869 0 0 1 .981-.062c.263.056.421.185.434.455a3.521 3.521 0 0 1-.058.945c-.157.684-.355 1.357-.546 2.032a7.75 7.75 0 0 0-.364 1.85 1.516 1.516 0 0 0 .957 1.511 2.577 2.577 0 0 0 1.608.133c.553-.131 1.085-.354 1.624-.541a.155.155 0 0 0 .09-.089c.053-.199.096-.401.144-.603zm-1.334-11a5.012 5.012 0 0 0-.55.111 1.384 1.384 0 0 0-.775 2.077 1.534 1.534 0 0 0 1.579.663 1.441 1.441 0 0 0 1.234-1.6 1.517 1.517 0 0 0-1.487-1.254z" transform="translate(-658.55 -1600.55)" style="fill:#087c7c"/>
</svg>
