<svg data-name="Area convertor" xmlns="http://www.w3.org/2000/svg" width="24" height="24" viewBox="0 0 24 24">
    <path data-name="Rectangle 95" style="fill:none" d="M0 0h24v24H0z"/>
    <g data-name="Group 382">
        <path data-name="Path 256" d="M572.725 1264.157a2.445 2.445 0 0 1-1.06-.715q-1.751-1.794-3.512-3.578a2.285 2.285 0 0 1-.69-1.336 2.1 2.1 0 0 1 .58-1.807q1.975-2.031 3.979-4.032a1.149 1.149 0 0 1 1.166-.339 1.217 1.217 0 0 1 .821 1.2c.02.4.014.8.01 1.2 0 .134.041.177.172.2a9.182 9.182 0 0 0 5.653-.865 9.37 9.37 0 0 0 3.251-2.665c.088-.112.171-.229.268-.333a.644.644 0 0 1 .771-.166.657.657 0 0 1 .377.707 19.106 19.106 0 0 1-.445 2.054 11.154 11.154 0 0 1-2.966 4.827 10.77 10.77 0 0 1-4.757 2.73c-.679.18-1.383.26-2.075.384-.072.013-.146.02-.245.033 0 .33.02.654-.006.975a3.962 3.962 0 0 1-.153.861 1.111 1.111 0 0 1-.735.667z" transform="translate(-562.834 -1240.721)" style="fill:#087c7c"/>
        <path data-name="Path 257" d="M514.857 1032a2.615 2.615 0 0 1 1.087.754q1.735 1.779 3.481 3.546a2.233 2.233 0 0 1 .69 1.882 2.021 2.021 0 0 1-.564 1.229 426.847 426.847 0 0 1-4.01 4.064 1.116 1.116 0 0 1-1.231.307 1.186 1.186 0 0 1-.743-1.138c-.028-.406-.016-.816-.016-1.224 0-.121-.018-.189-.161-.211a9.415 9.415 0 0 0-8.934 3.557c-.069.089-.135.181-.207.267a.653.653 0 0 1-.778.22.678.678 0 0 1-.41-.752 15.46 15.46 0 0 1 .316-1.6 11.324 11.324 0 0 1 4.651-6.511 10.77 10.77 0 0 1 5.284-1.853c.194-.015.252-.079.242-.273-.014-.3 0-.6 0-.907a1.318 1.318 0 0 1 .9-1.359z" transform="translate(-501.364 -1031.437)" style="fill:#087c7c"/>
    </g>
</svg>
