<svg data-name="Component 93 – 1" xmlns="http://www.w3.org/2000/svg" width="24" height="24" viewBox="0 0 24 24">
    <path data-name="Rectangle 92" transform="translate(2 2)" style="fill:none" d="M0 0h20v20H0z"/>
    <g data-name="Group 548">
        <path data-name="Rectangle 1044" style="fill:none" d="M0 0h24v24H0z"/>
        <path data-name="Path 416" d="M374.851 894.878v7.582a2.23 2.23 0 0 1-2.38 2.39H357.28a2.229 2.229 0 0 1-2.376-2.367v-15.217a2.225 2.225 0 0 1 2.354-2.363H372.5a2.223 2.223 0 0 1 2.35 2.341q.003 3.817.001 7.634zm-15.505-3.342H370.4v-2.181h-11.054zm0 4.426h11.058v-2.175h-11.056zm0 4.442h7.735v-2.182h-7.735z" transform="translate(-352.878 -882.876)" style="fill:#087c7c"/>
    </g>
</svg>
