<svg width="27" height="26" viewBox="0 0 27 26" fill="none" xmlns="http://www.w3.org/2000/svg">
<path id="Vector" d="M25.3125 2.43487L18.5566 2.43489V0.815582C18.5566 0.366676 18.179 0.00308228 17.7128 0.00308228C17.2467 0.00308228 16.8691 0.366676 16.8691 0.815582V2.43449H10.1191V0.815582C10.1191 0.366676 9.74152 0.00308228 9.27534 0.00308228C8.80917 0.00308228 8.43159 0.366676 8.43159 0.815582V2.43449H1.6875C0.755578 2.43449 0 3.16208 0 4.05949V24.372C0 25.2694 0.755578 25.997 1.6875 25.997H25.3125C26.2444 25.997 27 25.2694 27 24.372V4.05949C27 3.16246 26.2444 2.43487 25.3125 2.43487ZM25.3125 24.372H1.6875V4.05949H8.43159V4.87808C8.43159 5.32696 8.80917 5.69058 9.27534 5.69058C9.74152 5.69058 10.1191 5.32696 10.1191 4.87808V4.05989H16.8691V4.87849C16.8691 5.32739 17.2467 5.69099 17.7128 5.69099C18.179 5.69099 18.5566 5.32739 18.5566 4.87849V4.05989H25.3125V24.372ZM19.4062 12.9974H21.0938C21.5595 12.9974 21.9375 12.6334 21.9375 12.1849V10.5599C21.9375 10.1114 21.5595 9.74737 21.0938 9.74737H19.4062C18.9405 9.74737 18.5625 10.1114 18.5625 10.5599V12.1849C18.5625 12.6334 18.9405 12.9974 19.4062 12.9974ZM19.4062 19.497H21.0938C21.5595 19.497 21.9375 19.1334 21.9375 18.6845V17.0595C21.9375 16.611 21.5595 16.247 21.0938 16.247H19.4062C18.9405 16.247 18.5625 16.611 18.5625 17.0595V18.6845C18.5625 19.1338 18.9405 19.497 19.4062 19.497ZM14.3438 16.247H12.6562C12.1905 16.247 11.8125 16.611 11.8125 17.0595V18.6845C11.8125 19.1334 12.1905 19.497 12.6562 19.497H14.3438C14.8095 19.497 15.1875 19.1334 15.1875 18.6845V17.0595C15.1875 16.6114 14.8095 16.247 14.3438 16.247ZM14.3438 9.74737H12.6562C12.1905 9.74737 11.8125 10.1114 11.8125 10.5599V12.1849C11.8125 12.6334 12.1905 12.9974 12.6562 12.9974H14.3438C14.8095 12.9974 15.1875 12.6334 15.1875 12.1849V10.5599C15.1875 10.111 14.8095 9.74737 14.3438 9.74737ZM7.59375 9.74737H5.90625C5.4405 9.74737 5.0625 10.1114 5.0625 10.5599V12.1849C5.0625 12.6334 5.4405 12.9974 5.90625 12.9974H7.59375C8.0595 12.9974 8.4375 12.6334 8.4375 12.1849V10.5599C8.4375 10.111 8.0595 9.74737 7.59375 9.74737ZM7.59375 16.247H5.90625C5.4405 16.247 5.0625 16.611 5.0625 17.0595V18.6845C5.0625 19.1334 5.4405 19.497 5.90625 19.497H7.59375C8.0595 19.497 8.4375 19.1334 8.4375 18.6845V17.0595C8.4375 16.6114 8.0595 16.247 7.59375 16.247Z" fill="#E3E3E3"/>
</svg>
