<svg data-name="Component 97 – 1" xmlns="http://www.w3.org/2000/svg" width="20" height="20" viewBox="0 0 20 20">
    <path data-name="Path 175" d="M231.2 1927.016a10.03 10.03 0 0 1-2.622-.61 18.4 18.4 0 0 1-5.267-3.11 22.661 22.661 0 0 1-5.526-6.5 13.138 13.138 0 0 1-1.542-4.175 1.672 1.672 0 0 1 .208-1.252 16.431 16.431 0 0 1 3.308-3.913c.085-.071.18-.13.27-.195a1.114 1.114 0 0 1 1.5.109 1.173 1.173 0 0 1 .242.257 26.8 26.8 0 0 1 2.362 3.844 6.656 6.656 0 0 1 .32.855.972.972 0 0 1-.2.976 10.924 10.924 0 0 1-.789.769 7.57 7.57 0 0 1-.555.473.247.247 0 0 0-.094.333 9.122 9.122 0 0 0 5.5 5.5.264.264 0 0 0 .352-.1c.3-.37.623-.729.943-1.086a1.249 1.249 0 0 1 1.577-.359c.64.3 1.286.6 1.893.956.823.489 1.613 1.034 2.414 1.56a1.564 1.564 0 0 1 .67.922.8.8 0 0 1-.08.661 4.673 4.673 0 0 1-.435.633 15.851 15.851 0 0 1-3.965 3.245 3.159 3.159 0 0 1-.484.207zm-10.513-18.633c-.058.046-.08.062-.1.081a18.793 18.793 0 0 0-2.866 3.321.893.893 0 0 0-.145.734 11.557 11.557 0 0 0 1.262 3.421 21.384 21.384 0 0 0 7.875 8.109 11.36 11.36 0 0 0 4.218 1.594.516.516 0 0 0 .324-.071 17.679 17.679 0 0 0 3.149-2.587c.142-.146.279-.3.423-.454-.064-.054-.1-.093-.149-.125a23.867 23.867 0 0 0-3.9-2.31.164.164 0 0 0-.23.049c-.2.235-.386.475-.595.7-.3.323-.616.639-.939.942a.39.39 0 0 1-.3.07 8.194 8.194 0 0 1-2.93-1.253 10.142 10.142 0 0 1-4.306-5.566c-.256-.806-.3-.641.325-1.275.374-.38.8-.713 1.2-1.059a.222.222 0 0 0 .067-.33c-.546-.958-1.073-1.926-1.627-2.878-.215-.385-.492-.735-.754-1.113z" transform="translate(-216.207 -1907.016)" style="fill:#fff"/>
</svg>
