<svg data-name="contact us" xmlns="http://www.w3.org/2000/svg" width="24" height="24" viewBox="0 0 24 24">
    <path data-name="Rectangle 88" style="fill:none" d="M0 0h24v24H0z"/>
    <path data-name="Path 227" d="M979.808 1209.768c.21.6.391 1.2.636 1.787a17.774 17.774 0 0 0 3.2 5.113c.169.186.343.453.551.492.191.036.433-.183.649-.3.366-.194.728-.4 1.093-.591a1.12 1.12 0 0 1 1.6.436q.771 1.31 1.53 2.628a1.1 1.1 0 0 1-.508 1.616q-1.492.714-2.994 1.406a.551.551 0 0 1-.356 0 7.1 7.1 0 0 1-2.351-1.33 18.164 18.164 0 0 1-3.639-4.107 22.333 22.333 0 0 1-3.062-6.445 9.671 9.671 0 0 1-.412-3.452c.013-.153.04-.3.053-.457a.93.93 0 0 1 .479-.749c.82-.528 1.617-1.093 2.423-1.643a1.131 1.131 0 0 1 1.765.4q.735 1.259 1.466 2.519a1.114 1.114 0 0 1-.423 1.649c-.539.33-1.081.655-1.621.983a.156.156 0 0 0-.027.03z" transform="translate(-973.721 -1201.145)" style="fill:#087c7c"/>
    <path data-name="Path 228" d="M1073.155 1277.456a16.562 16.562 0 0 1-3.358-5.716l1.436-.879 3.436 2.317 1.568 1.057a.564.564 0 0 0 .787 0l7.387-4.982c.067-.045.136-.089.233-.152.009.123.022.21.022.3v9a.83.83 0 0 1-.911.913h-5.453a.265.265 0 0 1-.262-.158c-.277-.482-.559-.961-.843-1.44a2.149 2.149 0 0 0-3.015-.822z" transform="translate(-1062.668 -1262.662)" style="fill:#087c7c"/>
    <path data-name="Path 229" d="M1104.6 1259.682a2.211 2.211 0 0 0-.02-1.546h11.966c-.066.052-.111.091-.159.124q-3.378 2.317-6.753 4.636a.268.268 0 0 1-.365 0q-2.257-1.561-4.524-3.109c-.045-.031-.087-.065-.145-.105z" transform="translate(-1095.489 -1252.351)" style="fill:#087c7c"/>
</svg>
