<svg xmlns="http://www.w3.org/2000/svg" width="24" height="24" viewBox="0 0 24 24">
    <path data-name="Rectangle 85" style="fill:none" d="M0 0h24v24H0z"/>
    <g data-name="Group 386">
        <path data-name="Path 259" d="M1273.37 1001a.727.727 0 0 1 .435.787c-.02.338 0 .677-.005 1.016a.588.588 0 1 1-1.173 0c0-.339.015-.678-.005-1.016a.726.726 0 0 1 .435-.787z" transform="translate(-1261.235 -999.022)" style="fill:#087c7c"/>
        <path data-name="Path 260" d="M1092 1182.056a.726.726 0 0 1 .787-.435c.337.02.677 0 1.016.005a.588.588 0 1 1 0 1.173c-.339 0-.678-.015-1.016.005a.727.727 0 0 1-.787-.435z" transform="translate(-1090.022 -1170.234)" style="fill:#087c7c"/>
        <path data-name="Path 261" d="M1431.939 1182.371a.726.726 0 0 1-.787.435c-.337-.02-.677 0-1.016-.005a.588.588 0 1 1 0-1.173c.339 0 .678.015 1.016-.005a.725.725 0 0 1 .787.435z" transform="translate(-1409.961 -1170.236)" style="fill:#087c7c"/>
        <path data-name="Path 262" d="M1273.057 1340.938a.726.726 0 0 1-.435-.787c.02-.338 0-.677.005-1.016a.588.588 0 1 1 1.173 0c0 .339-.015.678.005 1.016a.728.728 0 0 1-.435.787z" transform="translate(-1261.236 -1318.96)" style="fill:#087c7c"/>
        <path data-name="Path 263" d="M1164.753 1079.951a6.2 6.2 0 1 1 6.2 6.207 6.213 6.213 0 0 1-6.2-6.207zm6.8-4.981v9.973a5.021 5.021 0 0 0 0-9.973z" transform="translate(-1158.977 -1067.977)" style="fill:#087c7c"/>
        <path data-name="Path 264" d="M1147.5 1055.839a.631.631 0 0 1-.338.576.534.534 0 0 1-.635-.08 18.582 18.582 0 0 1-.952-.952.581.581 0 0 1 .814-.824c.334.309.654.634.964.967a1 1 0 0 1 .147.313z" transform="translate(-1140.667 -1049.65)" style="fill:#087c7c"/>
        <path data-name="Path 265" d="M1385.11 1055.138a1.486 1.486 0 0 1-.2.344c-.267.293-.554.568-.839.845a.587.587 0 1 1-.824-.835c.282-.288.567-.575.857-.855a.565.565 0 0 1 .648-.124.624.624 0 0 1 .358.625z" transform="translate(-1365.923 -1049.693)" style="fill:#087c7c"/>
        <path data-name="Path 266" d="M1146.031 1294.051a.617.617 0 0 1-.576-.321.532.532 0 0 1 .065-.638q.463-.5.965-.967a.58.58 0 0 1 .83.8c-.315.345-.653.672-.994.992a.872.872 0 0 1-.29.134z" transform="translate(-1140.615 -1274.858)" style="fill:#087c7c"/>
        <path data-name="Path 267" d="M1383.638 1291.437a1.731 1.731 0 0 1 .383.207c.306.282.6.58.886.88a.586.586 0 1 1-.829.827q-.45-.433-.883-.884a.561.561 0 0 1-.118-.649.681.681 0 0 1 .561-.381z" transform="translate(-1365.899 -1274.343)" style="fill:#087c7c"/>
    </g>
</svg>
