<svg xmlns="http://www.w3.org/2000/svg" width="40" height="40" viewBox="0 0 40 40">
  <path id="avtar_icon" d="M20,4.211a7.191,7.191,0,0,0-7,7.368,7.191,7.191,0,0,0,7,7.368,7.191,7.191,0,0,0,7-7.368,7.191,7.191,0,0,0-7-7.368ZM9,11.579C9,5.184,13.925,0,20,0S31,5.184,31,11.579,26.075,23.158,20,23.158,9,17.974,9,11.579Zm11,20a22.19,22.19,0,0,0-16.545,7.76,1.93,1.93,0,0,1-2.827.088,2.184,2.184,0,0,1-.083-2.976A26.1,26.1,0,0,1,20,27.368,26.1,26.1,0,0,1,39.455,36.45a2.184,2.184,0,0,1-.083,2.976,1.93,1.93,0,0,1-2.827-.088A22.19,22.19,0,0,0,20,31.579Z" fill="#435ebe" fill-rule="evenodd"/>
</svg>
