<svg data-name="delete account" xmlns="http://www.w3.org/2000/svg" width="24" height="24" viewBox="0 0 24 24">
    <path data-name="Rectangle 92" style="fill:none" d="M0 0h24v24H0z"/>
    <path data-name="Path 234" d="M864.918 1775.779v7.73c0 .926-.4 1.333-1.32 1.333h-13.022c-.914 0-1.318-.41-1.318-1.335v-15.461c0-.929.395-1.323 1.32-1.324H863.6c.923 0 1.318.4 1.318 1.326v7.731zm-7.286-.024v-3.685a1.712 1.712 0 0 0-.021-.349.5.5 0 0 0-.511-.437.505.505 0 0 0-.538.449 1.138 1.138 0 0 0-.016.244v7.616a1.2 1.2 0 0 0 .006.175.535.535 0 0 0 .526.513.541.541 0 0 0 .548-.526 2.772 2.772 0 0 0 .007-.315l-.002-3.685zm4.422.062v-2.281c0-.561.008-1.123 0-1.684a.526.526 0 0 0-.535-.569c-.315 0-.513.2-.538.564-.007.1 0 .21 0 .316V1779.676c.019.374.228.612.535.612a.551.551 0 0 0 .541-.607c0-1.291-.004-2.581-.004-3.865zm-9.931-.052v3.825c0 .432.2.684.525.695s.544-.25.553-.7v-7.476a2 2 0 0 0-.027-.419.491.491 0 0 0-.755-.334.861.861 0 0 0-.284.584c-.025 1.274-.013 2.549-.013 3.824z" transform="translate(-844.584 -1761.283)" style="fill:#087c7c"/>
    <path data-name="Path 235" d="M836.962 1710.955v-1.261a1.264 1.264 0 0 1 1.384-1.4h5.109a1.264 1.264 0 0 1 1.389 1.394v1.266h4.782a1.98 1.98 0 0 1 .314.009.5.5 0 0 1 .459.531.5.5 0 0 1-.466.522 2.433 2.433 0 0 1-.315.007h-17.427c-.535 0-.785-.167-.791-.525s.254-.543.776-.543h4.786zm6.813-.016c0-.411-.016-.8 0-1.178.016-.3-.1-.386-.387-.382-.85.012-1.7 0-2.551 0h-2.446c-.161 0-.355-.026-.36.218-.009.44 0 .881 0 1.336z" transform="translate(-828.4 -1708.294)" style="fill:#087c7c"/>
</svg>
