<svg xmlns="http://www.w3.org/2000/svg" width="11" height="11" viewBox="0 0 11 11">
    <path data-name="Path 212" d="M744 831.309a3.2 3.2 0 0 1 .2-.514 1.3 1.3 0 0 1 1.164-.677c1.213-.008 2.426 0 3.639 0a.458.458 0 1 1 0 .914h-3.564a.46.46 0 0 0-.517.512v6.283a.456.456 0 0 0 .507.51h6.293a.46.46 0 0 0 .505-.514v-3.575a.456.456 0 0 1 .6-.452.463.463 0 0 1 .31.465v3.511a1.377 1.377 0 0 1-1.069 1.448.068.068 0 0 0-.017.012h-6.981a.8.8 0 0 0-.076-.031 1.318 1.318 0 0 1-.819-.658 3.543 3.543 0 0 1-.175-.488z" transform="translate(-744 -828.23)" style="fill:#fff"/>
    <path data-name="Path 213" d="M1139.027 746.1a1.514 1.514 0 0 1-.54.872c-.144.132-.277.276-.405.405l-1.614-1.614a4.33 4.33 0 0 1 .068-.072c.174-.174.347-.349.522-.522a1.143 1.143 0 0 1 1.95.594.16.16 0 0 0 .018.037z" transform="translate(-1128.027 -744.809)" style="fill:#fff"/>
    <path data-name="Path 215" d="m929.913 813.381 1.611 1.611c-.018.019-.041.045-.066.069q-1.737 1.737-3.476 3.472a.543.543 0 0 1-.254.139c-.5.108-1 .2-1.5.3a.233.233 0 0 1-.3-.291q.155-.781.316-1.561a.328.328 0 0 1 .082-.156q1.783-1.789 3.571-3.573a.121.121 0 0 1 .016-.01z" transform="translate(-921.988 -811.913)" style="fill:#fff"/>
</svg>
