<svg xmlns="http://www.w3.org/2000/svg" width="24" height="24" viewBox="0 0 24 24">
    <g data-name="Group 25" transform="translate(-318 -123)">
        <rect data-name="Rectangle 6" width="24" height="24" rx="5" transform="translate(318 123)" style="fill:none"/>
    </g>
    <g data-name="Group 127">
        <path data-name="Path 93" d="M523.512 1744.267a2.931 2.931 0 0 1-.419-.284.908.908 0 0 1-.217-.7c0-2.376-.006-4.753.005-7.129a2.493 2.493 0 0 0-.464-1.49q-3.1-4.466-6.19-8.943a.894.894 0 0 1-.068-1.1.805.805 0 0 1 .613-.344c.063-.006.127 0 .19 0h17.086a.837.837 0 0 1 .924.639.931.931 0 0 1-.195.8q-1.421 2.052-2.84 4.107c-1.126 1.629-2.249 3.261-3.382 4.885a2.38 2.38 0 0 0-.44 1.421c.008 1.921 0 3.841 0 5.762a.841.841 0 0 1-.648.967l-3.588 1.394c-.011 0-.019.016-.029.025zm-6.359-18.976c.051.078.085.132.121.184q2.972 4.3 5.946 8.591a3.485 3.485 0 0 1 .649 2.075c-.013 2.258 0 4.517 0 6.775v.244c.09-.03.15-.046.208-.069.958-.375 1.915-.754 2.876-1.121a.246.246 0 0 0 .186-.279c-.006-1.855 0-3.71-.006-5.565a3.418 3.418 0 0 1 .627-2.024q2.991-4.306 5.968-8.623c.039-.056.074-.115.121-.189z" transform="translate(-513.5 -1722.267)" style="fill:#087c7c"/>
    </g>
</svg>
