<svg data-name="For rent" xmlns="http://www.w3.org/2000/svg" width="24" height="24" viewBox="0 0 24 24">
  
    <rect data-name="Rectangle 962" width="24" height="24" rx="5" style="fill:none"/>
    <g data-name="Mask Group 44" transform="translate(-34 -333)" style="clip-path:url(#sgozoewrza)">
        <g data-name="rent copy">
            <g data-name="Group 3490">
                <path data-name="Path 11338" d="M14.535 15a1.821 1.821 0 1 1 2.928.011l1.606 2.009c.823 1.033 1.652 2.06 2.469 3.093a.363.363 0 0 0 .341.159q.894-.017 1.788 0a2.262 2.262 0 0 1 2.327 2.287q.026 3.618 0 7.236a2.26 2.26 0 0 1-2.372 2.287c-2.946.006-5.891 0-8.831 0H8.383a2.269 2.269 0 0 1-2.316-1.8 2.931 2.931 0 0 1-.057-.59q-.009-3.516 0-7.026a2.287 2.287 0 0 1 2.4-2.4c.59 0 1.18.006 1.765-.006a.312.312 0 0 0 .233-.1q2.06-2.562 4.109-5.136c.006.004.012-.013.018-.024zM16 21.186H8.383a1.351 1.351 0 0 0-1.459 1.459v7.066a1.351 1.351 0 0 0 1.459 1.459h15.238a1.351 1.351 0 0 0 1.459-1.459v-7.066a1.9 1.9 0 0 0-.034-.4 1.348 1.348 0 0 0-1.407-1.056zm-.743-5.619c-1.249 1.566-2.486 3.11-3.74 4.682h8.973c-1.26-1.578-2.5-3.127-3.74-4.677a1.847 1.847 0 0 1-1.495-.004zm1.643-1.645a.9.9 0 1 0-.908.9.89.89 0 0 0 .908-.9z" style="fill:#fff" transform="translate(29.994 322.908)"/>
            </g>
            <path data-name="Path 11339" d="M17.429 26.158V27.7c0 .42-.233.59-.63.471a.3.3 0 0 1-.244-.306v-3.398a.283.283 0 0 1 .227-.3.6.6 0 0 1 .772.289c.272.494.528.993.789 1.493.04.079.085.153.153.284.011-.114.023-.17.023-.227v-1.5c0-.255.119-.358.392-.363s.42.108.42.363v3.32a.314.314 0 0 1-.233.346.526.526 0 0 1-.619-.17c-.125-.193-.227-.4-.341-.613l-.664-1.243c-.011.006-.028.006-.045.012z" style="fill:#fff" transform="translate(29.994 322.908)"/>
            <path data-name="Path 11340" d="M11.43 26.453c.2.38.4.743.6 1.112a.4.4 0 0 1-.21.59.35.35 0 0 1-.551-.165c-.193-.369-.4-.738-.562-1.118a.364.364 0 0 0-.528-.233v1.1c0 .369-.193.522-.551.437a.315.315 0 0 1-.272-.341v-3.374c0-.255.1-.346.346-.346.386 0 .778-.006 1.163.006a1.084 1.084 0 0 1 1.169.823 1.3 1.3 0 0 1-.604 1.509zm-1.243-.539a6.835 6.835 0 0 0 .687-.006c.244-.023.363-.221.358-.516s-.131-.477-.358-.494-.454-.006-.692-.006c.005.352.005.681.005 1.022z" style="fill:#fff" transform="translate(29.994 322.908)"/>
            <path data-name="Path 11341" d="M13.944 24.915v.936c.238 0 .465-.006.692 0 .244.006.369.119.369.341s-.114.323-.375.329h-.67c-.006.074-.017.125-.023.182v.749l.25.017h1.073c.284 0 .386.1.386.369s-.1.352-.392.352c-.585 0-1.175.006-1.759 0-.358-.006-.426-.079-.426-.448v-3.128c0-.358.1-.465.448-.465a88.21 88.21 0 0 1 1.782 0c.244 0 .346.119.346.38s-.1.392-.341.392c-.452 0-.894-.006-1.36-.006z" style="fill:#fff" transform="translate(29.994 322.908)"/>
            <path data-name="Path 11342" d="M22.106 24.9v1.442c0 .5.006 1 0 1.5 0 .244-.153.358-.437.358s-.431-.119-.431-.363c-.006-.88 0-1.765 0-2.645v-.289h-.63c-.272-.006-.38-.125-.375-.414.006-.261.1-.363.363-.363h2.14c.25 0 .352.114.358.375s-.114.4-.363.4c-.194.008-.393-.001-.625-.001z" style="fill:#fff" transform="translate(29.994 322.908)"/>
        </g>
    </g>
</svg>
