<svg xmlns="http://www.w3.org/2000/svg" width="24" height="24" viewBox="0 0 24 24">
   
    <rect data-name="Rectangle 962" width="24" height="24" rx="5" style="fill:none"/>
    <g data-name="Mask Group 43" transform="translate(-34 -333)" style="clip-path:url(#s2zv1toywa)">
        <path data-name="Path 11333" d="M15.9 15.38a1.821 1.821 0 1 1 2.928.011l1.606 2.009c.823 1.033 1.652 2.06 2.469 3.093a.363.363 0 0 0 .341.159q.894-.017 1.788 0a2.262 2.262 0 0 1 2.327 2.287q.026 3.618 0 7.236a2.26 2.26 0 0 1-2.372 2.287c-2.946.006-5.891 0-8.831 0H9.745a2.269 2.269 0 0 1-2.316-1.8 2.931 2.931 0 0 1-.057-.59q-.009-3.516 0-7.026a2.287 2.287 0 0 1 2.4-2.4c.59 0 1.18.006 1.765-.006a.312.312 0 0 0 .233-.1q2.06-2.562 4.109-5.136c.012.005.012-.012.021-.024zm1.464 6.186H9.745a1.351 1.351 0 0 0-1.459 1.459v7.066a1.351 1.351 0 0 0 1.459 1.459h15.238a1.351 1.351 0 0 0 1.459-1.459v-7.066a1.9 1.9 0 0 0-.034-.4A1.348 1.348 0 0 0 25 21.566zm-.738-5.613c-1.249 1.566-2.486 3.11-3.74 4.682h8.973c-1.26-1.578-2.5-3.127-3.74-4.677a1.894 1.894 0 0 1-1.496-.005zm1.643-1.653a.9.9 0 1 0-.908.9.89.89 0 0 0 .908-.9z" style="fill:#fff" transform="translate(28.632 322.528)"/>
        <path data-name="Path 11334" d="M16.686 27.48h-1.363c0 .306.006.607 0 .9a.454.454 0 0 1-.868.176.613.613 0 0 1-.034-.227c0-.891-.011-1.788 0-2.679a1.328 1.328 0 0 1 1.345-1.35 3.329 3.329 0 0 1 .823.051 1.29 1.29 0 0 1 .993 1.232c.017.931.011 1.856.006 2.787a.429.429 0 0 1-.448.46.443.443 0 0 1-.448-.465c-.012-.295-.006-.584-.006-.885zm-.006-.931c0-.323.011-.624-.006-.931a.431.431 0 0 0-.426-.42 3.835 3.835 0 0 0-.511 0 .424.424 0 0 0-.409.392c-.017.318-.006.636-.006.959z" style="fill:#fafafa;stroke:#707070;stroke-width:.057px" transform="translate(28.632 322.528)"/>
        <path data-name="Path 11335" d="M11.969 28.825c-.244 0-.482.006-.721 0a.449.449 0 1 1 .006-.9c.42-.006.84 0 1.254 0 .25 0 .312-.062.312-.318.011-.585.011-.585-.573-.59a5.4 5.4 0 0 1-.743-.028 1.108 1.108 0 0 1-.948-1.073 3.61 3.61 0 0 1 .034-.743 1.077 1.077 0 0 1 1.056-.88c.46-.011.925-.006 1.385 0a.44.44 0 0 1 .471.443.446.446 0 0 1-.477.46c-.42.006-.84 0-1.254 0-.233 0-.3.074-.306.306-.017.59-.011.6.568.6.193 0 .386-.006.573 0a1.122 1.122 0 0 1 1.118 1.044 3.4 3.4 0 0 1-.011.721 1.1 1.1 0 0 1-1.061.953c-.227.011-.454.006-.681.006z" style="fill:#fafafa;stroke:#707070;stroke-width:.057px" transform="translate(28.632 322.528)"/>
        <path data-name="Path 11336" d="M22.367 27.015v.908h.59c.261 0 .528-.006.789.006a.448.448 0 0 1 .431.46.432.432 0 0 1-.437.431c-.619.006-1.232.011-1.85 0a.439.439 0 0 1-.437-.5v-3.57a.44.44 0 0 1 .46-.454c.6-.006 1.2-.006 1.81 0a.445.445 0 0 1 .454.437.449.449 0 0 1-.454.46c-.369.006-.738 0-1.107 0h-.244v.907c.289 0 .573-.006.851 0a.454.454 0 0 1 .488.4.447.447 0 0 1-.471.505c-.283.021-.561.01-.873.01z" style="fill:#fafafa;stroke:#707070;stroke-width:.057px" transform="translate(28.632 322.528)"/>
        <path data-name="Path 11337" d="M19.41 27.923h1.073a.454.454 0 1 1 .006.9c-.494.006-.993.006-1.487 0a.447.447 0 0 1-.5-.5 346.138 346.138 0 0 1 0-3.53c0-.318.176-.505.454-.5a.449.449 0 0 1 .448.505v2.872c.006.077.006.156.006.253z" style="fill:#fafafa;stroke:#707070;stroke-width:.057px" transform="translate(28.632 322.528)"/>
    </g>
</svg>
