<svg data-name="Component 28 – 3" xmlns="http://www.w3.org/2000/svg" width="24" height="24" viewBox="0 0 24 24">
    <path data-name="Path 47" d="M1223.236 379.581a2.086 2.086 0 0 1-.544.911 1.818 1.818 0 0 1-1.24.5h-.327V386.97a2.137 2.137 0 0 1-1.671 2.13 2.442 2.442 0 0 1-.542.057c-1.017.005-2.035 0-3.052 0a.6.6 0 0 1-.677-.674c0-1.5-.016-3 .007-4.5a1.043 1.043 0 0 0-1.116-1.118c-.541.018-1.083.02-1.624 0a1.046 1.046 0 0 0-1.125 1.129c.025 1.478.008 2.958.008 4.436 0 .507-.217.722-.728.723h-2.974a2.153 2.153 0 0 1-2.242-2.239v-5.907a6.151 6.151 0 0 1-.648-.059 1.748 1.748 0 0 1-1.4-1.22 1.773 1.773 0 0 1 .369-1.805c.05-.06.107-.114.162-.169q4-3.994 8-7.983a1.958 1.958 0 0 1 .734-.5 1.806 1.806 0 0 1 1.91.366c.339.324.667.66 1 .992q3.473 3.469 6.947 6.935a2.688 2.688 0 0 1 .774 1.15zm-13.077 8.4v-.253c0-1.322-.011-2.645.009-3.967a2.078 2.078 0 0 1 1.89-2.026c.8-.054 1.6-.011 2.4-.009a.9.9 0 0 1 .193.03 2.139 2.139 0 0 1 1.7 2.145c.006 1.283 0 2.567 0 3.85v.235h2.475a1 1 0 0 0 1.121-1.118v-6.391a.6.6 0 0 1 .655-.658h.841a.651.651 0 0 0 .626-.5.76.76 0 0 0-.3-.774q-3.966-3.956-7.927-7.917a.71.71 0 0 0-1.186 0l-7.069 7.061c-.323.322-.647.643-.968.968a.67.67 0 0 0 .479 1.157h.7c.546 0 .753.208.753.757v6.39a.95.95 0 0 0 .887 1.008c.906.031 1.799.012 2.721.012z" transform="translate(-1201.236 -367.159)" style="fill:#d8d8d8"/>
</svg>
