<svg xmlns="http://www.w3.org/2000/svg" width="24" height="24" viewBox="0 0 24 24">
  <g id="inactive" transform="translate(-713 -844)">
    <rect id="back" width="24" height="24" transform="translate(713 844)" fill="none"/>
    <g id="icon" transform="translate(-149 -390)">
      <path id="Path_11394" data-name="Path 11394" d="M10,20A10.155,10.155,0,0,1,5.3,18.869a.648.648,0,0,0-.428-.043c-1.071.289-2.136.6-3.207.895a1.127,1.127,0,0,1-1.446-.886,1.487,1.487,0,0,1,.054-.64c.293-1.025.6-2.046.913-3.065a.625.625,0,0,0-.051-.515,10,10,0,1,1,11.7,4.971A10.487,10.487,0,0,1,10,20ZM1.7,18.266c.922-.277,1.8-.523,2.67-.808a1.988,1.988,0,0,1,1.632.16,8.307,8.307,0,0,0,5.663.8A8.6,8.6,0,0,0,10.507,1.409,8.361,8.361,0,0,0,3.456,4.361a8.335,8.335,0,0,0-2.049,6.559,8.2,8.2,0,0,0,.978,3.137,1.769,1.769,0,0,1,.144,1.468c-.114.344-.213.693-.317,1.04-.166.553-.331,1.107-.508,1.7Z" transform="translate(864.001 1236)" fill="#d8d8d8"/>
      <path id="Path_11395" data-name="Path 11395" d="M11.126,10.422a1.164,1.164,0,1,1-1.16-1.167,1.175,1.175,0,0,1,1.16,1.167Z" transform="translate(864.001 1236)" fill="#d8d8d8"/>
      <path id="Path_11396" data-name="Path 11396" d="M12.525,10.415a1.159,1.159,0,1,1,2.319.006,1.159,1.159,0,1,1-2.319-.006Z" transform="translate(864.001 1236)" fill="#d8d8d8"/>
      <path id="Path_11397" data-name="Path 11397" d="M7.4,10.408A1.16,1.16,0,1,1,6.231,9.253,1.159,1.159,0,0,1,7.4,10.408Z" transform="translate(864.001 1236)" fill="#d8d8d8"/>
    </g>
  </g>
</svg>
