<svg id="interested" xmlns="http://www.w3.org/2000/svg" width="21.018" height="21.018" viewBox="0 0 21.018 21.018">
  <path id="Path_11797" data-name="Path 11797" d="M0,0H21.018V21.018H0Z" fill="none"/>
  <path id="Path_11799" data-name="Path 11799" d="M14.284,3.17H13.227a.528.528,0,0,0,0,1.057h1.057a.528.528,0,0,0,0-1.057Z" transform="translate(1.509 1.508)" fill="#fff"/>
  <path id="Path_11800" data-name="Path 11800" d="M8.944,1.349,8.416.292a.528.528,0,1,0-.945.473L8,1.821a.528.528,0,1,0,.945-.473Z" transform="translate(1.509 1.508)" fill="#fff"/>
  <path id="Path_11801" data-name="Path 11801" d="M12.407.055A.53.53,0,0,0,11.7.292l-.528,1.057a.528.528,0,1,0,.945.473L12.643.764A.528.528,0,0,0,12.407.055Z" transform="translate(1.509 1.508)" fill="#fff"/>
  <path id="Path_11802" data-name="Path 11802" d="M6.886,3.17H5.83a.528.528,0,0,0,0,1.057H6.886a.528.528,0,0,0,0-1.057Z" transform="translate(1.509 1.508)" fill="#fff"/>
  <path id="Path_11803" data-name="Path 11803" d="M3.716,8.489H1.6a.528.528,0,0,0-.528.528v8.454A.528.528,0,0,0,1.6,18H3.716a.528.528,0,0,0,.528-.528V9.017A.528.528,0,0,0,3.716,8.489Z" transform="translate(1.509 1.508)" fill="#fff"/>
  <path id="Path_11804" data-name="Path 11804" d="M16.915,9.89a1.662,1.662,0,0,0-1.684-1.4H11.112a9.123,9.123,0,0,0,.53-3.124,2.2,2.2,0,0,0-2.206-2.16H9a.528.528,0,0,0-.528.528C8.472,4.956,8,7.161,7.1,8.058A5.853,5.853,0,0,1,5.3,9.219v7.928A12.343,12.343,0,0,0,9.66,18h3.456A1.607,1.607,0,0,0,14.7,15.831a1.586,1.586,0,0,0,1.057-2.114,1.586,1.586,0,0,0,.764-2.586A1.582,1.582,0,0,0,16.915,9.89Z" transform="translate(1.509 1.508)" fill="#fff"/>
</svg>
