<svg xmlns="http://www.w3.org/2000/svg" width="24" height="24" viewBox="0 0 24 24">
    <path data-name="Rectangle 85" style="fill:none" d="M0 0h24v24H0z"/>
    <g data-name="Group 380">
        <path data-name="Path 241" d="M1000.289 869.956v13.258a.581.581 0 0 0-.031.091 1.739 1.739 0 0 1-.618 1.068 2.082 2.082 0 0 1-.911.4H989.8c.023-.031.044-.064.069-.093q1.205-1.379 2.412-2.757a1.876 1.876 0 0 0 .486-1.526l-.6-4.87-.8-6.414c-.031-.247-.058-.495-.086-.744a.718.718 0 0 1 .082-.013h7.17a1.7 1.7 0 0 1 1.365.676 2.194 2.194 0 0 1 .391.924zm-4.974 7.455c-.024.022-.055.054-.09.083-.391.322-.785.64-1.174.965a.583.583 0 1 0 .717.92c.095-.068.185-.143.275-.217l1.105-.908c.478.376.944.749 1.417 1.112a.576.576 0 0 0 .847-.088.584.584 0 0 0-.141-.841c-.224-.178-.455-.346-.678-.524s-.416-.343-.629-.519a7.617 7.617 0 0 0 1.387-2.47c.014-.044.1-.084.161-.088a.6.6 0 0 0 .605-.6.591.591 0 0 0-.639-.568h-1.539c-.062 0-.125-.006-.2-.009v-.52a.587.587 0 1 0-1.169.006v.523h-1.744a.583.583 0 1 0-.02 1.166l.134.006c.2.451.368.9.593 1.323s.512.821.782 1.248z" transform="translate(-978.289 -862.775)" style="fill:#087c7c"/>
        <path data-name="Path 242" d="M1172.66 1174.214a2.086 2.086 0 0 0 .911-.4 1.741 1.741 0 0 0 .618-1.068.575.575 0 0 1 .031-.091v1.56z" transform="translate(-1152.22 -1152.214)" style="fill:#087c7c"/>
        <path data-name="Path 243" d="M795.747 803.86v-6.375a1.7 1.7 0 0 1 1-1.666 1.981 1.981 0 0 1 .806-.179c1.975-.015 3.95-.013 5.925-.006a1.789 1.789 0 0 1 1.816 1.741c.239 1.979.489 3.956.734 5.935l.678 5.51c.106.857.2 1.715.322 2.57a.765.765 0 0 1-.286.665.224.224 0 0 1-.144.031c-3.028 0-6.055.008-9.083 0a1.743 1.743 0 0 1-1.769-1.829q-.003-3.2.001-6.397zm6.1.629c.009.033.016.051.019.07.117.585.232 1.171.352 1.755a.586.586 0 1 0 1.148-.228q-.572-2.862-1.147-5.724a.61.61 0 0 0-.677-.558h-1.033a.61.61 0 0 0-.677.559q-.576 2.862-1.147 5.724a.586.586 0 1 0 1.144.247c.034-.145.057-.293.087-.439l.283-1.406z" style="fill:#087c7c" transform="translate(-793.747 -793.629)"/>
        <path data-name="Path 244" d="M938.711 1156.877c-.645.71-1.262 1.393-1.886 2.07a.188.188 0 0 1-.176.018 1.664 1.664 0 0 1-.868-1.138c-.067-.308-.093-.625-.14-.95z" transform="translate(-926.797 -1137.208)" style="fill:#087c7c"/>
        <path data-name="Path 245" d="M1101.751 1002.928a5.45 5.45 0 0 1-.939-1.67h1.916a5.848 5.848 0 0 1-.977 1.67z" transform="translate(-1083.886 -989.201)" style="fill:#087c7c"/>
        <path data-name="Path 246" d="m891.863 907.693.462-2.316h.256l.463 2.316z" transform="translate(-885.161 -898.009)" style="fill:#087c7c"/>
    </g>
</svg>
