<svg xmlns="http://www.w3.org/2000/svg" width="24" height="24" viewBox="0 0 24 24">
    <rect data-name="Rectangle 430" width="24" height="24" rx="12" style="fill:none"/>
    <path data-name="Path 11293" d="M7.155 7.72A4.611 4.611 0 0 1 10.616 6q.148 0 .3.006a4.406 4.406 0 0 1 1.486.352 4.64 4.64 0 0 1 .7.373q.054.036.107.074c.13.092.253.195.379.293.046.036.093.079.143.12a.492.492 0 0 0 .211.117.236.236 0 0 0 .068 0 .781.781 0 0 0 .326-.187c.126-.092.25-.193.371-.283l.1-.074c.031-.023.085-.058.128-.086a4.3 4.3 0 0 1 .572-.308 4.4 4.4 0 0 1 1.793-.379h.072a4.5 4.5 0 0 1 1.773.4 4.859 4.859 0 0 1 .9.53 4.65 4.65 0 0 1 1.27 1.448 5.94 5.94 0 0 1 .636 1.877l.014.076.012.072q.015.208.022.418t0 .392a5.927 5.927 0 0 1-.482 1.95 6.657 6.657 0 0 1-1.3 1.775l-.044.044c-.558.588-1.109 1.183-1.664 1.775l-.708.752q-1.242 1.321-2.486 2.641a3.226 3.226 0 0 1-.88.666 1.173 1.173 0 0 1-1.425-.309q-1.621-1.714-3.233-3.437c-.494-.526-1-1.041-1.489-1.57a15.486 15.486 0 0 1-1.356-1.612 5.075 5.075 0 0 1-.9-2.362 4.745 4.745 0 0 1-.023-.805 5.32 5.32 0 0 1 .965-2.78q.086-.123.181-.239z" transform="translate(-2 -1.479)" style="stroke:#087c7c;stroke-linecap:round;stroke-linejoin:bevel;stroke-miterlimit:10;fill:none"/>
</svg>
