<svg xmlns="http://www.w3.org/2000/svg" width="18" height="18" viewBox="0 0 18 18">
    <rect data-name="Rectangle 18" width="18" height="18" rx="5" style="fill:none"/>
    <g data-name="Group 3622">
        <path data-name="Path 41" d="M1308.939 770.146a2.676 2.676 0 0 1-.35-.352c-.923-1.346-1.853-2.688-2.751-4.052a16.2 16.2 0 0 1-1.837-3.6 7.231 7.231 0 0 1-.44-2.49 5.623 5.623 0 0 1 3.928-5.271 5.486 5.486 0 0 1 6.9 3.99 6.245 6.245 0 0 1-.174 3.489 14.419 14.419 0 0 1-1.692 3.5c-.819 1.267-1.681 2.505-2.525 3.756-.153.227-.3.461-.462.679a3.582 3.582 0 0 1-.35.352zm.118-1.31c.027-.031.041-.046.052-.062.844-1.245 1.7-2.478 2.527-3.737a14.249 14.249 0 0 0 1.689-3.416 5.346 5.346 0 0 0 .215-2.844 4.562 4.562 0 0 0-6.407-3.259 4.729 4.729 0 0 0-2.606 4.949 9.021 9.021 0 0 0 .789 2.466 26.136 26.136 0 0 0 2.195 3.672c.509.741 1.024 1.478 1.546 2.232z" transform="translate(-1299.561 -753.146)" style="fill:rgba(77,84,84,.5)"/>
        <path data-name="Path 42" d="M1373.833 821.453a3.021 3.021 0 1 1-2.907 3 2.963 2.963 0 0 1 2.907-3zm-.014 1.006a2.014 2.014 0 1 0 1.928 2.016 1.979 1.979 0 0 0-1.928-2.016z" transform="translate(-1364.319 -817.753)" style="fill:rgba(77,84,84,.5)"/>
    </g>
</svg>
