<svg id="Component_96_1" data-name="Component 96 – 1" xmlns="http://www.w3.org/2000/svg" width="22.222" height="20" viewBox="0 0 22.222 20">
  <defs>
    <style>
      .cls-1 {
        fill: #fff;
      }
    </style>
  </defs>
  <path id="Path_172" data-name="Path 172" class="cls-1" d="M568.271,1943.522c-.747,0-1.47,0-2.194,0a2.231,2.231,0,0,1-1.5-.545,2.1,2.1,0,0,1-.75-1.663q0-3.169,0-6.338,0-2.455,0-4.909a2.186,2.186,0,0,1,2.338-2.257h17.543a2.184,2.184,0,0,1,2.34,2.254q0,5.6,0,11.2a2.185,2.185,0,0,1-2.34,2.255q-4.328,0-8.655.006a.7.7,0,0,0-.392.131q-2.483,1.9-4.954,3.813c-.072.056-.144.113-.218.166a.737.737,0,0,1-.8.091.694.694,0,0,1-.415-.669q0-1.618,0-3.236Zm1.481,2.08c.1-.074.154-.115.208-.157,1.325-1.021,2.652-2.04,3.972-3.069a1.288,1.288,0,0,1,.845-.288q4.466.012,8.932,0a.746.746,0,0,0,.857-.821q0-5.612,0-11.224a.742.742,0,0,0-.844-.811H566.158a.745.745,0,0,0-.85.826q0,5.6,0,11.2a.743.743,0,0,0,.849.828c.933,0,1.867,0,2.8,0a.728.728,0,0,1,.794.768c0,.825,0,1.651,0,2.477Z" transform="translate(-563.826 -1927.809)"/>
  <path id="Path_173" data-name="Path 173" class="cls-1" d="M642.186,2025.136q-2.877,0-5.754,0a.756.756,0,0,1-.721-1.037.709.709,0,0,1,.618-.487,1.77,1.77,0,0,1,.2,0h11.3a1.413,1.413,0,0,1,.293.016.761.761,0,0,1,.579.8.738.738,0,0,1-.7.708c-.5.011-1,0-1.5,0Z" transform="translate(-631.186 -2017.977)"/>
  <path id="Path_174" data-name="Path 174" class="cls-1" d="M639.54,2071.529h2.937a.77.77,0,1,1,.013,1.528h-5.922a.77.77,0,1,1,.011-1.528Z" transform="translate(-631.445 -2063.058)"/>
</svg>
