<svg xmlns="http://www.w3.org/2000/svg" width="24" height="24" viewBox="0 0 24 24">
    <path data-name="Rectangle 85" style="fill:none" d="M0 0h24v24H0z"/>
    <g data-name="Group 337">
        <path data-name="Path 221" d="M336.183 981a5.4 5.4 0 0 1 .921.411 1.863 1.863 0 0 1 .807 1.541c.013.334 0 .67 0 1.005.315.13.63.236.923.386a6.837 6.837 0 0 1 3.961 6.2c.032.789 0 1.581.048 2.367a10.182 10.182 0 0 0 1.972 5.394c.261.36.557.7.851 1.03a.706.706 0 0 1 .186.795.7.7 0 0 1-.721.412h-18.436a.7.7 0 0 1-.721-.412.69.69 0 0 1 .189-.793 10.238 10.238 0 0 0 2.652-5.19 17.9 17.9 0 0 0 .208-2.174 23.584 23.584 0 0 1 .1-2.406 6.772 6.772 0 0 1 4.583-5.517c.062-.023.126-.043.2-.069v-.869a2 2 0 0 1 1.652-2.075.5.5 0 0 0 .081-.034zm.4 2.7c0-.256.013-.5 0-.744a.664.664 0 0 0-.627-.61.65.65 0 0 0-.682.544 6.53 6.53 0 0 0-.007.81z" transform="translate(-323.913 -980.372)" style="fill:#087c7c"/>
        <path data-name="Path 222" d="M325.812 1026.306a9.533 9.533 0 0 1 2.784-6.46.642.642 0 1 1 .916.9 8.312 8.312 0 0 0-2.418 5.848.629.629 0 0 1-.388.611.549.549 0 0 1-.654-.1 1.326 1.326 0 0 1-.235-.458 1.167 1.167 0 0 1-.005-.341z" transform="translate(-323.802 -1016.789)" style="fill:#087c7c"/>
        <path data-name="Path 223" d="M598.279 1026.317a2.131 2.131 0 0 1 0 .341.639.639 0 0 1-1.27-.1 8.67 8.67 0 0 0-.316-2.278 8.215 8.215 0 0 0-2.057-3.545.741.741 0 0 1-.256-.543.614.614 0 0 1 .4-.579.6.6 0 0 1 .7.155 16.821 16.821 0 0 1 1.163 1.419 9.336 9.336 0 0 1 1.636 5.13z" transform="translate(-576.288 -1016.727)" style="fill:#087c7c"/>
        <path data-name="Path 224" d="M443.642 1330.739h5.8a3.154 3.154 0 0 1-5.8 0z" transform="translate(-434.537 -1309.282)" style="fill:#087c7c"/>
    </g>
</svg>
