<svg xmlns="http://www.w3.org/2000/svg" width="24" height="24" viewBox="0 0 24 24">
    <path data-name="Rectangle 91" style="fill:none" d="M0 0h24v24H0z"/>
    <path data-name="Path 233" d="M1233.193 1481.333h.5c.011.01.02.025.033.029l6.72 2.412c.5.18 1 .37 1.489.578a1.39 1.39 0 0 1 .972 1.033c.154 1.069.285 2.144.38 3.22a32.225 32.225 0 0 1 .045 5.388 11.5 11.5 0 0 1-.3 2.074 7.9 7.9 0 0 1-1.895 3.167 25.438 25.438 0 0 1-6.941 5.293 1.436 1.436 0 0 1-1.516-.012c-.721-.425-1.455-.829-2.158-1.283a22.762 22.762 0 0 1-4.75-3.978 8.735 8.735 0 0 1-1.891-3.1 10.455 10.455 0 0 1-.4-2.612 33.665 33.665 0 0 1 .421-7.717 1.707 1.707 0 0 1 1.085-1.5q3.058-1.137 6.117-2.272c.696-.246 1.396-.478 2.089-.72zm-.825 13.509c0 .32-.018.641.007.959a1.425 1.425 0 0 0 .158.561 1.074 1.074 0 0 0 1.993-.49c.018-.647.013-1.294.005-1.941a.392.392 0 0 1 .2-.386 2.369 2.369 0 0 0-1.914-4.266 2.371 2.371 0 0 0-.636 4.311.337.337 0 0 1 .19.34c-.014.302-.004.607-.003.912z" transform="translate(-1221.427 -1481.035)" style="fill:#087c7c"/>
</svg>
