<svg id="privacy" xmlns="http://www.w3.org/2000/svg" width="24" height="24.039" viewBox="0 0 24 24.039">
  <path id="Path_2383" data-name="Path 2383" d="M-1128.689,525.643q-.862,0-1.725,0t-1.724,0a.9.9,0,0,0-.953.9.9.9,0,0,0,.955.893h3.448a.9.9,0,0,0,.953-.894A.9.9,0,0,0-1128.689,525.643Zm0,0q-.862,0-1.725,0t-1.724,0a.9.9,0,0,0-.953.9.9.9,0,0,0,.955.893h3.448a.9.9,0,0,0,.953-.894A.9.9,0,0,0-1128.689,525.643Zm0,0q-.862,0-1.725,0t-1.724,0a.9.9,0,0,0-.953.9.9.9,0,0,0,.955.893h3.448a.9.9,0,0,0,.953-.894A.9.9,0,0,0-1128.689,525.643Z" transform="translate(1137.054 -520.781)" fill="#435ebe"/>
  <path id="Path_2384" data-name="Path 2384" d="M-1180,451.661v-.6a2.175,2.175,0,0,0-1.518-2.132c-1-.344-2.023-.692-3.009-1.029l-1.559-.532c-.052-.018-.106-.034-.159-.048v-.755c0-.4,0-.815,0-1.211,0-.891-.007-1.811.007-2.71a3.907,3.907,0,0,0-.968-2.675,3.662,3.662,0,0,0-1.921-1.142l-.154-.1h-11.54l-.23.092c-.084.034-.18.068-.282.1a4.781,4.781,0,0,0-.96.426,3.569,3.569,0,0,0-1.621,2.357c-.007.021-.014.042-.021.063l-.058.187v14.858l.037.15a4.169,4.169,0,0,0,.771,1.7,3.538,3.538,0,0,0,2.765,1.41c.962.009,2.016.013,3.317.013l2.047,0,2.062,0h1.657a12.2,12.2,0,0,0,3.755,2.574l.251.112h.916l.242-.1.06-.025c.059-.025.133-.055.211-.092a11.979,11.979,0,0,0,3.786-2.75,7.6,7.6,0,0,0,2.12-5.164C-1180,453.641-1180,452.635-1180,451.661Zm-17.108,7.14q-1.655,0-3.305-.013a2.278,2.278,0,0,1-1.776-.932,2.938,2.938,0,0,1-.522-1.194V442.154c.014-.045.032-.09.042-.136a2.3,2.3,0,0,1,1.045-1.57,6.816,6.816,0,0,1,1.048-.432h10.922c.017.011.033.029.052.031a2.478,2.478,0,0,1,2.076,2.577c-.019,1.313,0,2.627,0,3.94v.236l-2.74.933a.993.993,0,0,0-1.01-.563h-.008q-1.9.008-3.8.006h-3.938c-.062,0-.124,0-.185,0a.886.886,0,0,0-.783,1.109.887.887,0,0,0,.941.668h5.788a2.737,2.737,0,0,0-.954,1.882,2.244,2.244,0,0,0-.42-.085q-1.274-.005-2.548-.006-1,0-1.991.006a.879.879,0,0,0-.847.913.9.9,0,0,0,.958.873q.929,0,1.859,0t1.844,0c.378,0,.756-.029,1.146-.044,0,.623.008,1.286,0,1.949a7.774,7.774,0,0,0,1.144,4.184c.029.049.052.1.086.167C-1194.379,458.8-1195.747,458.8-1197.111,458.8Zm15.82-4.174a6.315,6.315,0,0,1-1.786,4.307,10.634,10.634,0,0,1-3.383,2.453c-.074.035-.151.065-.228.1h-.377a10.8,10.8,0,0,1-3.492-2.435,6.516,6.516,0,0,1-1.841-3.681,6.968,6.968,0,0,1-.053-.856c-.006-1.111,0-2.222,0-3.333a.945.945,0,0,1,.764-1.07q2.224-.759,4.447-1.519a1.171,1.171,0,0,1,.38-.067,1.083,1.083,0,0,1,.357.062q2.283.78,4.566,1.56a.889.889,0,0,1,.65.918C-1181.288,452.25-1181.283,453.438-1181.29,454.626Z" transform="translate(1204 -438.73)" fill="#435ebe"/>
  <path id="Path_2385" data-name="Path 2385" d="M-943.64,677.837a.873.873,0,0,0-.481-.147.93.93,0,0,0-.74.392c-.675.9-1.346,1.8-2.039,2.722-.348-.348-.675-.68-1.006-1.009a1.007,1.007,0,0,0-.7-.311.852.852,0,0,0-.6.253.894.894,0,0,0,.042,1.322q.84.846,1.686,1.689a.975.975,0,0,0,.685.316.956.956,0,0,0,.753-.422c.254-.333.5-.67.753-1,.619-.827,1.24-1.651,1.855-2.48A.9.9,0,0,0-943.64,677.837Zm0,0a.873.873,0,0,0-.481-.147.93.93,0,0,0-.74.392c-.675.9-1.346,1.8-2.039,2.722-.348-.348-.675-.68-1.006-1.009a1.007,1.007,0,0,0-.7-.311.852.852,0,0,0-.6.253.894.894,0,0,0,.042,1.322q.84.846,1.686,1.689a.975.975,0,0,0,.685.316.956.956,0,0,0,.753-.422c.254-.333.5-.67.753-1,.619-.827,1.24-1.651,1.855-2.48A.9.9,0,0,0-943.64,677.837Zm0,0a.873.873,0,0,0-.481-.147.93.93,0,0,0-.74.392c-.675.9-1.346,1.8-2.039,2.722-.348-.348-.675-.68-1.006-1.009a1.007,1.007,0,0,0-.7-.311.852.852,0,0,0-.6.253.894.894,0,0,0,.042,1.322q.84.846,1.686,1.689a.975.975,0,0,0,.685.316.956.956,0,0,0,.753-.422c.254-.333.5-.67.753-1,.619-.827,1.24-1.651,1.855-2.48A.9.9,0,0,0-943.64,677.837Zm0,0a.873.873,0,0,0-.481-.147.93.93,0,0,0-.74.392c-.675.9-1.346,1.8-2.039,2.722-.348-.348-.675-.68-1.006-1.009a1.007,1.007,0,0,0-.7-.311.852.852,0,0,0-.6.253.894.894,0,0,0,.042,1.322q.84.846,1.686,1.689a.975.975,0,0,0,.685.316.956.956,0,0,0,.753-.422c.254-.333.5-.67.753-1,.619-.827,1.24-1.651,1.855-2.48A.9.9,0,0,0-943.64,677.837Zm0,0a.873.873,0,0,0-.481-.147.93.93,0,0,0-.74.392c-.675.9-1.346,1.8-2.039,2.722-.348-.348-.675-.68-1.006-1.009a1.007,1.007,0,0,0-.7-.311.852.852,0,0,0-.6.253.894.894,0,0,0,.042,1.322q.84.846,1.686,1.689a.975.975,0,0,0,.685.316.956.956,0,0,0,.753-.422c.254-.333.5-.67.753-1,.619-.827,1.24-1.651,1.855-2.48A.9.9,0,0,0-943.64,677.837Z" transform="translate(963.711 -664.331)" fill="#435ebe"/>
</svg>
