<svg data-name="Component 31 – 1" xmlns="http://www.w3.org/2000/svg" width="24" height="24" viewBox="0 0 24 24">
    <rect data-name="Rectangle 27" width="24" height="24" rx="5" style="fill:none"/>
    <path data-name="Path 54" d="M449.168 1616h-7.72c-.543 0-.786-.239-.786-.77v-3.035a5.193 5.193 0 0 1 4.5-5.147 5.577 5.577 0 0 1 .814-.052q3.186-.006 6.372 0a5.172 5.172 0 0 1 5.308 5.206c.006 1.018 0 2.036 0 3.055a.662.662 0 0 1-.751.744zm7.169-1.294v-2.887a2.4 2.4 0 0 0-.086-.534 3.918 3.918 0 0 0-3.848-3q-3.165-.008-6.33 0a6.52 6.52 0 0 0-.692.038 3.85 3.85 0 0 0-3.356 3.316c-.084 1-.036 2.02-.047 3.031 0 .011.013.022.024.039z" transform="translate(-436.66 -1594.004)" style="fill:#d8d8d8"/>
    <path data-name="Path 55" d="M517.176 1415.392a4.505 4.505 0 1 1-4.635 4.481 4.57 4.57 0 0 1 4.635-4.481zm-.01 1.287a3.217 3.217 0 1 0 3.327 3.212 3.273 3.273 0 0 0-3.327-3.212z" transform="translate(-504.68 -1413.392)" style="fill:#d8d8d8"/>
</svg>
