<svg xmlns="http://www.w3.org/2000/svg" width="24" height="24" viewBox="0 0 24 24">
    <rect data-name="Rectangle 430" width="24" height="24" rx="12" style="fill:none"/>
    <path data-name="Path 11297" d="M9.623 10.641H1.446c-.2 0-.286-.039-.318-.256C.864 8.61.586 6.832.313 5.054l-.3-1.944A.661.661 0 0 1 .3 2.376a.658.658 0 0 1 .782.084l3.471 2.6A.9.9 0 0 0 6 4.815L8.915.438A.778.778 0 0 1 9.891.06a1.181 1.181 0 0 1 .475.4c.995 1.468 1.973 2.947 2.96 4.421a.871.871 0 0 0 1.321.231l.113-.083q1.7-1.277 3.408-2.552a.945.945 0 0 1 .371-.183.621.621 0 0 1 .734.718c-.226 1.5-.461 3-.692 4.5-.15.972-.306 1.943-.446 2.916-.025.176-.092.211-.254.211q-4.129-.007-8.258 0" transform="translate(2.359 4.564)" style="fill:#fff"/>
    <path data-name="Path 11298" d="M21.795 224.734h16.911c0 .064.012.122.012.18v1.647a.9.9 0 0 1-.986.984H22.766a.892.892 0 0 1-.981-.968v-1.667c0-.052.006-.1.01-.176" transform="translate(-18.255 -208.108)" style="fill:#fff"/>
</svg>
