<svg data-name="Component 30 – 1" xmlns="http://www.w3.org/2000/svg" width="24" height="24" viewBox="0 0 24 24">
    <rect data-name="Rectangle 27" width="24" height="24" rx="5" style="fill:none"/>
    <path data-name="Path 50" d="M-62.338 1061.333h6.271a.638.638 0 0 1 .445.605v1.153h3.445c.54 0 .749.2.749.729v7.471l.055.034c.1-.1.188-.212.289-.311a.626.626 0 0 1 1 0q.9.883 1.808 1.768a.607.607 0 0 1 0 1.008q-1.5 1.471-3.01 2.94a.429.429 0 0 0-.147.34c.006 1.191 0 2.382 0 3.574 0 .474-.224.693-.706.693h-14.154c-.479 0-.713-.226-.713-.692v-16.854a.616.616 0 0 1 .708-.7h3.486c0-.352.011-.683 0-1.013a.676.676 0 0 1 .474-.745zm-3.459 18.815h13.151v-2.114a.893.893 0 0 1-.876.373c-.532-.014-1.065 0-1.6 0a.614.614 0 0 1-.7-.683c0-.567.006-1.133 0-1.7a.823.823 0 0 1 .271-.643c.932-.9 1.855-1.813 2.787-2.716a.429.429 0 0 0 .144-.34q-.006-3.916 0-7.832v-.213h-3v1.085a.6.6 0 0 1-.682.658h-5.812a.614.614 0 0 1-.7-.689v-1.055H-65.8zm8.969-17.627H-61.6v2.315h4.773zm2.205 14.71c.332 0 .637-.007.942 0a.411.411 0 0 0 .33-.134q1.872-1.84 3.752-3.674c.046-.045.088-.093.11-.116l-1.123-1.1c.015-.006.008-.005 0 0q-1.971 1.924-3.939 3.849a.241.241 0 0 0-.071.151c-.004.334-.001.665-.001 1.024z" transform="translate(70.006 -1059.333)" style="fill:#d8d8d8"/>
    <path data-name="Path 51" d="M8.774 1180.255c-.467.018-.721-.134-.8-.467a.6.6 0 0 1 .316-.7c1.108-.56 2.221-1.114 3.332-1.669a.634.634 0 0 1 .6.022l3.22 1.613a.624.624 0 0 1-.345 1.195h-.089v2.833a.63.63 0 0 1-.7.706h-4.82a.641.641 0 0 1-.714-.719v-2.592zm1.245 2.281h1.246v-.583a.632.632 0 0 1 .635-.651.62.62 0 0 1 .609.652v.579h1.245c0-.953 0-1.892-.006-2.831 0-.053-.072-.126-.128-.155q-.8-.412-1.61-.806a.294.294 0 0 0-.226 0q-.829.4-1.647.825a.256.256 0 0 0-.114.183c-.013.262-.005.525-.005.787z" transform="translate(-1.054 -1169.468)" style="fill:#d8d8d8"/>
    <path data-name="Path 52" d="M40.089 1322.312h-1.574a.626.626 0 1 1-.01-1.245h3.19a.625.625 0 1 1-.011 1.245h-1.595z" transform="translate(-29.287 -1305.565)" style="fill:#d8d8d8"/>
    <path data-name="Path 53" d="M40.1 1367.221h-1.6a.625.625 0 1 1-.01-1.244h3.211a.624.624 0 1 1-.011 1.244c-.527.002-1.059 0-1.59 0z" transform="translate(-29.288 -1348.335)" style="fill:#d8d8d8"/>
</svg>
