<?xml version="1.0" encoding="UTF-8" standalone="no"?>
<!DOCTYPE svg PUBLIC "-//W3C//DTD SVG 1.1//EN" "http://www.w3.org/Graphics/SVG/1.1/DTD/svg11.dtd">
<svg xmlns="http://www.w3.org/2000/svg" version="1.1" viewBox="0 0 500 500">
<g stroke-width="2.00" fill="none" stroke-linecap="butt">

<path fill="#ffffff" d="M 299.819 74.038 C 296.843 77.391 296.334 97.288 297.333 100.153 C 301.8 112.942 306.969 125.361 312.841 137.412 C 312.902 137.537 312.963 137.537 313.024 137.412 C 318.639 125.737 323.639 113.74 328.024 101.419 C 329.076 98.463 329.944 95.439 330.628 92.349 C 331.342 89.119 331.354 86.064 330.662 83.185 C 329.325 77.615 326.559 73.422 322.365 70.608 C 320.184 69.146 317.801 68.228 315.216 67.854 C 309.365 67.008 304.232 69.069 299.819 74.038 Z M 207.821 197.194 L 295.114 171.117 C 295.236 171.08 295.357 171.08 295.476 171.117 C 303.657 173.569 311.912 174.233 320.241 173.11 C 323.251 172.702 325.755 172.219 327.753 171.66 C 330.852 170.788 333.81 169.466 336.629 167.696 C 337.933 166.875 339.03 165.793 339.92 164.45 C 340.787 163.145 341.121 161.782 340.923 160.362 C 340.763 159.211 340.21 158.055 339.264 156.894 C 338.25 155.652 337.011 154.628 335.546 153.824 C 332.468 152.133 329.409 150.936 326.369 150.232 C 321.704 149.149 317.002 148.628 312.261 148.671 C 309.546 148.694 307.009 148.841 304.65 149.111 C 301.615 149.462 298.62 150.095 295.663 151.01 C 292.608 151.954 289.769 153.421 287.145 155.41 C 285.991 156.283 285.103 157.416 284.48 158.81 C 283.857 160.198 283.815 161.628 284.354 163.099 C 284.448 163.354 284.317 163.642 284.08 163.702 C 254.558 171.325 225.016 178.971 195.456 186.64 C 195.428 186.646 195.077 186.753 194.403 186.961 C 193.318 187.294 192.252 187.304 191.204 186.99 C 186.627 185.619 182.117 184.703 177.676 184.241 C 167.204 183.158 156.874 184.039 146.689 186.884 C 142.131 188.158 137.926 190.292 134.075 193.285 C 132.878 194.217 131.86 195.351 131.021 196.685 C 129.448 199.191 129.302 201.815 130.583 204.557 C 131.284 206.057 132.173 207.293 133.248 208.265 C 135.5 210.3 138.054 211.921 140.908 213.127 C 146.508 215.49 152.289 217.021 158.249 217.72 C 163.44 218.324 168.642 218.504 173.856 218.258 C 177.674 218.076 181.441 217.563 185.157 216.719 C 185.413 216.661 185.68 216.689 185.924 216.8 L 310.694 273.602 C 310.807 273.654 310.847 273.811 310.774 273.918 C 310.357 274.537 309.949 275.156 309.55 275.774 C 307.072 279.629 307.22 283.381 309.996 287.033 C 310.119 287.198 310.06 287.449 309.882 287.525 C 267.07 305.526 224.197 323.527 181.26 341.53 C 180.386 341.898 179.284 342.056 177.955 342.005 C 172.027 341.777 165.599 342.077 158.673 342.907 C 151.774 343.734 144.991 345.225 138.323 347.38 C 135.819 348.19 132.912 349.383 129.603 350.959 C 125.366 352.975 121.681 355.58 118.549 358.776 C 116.658 360.706 115.338 362.857 114.588 365.229 C 113.701 368.037 113.859 370.871 115.064 373.73 C 115.811 375.504 116.9 377.18 118.328 378.759 C 119.406 379.954 120.855 381.205 122.675 382.514 C 126.948 385.59 131.616 387.98 136.68 389.685 C 145.259 392.576 153.839 394.382 162.421 395.103 C 171.178 395.838 179.932 395.83 188.684 395.077 C 189.645 394.995 190.75 394.854 191.998 394.654 C 193.098 394.477 194.199 394.31 195.3 394.154 C 202.826 393.084 210.154 391.102 217.281 388.205 C 220.1 387.062 222.82 385.677 225.441 384.049 C 227.911 382.518 230.147 380.639 232.148 378.413 C 233.922 376.437 235.074 374.484 235.602 372.554 C 236.672 368.637 236.139 365.024 234.001 361.714 C 233.896 361.552 233.947 361.323 234.107 361.231 L 340.663 300.486 C 340.816 300.4 340.986 300.36 341.155 300.371 C 343.969 300.557 346.413 300.702 348.488 300.807 C 355.059 301.141 361.603 300.822 368.12 299.849 C 373.014 299.12 377.81 297.912 382.51 296.227 C 385.126 295.29 387.901 293.916 390.834 292.105 C 392.636 290.996 394.198 289.678 395.52 288.149 C 397.076 286.353 398.029 284.504 398.38 282.599 C 398.736 280.681 398.512 278.836 397.709 277.065 C 397.119 275.765 396.1 274.397 394.651 272.96 C 393.06 271.384 391.297 270.064 389.362 269 C 384.556 266.361 379.517 264.495 374.248 263.403 C 368.439 262.197 363.093 261.482 358.207 261.256 C 355.807 261.148 353.267 261.118 350.585 261.166 C 346.175 261.252 341.637 261.681 336.973 262.453 C 336.736 262.491 336.506 262.464 336.282 262.372 L 205.4 208.222 C 205.2 208.141 205.146 207.852 205.301 207.688 C 206.399 206.53 207.229 205.19 207.791 203.668 C 208.487 201.778 208.398 199.869 207.524 197.942 C 207.387 197.643 207.532 197.28 207.821 197.194 Z" style="" transform="matrix(0.999888, 0.014935, -0.014935, 0.999888, 3.488409, -3.801762)"></path>

</svg>
