<svg data-name="Component 94 – 1" xmlns="http://www.w3.org/2000/svg" width="24" height="24" viewBox="0 0 24 24">
    <path data-name="Rectangle 87" style="fill:none" d="M0 0h24v24H0z"/>
    <path data-name="Path 226" d="M182.418 1209.125a1.768 1.768 0 0 1-.6.8c-1.326 1.135-2.644 2.281-3.969 3.418a.3.3 0 0 0-.115.343c.413 1.764.818 3.533 1.227 5.3a1.023 1.023 0 0 1-.384 1.148 1.055 1.055 0 0 1-1.242.03c-1.574-.929-3.149-1.853-4.718-2.789a.336.336 0 0 0-.4.007q-2.348 1.393-4.7 2.776a1.079 1.079 0 0 1-1.453-.215 1.047 1.047 0 0 1-.191-.927q.612-2.653 1.229-5.3a.34.34 0 0 0-.126-.391c-1.385-1.185-2.763-2.383-4.143-3.574a1.047 1.047 0 0 1 .577-1.871l3.3-.3c.765-.069 1.529-.139 2.294-.2a.238.238 0 0 0 .224-.169c.721-1.673 1.45-3.346 2.171-5.02a1.081 1.081 0 0 1 .945-.725 1.061 1.061 0 0 1 1.089.712c.664 1.53 1.348 3.053 1.978 4.6a.891.891 0 0 0 .895.655c1.642.111 3.279.289 4.919.417a1.193 1.193 0 0 1 1.193.888z" transform="translate(-160.418 -1198.909)" style="fill:#087c7c"/>
</svg>
