<svg xmlns="http://www.w3.org/2000/svg" width="44.001" height="50" viewBox="0 0 44.001 50">
  <g id="report_ads" data-name="report ads" transform="translate(-0.132 0.961)">
    <rect id="back" width="44" height="50" transform="translate(0.132 -0.961)" fill="none"/>
    <g id="property" transform="translate(0.132 -0.961)">
      <path id="Path_11805" data-name="Path 11805" d="M23.861,9.067h5.5L20.712.414v5.5a3.153,3.153,0,0,0,3.149,3.149" transform="translate(2.174 0.042)" fill="#087c7c" opacity="0.1"/>
      <path id="Path_11806" data-name="Path 11806" d="M26.026,10.659a4.732,4.732,0,0,1-4.737-4.708V0H5.355A5.343,5.343,0,0,0,0,5.335v33.33A5.343,5.343,0,0,0,5.355,44h21.29A5.343,5.343,0,0,0,32,38.665V10.659ZM9.22,16.324c.74-.55,5.455-4.081,6.3-4.719a.8.8,0,0,1,.95,0l5.112,3.828,1.193.891a.774.774,0,0,1,.166,1.089.794.794,0,0,1-1,.231v4.994a2.361,2.361,0,0,1-2.363,2.354H12.422a2.361,2.361,0,0,1-2.363-2.354V17.644A.784.784,0,0,1,9,17.292a.769.769,0,0,1,.221-.968M4.56,27.5H16a.788.788,0,0,1,.773.8.8.8,0,0,1-.773.77H4.56a.788.788,0,0,1-.773-.8.8.8,0,0,1,.773-.77m22.879,11H4.56a.788.788,0,0,1-.773-.8.8.8,0,0,1,.773-.77H27.44a.788.788,0,0,1,.773.8.8.8,0,0,1-.773.77m0-4.719H4.56a.781.781,0,0,1,0-1.562H27.44a.781.781,0,1,1,0,1.562" fill="#087c7c" opacity="0.1"/>
      <path id="Path_11807" data-name="Path 11807" d="M27.868,34.375a.8.8,0,0,1-.773.772H4.2a.789.789,0,0,1-.773-.8A.8.8,0,0,1,4.2,33.57H27.095a.789.789,0,0,1,.773.8" transform="translate(0.351 3.342)" fill="#087c7c"/>
      <path id="Path_11808" data-name="Path 11808" d="M27.868,30.084a.782.782,0,0,1-.773.772H4.2a.783.783,0,0,1,0-1.565H27.095a.78.78,0,0,1,.773.794" transform="translate(0.351 2.926)" fill="#087c7c"/>
      <path id="Path_11809" data-name="Path 11809" d="M16.393,25.8a.8.8,0,0,1-.772.772H4.2a.788.788,0,0,1-.772-.8A.8.8,0,0,1,4.2,25H15.62a.788.788,0,0,1,.772.8" transform="translate(0.351 2.499)" fill="#087c7c"/>
      <path id="Path_11810" data-name="Path 11810" d="M21.915,15.294l-1.19-.894-5.1-3.836a.794.794,0,0,0-.948,0c-.849.639-5.556,4.178-6.294,4.729a.772.772,0,0,0-.22.97.782.782,0,0,0,1.058.353v5a2.362,2.362,0,0,0,2.359,2.359h7.143a2.362,2.362,0,0,0,2.359-2.359v-5a.791.791,0,0,0,1-.231.778.778,0,0,0-.165-1.091" transform="translate(0.853 1.03)" fill="#087c7c"/>
    </g>
    <g id="worning" transform="translate(-0.068 -0.965)">
      <path id="Path_11812" data-name="Path 11812" d="M29.981,47.24a11.953,11.953,0,1,1,8.457-3.5,11.953,11.953,0,0,1-8.457,3.5Zm0-6.637a1.174,1.174,0,1,0,1.179,1.179A1.174,1.174,0,0,0,29.981,40.6m.917-2.849.622-8.488v-.18a1.541,1.541,0,0,0-1.539-1.453h-.091a1.561,1.561,0,0,0-1.451,1.64l.633,8.48Z" transform="translate(1.712 2.215)" fill="#ff4848"/>
      <path id="Path_11813" data-name="Path 11813" d="M30.04,23.927a11.41,11.41,0,0,1,11.4,11.408v.011a11.408,11.408,0,1,1-22.816-.011v-.011a11.408,11.408,0,0,1,11.4-11.4Zm-1.2,14.421h2.392a.239.239,0,0,0,.24-.218l.644-8.777a.965.965,0,0,0,0-.251,2.088,2.088,0,0,0-2.085-1.968H29.91a2.1,2.1,0,0,0-1.966,2.216l.656,8.78a.239.239,0,0,0,.24.218m1.171,5.2h.02a1.72,1.72,0,0,0,1.726-1.714V41.82a1.726,1.726,0,1,0-1.745,1.725m.033-20.71H30.03a12.5,12.5,0,1,0,.013,0m-.414,14.421-.6-7.985a1.012,1.012,0,0,1,.949-1.046h.049a1,1,0,0,1,1,.938v.047l.007.046-.593,8Zm.381,5.2a.643.643,0,1,1,.02,0Z" transform="translate(1.665 2.168)" fill="#fff"/>
      <path id="Path_11814" data-name="Path 11814" d="M30.855,40.374v.011a1.725,1.725,0,1,1,0-.011" transform="translate(2.57 3.61)" fill="#fff"/>
      <path id="Path_11815" data-name="Path 11815" d="M31.248,28.746a.968.968,0,0,1,0,.252L30.6,37.8a.239.239,0,0,1-.241.219h-2.4a.239.239,0,0,1-.241-.219L27.065,29a2.1,2.1,0,1,1,4.183-.252" transform="translate(2.538 2.52)" fill="#fff"/>
    </g>
  </g>
</svg>
