<svg xmlns="http://www.w3.org/2000/svg" width="24" height="24" viewBox="0 0 24 24">
    <rect data-name="Rectangle 4" width="24" height="24" rx="5" style="fill:none"/>
    <g data-name="Group 41">
        <path data-name="Path 44" d="M518.749 926.582a3.4 3.4 0 0 1-.455-.322q-2.463-2.41-4.916-4.831c-.041-.04-.084-.079-.135-.126-.056.039-.111.072-.161.111a8.461 8.461 0 0 1-13.141-4 7.477 7.477 0 0 1-.374-1.849 1.012 1.012 0 0 0-.034-.149v-1.093c.05-.333.091-.668.153-1a7.846 7.846 0 0 1 1.43-3.275A8.486 8.486 0 0 1 513.3 908.5a8.137 8.137 0 0 1 1.627 10.955c-.226.331-.483.642-.76 1.007a1.061 1.061 0 0 1 .168.115q2.465 2.421 4.926 4.845c.288.283.361.587.165.85a1.88 1.88 0 0 1-.4.314zm-17.921-11.964a7.272 7.272 0 0 0 .572 2.992 6.96 6.96 0 0 0 5.734 4.2 7.052 7.052 0 0 0 7.851-7.87 6.6 6.6 0 0 0-3.656-5.221 6.882 6.882 0 0 0-7.089.19 6.721 6.721 0 0 0-3.413 5.709z" transform="translate(-497.535 -904.582)" style="fill:#087c7c"/>
    </g>
</svg>
