<svg xmlns="http://www.w3.org/2000/svg" width="24" height="24" viewBox="0 0 24 24">
    <path data-name="Rectangle 86" style="fill:none" d="M0 0h24v24H0z"/>
    <g data-name="Group 339">
        <path data-name="Path 225" d="M739.34 1192.2a9.92 9.92 0 0 1 1.281.4 3.674 3.674 0 0 1 2.08 3.622 3.712 3.712 0 0 1-2.732 3.263 3.661 3.661 0 0 1-3.7-1.022 1.751 1.751 0 0 1-.131-.165l-.542.323q-2.728 1.625-5.458 3.247c-.148.088-.2.158-.135.335a3.336 3.336 0 0 1 .047 2.213l5.874 2.978a8.729 8.729 0 0 1 .75-.7 3.578 3.578 0 0 1 4.043-.349 3.529 3.529 0 0 1 1.979 3.476 3.748 3.748 0 0 1-7.449.283 3.363 3.363 0 0 1 .108-1.426c.032-.108.024-.171-.09-.228q-2.854-1.44-5.7-2.886a.426.426 0 0 0-.059-.017 3.729 3.729 0 0 1-3.311 1.531 3.554 3.554 0 0 1-2.428-1.13 3.658 3.658 0 0 1 .02-5.156 3.767 3.767 0 0 1 5.5.148l6.188-3.687a3.867 3.867 0 0 1-.254-1.5 3.736 3.736 0 0 1 3.211-3.5 1.409 1.409 0 0 0 .159-.041z" transform="translate(-720.716 -1190.755)" style="fill:#087c7c"/>
    </g>
</svg>
