<svg data-name="Component 92 – 1" xmlns="http://www.w3.org/2000/svg" width="24" height="24" viewBox="0 0 24 24">
    <path data-name="Rectangle 92" style="fill:none" d="M0 0h24v24H0z"/>
    <g data-name="Group 546">
        <path data-name="Path 412" d="M841.875 942.693h-7.72a2.146 2.146 0 0 1-2.279-2.272v-9.71a2.145 2.145 0 0 1 2.276-2.274h15.439a2.144 2.144 0 0 1 2.279 2.272v9.71a2.145 2.145 0 0 1-2.276 2.274zm-3.572-7.151v2.785a.716.716 0 0 0 1.11.684q2.762-1.373 5.522-2.75a.732.732 0 0 0 0-1.391q-2.763-1.371-5.522-2.75a.718.718 0 0 0-1.112.683l-.001 2.739z" transform="translate(-829.873 -920.693)" style="fill:#087c7c"/>
        <path data-name="Path 413" d="M864.39 880.5h7.692a1.459 1.459 0 0 1 .288.016.717.717 0 0 1-.1 1.417H856.641a.75.75 0 0 1-.763-.433.714.714 0 0 1 .6-1c.074-.006.149 0 .223 0z" transform="translate(-852.379 -875.627)" style="fill:#087c7c"/>
        <path data-name="Path 414" d="M886.932 832.564h6.347a.715.715 0 0 1 .723.962.694.694 0 0 1-.622.47c-.066.007-.134 0-.2 0h-12.516a1.444 1.444 0 0 1-.31-.019.718.718 0 0 1-.557-.76.707.707 0 0 1 .7-.653c.772-.007 1.544 0 2.316 0z" transform="translate(-874.921 -830.562)" style="fill:#087c7c"/>
        <path data-name="Path 415" d="m963.835 1019.816 3.4 1.7-3.4 1.7z" transform="translate(-953.974 -1006.665)" style="fill:#087c7c"/>
    </g>
</svg>
