<svg data-name="t-&amp;-C" xmlns="http://www.w3.org/2000/svg" width="24" height="24" viewBox="0 0 24 24">
    <path data-name="Rectangle 90" style="fill:none" d="M0 0h24v24H0z"/>
    <path data-name="Path 231" d="M442.667 1495.112v-2.265c.01-.063.023-.126.029-.19.108-1.165.185-2.334.329-3.495a5.251 5.251 0 0 1 3.985-4.321 24.874 24.874 0 0 1 4.523-.424 34.206 34.206 0 0 1 5.045.267 5.52 5.52 0 0 1 2.6.908 5.186 5.186 0 0 1 2.257 3.447 31.5 31.5 0 0 1 .346 6.246c-.013.348-.033.7-.051 1.059a5.1 5.1 0 0 0-7.13 7.132c-.495.022-.973.052-1.452.063a35.139 35.139 0 0 1-5.742-.336 5.315 5.315 0 0 1-4.3-3.986c-.186-.961-.251-1.946-.359-2.922-.047-.395-.055-.788-.08-1.183zm9.573-3.864h4.745a1.089 1.089 0 0 0 1.032-.754 1.115 1.115 0 0 0-.359-1.214 1.256 1.256 0 0 0-.823-.247h-9.2a2.288 2.288 0 0 0-.292.02 1.024 1.024 0 0 0-.695.394 1.105 1.105 0 0 0 .863 1.8q2.366.005 4.729.001zm-1.936 2.417h-2.812a1.088 1.088 0 0 0-1.085 1.06 1.106 1.106 0 0 0 1.194 1.153q2.685.006 5.37 0a1.506 1.506 0 0 0 .386-.046 1.1 1.1 0 0 0-.28-2.166c-.924-.006-1.849-.002-2.777-.002z" transform="translate(-440.667 -1482.41)" style="fill:#087c7c"/>
    <path data-name="Path 232" d="M676.916 1722.991c-.215-.046-.434-.083-.646-.14a3.992 3.992 0 1 1 1.54.106.678.678 0 0 0-.11.034zm1.138-3V1719.033a.744.744 0 1 0-1.488 0q-.006.958 0 1.916a.744.744 0 1 0 1.487 0c.004-.315.001-.635.001-.954zm-1.5-2.982c0 .631.127.764.747.764s.749-.131.751-.742c0-.638-.129-.767-.769-.76-.61.011-.725.129-.727.742z" transform="translate(-659.302 -1700.991)" style="fill:#087c7c"/>
</svg>
