<svg xmlns="http://www.w3.org/2000/svg" width="24" height="24" viewBox="0 0 24 24">
  <g id="Transaction_History" data-name="Transaction History" transform="translate(-0.6 -0.599)">
    <rect id="back" width="24" height="24" transform="translate(0.6 0.6)" fill="none"/>
    <path id="Path_11794" data-name="Path 11794" d="M8.88,2.4h8.64V4.8a4.32,4.32,0,0,0,4.32,4.32h1.68v5.057a6.975,6.975,0,0,0-6.206-.017H9.84a.48.48,0,1,0,0,.96h6.025a6.977,6.977,0,0,0-1.907,2.64H9.84a.48.48,0,1,0,0,.96h3.8a7.028,7.028,0,0,0-.138,2.64H9.84a.48.48,0,1,0,0,.96h3.868a6.977,6.977,0,0,0,3.162,4.08H8.88a3.6,3.6,0,0,1-3.6-3.6V6a3.6,3.6,0,0,1,3.6-3.6Zm2.313,3.84A1.839,1.839,0,0,0,9.36,8.086v2.308a1.839,1.839,0,0,0,1.833,1.846h1.375A1.839,1.839,0,0,0,14.4,10.394V8.086A1.839,1.839,0,0,0,12.567,6.24Zm4.887,4.44a.48.48,0,1,0,0,.96h3.36a.48.48,0,1,0,0-.96Z" transform="translate(-3.24 -1.801)" fill="#087c7c" fill-rule="evenodd"/>
    <path id="Path_11795" data-name="Path 11795" d="M23.507,8.16H21.84A3.36,3.36,0,0,1,18.48,4.8V2.41a1.934,1.934,0,0,1,1.3.7q.553.678,1.109,1.355h0c.741.9,1.483,1.809,2.214,2.722a1.92,1.92,0,0,1,.408.975Z" transform="translate(-3.24 -1.801)" fill="#087c7c"/>
    <path id="Path_11796" data-name="Path 11796" d="M26.4,20.4a6,6,0,1,1-6-6A6,6,0,0,1,26.4,20.4Zm-5.52-3.12a.48.48,0,0,0-.96,0v2.76H17.4a.48.48,0,0,0,0,.96h2.76a.72.72,0,0,0,.72-.72Z" transform="translate(-3.24 -1.801)" fill="#087c7c" fill-rule="evenodd"/>
  </g>
</svg>
