<svg xmlns="http://www.w3.org/2000/svg" width="24" height="24" viewBox="0 0 24 24">
  <g id="app_color" data-name="app color" transform="translate(2 2)">
    <rect id="Rectangle_1071" data-name="Rectangle 1071" width="24" height="24" transform="translate(-2 -2)" fill="none"/>
    <rect id="Rectangle_1069" data-name="Rectangle 1069" width="20" height="20" fill="none"/>
    <path id="Path_11400" data-name="Path 11400" d="M19.749,9.257v1.234a1.1,1.1,0,0,0-.032.149,9.517,9.517,0,0,1-1.611,4.679A9.738,9.738,0,0,1,11.594,19.6c-.364.068-.735.1-1.1.153H9.257c-.241-.03-.483-.055-.723-.09A9.9,9.9,0,0,1,.153,11.6c-.066-.365-.1-.736-.153-1.1V9.257c.028-.235.053-.471.086-.7a9.7,9.7,0,0,1,2.452-5.28A9.672,9.672,0,0,1,8.193.149C8.546.088,8.9.049,9.257,0h1.234a1.089,1.089,0,0,0,.148.032,9.39,9.39,0,0,1,4.172,1.3A9.748,9.748,0,0,1,19.6,8.173c.067.358.1.723.152,1.084M6.882,7.45c.049-.065.085-.116.126-.164a4,4,0,0,1,5.65-.4,4.058,4.058,0,0,1,1.309,2.28.649.649,0,0,0,.782.511.662.662,0,0,0,.51-.785A5.322,5.322,0,0,0,6.772,5.7c-.3.235-.568.514-.871.791-.138-.146-.284-.3-.429-.453A.349.349,0,0,0,5.081,5.9c-.165.058-.2.2-.223.35Q4.68,7.478,4.494,8.707c-.056.369.088.522.458.467.825-.124,1.65-.252,2.475-.375a.358.358,0,0,0,.331-.221.348.348,0,0,0-.134-.391c-.246-.242-.491-.487-.742-.737m5.847,5.4a3.918,3.918,0,0,1-2.467,1,4,4,0,0,1-4.05-2.922.658.658,0,1,0-1.258.366A5.316,5.316,0,0,0,13.277,14.1c.132-.1.259-.2.4-.318.148.155.287.3.422.443a.362.362,0,0,0,.406.148c.172-.061.2-.213.226-.371q.182-1.229.37-2.456c.05-.326-.09-.487-.413-.441-.845.119-1.689.247-2.534.369-.156.023-.289.07-.339.238a.357.357,0,0,0,.142.373c.251.246.5.495.768.76" fill="#087c7c"/>
  </g>
</svg>
