<svg xmlns="http://www.w3.org/2000/svg" width="360.72" height="245.549" viewBox="0 0 360.72 245.549">
  <g id="_360" data-name="360" transform="translate(-11 -200.45)">
    <path id="Path_13502" data-name="Path 13502" d="M360.73,156.59c-5.1,19.44-20.43,28.69-36.9,36.47-21.49,10.15-44.51,15.09-67.77,19.25-20.35,3.63-40.82,4.04-61.37,3.43-5.35-.16-8.72-3.11-8.67-7.64.05-4.58,3.39-7.4,8.83-7.36,7.63.05,15.27.49,22.88.19,33.65-1.33,66.43-7.25,97.49-20.58a92.791,92.791,0,0,0,22.31-13.77c11.14-9.26,10.83-18.73.18-28.53-8.43-7.76-18.65-12.53-29.19-16.59-6.11-2.36-12.43-4.19-18.62-6.36a7.413,7.413,0,0,1,1.13-14.43,7.767,7.767,0,0,1,3.11.2c16.09,4.52,31.66,10.3,45.62,19.73,10.08,6.8,18.06,15.26,20.96,27.56v8.45Z" transform="translate(10.99 200.462)"/>
    <path id="Path_13503" data-name="Path 13503" d="M142.15,200.87c-5.07-5.99-10.28-11.86-15.11-18.03a12.48,12.48,0,0,1-2.61-6.92c-.07-3.14,2.17-5.34,5.32-6.24,3.35-.96,5.98.33,8.11,2.84q9.69,11.4,19.34,22.85c1.82,2.15,3.67,4.27,5.44,6.47,3.03,3.75,3.16,7.61,0,11.17q-13.32,15.015-26.89,29.82a7.469,7.469,0,0,1-10.72.81c-3.2-2.85-3.38-7.37-.24-10.99,3.69-4.25,7.54-8.38,11.31-12.57.92-1.02,1.78-2.09,3.05-3.57-6.77-.76-13.02-1.4-19.25-2.18-28.01-3.55-55.56-9.01-81.53-20.58-10.56-4.7-20.49-10.45-28.51-19-12.99-13.86-13.16-30.44-.34-44.42,8.42-9.18,19.09-15.1,30.33-20.02,5.57-2.44,11.33-4.48,17.08-6.51,4.89-1.73,9.02-.03,10.52,4.05,1.58,4.3-.56,8.34-5.58,10.07-11.56,3.99-23,8.29-32.97,15.52a53.411,53.411,0,0,0-10.62,10.13c-4.51,5.76-4.25,11.52-.11,17.58,4.07,5.97,9.83,10.03,15.97,13.56,15.61,8.98,32.63,14.19,50.05,18.17,7.43,1.7,14.9,3.27,22.43,4.39,11.7,1.74,23.47,3.05,35.21,4.54.11-.32.22-.64.32-.96Z" transform="translate(10.99 200.462)"/>
    <path id="Path_13504" data-name="Path 13504" d="M211.32,99.74v-44c0-7.04,2.55-9.65,9.46-9.66q21.12-.03,42.24,0c6.64.01,9.4,2.75,9.41,9.44q.045,44.175,0,88.36c0,6.79-2.61,9.4-9.37,9.42q-21.3.045-42.59,0c-6.61-.02-9.14-2.6-9.15-9.19q-.03-22.17,0-44.35Zm15.08,38.31h30.7V61.48H226.4v76.58Z" transform="translate(10.99 200.462)"/>
    <path id="Path_13505" data-name="Path 13505" d="M149.68,61.18c-.11,1.1-.23,1.78-.23,2.46-.01,9.37,0,18.74,0,28.62h4.02c10.92,0,21.83-.02,32.75,0,6.79.02,9.36,2.59,9.38,9.39q.06,21.12,0,42.26c-.02,6.8-2.6,9.37-9.38,9.39q-21.3.045-42.61,0c-6.58-.02-9.09-2.6-9.09-9.24q-.015-44.37,0-88.74c0-6.52,2.68-9.21,9.18-9.23,11.97-.03,23.94-.05,35.92.02,4.52.03,7.4,2.38,8.12,6.29a7.2,7.2,0,0,1-4.32,8.01,15.454,15.454,0,0,1-5.17.74c-8.22.07-16.43.03-24.65.03h-3.9Zm-.09,76.95h30.69V107.5H149.59Z" transform="translate(10.99 200.462)"/>
    <path id="Path_13506" data-name="Path 13506" d="M103.5,138.3V107.25H85.11c-4.11,0-8.22.11-12.33-.05a7.318,7.318,0,0,1-7.36-7.41,7.062,7.062,0,0,1,7.24-7.44c8.8-.18,17.61-.08,26.41-.1h4.38V61.37c-1.19-.06-2.42-.19-3.65-.19-7.98-.02-15.97,0-23.95-.01-1.06,0-2.12.03-3.17-.07-4.48-.42-7.27-3.33-7.26-7.5a7.2,7.2,0,0,1,7.33-7.44q19.185-.24,38.39-.02c4.43.04,7.12,2.88,7.56,7.27.1,1.05.08,2.11.08,3.17v86.29c0,8.19-2.25,10.43-10.46,10.43-11.5,0-23.01.04-34.51-.02-4.68-.02-7.64-2.28-8.28-6.03-.84-4.95,2.52-8.87,7.87-8.92,8.69-.08,17.37-.02,26.06-.03h4.04Z" transform="translate(10.99 200.462)"/>
    <path id="Path_13507" data-name="Path 13507" d="M301.92.02c4.81,0,9.61-.06,14.42.01,5.7.09,8.46,2.81,8.49,8.41q.075,14.415,0,28.84c-.03,5.38-2.8,8.39-8.15,8.47q-14.6.21-29.19,0c-5.51-.07-8.35-3.09-8.39-8.66q-.09-14.25,0-28.49c.03-5.64,2.83-8.47,8.4-8.57,4.81-.08,9.61-.02,14.42-.02Zm7.81,15.24H294.48V30.35h15.25Z" transform="translate(10.99 200.462)"/>
  </g>
</svg>
