<?xml version="1.0" encoding="UTF-8"?><svg id="Layer_2" xmlns="http://www.w3.org/2000/svg" viewBox="0 0 392.79 340.02"><g id="Layer_1-2"><g id="one"><path d="m179.31,340.02c-46.2,0-84.29-.02-119.89-.06-28.26-.03-49.75-16.48-57.5-44-.53-1.88-.97-3.82-1.44-5.88-.16-.69-.32-1.39-.48-2.08v-11.43c1.55-14.21,9.1-26.23,17.1-38.94.85-1.36,1.71-2.71,2.55-4.07,6.76-10.87,13.59-21.94,20.2-32.65,2.85-4.62,5.69-9.23,8.55-13.85l26.25-42.48c23.28-37.67,47.35-76.63,70.99-114.97,8.15-13.23,18.22-21.74,30.77-26.03,6.98-2.38,14-3.59,20.87-3.59,20.01,0,37.98,10.46,49.32,28.71,26.48,42.6,53.25,86.02,79.14,128,7.16,11.61,14.31,23.21,21.47,34.82,1.67,2.7,2.27,5.47,1.71,7.8-.45,1.87-1.62,3.38-3.48,4.51-1.37.83-2.74,1.25-4.09,1.25-2.83,0-5.66-1.95-7.77-5.36l-6.32-10.23c-30.71-49.68-62.46-101.05-93.61-151.62-8.62-13.99-20.62-21.36-35.66-21.9-.61-.02-1.21-.03-1.81-.03-14.49,0-26.31,6.23-34.17,18.01-6.19,9.28-12.07,18.9-17.75,28.2-2.02,3.3-4.04,6.61-6.07,9.9-13.22,21.39-26.44,42.79-39.65,64.19-24.51,39.68-49.85,80.71-74.81,121.04-10.06,16.25-10.21,32.81-.44,47.9,7.13,11.01,18.16,17.49,31.9,18.73,1.49.14,2.9.15,4.33.15h146.55c42.42,0,84.83,0,127.26-.01,20.59,0,36.71-12.05,42.07-31.42,2.27-8.2,1.83-16.63-1.37-26.52-1.25-3.87-.15-7.37,2.96-9.36,1.35-.87,2.81-1.31,4.34-1.31,3.21,0,6.05,1.93,7.39,5.02,5.44,12.53,5.47,27.79.1,41.88-5.38,14.11-15.64,25.6-28.14,31.54-8.65,4.11-17.49,6.1-27.02,6.11l-60.19.02c-31.38,0-62.76.02-94.13.02Z"/><path d="m196.35,221.09c-1.35,0-2.72-.46-4.18-1.4-1.85-1.19-3.75-3.06-3.74-7.87.02-15.14.02-30.27.02-45.41,0,0,0-28.2,0-32.88,0-12.26-.02-24.95.04-37.41.02-3.63,1.36-5.87,4.48-7.48,1.25-.65,2.4-.96,3.53-.96,1.39,0,2.8.48,4.31,1.48,1.78,1.17,3.6,2.99,3.59,7.6-.03,13.61-.02,27.23-.02,40.84v33.27c0,13.87.01,27.74,0,41.61,0,3.76-1.27,5.96-4.36,7.59-1.3.69-2.49,1.02-3.65,1.02Z"/><path d="m196.32,276.9c-4.16-.07-7.83-3.77-7.84-7.92,0-2.07.83-4.05,2.35-5.58,1.53-1.54,3.52-2.38,5.6-2.38,2.12,0,4.1.85,5.61,2.37,1.51,1.53,2.34,3.54,2.32,5.65-.03,4.26-3.66,7.86-7.92,7.86h-.12Z"/></g></g></svg>